/* XPM */
static char *geometry[] = {
/* width height ncolors chars_per_pixel */
"16 16 4 1",
/* colors */
"  c #000000",
". c none",
"X c #00C0C0",
"o c #80C0C0",
/* pixels */
"                ",
"oooooooooooooooo",
"                ",
"................",
"........       .",
"........ XXXXX .",
"........       .",
"........ ooooo .",
"........ ooooo .",
"........ ooooo .",
"........ ooooo .",
".....           ",
".... ooooooooooo",
"... o           ",
". o ............",
"................"
};
