/* XPM */ 
static const unsigned char * result_xpm[] = {
"16 16 52 1",
" 	c None",
"!	c black",
"#	c #0E18FF",
"$	c #0062FF",
"%	c #00A4FF",
"&	c #6400FF",
"'	c #1C10FF",
"(	c #0036FF",
")	c #008EFF",
"*	c #00D0FF",
"+	c #00F2DF",
",	c #7A00FF",
"-	c #00BAFF",
".	c #00FF67",
"0	c #00FF25",
"1	c #33FF00",
"2	c #4E00FF",
"3	c #004CFF",
"4	c #00FED5",
"5	c #00FE93",
"6	c #00FF3B",
"7	c #19FF12",
"8	c #5FFF00",
"9	c #A0FE00",
":	c #E9EE00",
";	c #2A08FF",
"<	c #0020FF",
"=	c #0078FF",
">	c #0CFF1B",
"?	c #8BFF00",
"@	c #FF9600",
"A	c #00FEBF",
"B	c #00FF7D",
"C	c #FFAC00",
"D	c #FF6A00",
"E	c #00FF51",
"F	c #49FF00",
"G	c #E2FD00",
"H	c #F7D000",
"I	c #FF8000",
"J	c #FF4000",
"K	c #00E7EA",
"L	c #26FF09",
"M	c #75FF00",
"N	c #F0DF00",
"O	c #FF5500",
"P	c #FF1600",
"Q	c #FFC200",
"R	c #FF2B00",
"S	c #FF0B00",
"T	c #CCFD00",
"U	c #FF1000",
"                ",
"    !!!         ",
"  !!#$%!!       ",
"!!&'()*+!!!     ",
"!,!!$-!!.01!!   ",
"!2'3!!456789:!! ",
"!;<=!+!!>1?!!@! ",
"!#3%!AB6!!!:CD! ",
"!(=*!5E>F!GHIJ! ",
"!!%K!.0LM!NCOP! ",
"  !!!67F9!QIRS! ",
"    !!1MT!@OU!! ",
"      !!:!D!!   ",
"        !!!     ",
"                ",
"                "};