/* Created with The GIMP */
#define active_width 16
#define active_height 16
static unsigned char active_bits[] = {
   0x00, 0x00, 0x00, 0x00, 0x00, 0x00, 0xf8, 0x1f, 0x58, 0x16, 0x78, 0x1e,
   0x68, 0x13, 0xc8, 0x11, 0xc8, 0x11, 0x48, 0x13, 0x78, 0x1e, 0x58, 0x1a,
   0xf8, 0x1f, 0x00, 0x00, 0x00, 0x00, 0x00, 0x00 };
