/* XPM */
static char * advanced_xpm[] = {
"16 16 4 1",
" 	c None",
".	c #00123E",
"+	c #486193",
"@	c #99B8FF",
"                ",
"       ..       ",
"      .++.      ",
"   ...++++...   ",
"   .++.@@.++.   ",
"   .+@@@@@@+.   ",
"  .+.@@..@@.+.  ",
" .++@@.  .@@++. ",
" .++@@.  .@@++. ",
"  .+.@@..@@.+.  ",
"   .+@@@@@@+.   ",
"   .++.@@.++.   ",
"   ...++++...   ",
"      .++.      ",
"       ..       ",
"                "};
