/* XPM */
static char *ansys[]={
"32 30 58 1",
"h c #000000",
"P c #080808",
"O c #0d0d0c",
"J c #101010",
"T c #191819",
"I c #1a1919",
"U c #212021",
"H c #262625",
"l c #313031",
"s c #393839",
"B c #403f3d",
"w c #525052",
"Z c #5a5856",
"A c #5a595a",
"f c #626162",
"q c #666562",
"K c #727172",
"Q c #7b797b",
"m c #807e7b",
"g c #838183",
"1 c #8d8b87",
"t c #8f8c86",
"V c #959393",
"x c #9a9897",
"3 c #a29f9d",
"X c #a3a1a0",
"S c #a6a4a0",
"p c #a8a5a4",
"k c #b1aeac",
"y c #b6b3b0",
"G c #bfbcb8",
"C c #cdcac5",
"e c #cfcbc1",
"M c #d0cdc7",
"E c #d6d3cc",
"z c #d8d4cc",
"D c #d9d6cf",
"v c #dfdcd4",
"Y c #e6e2d9",
"d c #e7e3da",
"o c #e9e5dc",
"0 c #ece8de",
"j c #efebe1",
"2 c #f2eee3",
"F c #f5f1e6",
"N c #f7f2e7",
"L c #f8f4e8",
"R c #fbf7eb",
". c #ffd620",
"# c #ffd82d",
"b c #ffda3a",
"c c #ffdc46",
"i c #ffe160",
"n c #ffe57a",
"r c #ffe887",
"W c #ffea94",
"u c #ffeca0",
"a c #fffaee",
".........#####aaa######.........",
".......bbaaaaaaaaaaaaaab........",
".....ccaaaaddededededaaaccc.....",
".....aaaaaafghghghghfaaaaaa.....",
"...iiaaaaajhghghghghhjaaaaaii...",
"...aaaaaaakhghghghghlmaaaaaaa...",
".nnaaaaaaoghghghghghghoaaaaaan..",
".aaaaaaaapghghghghghghqaaaaaaar.",
".aaaaaaaasghghstghghghhaaaaaaaa.",
"uaaaaaaavhghghwaghghghhvaaaaaaau",
"aaaaaaaaxhghghyazhghghABaaaaaaaa",
"aaaaaaaaghghghCaafghghghDaaaaaaa",
"aaaaaaaEghghghFaaGghghghHaaaaaaa",
"aaaaaaaIghghJKaaaLghghghhaaaaaaa",
"aaaaaaMhghghhNaaaaghghghhMaaaaaa",
"aaaaaaghghghOaaaaaMhghghPQRaaaaa",
"aaaaaLghghghCaaaaaahghghghCaaaaa",
"aaaaaSghghghEaaaaaaTghghghSaaaaa",
"aaaaahghghfUaaaaaaaVghghghhaaaaa",
"aaaazhghghhxaaaaaaaCghghghhjaaaa",
"aaaaghghghhvaaaaaaavghghghlmaaaa",
"WaaaghghghhaaaaaaaaaXhghghghoaaW",
".aaYghghghqaaaaaaaaaYhghghghqaa.",
".aaZghghghCaaaaaaaaaahghghghhaa.",
".avhghghlm0aaaaaaaaaahghghghhva.",
".axhghghhCaaaaaaaaaaa1ghghghABa.",
".Dghghghh2aaaaaaaaaaa2ghghghgh3.",
".Fdededeeaaaaaaaaaaaaadedededed.",
".aaaaaaaaaaaaaaaaaaaaaaaaaaaaaa.",
".########aaaaaaaaaaaaaa########."};
