/* XPM */
static char * arrange_xpm[] = {
"16 16 8 1",
" 	c None",
".	c #000000",
"+	c None",
"@	c #CCCAB1",
"#	c #FFFFFF",
"$	c #827F58",
"%	c #FFFEEA",
"&	c #E8E7D0",
".......++.......",
".@@@##.++.@@@##.",
".$$$$$.++.$$$$$.",
".%%%%%.++.%%%%%.",
".%&&&&.++.%&&&&.",
".%&&&&.++.%&&&&.",
".%&&&&.++.......",
".%&&&&.+++++++++",
".%&&&&.+++++++++",
".%&&&&.++.......",
".%&&&&.++.@@@##.",
".%&&&&.++.$$$$$.",
".%&&&&.++.%%%%%.",
".%&&&&.++.%&&&&.",
".%&&&&.++.%&&&&.",
".......++......."};

