/* XPM */
static char * assembly_xpm[] = {
"16 16 8 1",
" 	c None",
".	c #9F9F9F",
"+	c #000000",
"@	c #C0C0C0",
"#	c #0C0C0C",
"$	c #99B8FF",
"%	c #739CFF",
"&	c #4C82FF",
"                ",
"   .+++.        ",
" .++@@@++.      ",
"++@@@@@@###.    ",
"+@++@@##$$$##.  ",
"+@@@##$$$$$$$#+ ",
"+@@@+%##$$$##&+ ",
"+@@@+%%%###&&&+ ",
"+@@@+%%%%#&&&&+ ",
"++@@+%%%%#&&&&+ ",
" .+++%%%%#&&&&+ ",
"   .##%%%#&&&## ",
"     .##%#&##.  ",
"       .###.    ",
"                ",
"                "};
