/* XPM */
static char * blankfile_xpm[] = {
"16 16 107 2",
"  	c None",
". 	c #B1C1D7",
"+ 	c #ADBDD3",
"@ 	c #A8B8CE",
"# 	c #A3B2C8",
"$ 	c #CDD5E1",
"% 	c #FEFEFE",
"& 	c #FDFEFE",
"* 	c #9BAABF",
"= 	c #354963",
"- 	c #A7B1C1",
"; 	c #AEBED4",
"> 	c #FDFDFE",
", 	c #FAFBFD",
"' 	c #FAFAFC",
") 	c #94A3B8",
"! 	c #B9C4D3",
"~ 	c #A6B2C1",
"{ 	c #AABAD0",
"] 	c #FBFCFE",
"^ 	c #FBFBFC",
"/ 	c #F8FAFC",
"( 	c #F7F7FB",
"_ 	c #F6F7FB",
": 	c #F4F5FA",
"< 	c #F7F8FC",
"[ 	c #92A1B6",
"} 	c #364A64",
"| 	c #A6B5CB",
"1 	c #F8F9FB",
"2 	c #F5F7FB",
"3 	c #F2F4FA",
"4 	c #EFF2F9",
"5 	c #EFF2FA",
"6 	c #EEF3FA",
"7 	c #A2B1C7",
"8 	c #F7F9FC",
"9 	c #F4F6FB",
"0 	c #F1F4FA",
"a 	c #EDF1F9",
"b 	c #EAEEF8",
"c 	c #E9EDF7",
"d 	c #E8EDFA",
"e 	c #E5EBF8",
"f 	c #9DADC2",
"g 	c #FCFCFD",
"h 	c #F7F8FB",
"i 	c #F3F6FB",
"j 	c #F0F3FA",
"k 	c #ECF0F9",
"l 	c #E8EDF8",
"m 	c #E4E9F6",
"n 	c #E3E9F6",
"o 	c #DEE6F6",
"p 	c #DEE7F7",
"q 	c #99A8BD",
"r 	c #F9FAFD",
"s 	c #F3F5FA",
"t 	c #EBEFF9",
"u 	c #E7ECF8",
"v 	c #E2E9F7",
"w 	c #DEE5F5",
"x 	c #DEE6F5",
"y 	c #DDE5F6",
"z 	c #D9E1F5",
"A 	c #95A4B9",
"B 	c #F4F7FC",
"C 	c #EAEEF9",
"D 	c #E6EBF7",
"E 	c #E1E8F7",
"F 	c #DCE5F5",
"G 	c #D8E1F4",
"H 	c #D8E1F5",
"I 	c #D2DDF3",
"J 	c #D2DEF4",
"K 	c #F2F5FB",
"L 	c #EDF1FA",
"M 	c #E6EBF8",
"N 	c #E0E6F6",
"O 	c #DBE3F5",
"P 	c #D6E0F4",
"Q 	c #D4DEF4",
"R 	c #CCD9F2",
"S 	c #ECF1FA",
"T 	c #E2E8F7",
"U 	c #DAE3F6",
"V 	c #D6DFF4",
"W 	c #D1DCF4",
"X 	c #CCD8F2",
"Y 	c #CAD7F2",
"Z 	c #C5D4F1",
"` 	c #C6D4F2",
" .	c #E7EDF8",
"..	c #DDE5F7",
"+.	c #D7E1F6",
"@.	c #D3DDF4",
"#.	c #CED9F3",
"$.	c #C1D0F0",
"%.	c #E1E8F8",
"&.	c #DCE5F7",
"*.	c #D2DDF4",
"=.	c #CDDAF3",
"-.	c #C9D6F2",
";.	c #C4D3F1",
">.	c #C0CFF0",
",.	c #BBCCEF",
"'.	c #DBE4F6",
"                                ",
". . . . . . . + + @ @ # $       ",
". % % % % % % % % & & * = -     ",
"; % % % > , , ' , , , ) ! = ~   ",
"{ % % ] ^ / / ( _ : < [ } } }   ",
"| % > , 1 2 2 3 3 4 5 6 [ [ }   ",
"7 % ' 8 9 0 0 a a b c d e [ =   ",
"f g h i j k k l l m n o p [ =   ",
"q r s 5 t u u v v w x y z [ =   ",
"A B 5 C D E E F F G H I J [ =   ",
"[ K L M N O O P P I Q I R [ =   ",
"[ S S T U V V W W X Y Z ` [ =   ",
"[  .v ..+.@.@.#.#.Y Y Z $.[ =   ",
"[ %.&.+.*.=.=.-.-.;.;.>.,.[ =   ",
"[ '.[ [ [ [ [ [ [ [ [ [ [ [ =   ",
"[ = = = = = = = = = = = = = =   "};
