#define browse.xbm_width 12
#define browse.xbm_height 12
static unsigned char browse.xbm_bits[] = {
   0x00, 0x00, 0x00, 0x00, 0x00, 0x00, 0x00, 0x00, 0x00, 0x00, 0x00, 0x00,
   0x00, 0x00, 0x00, 0x00, 0x66, 0x06, 0x66, 0x06, 0x00, 0x00, 0x00, 0x00};
