/* XPM */
static char * build_xpm[] = {
"34 34 3 1",
" 	c None",
".	c #2B52C6",
"+	c #FFFFFF",
"                                  ",
" ................................ ",
" ................................ ",
" ................................ ",
" ................................ ",
" ................................ ",
" ................................ ",
" .................+++++++++...... ",
" .................+++++++++...... ",
" .................++.....++...... ",
" .................++.....++...... ",
" ......+++++++++..++.....++...... ",
" ......+++++++++..++.....++...... ",
" ......++.....++..++.....++...... ",
" ......++.....++..+++++++++...... ",
" ......++.....++..+++++++++...... ",
" ......++.....++................. ",
" ......++.....++................. ",
" ......++++++++++++++++.......... ",
" ......++++++++++++++++.......... ",
" ......++.....++.....++.......... ",
" ......++.....++.....++.......... ",
" ......++.....++.....++.......... ",
" ......++.....++.....++.......... ",
" ......++.....++.....++.......... ",
" ......++++++++++++++++.......... ",
" ......++++++++++++++++.......... ",
" ................................ ",
" ................................ ",
" ................................ ",
" ................................ ",
" ................................ ",
" ................................ ",
"                                  "};
