/* XPM */
static char * calc_xpm[] = {
"16 16 31 1",
" 	c None",
".	c #938D73",
"+	c #7A7458",
"@	c #686447",
"#	c #555237",
"$	c #929292",
"%	c #FFFEEA",
"&	c #DDD7B8",
"*	c #312F20",
"=	c #9B9764",
"-	c #000000",
";	c #B8B8B8",
">	c #DAD8C5",
",	c #C1BE9F",
"'	c #787878",
")	c #393939",
"!	c #D1CAAB",
"~	c #D3D0C0",
"{	c #AFAA87",
"]	c #AAA57C",
"^	c #C6BE9D",
"/	c #ABABAB",
"(	c #F9F8DE",
"_	c #F2F0D5",
":	c #454545",
"<	c #6C6C6C",
"[	c #CCC9B5",
"}	c #EAE6C9",
"|	c #B7B394",
"1	c #8E8858",
"2	c #AFAB83",
"     ..++@@####$",
"    .%%%%%%%%%&*",
"    %%%%======&*",
"    ---;>,,,,,&*",
"   '-;)->,,,,,!*",
"   -->>>%%%%%%!*",
" ------>%~{%,]^*",
"  /-->>>%{{%]]^*",
"  '-->%%%%%((_^*",
"  :-<>,=([]_,=^*",
"  --/>==(]]}==^*",
"  -->>%%(_}}&&^*",
"---'>%,=_,=&|1^*",
"'-) >%==}==&11^*",
"    #&&!!^^^^^2*",
"    $**********$"};
