/* XPM */
static char *cfxlogo[]={
"32 30 510 2",
".s c #0000c5",
".y c #0000c9",
".C c #0005d0",
"bY c #0009ca",
".L c #000ade",
".t c #000bdc",
".1 c #000eda",
"#g c #000edd",
".S c #000ee8",
"bz c #0010d2",
".v c #0010dd",
".w c #0010de",
".u c #0010df",
".x c #0011df",
"ad c #0014e0",
"aw c #0016ce",
"#x c #0016e0",
".F c #001bd9",
"#P c #001be6",
"cq c #001bef",
".Q c #001ee0",
".P c #001fda",
"bX c #001feb",
".V c #0020da",
"#X c #0020ee",
"#a c #0022d9",
"#. c #0023d1",
".D c #0028c8",
"#r c #0028df",
"av c #002ae7",
".R c #002bef",
".5 c #002ce5",
".9 c #002de9",
".G c #0036eb",
"fv c #0037f4",
"#o c #0038cf",
"bc c #003fdc",
"ck c #0048e8",
"dW c #0130ef",
".W c #0137eb",
"fL c #023fd1",
"cN c #034bec",
".6 c #034eed",
"ae c #043fdb",
".K c #053cec",
".H c #053eec",
"#0 c #0626dc",
".I c #073dea",
".J c #073deb",
"#J c #082bdf",
"#b c #0839e9",
"am c #0a12e6",
"#6 c #0a1de0",
".X c #0a42ee",
"fw c #0a43ef",
"aQ c #0a51e3",
"#1 c #0b3be6",
".4 c #0b42dd",
".Y c #0c41eb",
".0 c #0c43ed",
".8 c #0c47ed",
"#m c #0c54ec",
".Z c #0d41ed",
"cS c #0d52eb",
"#f c #0f44eb",
"cr c #0f49f7",
"#d c #1044e8",
"#c c #1045eb",
"#e c #1144ea",
"ek c #1250ed",
"#j c #1254f5",
"cT c #1256f4",
"#n c #1344e6",
"#s c #153ced",
"el c #1551ee",
".7 c #1846f1",
"fc c #1940ed",
"#2 c #1b42ed",
"fx c #1b4eff",
"fu c #1c45e8",
"fy c #1d3df7",
"em c #1e58fb",
"#K c #1f3ff1",
"#u c #1f43e9",
"#t c #1f46eb",
"#w c #1f46ed",
"en c #1f5aed",
"#l c #1f5aef",
"#v c #2044ec",
"#3 c #2046f5",
"al c #223bef",
"au c #2264f3",
"cU c #2358eb",
"cl c #235ae5",
"#O c #2448f3",
"#k c #2464f1",
"dX c #2549f9",
"ej c #254cf2",
".O c #2753dd",
"ak c #2842e4",
"#L c #284aee",
"fd c #2945f9",
"#M c #2949e9",
"#A c #2a74eb",
"#N c #2b4ae7",
"#4 c #2b4eef",
"eH c #2b57ec",
"#E c #2c6af1",
"cR c #2e6bee",
"bW c #316ef3",
"#B c #317eff",
"cs c #335ef6",
"fM c #335fd8",
"da c #347cf8",
"cp c #355fda",
"#5 c #3950ea",
"#D c #3a77f3",
"bb c #3b78ff",
".B c #3c67d8",
"db c #3c7deb",
"cu c #3e60f3",
"ct c #3f5dff",
"ba c #3f7bec",
"bA c #4163e8",
"#C c #417df6",
"cv c #425def",
"aj c #4554e5",
"b1 c #4647ed",
"eI c #4667f0",
"cM c #4878f0",
"d1 c #495cf5",
"#S c #498af8",
"aR c #4b76f1",
"#W c #4b8bfc",
"dY c #4c5cf6",
"fz c #4c67e3",
"#F c #4c7ef3",
"fh c #4d41f8",
"#p c #4d6fd4",
"#V c #4d8afc",
"ac c #4d90ed",
"eG c #4e58f1",
"de c #515bf3",
"ei c #5175d3",
"#T c #5295f4",
"bo c #535af4",
"#U c #538ff1",
"dZ c #5460f9",
"fe c #5461f5",
"bx c #549df6",
"bq c #5539f4",
"by c #5691ff",
"dw c #569cff",
"d0 c #5860f8",
"aH c #5954ea",
"bp c #595af4",
"dz c #5c55e7",
"ff c #6065f6",
"bR c #60b1fa",
"cG c #62aae9",
"dv c #62b0fd",
"fK c #637ee1",
"b2 c #6459f3",
"aP c #64a6f7",
"#9 c #64aefc",
"df c #666bf7",
"ax c #6786e1",
"bC c #6a41f5",
"bn c #6b54f9",
"cQ c #6b88f4",
"a6 c #6ba7e2",
"aa c #6bb0ff",
"b5 c #6c69fa",
"ds c #6cabf5",
"fg c #6e5cfa",
"a. c #6eb2ff",
"cF c #7093df",
"a# c #70b4ff",
"eo c #7164f1",
"a5 c #718dde",
"bw c #71a5f9",
"a4 c #7254ea",
"b3 c #7266fb",
"#i c #7288ee",
"ag c #736ae5",
"dS c #73b7ff",
"dd c #745dfa",
".n c #7490e3",
"ap c #74b7fa",
"bT c #75b3fa",
"bS c #75baf9",
"ab c #76b0ff",
"b4 c #776aed",
"d# c #77b2f7",
"bO c #793ff0",
"dA c #795df6",
"b6 c #7961f1",
".h c #799de4",
"bU c #79b7ff",
"dE c #7a63f8",
"cj c #7bb7fd",
"ai c #7c77ed",
"dV c #7c91e9",
"bL c #7e68eb",
"fi c #7e81eb",
"dP c #7ec2ff",
"du c #7fb8f5",
"e3 c #8053f3",
"ar c #80bdff",
"eY c #816dee",
"bV c #81caff",
"bM c #8367ec",
"dR c #83bdff",
"ez c #83bef2",
"eZ c #8460ff",
"bD c #8551ff",
"cn c #8599e9",
"ef c #85b9f8",
"as c #85c6ff",
"dD c #8768f5",
"a7 c #87b7f8",
"eA c #87b8f3",
"aq c #87bfff",
"bK c #8872ea",
"dt c #88bffc",
"at c #89caff",
"dB c #8a6bf9",
".i c #8aa7f1",
"ch c #8ac2ff",
"bZ c #8ba8e5",
"dQ c #8bc0ff",
"dT c #8cbaf8",
"cV c #8d65f9",
"ah c #8d86f5",
"cg c #8fc6ff",
".T c #90a5e8",
".k c #90acee",
".m c #90adf0",
"e0 c #916bfe",
".l c #92acef",
"cm c #92b5e8",
"bG c #9369ff",
"cH c #93c0ff",
"ea c #93c7f7",
"dC c #9469f6",
".j c #94a8f2",
"ee c #94c8ff",
"bN c #9562f1",
"bt c #95c4fe",
"cf c #96c3fe",
"bJ c #977fe9",
"b0 c #979cf3",
".z c #97afe6",
"e2 c #9864f6",
"bF c #986bfa",
"e1 c #986efc",
"ci c #99d6ff",
"bE c #9a65f8",
"cP c #9ab3e2",
"aN c #9ac8fd",
"d2 c #9b6cf3",
"bm c #9c5dff",
"ft c #9ca6cb",
"c8 c #9ecfff",
"#R c #9fbbf9",
"dO c #9fcafb",
"aM c #a0c8ff",
"aL c #a0cbfc",
"e4 c #a171fe",
"eb c #a1caff",
"ce c #a1cefb",
"b# c #a1ceff",
"cc c #a259f8",
"bH c #a265f6",
"e# c #a2abec",
"ed c #a3d1ff",
"ec c #a3d7ff",
"bf c #a466ec",
"aK c #a4cbff",
"di c #a565f6",
"aO c #a5d9ff",
"eD c #a7d1fc",
"cL c #a9d9ff",
"dx c #aacdf7",
"bI c #ab7af1",
".3 c #adbdd5",
".M c #aec5f4",
"dh c #b06aff",
"bB c #b0a5f2",
"fb c #b1bde4",
"cO c #b1c4f1",
"eL c #b264ff",
"eB c #b2d2fd",
"eC c #b2d7ff",
"cI c #b2deff",
"a3 c #b37ef6",
"cK c #b3d6ff",
"bv c #b3dbfc",
"bg c #b451ff",
"ao c #b4d2f8",
"#h c #b5c7f2",
".2 c #b5c8ef",
"aG c #b79cf5",
"ey c #b7b5ee",
"c7 c #b7d2f7",
"a8 c #b7dbff",
"dF c #b86efa",
"dg c #b86eff",
"eJ c #b96fff",
"cb c #b986fd",
".N c #b9cdf2",
"#y c #bac9f2",
"cJ c #bad4ff",
"#Q c #bbcbef",
"eM c #bc65fb",
"cw c #bc71fd",
"cE c #bc7bf5",
"#7 c #bcccf1",
"b. c #bcdffa",
"dy c #bdbef7",
"dj c #be72f0",
"d. c #c0e1ff",
"a9 c #c1dcfe",
"bu c #c3e9fe",
"bh c #c466fd",
"bl c #c46aff",
"bQ c #c4e8f9",
"aI c #c7d1ff",
".q c #c7d2eb",
"bj c #c86eff",
"#Y c #c8ccf0",
"bi c #ca6cff",
"eK c #cb69ff",
"aS c #cbdeea",
"aU c #cc82ef",
"bk c #ce6eff",
"fJ c #ced5f6",
"c9 c #ceebff",
"aV c #cf54f7",
"b7 c #cf7af9",
".p c #cfddf2",
"an c #d0cef2",
"eE c #d2e8fa",
"c6 c #d2edf4",
"eF c #d3ddfa",
"cY c #d468ff",
"cX c #d674ff",
"aW c #d95bff",
"es c #d967ff",
"a2 c #d97ff6",
"br c #dbd8fd",
"#z c #dbeaf8",
"bs c #dbeaf9",
"eg c #dbeefc",
"er c #dc6bff",
"cZ c #dd62ff",
"e. c #dd82f1",
"ca c #dea2fb",
"eN c #df79f6",
".A c #e0e3f5",
"dr c #e1f0fc",
"be c #e2cdf6",
".o c #e2e4f0",
"## c #e2eafd",
"c2 c #e37eff",
"c0 c #e571ff",
"eW c #e5f9ff",
"c4 c #e66cf8",
"et c #e66cff",
"c5 c #e6cbfa",
"cW c #e778ff",
"c1 c #e77bff",
"eq c #e870ff",
"ep c #e87aff",
"c3 c #e87ffc",
"dk c #e88bff",
"eV c #e8f3fd",
"bP c #e9d9f1",
"aX c #ea64ff",
"e5 c #ec87db",
"dc c #eedafb",
"eu c #ef77f8",
"az c #ef85f8",
"eX c #efeefc",
".r c #f0f3fc",
"eh c #f0f7f7",
"#8 c #f0fdfc",
"aJ c #f0ffff",
"fP c #f169a1",
"d5 c #f180ff",
"dn c #f18fff",
"ex c #f26fe3",
"dp c #f277ff",
"dm c #f28ffe",
"bd c #f2f7f8",
"cz c #f370fc",
"a1 c #f377ff",
"fY c #f3f5e8",
"fN c #f3f8f8",
"ev c #f481ed",
"f6 c #f4a5c7",
"d6 c #f58aff",
"d7 c #f597ff",
"dK c #f59dfa",
"f# c #f66ece",
"dl c #f691ff",
"c# c #f6b8ff",
"aY c #f768fa",
"eO c #f78bf0",
"fa c #f7dff1",
"f0 c #f8afc9",
"fZ c #f8fbfa",
"eQ c #f98ede",
"fq c #f9ddf5",
"fp c #fa6dcc",
"fG c #fa6eb2",
"ew c #fa86eb",
"do c #fa8eff",
"ay c #fad3fb",
"aT c #faeffb",
"fs c #fafeff",
"cA c #fb73fe",
"dL c #fb8bff",
"f7 c #fbe7f2",
"fj c #fbf9fd",
"fr c #fbffff",
"fV c #fc569d",
"fA c #fc7bba",
"f. c #fc8bde",
"eR c #fc8be1",
"e9 c #fc8ddb",
"fm c #fc8fd0",
"fn c #fc8fd6",
"d8 c #fca9ff",
"cD c #fcaaff",
"f5 c #fcb3d1",
"fH c #fcddef",
"eU c #fcfafe",
".f c #fcfffa",
"e8 c #fd8ddb",
"eP c #fd8ee5",
"dG c #fda9ff",
"dJ c #fdacfa",
"f1 c #fdb1d1",
"#H c #fdfefc",
"#Z c #fdfeff",
"co c #fdffff",
"aZ c #fe6aff",
"cy c #fe6efc",
"fC c #fe8bc5",
"fo c #fe8dd7",
"f3 c #feb5d1",
"f4 c #feb5d2",
"fW c #fecbe7",
".# c #fefefd",
"Qt c #fefefe",
".c c #fefeff",
"dU c #fefffc",
"fX c #fefffe",
"#q c #feffff",
"fQ c #ff6bad",
"fU c #ff6ead",
"eS c #ff6edd",
"dM c #ff6ff2",
"fR c #ff70ad",
"fT c #ff70b0",
"fS c #ff72af",
"a0 c #ff73ff",
"d3 c #ff75ff",
"aA c #ff76fb",
"d4 c #ff76ff",
"cx c #ff79ff",
"fl c #ff82d3",
"fB c #ff83ca",
"cB c #ff84ff",
"aB c #ff89ff",
"fD c #ff8bc5",
"fF c #ff8bc8",
"fE c #ff8bc9",
"e7 c #ff8fd9",
"fk c #ff90c6",
"e6 c #ff90d2",
"cC c #ff99ff",
"b8 c #ffa5ff",
"aC c #ffa6ff",
"d9 c #ffadff",
"f2 c #ffb3d1",
"b9 c #ffb7ff",
"dI c #ffb8ff",
"dH c #ffbaff",
"aD c #ffbbff",
"c. c #ffbeff",
"aF c #ffc0ff",
"aE c #ffc5ff",
"cd c #ffe7f8",
"eT c #ffe8fa",
"dq c #ffe8ff",
"dN c #ffedfa",
"fO c #fffcfe",
"af c #fffdf9",
"fI c #fffdff",
"#G c #fffefe",
".b c #fffeff",
".e c #fffff8",
"#I c #fffff9",
".g c #fffffb",
".U c #fffffc",
".E c #fffffd",
".d c #fffffe",
".a c #ffffff",
"QtQtQtQtQtQtQtQtQtQtQtQtQtQtQtQtQtQtQtQtQtQtQtQtQtQtQtQt.#QtQtQt",
"QtQtQtQtQtQtQtQtQt.a.a.a.a.a.a.a.a.a.a.a.b.b.c.d.a.a.a.a.e.f.aQt",
"QtQtQtQtQtQtQtQtQt.a.g.h.i.j.k.l.m.n.o.a.c.b.a.a.a.a.p.q.a.a.aQt",
"QtQtQtQtQtQtQtQtQt.a.r.s.t.u.v.w.x.y.z.a.a.a.a.a.A.B.C.D.a.d.aQt",
"QtQtQtQtQtQtQtQtQt.a.E.F.G.H.I.J.K.L.M.a.a.d.N.O.P.Q.R.S.T.a.aQt",
"QtQtQtQtQtQtQtQtQt.a.U.V.W.X.Y.Z.0.1.2.a.a.3.4.5.6.7.8.9#.##.aQt",
"QtQtQtQtQtQtQtQtQt.a.U#a#b#c#d#e#f#g#h.a.a.a#i#j#k#l#m#n#o#p.aQt",
"QtQtQtQtQt.b.b.b#q.a.d#r#s#t#u#v#w#x#y.a.a#z#A#B#C#D#E#F.a.g.aQt",
"QtQtQtQt#G.b#H.a#q.E#I#J#K#L#M#N#O#P#Q.a.a#R#S#T#U#V#W#X#Y.a.aQt",
"QtQtQtQt#G#Z.b.a.a.a#q#0#1#2#3#4#5#6#7.a#8#9a.a#aaabacadae.a.aQt",
"QtQtQtQt#G.d.a.a.a.aafagahaiajakalaman.aaoapaqarasatauavawax.aQt",
"Qt#G#G#G.d.a.a.aayazaAaBaCaDaEaFaGaHaIaJaKaLaMaNaOaPaQaR.EaS.aQt",
"Qt.b.c.a.a.aaTaUaVaWaXaYaZa0a1a2a3a4a5a6a7a8a9b.b#babbbcbd.a.aQt",
"Qt.b.E.a.abebfbgbhbibjbkblbmbnbobpbqbr.absbtbubvbwbxbybzbA.a.aQt",
"Qt.a.a.abBbCbDbEbFbGbHbIbJbKbLbMbNbObP.abQbRbSbTbUbVbWbXbYbZ.a.a",
"Qt.a.ab0b1b2b3b4b5b6b7b8b9c.c#cacbcccd.acecfcgchcicjckclcmcn.aQt",
"QtcocpcqcrcsctcucvcwcxcyczcAcBcCcDcEcFcGcHcIcJcKcLcMcNcO.a.a.aQt",
"Qt.EcPcQcRcScTcUcVcWcXcYcZc0c1c2c3c4c5c6c7c8c9d.d#dadb.a.a.a.aQt",
"Qt.a.a.adcdddedfdgdhdidjdkdldmdndodpdq.adrdsdtdudvdwdx.a.a#q.cQt",
"Qt.a.adydzdAdBdCdDdEdFdGdHdIdJdKdLdMdN.adOdPdQdRdSdT.a.d.adU.cQt",
"Qt.adVdWdXdYdZd0d1d2d3d4d5d6d7d8d9e.e#eaebecedeeefeg.a.a.c.c.cQt",
"QteheiejekelemeneoepeqereseteuevewexeyezeAeBeCeDeE.a.a.dQtQtQtQt",
"Qt.a.a.aeFeGeHeIeJeKeLeMeNeOePeQeReSeT.a.aeUeVeW.a.U.aQtQtQtQtQt",
"Qt.a.aeXeYeZe0e1e2e3e4e5e6e7e8e9f.f#fa.a.a.a.a.a.d.a.a.aQt.aQtQt",
"Qt.afbfcfdfefffgfhfifjfkflfmfnfnfofpfq.afr.a#q.c.bfs#GQtQt.aQtQt",
"Qt.aftfufvfwfxfyfz.a.afAfBfCfDfEfFfGfH.afIfI#q.c#G#G#GQtQtQtQtQt",
"Qt.a.a.afJfKfLfMfN.afOfPfQfRfSfTfUfVfW.a.a#qfXQtQtQtQtQtQtQtQtQt",
"Qt.d.a.a.a.afYfZ.a.a#Zf0f1f2f3f4f5f6f7fr.b.bQtQtQtQtQtQtQt.aQtQt",
"QtQtQt.d.a.a.a.a.a.a#q.a.a.a.a.a.a.a.aco#GQtQt.a.a.a.a.a.a.a.aQt",
"QtQt.a.a.a.a.a.a.a.a.a.a.a.a.a.a.a.a.a.a.a.a.a.aQtQtQtQtQtQtQtQt"};
