/* XPM */
static char * cgnsfile_xpm[] = {
"16 16 117 2",
"  	c None",
". 	c #B1C1D7",
"+ 	c #ADBDD3",
"@ 	c #A8B8CE",
"# 	c #A3B2C8",
"$ 	c #CDD5E1",
"% 	c #FEFEFE",
"& 	c #FDFEFE",
"* 	c #9BAABF",
"= 	c #354963",
"- 	c #A7B1C1",
"; 	c #AEBED4",
"> 	c #FDFDFE",
", 	c #FAFBFD",
"' 	c #FAFAFC",
") 	c #94A3B8",
"! 	c #B9C4D3",
"~ 	c #A6B2C1",
"{ 	c #AABAD0",
"] 	c #FBFCFE",
"^ 	c #FBFBFC",
"/ 	c #F8FAFC",
"( 	c #F7F7FB",
"_ 	c #F6F7FB",
": 	c #F4F5FA",
"< 	c #F7F8FC",
"[ 	c #92A1B6",
"} 	c #364A64",
"| 	c #A6B5CB",
"1 	c #FEECB2",
"2 	c #FEE38F",
"3 	c #FBECBC",
"4 	c #F8F8F7",
"5 	c #F5F7FB",
"6 	c #F2F4FA",
"7 	c #EFF2F9",
"8 	c #EFF2FA",
"9 	c #EEF3FA",
"0 	c #A2B1C7",
"a 	c #FECD31",
"b 	c #8C83A0",
"c 	c #2D0090",
"d 	c #AAA4B8",
"e 	c #EDF1F9",
"f 	c #E8EDFA",
"g 	c #E5EBF8",
"h 	c #9DADC2",
"i 	c #F1D887",
"j 	c #EFE0B0",
"k 	c #F6E3A7",
"l 	c #F4E09D",
"m 	c #E8ECF3",
"n 	c #E8EDF8",
"o 	c #E3E9F6",
"p 	c #DEE6F6",
"q 	c #DEE7F7",
"r 	c #99A8BD",
"s 	c #F1F1F2",
"t 	c #F0E7C8",
"u 	c #EBEFF8",
"v 	c #F8CE4C",
"w 	c #E3E7EA",
"x 	c #DEE5F5",
"y 	c #DDE5F6",
"z 	c #D9E1F5",
"A 	c #95A4B9",
"B 	c #F4F3EC",
"C 	c #E4E5E2",
"D 	c #F3D162",
"E 	c #D2DDF3",
"F 	c #D2DEF4",
"G 	c #F0F3F9",
"H 	c #ECE0B9",
"I 	c #EFD990",
"J 	c #E6DCB9",
"K 	c #EFD37B",
"L 	c #F4CE55",
"M 	c #EBD27D",
"N 	c #F4D058",
"O 	c #F0D067",
"P 	c #D4DEF4",
"Q 	c #CCD9F2",
"R 	c #ECF1FA",
"S 	c #EAEFF7",
"T 	c #E0DAC5",
"U 	c #F3CE53",
"V 	c #F7CE49",
"W 	c #F3CE5A",
"X 	c #F9CC3C",
"Y 	c #FFCA21",
"Z 	c #FECA23",
"` 	c #CDD7E9",
" .	c #C5D4F1",
"..	c #C6D4F2",
"+.	c #E7EDF8",
"@.	c #E2E9F7",
"#.	c #DDE4F6",
"$.	c #D7DDEA",
"%.	c #E0D5B1",
"&.	c #EED070",
"*.	c #F6CD4A",
"=.	c #F0CF65",
"-.	c #CBD7EF",
";.	c #C1D0F0",
">.	c #E1E8F8",
",.	c #DCE5F7",
"'.	c #D7E1F6",
").	c #D2DDF4",
"!.	c #CDDAF2",
"~.	c #CFD9EC",
"{.	c #CFD6E6",
"].	c #D1D7E4",
"^.	c #CAD4E8",
"/.	c #C4D3F1",
"(.	c #C0CFF0",
"_.	c #BBCCEF",
":.	c #DBE4F6",
"                                ",
". . . . . . . + + @ @ # $       ",
". % % % % % % % % & & * = -     ",
"; % % % > , , ' , , , ) ! = ~   ",
"{ % % ] ^ / / ( _ : < [ } } }   ",
"| 1 2 3 4 5 5 6 6 7 8 9 [ [ }   ",
"0 a b c d d c b e b c f g [ =   ",
"h i c j k c l m n c o p q [ =   ",
"r s c t u c v c w x c y z [ =   ",
"A B b c d C c c D c b E F [ =   ",
"[ G H I J K L M N O P E Q [ =   ",
"[ R S T U V W X Y Z `  ...[ =   ",
"[ +.@.#.$.%.&.*.X =.-. .;.[ =   ",
"[ >.,.'.).!.~.{.].^./.(._.[ =   ",
"[ :.[ [ [ [ [ [ [ [ [ [ [ [ =   ",
"[ = = = = = = = = = = = = = =   "};
