/* XPM */ 
static const unsigned char * checkered_xpm[] = {
"8 8 3 1",
" 	c None",
"!	c #636563",
"#	c white",
"!!!!####",
"!!!!####",
"!!!!####",
"!!!!####",
"####!!!!",
"####!!!!",
"####!!!!",
"####!!!!"}