/* XPM */
static char * wb_new_xpm[] = {
"16 16 66 1",
" 	c None",
".	c None",
"+	c #DFDFDF",
"@	c #DCDCDC",
"#	c #DADADA",
"$	c #D7D7D7",
"%	c #D4D4D4",
"&	c #D2D2D2",
"*	c #CFCFCF",
"=	c #CCCCCC",
"-	c #BFBFBF",
";	c #FFFFFF",
">	c #DDDDDD",
",	c #B8B8B8",
"'	c #FFCC00",
")	c #F3F3F3",
"!	c #B2B2B2",
"~	c #FFCC66",
"{	c #FFFF00",
"]	c #F2F2F2",
"^	c #ACACAC",
"/	c #FFFF99",
"(	c #989898",
"_	c #949494",
":	c #909090",
"<	c #8C8C8C",
"[	c #787878",
"}	c #FEFEFF",
"|	c #FDFDFF",
"1	c #FCFCFF",
"2	c #FBFBFF",
"3	c #FAFAFF",
"4	c #F8F8FF",
"5	c #727272",
"6	c #F7F7FF",
"7	c #6E6E6E",
"8	c #F9F9FF",
"9	c #F6F6FF",
"0	c #F5F5FF",
"a	c #696969",
"b	c #F4F4FF",
"c	c #656565",
"d	c #C7C7C7",
"e	c #F2F2FF",
"f	c #5F5F5F",
"g	c #C4C4C4",
"h	c #F3F3FF",
"i	c #F0F0FF",
"j	c #5A5A5A",
"k	c #C2C2C2",
"l	c #F1F1FF",
"m	c #EFEFFF",
"n	c #EDEDFF",
"o	c #565656",
"p	c #BEBEBE",
"q	c #ECECFF",
"r	c #515151",
"s	c #BCBCBC",
"t	c #E9E9FF",
"u	c #4C4C4C",
"v	c #B9B9B9",
"w	c #EBEBFF",
"x	c #E7E7FF",
"y	c #484848",
"z	c #7D7D7D",
"A	c #474747",
"...+@#$%&*=-....",
"...@;;;;;;;>,...",
"...#;;;;;;;@)!..",
"...$;;;;;;;#;]^.",
"...%;;;;;;;(_:<[",
"...&;;;;;}|12345",
"...*;;;;;|123467",
"...=;;;}|128490a",
"...d;;}1228490bc",
"...d}}1238690bef",
"...g|1238690heij",
"...k1284690hlmno",
"...p28469belmnqr",
"...s8460belmnqtu",
"...v490helmnwtxy",
"...z[57acfjoruyA"};
