/* XPM */
static char * close_xpm[] = {
"16 16 30 1",
" 	c None",
".	c #C59497",
"+	c #B96D6D",
"@	c #B86767",
"#	c #B86D6D",
"$	c #C59698",
"%	c #C17B7B",
"&	c #BF7777",
"*	c #D7ACAC",
"=	c #F8F6F6",
"-	c #CB9292",
";	c #C78888",
">	c #F6F3F3",
",	c #D9B0B0",
"'	c #C17C7C",
")	c #FBFBFB",
"!	c #FAF8F8",
"~	c #C58282",
"{	c #CB9393",
"]	c #FFFFFF",
"^	c #FBFAFA",
"/	c #F9F5F5",
"(	c #D19F9F",
"_	c #FDFCFC",
":	c #BF7878",
"<	c #C48181",
"[	c #DFBEBE",
"}	c #B86C6C",
"|	c #C48282",
"1	c #C69698",
"                ",
"  .+@@@@@@@@#$  ",
" .@@@@@@@@@@@@$ ",
" +@@@%@@@@&@@@+ ",
" @@@*=-@@;>,@@@ ",
" @@'=)=-;>)!~@@ ",
" @@@{=]^/]!(@@@ ",
" @@@@{^]]_(@@@@ ",
" @@@@;/]]^-@@@@ ",
" @@@;>]_^]=-@@@ ",
" @@:>)!({=)=<@@ ",
" @@@,!(@@{=[@@@ ",
" }@@@~@@@@|@@@# ",
" .@@@@@@@@@@@@$ ",
"  $}@@@@@@@@}1  ",
"                "};
