/* XPM */
static char * cmatedit_xpm[] = {
"16 16 13 1",
" 	c None",
".	c #000000",
"+	c #FFFFFF",
"@	c #CFCFCF",
"#	c #9C9C9C",
"$	c #E2DBFF",
"%	c #3200FF",
"&	c #C7BAFF",
"*	c #A297CF",
"=	c #7A729C",
"-	c #A993FF",
";	c #8977CF",
">	c #675A9C",
"  ........      ",
"  .++++++...    ",
"   .++++.@@...  ",
"   .++++.@.##.  ",
"   .++++.@.#.   ",
"   .$$$$.@.#.   ",
"  .$$$$$$..#.   ",
" .$$%$$%$$...   ",
".&&&&&&&&&&...  ",
".&&&&%&&%&&.*.. ",
".&&%&&&&&&&.*.=.",
".-----%----.*.=.",
" .--------.;;.=.",
"  ........;;.>>.",
"    ........>>. ",
"      ........  "};
