#define cmcv_width 50
#define cmcv_height 50
static unsigned char cmcv_bits[] = {
   0x00, 0x00, 0x00, 0x00, 0x00, 0x00, 0x00, 0x00, 0x00, 0x00, 0x00, 0x00,
   0x00, 0x00, 0x00, 0x00, 0x00, 0x00, 0x00, 0x00, 0x00, 0x00, 0x00, 0x00,
   0x00, 0x00, 0x00, 0x00, 0x00, 0xc0, 0x00, 0x00, 0x00, 0x00, 0x00, 0x00,
   0x80, 0x01, 0x00, 0x00, 0x00, 0x00, 0x00, 0x00, 0x03, 0x00, 0x00, 0x00,
   0x00, 0x00, 0x01, 0x06, 0x00, 0x00, 0x00, 0x00, 0x00, 0x03, 0x0c, 0x00,
   0x00, 0x00, 0x00, 0x00, 0xf6, 0x1b, 0x00, 0x00, 0x00, 0x00, 0x00, 0x0c,
   0x30, 0x00, 0x00, 0x00, 0x00, 0x00, 0x18, 0x60, 0x00, 0x00, 0x00, 0x00,
   0x00, 0x30, 0xc2, 0x00, 0x00, 0x00, 0x00, 0x00, 0x60, 0x84, 0xff, 0x07,
   0x00, 0x00, 0x00, 0xc0, 0x08, 0xff, 0x0f, 0x00, 0x00, 0x00, 0x80, 0x11,
   0x00, 0x18, 0x00, 0x00, 0x00, 0x00, 0x23, 0x00, 0x30, 0x00, 0x00, 0x00,
   0x00, 0x43, 0x00, 0x60, 0x00, 0x00, 0x00, 0x00, 0x83, 0x00, 0xc0, 0x00,
   0x00, 0x00, 0x80, 0x03, 0x01, 0x80, 0x01, 0x00, 0x00, 0x80, 0x01, 0x02,
   0x80, 0x01, 0x00, 0x00, 0x80, 0x01, 0x02, 0x80, 0x01, 0x00, 0x00, 0x80,
   0x01, 0x02, 0x80, 0x01, 0x00, 0x00, 0x80, 0x41, 0x12, 0x80, 0x01, 0x00,
   0x00, 0x80, 0xc1, 0x1a, 0x80, 0x01, 0x00, 0x00, 0x80, 0x81, 0x0f, 0x80,
   0x01, 0x00, 0x00, 0x80, 0x01, 0x07, 0x80, 0x01, 0x00, 0x00, 0x80, 0x01,
   0x02, 0x80, 0x01, 0x00, 0x00, 0x80, 0x01, 0x00, 0x80, 0x01, 0x00, 0x00,
   0x80, 0x01, 0x00, 0x80, 0x01, 0x00, 0x00, 0x80, 0x01, 0x00, 0x80, 0x01,
   0x00, 0x00, 0x80, 0x01, 0x00, 0x80, 0x01, 0x00, 0x00, 0x80, 0x01, 0x00,
   0x80, 0x01, 0x00, 0x00, 0x80, 0x01, 0x00, 0x80, 0x01, 0x00, 0x00, 0x80,
   0x01, 0x00, 0x80, 0x01, 0x00, 0x00, 0x80, 0x01, 0x00, 0x80, 0x01, 0x00,
   0x00, 0x80, 0x01, 0x00, 0x80, 0x01, 0x00, 0x00, 0x80, 0x01, 0x00, 0x80,
   0x01, 0x00, 0x00, 0x80, 0x01, 0x00, 0x80, 0x01, 0x00, 0x00, 0x80, 0x01,
   0x00, 0x80, 0x01, 0x00, 0x00, 0x80, 0x01, 0x00, 0x80, 0x01, 0x00, 0x00,
   0x80, 0x01, 0x00, 0x80, 0x01, 0x00, 0x00, 0x80, 0x01, 0x00, 0x80, 0x01,
   0x00, 0x00, 0x80, 0x01, 0x00, 0x80, 0x01, 0x00, 0x00, 0x80, 0x01, 0x00,
   0x80, 0x01, 0x00, 0x00, 0x80, 0x01, 0x00, 0x80, 0x01, 0x00, 0x00, 0x80,
   0x01, 0x00, 0x80, 0x01, 0x00, 0x00, 0x00, 0x00, 0x00, 0x00, 0x00, 0x00,
   0x00, 0x00, 0x00, 0x00, 0x00, 0x00, 0x00, 0x00, 0x00, 0x00, 0x00, 0x00,
   0x00, 0x00};
