/* XPM */ 
static char * constant_xpm[] = {
"16 16 9 1",
" 	c None",
"!	c black",
"#	c #977979",
"$	c #7E4545",
"%	c #3E0000",
"&	c #360000",
"'	c #B49E9E",
"(	c #481111",
")	c #2E0000",
"                ",
"                ",
"                ",
"                ",
"      #$%$#     ",
"     $%$ #&$    ",
"    #%$   &'    ",
"    $&'         ",
"    (%          ",
"    (%          ",
"    $)# #&'     ",
"     $)%%#      ",
"                ",
"                ",
"                ",
"                "};