/* XPM */
static char * coordinatesystem_xpm[] = {
"16 16 79 1",
" 	c None",
".	c #5A5A5A",
"+	c #7E7E7E",
"@	c #9C0A0A",
"#	c #C60000",
"$	c #DA0000",
"%	c #FF0000",
"&	c #FF3232",
"*	c #994646",
"=	c #A86E6E",
"-	c #DC4141",
";	c #EC5858",
">	c #C16363",
",	c #1F991F",
"'	c #02C100",
")	c #00E000",
"!	c #00E700",
"~	c #00EB00",
"{	c #00F200",
"]	c #00F700",
"^	c #39D339",
"/	c #79A279",
"(	c #00E762",
"_	c #4AF34A",
":	c #7D7DBF",
"<	c #2222CF",
"[	c #0000F1",
"}	c #0000F8",
"|	c #0000FF",
"1	c #2222EE",
"2	c #3E21F6",
"3	c #3737F1",
"4	c #0742C6",
"5	c #7272DB",
"6	c #857C84",
"7	c #14CFCF",
"8	c #00D9C2",
"9	c #00FFFF",
"0	c #48FFFF",
"a	c #858585",
"b	c #848486",
"c	c #888787",
"d	c #989898",
"e	c #999999",
"f	c #9A9B9C",
"g	c #AB958B",
"h	c #88AB8A",
"i	c #A6A6A6",
"j	c #A7A7A7",
"k	c #ADACAD",
"l	c #BEACAC",
"m	c #B0B0B0",
"n	c #B6B6B6",
"o	c #B7B7B7",
"p	c #B8B8B8",
"q	c #BDBCBC",
"r	c #DA9191",
"s	c #CDA3A3",
"t	c #D5B1B1",
"u	c #A0D9A0",
"v	c #ABDBAC",
"w	c #8A84CE",
"x	c #8A8ACD",
"y	c #9696CD",
"z	c #ADADC1",
"A	c #B6B6C3",
"B	c #B0B1C9",
"C	c #C0C0C0",
"D	c #C1C1C1",
"E	c #C7C7C7",
"F	c #D6D6D6",
"G	c #DDDDDD",
"H	c #E7E7E7",
"I	c #EAEBEA",
"J	c #EBEAEB",
"K	c #FDFDF1",
"L	c #F5FFFF",
"M	c #FFFFFF",
"N      c None",
"NNNNNNNN^NNNNNNN",
"NNNNNNNN)NNNNNNN",
"NNNNNNNk~NNNNNNN",
"NNNNNNN/{uNNNNNN",
"NNNNNNN,]_NNNNNN",
"NNoEGNNh!vNNFHNN",
"NNNdiINN'N6MMDNN",
"NNNNbfNN(NNcqnNN",
"NNNNNNN790NNNNNN",
"NNNNyB248*&tsNNN",
"NNN5||wNgN>%%rNN",
"NN3|}<NKJLN@#%;N",
"A1[:NNNe+pNNN=$-",
"xzNNNNNm.NNNNNNl",
"NNNNNNNNaNNNNNNN",
"NNNNNNNNjNNNNNNN"};
