#define cursor_width 32
#define cursor_height 16
#define cursor_x_hot 14
#define cursor_y_hot 7
static unsigned char cursor_bits[] = {
   0xff, 0xff, 0xff, 0xff, 0x0d, 0x00, 0x00, 0xb0, 0x31, 0x00, 0x00, 0x8c,
   0xc1, 0x00, 0x00, 0x83, 0x01, 0x03, 0xc0, 0x80, 0x01, 0x0c, 0x30, 0x80,
   0x01, 0x30, 0x0c, 0x80, 0x01, 0xc0, 0x03, 0x80, 0x01, 0xc0, 0x03, 0x80,
   0x01, 0x30, 0x0c, 0x80, 0x01, 0x0c, 0x30, 0x80, 0x01, 0x03, 0xc0, 0x80,
   0xc1, 0x00, 0x00, 0x83, 0x31, 0x00, 0x00, 0x8c, 0x0d, 0x00, 0x00, 0xb0,
   0xff, 0xff, 0xff, 0xff};
