#define cursor2_width 48
#define cursor2_height 16
#define cursor2_x_hot 21
#define cursor2_y_hot 7
static unsigned char cursor2_bits[] = {
   0xff, 0xff, 0xff, 0xff, 0xff, 0xff, 0x1d, 0x00, 0x00, 0x00, 0x00, 0xb8,
   0xe1, 0x00, 0x00, 0x00, 0x00, 0x87, 0x01, 0x07, 0x00, 0x00, 0xe0, 0x80,
   0x01, 0x78, 0x00, 0x00, 0x1e, 0x80, 0x01, 0x80, 0x03, 0xc0, 0x01, 0x80,
   0x01, 0x00, 0x1c, 0x38, 0x00, 0x80, 0x01, 0x00, 0xe0, 0x07, 0x00, 0x80,
   0x01, 0x00, 0xe0, 0x07, 0x00, 0x80, 0x01, 0x00, 0x1c, 0x38, 0x00, 0x80,
   0x01, 0x80, 0x03, 0xc0, 0x01, 0x80, 0x01, 0x78, 0x00, 0x00, 0x1e, 0x80,
   0x01, 0x07, 0x00, 0x00, 0xe0, 0x80, 0xe1, 0x00, 0x00, 0x00, 0x00, 0x87,
   0x1d, 0x00, 0x00, 0x00, 0x00, 0xb8, 0xff, 0xff, 0xff, 0xff, 0xff, 0xff};
