/* XPM */ 
static const unsigned char * customizedui_xpm[] = {
"16 16 60 1",
" 	c None",
"!	c black",
"#	c #3D95FF",
"$	c #0059E8",
"%	c #FCD634",
"&	c white",
"'	c #0144D0",
"(	c #0019CF",
")	c #B2B2B2",
"*	c #001EA0",
"+	c #F4F1E6",
",	c #F2EEE2",
"-	c #F0ECDE",
".	c #B1403C",
"0	c #AF3A37",
"1	c #EEEADA",
"2	c #B34641",
"3	c #CE9488",
"4	c #AE3935",
"5	c #AC322F",
"6	c #C9877C",
"7	c #A62320",
"8	c #A41D1B",
"9	c #ECE8D7",
":	c #CF958A",
";	c #B34842",
"<	c #AC3531",
"=	c #AB312D",
">	c #A92B28",
"?	c #A62522",
"@	c #B1413C",
"A	c #C88279",
"B	c #EAE6D3",
"C	c #CA8B7F",
"D	c #A72724",
"E	c #A62421",
"F	c #C78378",
"G	c #E8E4CF",
"H	c #C98B7E",
"I	c #B2433E",
"J	c #A62623",
"K	c #A5211E",
"L	c #A31C1A",
"M	c #A11715",
"N	c #AF3D38",
"O	c #C3796E",
"P	c #E6E2CC",
"Q	c #A92E29",
"R	c #A72824",
"S	c #C78478",
"T	c #A21917",
"U	c #A01311",
"V	c #C3776C",
"W	c #9B0404",
"X	c #990000",
"Y	c #E4E0C8",
"Z	c #9F1210",
"[	c #9E0D0B",
"]	c #E2DEC4",
"^	c #E1DCC1",
" ############## ",
"$%$$$$$$$$&$&$&$",
"''''''''''''''''",
"( )&&&&)       *",
"( &+++++       *",
"(&&,,,,,&&&&&&&*",
"(-------.0-----*",
"(11122314516781*",
"(9999:;<=>?@A99*",
"(BBBBBBCDEFBBBB*",
"(GGGGHIJKLMNOGG*",
"(PPPQRSPTUPVWXP*",
"(YYYYYYYZ[YYYYY*",
"(]]]]]]]]]]]]]]*",
"(^^^^^^^^^^^^^^*",
"(***************"};