/* XPM */
static char * customextension_xpm[] = {
"16 16 8 1",
" 	c None",
".	c #0A3F0A",
"+	c #6DBD6D",
"@	c #69B569",
"#	c #61A661",
"$	c #498A49",
"%	c #5EA15E",
"&	c #599959",
"                ",
"    ....        ",
"   .+@#$.       ",
"   .@##$.       ",
"    .#%.        ",
" ....#%....     ",
" .@@####@#.     ",
" .@######&. ..  ",
" .#..$#%%&..##. ",
" ..  .#%%&&&&&. ",
"     .#%%&&&&&. ",
" ..  .#%&&..$$. ",
" .#..#%%&&. ..  ",
" .%%%%%&&&.     ",
" ..........     ",
"                "};
