/* XPM */
static char * customextensionfolder_xpm[] = {
"16 16 15 1",
" 	c None",
".	c #9C9C00",
"+	c #000000",
"@	c #F7F7F7",
"#	c #FFFFCE",
"$	c #FFFF9C",
"%	c #CECE63",
"&	c #FFFFA1",
"*	c #447544",
"=	c #0A3F0A",
"-	c #69B569",
";	c #61A661",
">	c #FFCE9C",
",	c #599959",
"'	c #5EA15E",
"  .....+        ",
" .@##$$.+       ",
".%%%%%%%......  ",
".############%+ ",
".###&*=*&#&#$%+ ",
".##&#=-=&&&&$%+ ",
".#&===;===&&>%+ ",
".#&=;;;;;=&&&%+ ",
".#&=*=,;'==*>%+ ",
".#&&&=*'',,=&%+ ",
".#&=*=,',==*>%+ ",
".#$=;;'',=&>>%+ ",
".#>=======>>>%+ ",
".%%%%%%%%%%%%%+ ",
" ++++++++++++++ ",
"                "};
