/* XPM */
static char * cyan_xpm[] = {
"16 16 2 1",
" 	c None",
".	c #00FFFF",
"                ",
"                ",
"                ",
"   ..........   ",
"   ..........   ",
"   ..........   ",
"   ..........   ",
"   ..........   ",
"   ..........   ",
"   ..........   ",
"   ..........   ",
"   ..........   ",
"   ..........   ",
"                ",
"                ",
"                "};
