#define domain_width 50
#define domain_height 29
static unsigned char domain_bits[] = {
   0x00, 0x80, 0xff, 0xff, 0xff, 0xff, 0x03, 0x00, 0x80, 0x00, 0x00, 0x00,
   0x00, 0x02, 0x00, 0x80, 0x00, 0x00, 0x00, 0x00, 0x02, 0x00, 0x80, 0x00,
   0x00, 0x00, 0x00, 0x02, 0x00, 0x81, 0x00, 0x00, 0x01, 0x00, 0x02, 0x00,
   0x83, 0x00, 0x80, 0x03, 0x00, 0x02, 0xff, 0x87, 0x00, 0x00, 0x01, 0x00,
   0x02, 0x00, 0x83, 0x00, 0x00, 0x00, 0x00, 0x02, 0x00, 0x81, 0x00, 0x00,
   0x00, 0x00, 0x02, 0x00, 0x80, 0x00, 0x00, 0x00, 0x00, 0x02, 0x00, 0x81,
   0x00, 0x00, 0x00, 0x00, 0x02, 0x00, 0x83, 0x00, 0x00, 0x00, 0x00, 0x02,
   0xff, 0x87, 0x00, 0x00, 0x00, 0x00, 0x02, 0x00, 0x83, 0x00, 0x00, 0x00,
   0x00, 0x02, 0x00, 0x81, 0x00, 0x00, 0x00, 0x00, 0x02, 0x00, 0x80, 0x00,
   0x00, 0x00, 0x00, 0x02, 0x00, 0x81, 0x00, 0xf0, 0x7f, 0x00, 0x02, 0x00,
   0x83, 0x00, 0xf8, 0x7f, 0x00, 0x02, 0xff, 0x87, 0xaa, 0xfa, 0x7f, 0x55,
   0x03, 0x00, 0x43, 0x00, 0xfe, 0x7f, 0x00, 0x01, 0x00, 0x21, 0x04, 0xff,
   0x7f, 0x82, 0x00, 0x00, 0x10, 0x8e, 0xff, 0x7f, 0x47, 0x00, 0x00, 0x08,
   0x84, 0xff, 0x7f, 0x22, 0x00, 0x00, 0x04, 0x00, 0x08, 0x08, 0x10, 0x00,
   0x00, 0x02, 0x00, 0x20, 0x00, 0x08, 0x00, 0x00, 0x01, 0x00, 0x70, 0x00,
   0x04, 0x00, 0x80, 0x00, 0x00, 0x20, 0x00, 0x02, 0x00, 0x40, 0x00, 0x00,
   0x00, 0x00, 0x01, 0x00, 0xe0, 0xff, 0xff, 0xff, 0xff, 0x00, 0x00};
