/* XPM */
static char * downarrow_xpm[] = {
"9 6 4 1",
" 	c None",
".	c #5B5B5B",
"+	c #000000",
"@	c #898989",
"..     ..",
"++.   .++",
"@++. .++@",
" @++.++@ ",
"  @+++@  ",
"   @+@   "};
