/* XPM */ 
static char * drawlines_xpm[] = {
"16 16 5 1",
" 	c None",
"!	c black",
"#	c #ABABAB",
"$	c #929292",
"%	c #6C6C6C",
"     #!!!#      ",
"   #!!$ $!!!%#  ",
" #!!%%$  !$#%!!!",
"!!#  #!!!!   !$!",
"!!!$ $!$#$!!!$ !",
"! #!!!%   !$!  !",
"!   !#%!!!$ ! $!",
"!   !    !  !%!!",
"!!%#!    ! %!% !",
"! %!!!%  !!%!  !",
"!   !#%!!!# !  !",
"!   !   #!  ! %!",
"!!% !    !  !!% ",
" #%!!!%  ! %!#  ",
"     #%!!!!%    ",
"                "};