/* XPM */
static char *editDyn[]={
"16 16 7 1",
". c None",
"a c #000000",
"e c #0000ff",
"d c #00c000",
"b c #00ff00",
"# c #303030",
"c c #ff0000",
"................",
".##...........a.",
"..#..........aba",
"..#...c.....abda",
".##cec.c...abaa.",
"..#ece..c.abda..",
"..#...e..abda...",
".##....eabdac...",
"..#....abda..c..",
"..#....aaa.e....",
".##...aa....e...",
"..#..........e..",
"..#.............",
".##############.",
"..#..#..#..#..#.",
"................"};
