/* XPM */
static char * editD_xpm[] = {
"16 16 16 1",
" 	c None",
".	c #929292",
"+	c #B3B3B3",
"@	c #898989",
"#	c #E4E4E4",
"$	c #B0B0B0",
"%	c #ACACAC",
"&	c #EDEDED",
"*	c #BDBDBD",
"=	c #C9C9C9",
"-	c #7F7F7F",
";	c #9B9B9B",
">	c #9F9F9F",
",	c #ECECEC",
"'	c #A8A8A8",
")	c #A3A3A3",
"                ",
"             .  ",
"            .+@ ",
"########$  .+%@ ",
"#&&&&&&&$ .+@@  ",
"#&&&&&&&$.+%@   ",
"#&&***&&.+%@    ",
"#&&&&&&.+%@     ",
"#&&*&&.+%@      ",
"#&&&&=-@@       ",
"#&&&&-;=>       ",
"#&&&&=##>       ",
"#&&&&,##>       ",
"#&&&&,,#>       ",
"++$%')>;;       ",
"                "};
