/* XPM */
static char * wb_enclosedTouchingSelect_xpm[] = {
"16 16 5 1",
" 	c None",
".	c #990000",
"+	c #000000",
"@	c #4C82FF",
"#	c #FFFFFF",
"..+.@.+..@+   + ",
".@+@@@+@.@+   + ",
"++++++++++++++++",
".@+@@@+@+#+   + ",
"@@+@@@+@+##+  + ",
".@+@@@+@+###+ + ",
"+++++++++####+++",
".@+@@@+@+#####+ ",
"..+.@.+.+######+",
"@@+@@@+@+####+++",
"+++++++++##+#+  ",
"  +   + +#++##+ ",
"  +   + +++ +#+ ",
"  +   +   + +##+",
"++++++++++++++#+",
"+ +   +   +   + "};
