#define exhaust_width 50
#define exhaust_height 50
static unsigned char exhaust_bits[] = {
   0x00, 0x00, 0x00, 0x00, 0x00, 0x00, 0x00, 0x00, 0x00, 0x00, 0x00, 0x00,
   0x00, 0x00, 0x00, 0x00, 0x00, 0x00, 0x00, 0x03, 0x00, 0x00, 0x00, 0x00,
   0x00, 0x80, 0x01, 0x00, 0x00, 0x00, 0x00, 0x00, 0xc0, 0x00, 0x00, 0x00,
   0x00, 0x00, 0x00, 0x60, 0x00, 0x00, 0x00, 0x00, 0x00, 0x00, 0x30, 0x00,
   0x00, 0x00, 0x00, 0x00, 0x00, 0x18, 0x40, 0x00, 0x00, 0x00, 0x00, 0x00,
   0x0c, 0x60, 0x00, 0x00, 0x00, 0x00, 0x00, 0x06, 0x30, 0x00, 0x00, 0x00,
   0x00, 0x00, 0x03, 0x18, 0x00, 0x00, 0x00, 0x00, 0x80, 0x01, 0x0c, 0x00,
   0x00, 0x00, 0x00, 0xc0, 0x00, 0x06, 0x00, 0x00, 0x00, 0xf0, 0xff, 0x00,
   0x03, 0x00, 0x00, 0x00, 0xfc, 0x7f, 0x80, 0x01, 0x00, 0x00, 0x00, 0x1e,
   0x00, 0xc6, 0x00, 0x00, 0x00, 0x00, 0x03, 0xf0, 0x67, 0x00, 0x00, 0x00,
   0x00, 0x03, 0x00, 0x63, 0x00, 0x00, 0x00, 0x00, 0x03, 0x80, 0xc2, 0x00,
   0x00, 0x00, 0x80, 0x03, 0x40, 0x82, 0x01, 0x00, 0x00, 0x80, 0x01, 0x20,
   0x82, 0x01, 0x00, 0x00, 0x80, 0x01, 0x10, 0x82, 0x01, 0x00, 0x00, 0x80,
   0x01, 0x10, 0x80, 0x01, 0x00, 0x00, 0x80, 0x01, 0x10, 0x80, 0x01, 0x00,
   0x00, 0x80, 0x01, 0x10, 0x80, 0x01, 0x00, 0x00, 0x80, 0x01, 0x10, 0x80,
   0x01, 0x00, 0x00, 0x80, 0x01, 0x10, 0x80, 0x01, 0x00, 0x00, 0x80, 0x01,
   0x10, 0x80, 0x01, 0x00, 0x00, 0x80, 0x01, 0x10, 0x80, 0x01, 0x00, 0x00,
   0x80, 0x01, 0x10, 0x80, 0x01, 0x00, 0x00, 0x80, 0x01, 0x10, 0x80, 0x01,
   0x00, 0x00, 0x80, 0x01, 0x10, 0x80, 0x01, 0x00, 0x00, 0x80, 0x01, 0x10,
   0x80, 0x01, 0x00, 0x00, 0x80, 0x01, 0x10, 0x80, 0x01, 0x00, 0x00, 0x80,
   0x01, 0x10, 0x80, 0x01, 0x00, 0x00, 0x80, 0x01, 0x10, 0x80, 0x01, 0x00,
   0x00, 0x80, 0x01, 0x10, 0x80, 0x01, 0x00, 0x00, 0x80, 0x01, 0x10, 0x80,
   0x01, 0x00, 0x00, 0x80, 0x01, 0x00, 0x80, 0x01, 0x00, 0x00, 0x80, 0x01,
   0x00, 0x80, 0x01, 0x00, 0x00, 0x80, 0x01, 0x00, 0x80, 0x01, 0x00, 0x00,
   0x80, 0x01, 0x00, 0x80, 0x01, 0x00, 0x00, 0x80, 0x01, 0x00, 0x80, 0x01,
   0x00, 0x00, 0x80, 0x01, 0x00, 0x80, 0x01, 0x00, 0x00, 0x80, 0x01, 0x00,
   0x80, 0x01, 0x00, 0x00, 0x80, 0x01, 0x00, 0x80, 0x01, 0x00, 0x00, 0x80,
   0x01, 0x00, 0x80, 0x01, 0x00, 0x00, 0x00, 0x00, 0x00, 0x00, 0x00, 0x00,
   0x00, 0x00, 0x00, 0x00, 0x00, 0x00, 0x00, 0x00, 0x00, 0x00, 0x00, 0x00,
   0x00, 0x00};
