/* XPM */
static char *explore[]={
"15 15 15 1",
". c None",
"m c #000084",
"l c #0000ff",
"a c #000400",
"i c #00ffff",
"k c #848200",
"g c #848684",
"# c #9c9a00",
"j c #c6c3c6",
"e c #cecf63",
"b c #f7f3f7",
"f c #ffcf9c",
"d c #ffff9c",
"c c #ffffce",
"h c #ffffff",
"..#####a.......",
".#bccdd#a......",
"#eeeeeee######.",
"#ccfggagccccdea",
"#cfghihagdddfea",
"#cghihijafdfdea",
"#cgihijiaffdfea",
"#cghijijafdfdea",
"#cfgjijagkfdfea",
"#cdfgaagjllffea",
"#cfdfdffmillfea",
"#eeeeeee#mill#a",
".aaaaaaaaamilla",
"...........mila",
"............aa."};
