/* XPM */ 
static char * exportansys_xpm[] = {
"16 16 19 1",
" 	c None",
"!	c #B8B8B8",
"#	c #ABABAB",
"$	c #9F9F9F",
"%	c #929292",
"&	c #787878",
"'	c black",
"(	c white",
")	c #7C0000",
"*	c #F8F8F8",
"+	c #6C6C6C",
",	c #EBEBEB",
"-	c #5F5F5F",
".	c #B99731",
"0	c #927727",
"1	c #FFD631",
"2	c #D6B42C",
"3	c #A58B21",
"4	c #6C5B15",
"!!!!#$$%&       ",
"!(((((((&       ",
"!(((())))))) )  ",
"!((()(((&   ))  ",
"#((()(**&  )))  ",
"$(((((**+       ",
"$((((**,-....0  ",
"$((((**,-1''120 ",
"$(((**,,-2''2120",
"$(**,,,,-3''3114",
"$(*,,,,,-'33'214",
"&&&&-----'11'314",
"      .2'3113'24",
"      .3'3113'30",
"       02111124 ",
"        .00000  "};