/* XPM */
static char * ExportCCL_xpm[] = {
"16 16 7 1",
" 	c None",
".	c #848484",
"+	c #FFFFFF",
"@	c #000000",
"#	c #990000",
"$	c #D4D0C8",
"%	c #808000",
"..........      ",
".++++++++@      ",
".++++####### #  ",
".+++#++++@  ##  ",
".+++#++++@ ###  ",
".++++++++@      ",
".++++++++@@@@@@@",
".++++++++@$$$@$@",
".++++++++@$$$@@@",
".++++++++@$$$@%@",
".++++++++@@@@@%@",
".++++++++@%%%%%@",
".@@@@@@@@@@@@@%@",
"      @%@@@@$@%@",
"      @%@@@@$@%@",
"       @@@@@@@@@"};
