/* XPM */
static const char* expressionImageData[] = {
"16 16 10 1",
"  c #737373",
". c None",
"X c #ffffff",
"o c #000000",
"O c #adadad",
"+ c #0000ff",
"@ c #ddddff",
"# c #bdbdbd",
"$ c #dedede",
"% c #424242",
"................",
"................",
".....++++++++...",
".....++++++++...",
"....@+..........",
"....+@.....o....",
"..+.+.....#o....",
"..+.+.$oo$% ....",
"..+.+.o$$%oO....",
"..+.+.o..$o.....",
"..@+@.o$$%o ....",
"...+..$ooO.o ...",
"...+............",
"................",
"................",
"................"};
