#define ez_box_width 40
#define ez_box_height 40
#define ez_box_x_hot 0
#define ez_box_y_hot 0
static unsigned char ez_box_bits[] = {
   0x00, 0x00, 0x00, 0x00, 0x00, 0x00, 0xf8, 0xff, 0xff, 0x3f, 0x00, 0x04,
   0x00, 0x00, 0x30, 0x00, 0x0a, 0x00, 0x00, 0x28, 0x00, 0x01, 0x00, 0x00,
   0x24, 0x80, 0x08, 0x00, 0x00, 0x22, 0x40, 0x00, 0x00, 0x00, 0x21, 0x20,
   0x08, 0x00, 0x80, 0x20, 0x10, 0x00, 0x00, 0x40, 0x20, 0x08, 0x08, 0x00,
   0x20, 0x20, 0xfc, 0xff, 0xff, 0x1f, 0x20, 0x04, 0x08, 0x00, 0x10, 0x20,
   0x04, 0x00, 0x00, 0x10, 0x20, 0x04, 0x08, 0x00, 0x10, 0x20, 0x04, 0x00,
   0x00, 0x10, 0x20, 0x04, 0x08, 0x00, 0x10, 0x20, 0x04, 0x00, 0x00, 0x10,
   0x20, 0x04, 0x08, 0x00, 0x10, 0x20, 0x04, 0x00, 0x00, 0x10, 0x20, 0x04,
   0x08, 0x00, 0x10, 0x20, 0x04, 0x00, 0x00, 0x10, 0x20, 0x04, 0x08, 0x00,
   0x10, 0x20, 0x04, 0x00, 0x00, 0x10, 0x20, 0x04, 0xa8, 0xaa, 0xba, 0x2a,
   0x04, 0x04, 0x00, 0x10, 0x10, 0x04, 0x02, 0x00, 0x10, 0x08, 0x04, 0x01,
   0x00, 0x10, 0x04, 0x84, 0x00, 0x00, 0x10, 0x02, 0x44, 0x00, 0x00, 0x10,
   0x01, 0x24, 0x00, 0x00, 0x90, 0x00, 0x14, 0x00, 0x00, 0x50, 0x00, 0x0c,
   0x00, 0x00, 0x30, 0x00, 0xfc, 0xff, 0xff, 0x1f, 0x00, 0x00, 0x00, 0x00,
   0x00, 0x00, 0x00, 0x00, 0x00, 0x00, 0x00, 0x00, 0x00, 0x00, 0x00, 0x00,
   0x00, 0x00, 0x00, 0x00, 0x00, 0x00, 0x00, 0x00, 0x00, 0x00, 0x00, 0x00,
   0x00, 0x00, 0x00, 0x00, 0x00, 0x00, 0x00, 0x00};
