#define ez_density_width 50
#define ez_density_height 50
#define ez_density_x_hot 0
#define ez_density_y_hot 0
static unsigned char ez_density_bits[] = {
   0x80, 0xff, 0xff, 0x3f, 0x00, 0xf0, 0x03, 0x80, 0xff, 0xff, 0x7f, 0x00,
   0xe0, 0x03, 0x80, 0x3d, 0x00, 0xc0, 0x00, 0xc0, 0x03, 0xc0, 0x70, 0x00,
   0x10, 0x03, 0x80, 0x03, 0xc0, 0xc0, 0x01, 0x08, 0x06, 0x00, 0x03, 0xc0,
   0x80, 0x07, 0x08, 0x1c, 0x00, 0x02, 0xc0, 0x00, 0x0a, 0x04, 0x30, 0x00,
   0x00, 0xc0, 0x00, 0x3c, 0x02, 0x60, 0x00, 0x00, 0x60, 0x00, 0x70, 0x00,
   0x80, 0x01, 0x00, 0x60, 0x00, 0xc0, 0x01, 0x00, 0x03, 0x00, 0x60, 0x00,
   0xc0, 0x07, 0x00, 0x0c, 0x00, 0x60, 0x00, 0x20, 0x0a, 0x00, 0x18, 0x00,
   0x60, 0x00, 0x20, 0x3c, 0x00, 0x70, 0x00, 0x30, 0x00, 0x10, 0xf0, 0xff,
   0xff, 0x00, 0x30, 0x00, 0x08, 0xc0, 0xff, 0xff, 0x00, 0x30, 0x00, 0x00,
   0xc0, 0x00, 0x80, 0x00, 0x30, 0x00, 0x00, 0x60, 0x00, 0x40, 0x00, 0x18,
   0x00, 0x01, 0x60, 0x00, 0x30, 0x00, 0x18, 0x80, 0x00, 0x30, 0x00, 0x08,
   0x00, 0x18, 0x80, 0x00, 0x18, 0x00, 0x04, 0x00, 0x18, 0x40, 0x00, 0x0c,
   0x00, 0x03, 0x00, 0x18, 0x20, 0x00, 0x06, 0x80, 0x01, 0x00, 0x0c, 0x10,
   0x00, 0x03, 0x40, 0x00, 0x00, 0x0c, 0x00, 0x00, 0x03, 0x30, 0x00, 0x00,
   0x0c, 0x00, 0x80, 0x01, 0x18, 0x00, 0x00, 0x0c, 0x00, 0xc0, 0x00, 0x0c,
   0x00, 0x00, 0x0c, 0x00, 0x60, 0x00, 0x03, 0x00, 0x00, 0x06, 0x00, 0x30,
   0x80, 0x01, 0x00, 0x00, 0x86, 0x00, 0x18, 0xc0, 0x00, 0x00, 0x00, 0x46,
   0x00, 0x18, 0x20, 0x00, 0x00, 0x00, 0x46, 0x00, 0x0c, 0x18, 0x00, 0x00,
   0x00, 0xb6, 0x00, 0x06, 0x0c, 0x00, 0x00, 0x00, 0x0a, 0x02, 0x03, 0x06,
   0x00, 0x00, 0x00, 0x06, 0x8c, 0x81, 0x01, 0x00, 0x00, 0x00, 0x1e, 0xe0,
   0xc0, 0x00, 0x00, 0x00, 0x00, 0x78, 0xc0, 0x61, 0x00, 0x00, 0x00, 0x00,
   0xe0, 0x21, 0x3e, 0x00, 0x00, 0x00, 0x00, 0x80, 0x37, 0x0e, 0x00, 0x00,
   0x00, 0x00, 0x00, 0x9e, 0x07, 0x00, 0x00, 0x00, 0x00, 0x00, 0xf8, 0x00,
   0x00, 0x00, 0x00, 0x00, 0x00, 0x00, 0x00, 0x00, 0x00, 0x00, 0x00, 0x00,
   0x00, 0x00, 0x00, 0x00, 0x00, 0x00, 0x00, 0x00, 0x00, 0x00, 0x00, 0x00,
   0x00, 0x00, 0x00, 0x00, 0x00, 0x00, 0x00, 0x00, 0x00, 0x00, 0x00, 0x00,
   0x00, 0x00, 0x00, 0x00, 0x00, 0x00, 0x00, 0x00, 0x00, 0x00, 0x00, 0x00,
   0x00, 0x00, 0x00, 0x00, 0x00, 0x00, 0x00, 0x00, 0x00, 0x00, 0x00, 0x00,
   0x00, 0x00, 0x00, 0x00, 0x00, 0x00, 0x00, 0x00, 0x00, 0x00, 0x00, 0x00,
   0x00, 0x00};
