#define from_scr.xbm_width 12
#define from_scr.xbm_height 12
static unsigned char from_scr.xbm_bits[] = {
   0x00, 0x00, 0xfc, 0x03, 0x04, 0x02, 0x04, 0x02, 0x04, 0x02, 0x04, 0x02,
   0xfc, 0x03, 0x60, 0x00, 0xf0, 0x00, 0xf8, 0x01, 0x00, 0x00, 0x00, 0x00};
