#define ez_pnt_on_crv_width 40
#define ez_pnt_on_crv_height 40
#define ez_pnt_on_crv_x_hot 0
#define ez_pnt_on_crv_y_hot 0
static unsigned char ez_pnt_on_crv_bits[] = {
   0x00, 0x00, 0x00, 0x00, 0x00, 0x00, 0x00, 0x00, 0x00, 0x00, 0x00, 0x00,
   0x00, 0x00, 0x00, 0x00, 0x00, 0x00, 0x00, 0x00, 0x00, 0x00, 0x00, 0x00,
   0x00, 0x00, 0x00, 0x00, 0x00, 0x00, 0x00, 0x00, 0x00, 0x00, 0x00, 0x00,
   0x00, 0x00, 0x20, 0x00, 0x00, 0x00, 0x00, 0x20, 0x00, 0x00, 0x00, 0xe0,
   0x3f, 0x00, 0x00, 0x00, 0x1c, 0x20, 0x00, 0x00, 0x00, 0x03, 0x20, 0x00,
   0x00, 0x80, 0x00, 0x00, 0x00, 0x00, 0x60, 0x00, 0x00, 0x00, 0x00, 0x10,
   0x00, 0x00, 0x00, 0x00, 0x08, 0x04, 0x00, 0x00, 0x00, 0x08, 0x18, 0x00,
   0x00, 0x00, 0x04, 0x3c, 0x00, 0x00, 0x00, 0x02, 0x1e, 0x00, 0x00, 0x00,
   0x02, 0x09, 0x00, 0x00, 0x00, 0x81, 0x04, 0x00, 0x00, 0x00, 0x41, 0x00,
   0x00, 0x00, 0x00, 0x41, 0x00, 0x00, 0x00, 0x80, 0x20, 0x00, 0x00, 0x00,
   0x80, 0x20, 0x00, 0x00, 0x00, 0x80, 0x10, 0x00, 0x00, 0x00, 0x80, 0x10,
   0x00, 0x00, 0x00, 0x80, 0x00, 0x00, 0x00, 0x00, 0x80, 0x00, 0x00, 0x00,
   0x00, 0x80, 0x00, 0x00, 0x00, 0x00, 0x80, 0x00, 0x00, 0x00, 0x00, 0xe0,
   0x03, 0x00, 0x00, 0x00, 0x00, 0x00, 0x00, 0x00, 0x00, 0x00, 0x00, 0x00,
   0x00, 0x00, 0x00, 0x00, 0x00, 0x00, 0x00, 0x00, 0x00, 0x00, 0x00, 0x00,
   0x00, 0x00, 0x00, 0x00, 0x00, 0x00, 0x00, 0x00, 0x00, 0x00, 0x00, 0x00,
   0x00, 0x00, 0x00, 0x00, 0x00, 0x00, 0x00, 0x00};
