#define vsdn.xbm_width 12
#define vsdn.xbm_height 7
static unsigned char vsdn.xbm_bits[] = {
   0x00, 0x00, 0xfe, 0x07, 0xfc, 0x03, 0xf8, 0x01, 0xf0, 0x00, 0x60, 0x00,
   0x00, 0x00};
