#define vsl.xbm_width 7
#define vsl.xbm_height 12
static unsigned char vsl.xbm_bits[] = {
   0x00, 0x20, 0x30, 0x38, 0x3c, 0x3e, 0x3e, 0x3c, 0x38, 0x30, 0x20, 0x00};
