#define vsr.xbm_width 7
#define vsr.xbm_height 12
static unsigned char vsr.xbm_bits[] = {
   0x00, 0x02, 0x06, 0x0e, 0x1e, 0x3e, 0x3e, 0x1e, 0x0e, 0x06, 0x02, 0x00};
