#define bc_inactive_width 16
#define bc_inactive_height 16
static unsigned char bc_inactive_bits[] = {
   0x00, 0x00, 0x00, 0x00, 0xe0, 0x03, 0x18, 0x0c, 0x18, 0x08, 0x24, 0x10,
   0x44, 0x10, 0x84, 0x10, 0x04, 0x11, 0x04, 0x12, 0x08, 0x0c, 0x18, 0x0c,
   0xe0, 0x03, 0x00, 0x00, 0x00, 0x00, 0x00, 0x00};
