/* XPM */
static char * fidapfile_xpm[] = {
"16 16 86 1",
" 	c None",
".	c #B1C1D7",
"+	c #ADBDD3",
"@	c #A8B8CE",
"#	c #A3B2C8",
"$	c #CDD5E1",
"%	c #FEFEFE",
"&	c #FDFEFE",
"*	c #9BAABF",
"=	c #354963",
"-	c #A7B1C1",
";	c #AEBED4",
">	c #FDFDFE",
",	c #FAFBFD",
"'	c #FAFAFC",
")	c #94A3B8",
"!	c #B9C4D3",
"~	c #A6B2C1",
"{	c #AABAD0",
"]	c #92A1B6",
"^	c #000000",
"/	c #F7F7FB",
"(	c #7C92CD",
"_	c #F7F8FC",
":	c #364A64",
"<	c #A6B5CB",
"[	c #5F5F64",
"}	c #8B8B96",
"|	c #F2F4FA",
"1	c #EFF2FA",
"2	c #EEF3FA",
"3	c #A2B1C7",
"4	c #F1F4FA",
"5	c #EDF1F9",
"6	c #EAEEF8",
"7	c #E9EDF7",
"8	c #E8EDFA",
"9	c #E5EBF8",
"0	c #9DADC2",
"a	c #FCFCFD",
"b	c #F7F8FB",
"c	c #E8EDF8",
"d	c #E3E9F6",
"e	c #DEE6F6",
"f	c #DEE7F7",
"g	c #99A8BD",
"h	c #F9FAFD",
"i	c #F3F5FA",
"j	c #E2E9F7",
"k	c #DEE6F5",
"l	c #DDE5F6",
"m	c #D9E1F5",
"n	c #95A4B9",
"o	c #F4F7FC",
"p	c #E1E8F7",
"q	c #DCE5F5",
"r	c #D8E1F5",
"s	c #D2DDF3",
"t	c #D2DEF4",
"u	c #F2F5FB",
"v	c #EDF1FA",
"w	c #DBE3F5",
"x	c #D6E0F4",
"y	c #D4DEF4",
"z	c #CCD9F2",
"A	c #ECF1FA",
"B	c #D6DFF4",
"C	c #D1DCF4",
"D	c #CAD7F2",
"E	c #C5D4F1",
"F	c #C6D4F2",
"G	c #E7EDF8",
"H	c #DDE5F7",
"I	c #D7E1F6",
"J	c #D3DDF4",
"K	c #CED9F3",
"L	c #C1D0F0",
"M	c #E1E8F8",
"N	c #DCE5F7",
"O	c #D2DDF4",
"P	c #CDDAF3",
"Q	c #C9D6F2",
"R	c #C4D3F1",
"S	c #C0CFF0",
"T	c #BBCCEF",
"U	c #DBE4F6",
"                ",
".......++@@#$   ",
".%%%%%%%%&&*=-  ",
";%%%>,,',,,)!=~ ",
"{%%]^^^/((_]::: ",
"<%>^[}}|((12]]: ",
"3%'^}44556789]= ",
"0ab^^^^c((def]= ",
"ghi^[}}j((klm]= ",
"no1^}ppq((rst]= ",
"]uv^}wwx((ysz]= ",
"]AA^}BBC((DEF]= ",
"]GjHIJJKKDDEL]= ",
"]MNIOPPQQRRST]= ",
"]U]]]]]]]]]]]]= ",
"]============== "};
