/* XPM */
static char * fieldviewfile_xpm[] = {
"16 16 97 2",
"  	c None",
". 	c #B1C1D7",
"+ 	c #ADBDD3",
"@ 	c #A8B8CE",
"# 	c #A3B2C8",
"$ 	c #CDD5E1",
"% 	c #FEFEFE",
"& 	c #FDFEFE",
"* 	c #9BAABF",
"= 	c #354963",
"- 	c #A7B1C1",
"; 	c #AEBED4",
"> 	c #FDFDFE",
", 	c #FAFBFD",
"' 	c #FAFAFC",
") 	c #94A3B8",
"! 	c #B9C4D3",
"~ 	c #A6B2C1",
"{ 	c #AABAD0",
"] 	c #FBFCFE",
"^ 	c #FBFBFC",
"/ 	c #F8FAFC",
"( 	c #F7F7FB",
"_ 	c #F6F7FB",
": 	c #F4F5FA",
"< 	c #F7F8FC",
"[ 	c #92A1B6",
"} 	c #364A64",
"| 	c #A6B5CB",
"1 	c #F8F9FB",
"2 	c #F5F7FB",
"3 	c #F2F4FA",
"4 	c #EFF2F9",
"5 	c #EFF2FA",
"6 	c #EEF3FA",
"7 	c #A2B1C7",
"8 	c #635900",
"9 	c #ABA465",
"0 	c #EDF1F9",
"a 	c #EAEEF8",
"b 	c #E5EBF8",
"c 	c #9DADC2",
"d 	c #FCFCFD",
"e 	c #F3F6FB",
"f 	c #F0F3FA",
"g 	c #ECF0F9",
"h 	c #E8EDF8",
"i 	c #E4E9F6",
"j 	c #DEE6F6",
"k 	c #DEE7F7",
"l 	c #99A8BD",
"m 	c #F9FAFD",
"n 	c #EBEFF9",
"o 	c #E7ECF8",
"p 	c #E2E9F7",
"q 	c #DEE6F5",
"r 	c #DDE5F6",
"s 	c #D9E1F5",
"t 	c #95A4B9",
"u 	c #F4F7FC",
"v 	c #E1E8F7",
"w 	c #DCE5F5",
"x 	c #D8E1F4",
"y 	c #D8E1F5",
"z 	c #D2DDF3",
"A 	c #D2DEF4",
"B 	c #F2F5FB",
"C 	c #E6EBF8",
"D 	c #E0E6F6",
"E 	c #DBE3F5",
"F 	c #D6E0F4",
"G 	c #D4DEF4",
"H 	c #CCD9F2",
"I 	c #ECF1FA",
"J 	c #E2E8F7",
"K 	c #DAE3F6",
"L 	c #D6DFF4",
"M 	c #D1DCF4",
"N 	c #CCD8F2",
"O 	c #CAD7F2",
"P 	c #C5D4F1",
"Q 	c #C6D4F2",
"R 	c #E7EDF8",
"S 	c #DDE5F7",
"T 	c #D7E1F6",
"U 	c #D3DDF4",
"V 	c #CED9F3",
"W 	c #C1D0F0",
"X 	c #E1E8F8",
"Y 	c #DCE5F7",
"Z 	c #D2DDF4",
"` 	c #CDDAF3",
" .	c #C9D6F2",
"..	c #C4D3F1",
"+.	c #C0CFF0",
"@.	c #BBCCEF",
"#.	c #DBE4F6",
"                                ",
". . . . . . . + + @ @ # $       ",
". % % % % % % % % & & * = -     ",
"; % % % > , , ' , , , ) ! = ~   ",
"{ % % ] ^ / / ( _ : < [ } } }   ",
"| % > , 1 2 2 3 3 4 5 6 [ [ }   ",
"7 % 8 8 8 9 8 9 0 a 9 8 b [ =   ",
"c d 8 e f g 8 h h i 8 j k [ =   ",
"l m 8 5 n o 8 p p 8 q r s [ =   ",
"t u 8 8 9 v 8 w 8 x y z A [ =   ",
"[ B 8 C D E 8 8 F z G z H [ =   ",
"[ I 8 J K L 8 M M N O P Q [ =   ",
"[ R p S T U U V V O O P W [ =   ",
"[ X Y T Z ` `  . .....+.@.[ =   ",
"[ #.[ [ [ [ [ [ [ [ [ [ [ [ =   ",
"[ = = = = = = = = = = = = = =   "};
