/* XPM */
static char * fileopenD_xpm[] = {
"16 16 41 1",
" 	c None",
".	c #9D9D9D",
"+	c #AFAFAF",
"@	c #AEAEAE",
"#	c #ADADAD",
"$	c #DADADA",
"%	c #ABABAB",
"&	c #D4D4D4",
"*	c #A9A9A9",
"=	c #A8A8A8",
"-	c #CECECE",
";	c #A6A6A6",
">	c #C8C8C8",
",	c #B2B2B2",
"'	c #B1B1B1",
")	c #B0B0B0",
"!	c #ACACAC",
"~	c #AAAAAA",
"{	c #A7A7A7",
"]	c #C3C3C3",
"^	c #D6D6D6",
"/	c #D3D3D3",
"(	c #CFCFCF",
"_	c #CCCCCC",
":	c #C9C9C9",
"<	c #C6C6C6",
"[	c #A5A5A5",
"}	c #BEBEBE",
"|	c #BFBFBF",
"1	c #A3A3A3",
"2	c #B9B9B9",
"3	c #BDBDBD",
"4	c #BABABA",
"5	c #A1A1A1",
"6	c #B7B7B7",
"7	c #B4B4B4",
"8	c #9F9F9F",
"9	c #A2A2A2",
"0	c #A4A4A4",
"a	c #A0A0A0",
"b	c #9E9E9E",
"                ",
"         ...    ",
"        .   . . ",
"        .    .. ",
" +@@##      ... ",
"#$$$$$%         ",
"%&&&&&&**====   ",
"%-----------;   ",
"*>>,')++#!%~*={;",
"=]]+$$$$$^/(_:<[",
";}+$$$^/(_:<]|1 ",
"[2#$^/(_:<]|345 ",
"1%/(_:<]|34678  ",
"9*_:<]|346777.  ",
"=<]|34677777.   ",
"[[0195a8b....   "};
