#define flame_width 50
#define flame_height 50
#define flame_x_hot 23
#define flame_y_hot 20
static unsigned char flame_bits[] = {
   0x00, 0x00, 0x00, 0x00, 0x00, 0x00, 0x00, 0x00, 0x00, 0x00, 0x00, 0x00,
   0x00, 0x00, 0x00, 0x00, 0x00, 0x00, 0x00, 0x00, 0x00, 0x00, 0x00, 0x00,
   0x00, 0x00, 0x00, 0x00, 0x00, 0x00, 0x00, 0x00, 0x00, 0x00, 0x00, 0x00,
   0x00, 0x00, 0x00, 0x00, 0x00, 0x00, 0x00, 0x00, 0x00, 0x00, 0x00, 0x00,
   0x00, 0x00, 0x00, 0x00, 0x00, 0x00, 0x00, 0x00, 0x00, 0x00, 0x00, 0x00,
   0x00, 0x00, 0x00, 0x00, 0x00, 0x00, 0x00, 0x00, 0x00, 0x00, 0x00, 0x00,
   0x80, 0xff, 0x01, 0x00, 0x00, 0x00, 0x00, 0xc0, 0xff, 0x03, 0x00, 0x00,
   0x00, 0x00, 0x60, 0x00, 0x06, 0x00, 0x00, 0x00, 0x00, 0x30, 0x00, 0x0c,
   0x00, 0x00, 0x00, 0x00, 0x18, 0x00, 0x18, 0x00, 0x00, 0x00, 0x00, 0x0c,
   0x00, 0x30, 0x00, 0x00, 0x00, 0x00, 0x06, 0x00, 0x60, 0x00, 0x00, 0x00,
   0x80, 0x03, 0x00, 0xc0, 0x01, 0x00, 0x00, 0x80, 0x91, 0x04, 0x80, 0x01,
   0x00, 0x00, 0x80, 0xa1, 0x02, 0x80, 0x01, 0x00, 0x00, 0x80, 0xc1, 0x01,
   0x81, 0x01, 0x00, 0x00, 0x80, 0xc1, 0x01, 0x89, 0x01, 0x00, 0x00, 0x80,
   0xa1, 0x02, 0x89, 0x01, 0x00, 0x00, 0x80, 0x91, 0x04, 0x89, 0x01, 0x00,
   0x00, 0x80, 0x01, 0x00, 0x89, 0x01, 0x00, 0x00, 0x80, 0x01, 0x80, 0x88,
   0x01, 0x00, 0x00, 0x80, 0x09, 0x40, 0x88, 0x01, 0x00, 0x00, 0x80, 0x11,
   0x30, 0x8c, 0x01, 0x00, 0x00, 0x80, 0xe1, 0x1f, 0x87, 0x01, 0x00, 0x00,
   0x80, 0x05, 0x80, 0x81, 0x01, 0x00, 0x00, 0x80, 0x09, 0xe0, 0x80, 0x01,
   0x00, 0x00, 0x80, 0xf1, 0x3f, 0xa0, 0x01, 0x00, 0x00, 0x80, 0x01, 0x00,
   0xa0, 0x01, 0x00, 0x00, 0x80, 0x01, 0x00, 0x98, 0x01, 0x00, 0x00, 0x80,
   0x05, 0x00, 0x8e, 0x01, 0x00, 0x00, 0x80, 0x09, 0x80, 0x81, 0x01, 0x00,
   0x00, 0x80, 0xf1, 0x7f, 0x80, 0x01, 0x00, 0x00, 0x80, 0x01, 0x00, 0x80,
   0x01, 0x00, 0x00, 0x80, 0x01, 0x00, 0x80, 0x01, 0x00, 0x00, 0x80, 0x01,
   0x00, 0x80, 0x01, 0x00, 0x00, 0x80, 0x01, 0x00, 0x80, 0x01, 0x00, 0x00,
   0x80, 0x01, 0x00, 0x90, 0x01, 0x00, 0x00, 0x80, 0x05, 0x00, 0x88, 0x01,
   0x00, 0x00, 0x80, 0x0d, 0x00, 0x84, 0x01, 0x00, 0x00, 0x80, 0xf1, 0xff,
   0x83, 0x01, 0x00, 0x00, 0x80, 0x01, 0x00, 0x80, 0x01, 0x00, 0x00, 0x80,
   0x01, 0x00, 0x80, 0x01, 0x00, 0x00, 0x00, 0x83, 0xff, 0xc1, 0x00, 0x00,
   0x00, 0x00, 0xfe, 0xff, 0x7f, 0x00, 0x00, 0x00, 0x00, 0x7c, 0x00, 0x3e,
   0x00, 0x00};
