/* XPM */
static char * floodfillSelect_xpm[] = {
"16 16 8 1",
" 	c None",
".	c #D6D6D6",
"+	c #3B6AC6",
"@	c #000000",
"#	c #99B8FF",
"$	c #739CFF",
"%	c #315BAF",
"&	c #929292",
"    .++++ ...   ",
"    ++  ++..  . ",
"    ++ @++. . ..",
"    ++@#++   ...",
"    +@##++@@ . .",
"   .@##$++$@@@. ",
"   @##$#@+$$@@@ ",
"  @##$#@$@$$%@@@",
" @##$#$$@$$%%@@@",
"@##$#$$$$$%%@@@@",
"@#$#$$$$$%%@&@@@",
" @#$$$$$%%@&&@@@",
"  @#$$$%%@&&.@@@",
"  .@$$%%@&& .@@&",
" . .@%%@&&   @&&",
"  .  @@&& .. .&."};
