/* XPM */
static char * formatCells_xpm[] = {
"16 16 5 1",
" 	c None",
".	c #000000",
"+	c #000080",
"@	c #C0C0C0",
"#	c #FFFFFF",
"                ",
"       ...... ++",
"      .@@@@@@.++",
"     .@.@@@@@@++",
".....@.@.@@@@@++",
".##.@.@.@.@@@.++",
".#.@.#.@.@... ++",
".#..###.@.#.   +",
".#######.##.    ",
".##########.    ",
".#..#.....#.    ",
".##########.    ",
".#..#.....#.    ",
".##########.    ",
"............    ",
"                "};
