/* XPM */
static char * funcedit_xpm[] = {
"16 16 10 1",
" 	c None",
".	c #000000",
"+	c #787878",
"@	c #929292",
"#	c #525252",
"$	c #858585",
"%	c #ABABAB",
"&	c #9F9F9F",
"*	c #393939",
"=	c #5F5F5F",
"                ",
"                ",
"                ",
"       ...+     ",
"      +.@..     ",
"      ..        ",
"    .....+      ",
"     #.$        ",
"     ..%        ",
"    %.. &.. #.  ",
"    *.= # ..#   ",
"    ..&  ... #  ",
"   $.$  #& ..&  ",
"  ...%          ",
"  #.@           ",
"                "};
