/* XPM */
static char * Generate_xpm[] = {
"16 16 68 1",
" 	c None",
".	c #FFFF00",
"+	c #FFFB00",
"@	c #5C5610",
"#	c #FFF800",
"$	c #816900",
"%	c #898985",
"&	c #FFFF59",
"*	c #FFFD00",
"=	c #FFFA00",
"-	c #DBBC00",
";	c #514C2A",
">	c #FEFEA5",
",	c #FFF000",
"'	c #4F4207",
")	c #EBEBBD",
"!	c #FFF600",
"~	c #FFF200",
"{	c #FFED00",
"]	c #E4DC18",
"^	c #FEFE74",
"/	c #B0AC3C",
"(	c #8A8736",
"_	c #6D6714",
":	c #6D6716",
"<	c #787115",
"[	c #FFEF00",
"}	c #E9C100",
"|	c #504921",
"1	c #FFE900",
"2	c #4D3904",
"3	c #A9A9AE",
"4	c #FFFF50",
"5	c #987400",
"6	c #74736E",
"7	c #FDFDB0",
"8	c #FFEB00",
"9	c #FFE700",
"0	c #FFDB00",
"a	c #675D11",
"b	c #CDCDB0",
"c	c #DCD000",
"d	c #DCBA00",
"e	c #FFE200",
"f	c #B4A200",
"g	c #6F6A39",
"h	c #A8A68F",
"i	c #858166",
"j	c #8D8C70",
"k	c #FFFD0F",
"l	c #FFE600",
"m	c #8A6200",
"n	c #564F30",
"o	c #FFDE00",
"p	c #6A4A00",
"q	c #6C695F",
"r	c #FFD000",
"s	c #503603",
"t	c #82817F",
"u	c #FDFD93",
"v	c #F0C800",
"w	c #412C07",
"x	c #97979A",
"y	c #D5C92A",
"z	c #3C2E0E",
"A	c #A7A7AD",
"B	c #696534",
"C	c #B3B3B7",
"       .....+@  ",
"      ...+#.$%  ",
"     &..*=*-;   ",
"    >..*=#,'    ",
"   ).*+=!~{]^/  ",
"   (_:<+![{=}|  ",
"       .[{1123  ",
"      4~{1[56   ",
"     7.8190a    ",
"    bcd89ee.fg  ",
"    hijklelmn   ",
"       .eopq    ",
"       .rst     ",
"      uvwx      ",
"      yzA       ",
"      BC        "};
