#define geo_curve_width 16
#define geo_curve_height 16
static unsigned char geo_curve_bits[] = {
   0x00, 0x00, 0x0e, 0x00, 0x18, 0x00, 0x60, 0x00, 0xc0, 0x00, 0x80, 0x00,
   0x80, 0x00, 0x80, 0x00, 0x80, 0x00, 0x80, 0x00, 0x80, 0x00, 0x00, 0x03,
   0x00, 0x3e, 0x00, 0x00, 0x00, 0x00, 0x00, 0x00};
