#define geo_density_width 16
#define geo_density_height 16
static unsigned char geo_density_bits[] = {
   0x00, 0x00, 0x00, 0x00, 0x3e, 0x00, 0xe2, 0x01, 0x82, 0x0e, 0x82, 0x3f,
   0x02, 0x7f, 0x02, 0x7f, 0x02, 0x7f, 0x02, 0x7f, 0x06, 0xff, 0x04, 0xfe,
   0x02, 0x3f, 0xe2, 0x3f, 0x1e, 0x00, 0x00, 0x00};
