#define geo_loop_width 16
#define geo_loop_height 16
static unsigned char geo_loop_bits[] = {
   0x00, 0x00, 0x00, 0x00, 0x80, 0x07, 0x60, 0x04, 0x30, 0x04, 0x08, 0x04,
   0x0c, 0x04, 0x04, 0x0c, 0x04, 0x08, 0x04, 0x08, 0x0c, 0x08, 0x08, 0x08,
   0x18, 0x0c, 0x30, 0x06, 0xe0, 0x03, 0x00, 0x00};
