#define geo_surface_width 16
#define geo_surface_height 16
static unsigned char geo_surface_bits[] = {
   0x00, 0x00, 0x00, 0x00, 0x00, 0x00, 0xfe, 0x30, 0x92, 0x7f, 0x12, 0x41,
   0x12, 0x41, 0x12, 0x41, 0x12, 0x41, 0x12, 0x61, 0x12, 0x21, 0x12, 0x23,
   0xfe, 0x1a, 0x86, 0x0f, 0x00, 0x00, 0x00, 0x00};
