/* XPM */
static char * graphicsstyle_xpm[] = {
"16 16 14 1",
" 	c None",
".	c #000000",
"+	c #606060",
"@	c #7878F0",
"#	c #8484F0",
"$	c #9090F0",
"%	c #9C9CF0",
"&	c #A8A8F0",
"*	c #B4B4F0",
"=	c #C0C0F0",
"-	c #CCCCF0",
";	c #D8D8F0",
">	c #E4E4F0",
",	c #F2F2FF",
"                ",
" .............. ",
" .++++++++++++. ",
" .@@@@@@@@@@@@. ",
" .############. ",
" .$$$$$$$$$$$$. ",
" .%%%%%%%%%%%%. ",
" .&&&&&&&&&&&&. ",
" .************. ",
" .============. ",
" .------------. ",
" .;;;;;;;;;;;;. ",
" .>>>>>>>>>>>>. ",
" .,,,,,,,,,,,,. ",
" .............. ",
"                "};
