/* XPM */ 
static char * hide_xpm[] = {
"16 16 5 1",
" 	c None",
"!	c black",
"#	c #777777",
"$	c #EBEBEB",
"%	c white",
"       !        ",
"       !        ",
"  !    !   #!   ",
"  #!   #  #!    ",
"   ##$$#$$#     ",
"    $#%%%#$     ",
"    $%%%%%$     ",
"!!!##%%#%%##!!! ",
"    $%%%%%$     ",
"    $#%%%#$     ",
"    #$$#$$##    ",
"   !#  #   !#   ",
"  !#   !    !   ",
"       !        ",
"       !        ",
"                "};