/* XPM */
static char*blade_xpm[]={
"16 16 4 1",
". c #000000",
"a c None",
"b c #77bbcc",
"d c #FF99CC",
"aaaaaaaaaaaaaaaa",
"aa....aaa.daaaaa",
"a.bbbb.aaa.daaaa",
"a.bbbbb.aaaa.daa",
"aa.bbbbb.aaaa.da",
"aaaa.bbbb.aaa.da",
".aaaaa.bbb.aaa.d",
"a.aaaaa.bb.aaaa.",
"aa.aaaaa.b.aaaa.",
"aaa.aaaaa.b.aaaa",
"aaaa.aaaaa.baaaa",
"aaaaa.aaaa.baaaa",
"aaaaa.aaaa.baaaa",
"aaaaaa.aaa.aaaaa",
"aaaaaa.aaaaaaaaa",
"aaaaaa.aaaaaaaaa"};
