/* XPM */
static char*inlet_xpm[]={
"16 16 6 1",
". c #000000",
"  c None",
"c c #77bbcc",
"d c #FF99CC",
"b c #FFFFCC",
"a c #00c0c0",
" .   b    d.    ",
" .c. a b .dd.   ",
" .cc.aa b.dcd.  ",
" .c c.aa b.ccd. ",
" .c  c.aa.bcccd.",
" .c  a c.a.bccd.",
" .c  a  c.a.bcd.",
" .c  a   c.a.bd.",
"  .c a   c.a.cd.",
"   .c a  c.a.cd.",
"    .c a c.a.cd.",
"     .c ac.a.cd.",
"      .c c.a.cd.",
"       .ccaa.cd.",
"        .c.a.cd.",
"          c.a.cd"};
