/* XPM */ 
static char * highlight_xpm[] = {
"16 16 5 1",
" 	c None",
"!	c black",
"#	c #007C00",
"$	c white",
"%	c #DEDEDE",
"     ## ## ## ##",
"     ## ## ## ##",
"  ##            ",
"  ##          ##",
"      !!!!!!  ##",
"##   !$$$$!!    ",
"##  !!!!!!%!  ##",
"    !$$$$!%!  ##",
"##  !$$$$!%!    ",
"##  !$$$$!%!  ##",
"    !$$$$!!   ##",
"##  !!!!!!      ",
"##          ##  ",
"            ##  ",
"## ## ## ##     ",
"## ## ## ##     "};