/* XPM */
static char * Hybrid_xpm[] = {
"16 16 4 1",
" 	c None",
".	c #000000",
"+	c None",
"@	c #0037FF",
"...++.++++++++++",
"......++++++++++",
"++....++++++++++",
"++....++++++++++",
"+.....++++++++++",
"++++++++++++++++",
"++++++++++++++++",
"++@++@++++++@+++",
"++@++@++++++@+++",
"++@++@++++++@+++",
"++@@@@+@++@+@@@+",
"++@++@+@++@+@++@",
"++@++@+@++@+@++@",
"++@++@++@@++@@@+",
"+++++++++@++++++",
"+++++++@@+++++++"};

