#define icepak_nextchoice_new_width 16
#define icepak_nextchoice_new_height 16
static unsigned char icepak_nextchoice_new_bits[] = {
  0x00, 0x00, 0x00, 0x00, 0x00, 0x04, 0x00, 0x0c, 0x00, 0x1c, 0x00, 0x3c,
  0xff, 0x7f, 0xff, 0xff, 0xff, 0xff, 0xff, 0x7f, 0x00, 0x3c, 0x00, 0x1c,
  0x00, 0x0c, 0x00, 0x04, 0x00, 0x00, 0x00, 0x00, };
