#define icepak_lessdetail_new_width 16
#define icepak_lessdetail_new_height 16
static unsigned char icepak_lessdetail_new_bits[] = {
  0xc0, 0x03, 0xc0, 0x03, 0xc0, 0x03, 0xc0, 0x03, 0xc0, 0x03, 0xc0, 0x03,
  0xc0, 0x03, 0xc0, 0x03, 0xc0, 0x03, 0xc0, 0x03, 0xfc, 0x3f, 0xf8, 0x1f,
  0xf0, 0x0f, 0xe0, 0x07, 0xc0, 0x03, 0x80, 0x01, };
