#define icepak_move_object_new_width 16
#define icepak_move_object_new_height 16
static unsigned char icepak_move_object_new_bits[] = {
  0x00, 0x00, 0x00, 0x00, 0x00, 0x00, 0xfc, 0x00, 0xc2, 0x10, 0xbf, 0x20,
  0xa1, 0x7e, 0xa5, 0x20, 0xa5, 0x10, 0xa5, 0x00, 0xa5, 0x00, 0xa5, 0x00,
  0xa5, 0x00, 0xad, 0x00, 0x61, 0x00, 0x3f, 0x00, };
