#define icepak_edit_object_width 20
#define icepak_edit_object_height 20
static unsigned char icepak_edit_object_bits[] = {
   0x00, 0x80, 0x00, 0x00, 0xc0, 0x01, 0x00, 0xa0, 0x03, 0x00, 0x10, 0x03,
   0x00, 0x88, 0x00, 0x00, 0x48, 0x00, 0x00, 0x24, 0x00, 0x00, 0x22, 0x00,
   0x00, 0x11, 0x00, 0x80, 0x0b, 0x00, 0x80, 0x07, 0x00, 0xfe, 0x03, 0x00,
   0xc2, 0x04, 0x00, 0xe4, 0x18, 0x00, 0x08, 0x20, 0x00, 0xb0, 0x47, 0x00,
   0x40, 0x9c, 0x01, 0x80, 0x00, 0x02, 0x00, 0xff, 0x07, 0x00, 0x00, 0x00};
