#define icepak_prevchoice_width 13
#define icepak_prevchoice_height 9
static unsigned char icepak_prevchoice_bits[] = {
   0x10, 0x00, 0x18, 0x00, 0x1c, 0x00, 0xfe, 0x1f, 0xff, 0x1f, 0xfe, 0x1f,
   0x1c, 0x00, 0x18, 0x00, 0x10, 0x00};
