#define icepak_copy_object_new_width 16
#define icepak_copy_object_new_height 16
static unsigned char icepak_copy_object_new_bits[] = {
  0xe0, 0x21, 0x18, 0x26, 0x04, 0x38, 0x00, 0x3e, 0x00, 0x00, 0x7c, 0xf8,
  0x62, 0xc4, 0x5f, 0xbe, 0x51, 0xa2, 0x55, 0xaa, 0x55, 0xaa, 0x55, 0xaa,
  0x55, 0xaa, 0x5d, 0xba, 0x31, 0x62, 0x1f, 0x3e, };
