#define icepak_delete_object_new_width 16
#define icepak_delete_object_new_height 16
static unsigned char icepak_delete_object_new_bits[] = {
  0x00, 0x00, 0x06, 0x60, 0x1e, 0x78, 0x38, 0x1c, 0x70, 0x0c, 0xe0, 0x07,
  0xc0, 0x03, 0xe0, 0x07, 0xf0, 0x0e, 0x78, 0x1c, 0x3c, 0x38, 0x0c, 0x30,
  0x0e, 0x60, 0x06, 0x60, 0x06, 0x60, 0x00, 0x00, };
