#define icon_v_width 6
#define icon_v_height 8
static unsigned char icon_v_bits[] = {
   0x0c, 0x0c, 0x0c, 0x0c, 0x0c, 0x3f, 0x1e, 0x0c};
