/* XPM */
static char * initialisation_xpm[] = {
"16 16 13 1",
" 	c None",
".	c #0E254C",
"+	c #071B38",
"@	c #000000",
"#	c #99B8FF",
"$	c #6695F9",
"%	c #4C82FF",
"&	c #152E60",
"*	c #276FEA",
"=	c #9F9F9F",
"-	c #3D0000",
";	c #9B8181",
">	c #541212",
".++@@           ",
"##$+@           ",
"#$+%@           ",
"&.%%@           ",
"$.%%@           ",
"$.%%@           ",
"$.%*@           ",
"$+*@=           ",
"$+@=            ",
"+@=  -      ;>>;",
"     -      >  >",
"    ---  -- -  -",
"     -      -  -",
"     -   -- -  -",
"     > >    >  >",
"     ;>;    ;>>;"};
