/* XPM */
static char * inputparameter_xpm[] = {
"16 16 20 1",
" 	c None",
".	c #000000",
"+	c #FFFEB7",
"@	c #F2F1AE",
"#	c #A9A9A9",
"$	c #4B4B4B",
"%	c #E7E6A6",
"&	c #FFFFFF",
"*	c #DEDD9F",
"=	c #D0CF95",
"-	c #CFCFCF",
";	c #D3D3FF",
">	c #AFAFAF",
",	c #F5F5F5",
"'	c #C7C7FF",
")	c #4B4BFF",
"!	c #9C9C9C",
"~	c #797979",
"{	c #E8E8E8",
"]	c #C5C5C5",
"..............  ",
".+++++++++++@.#$",
".++.+++...%+%.&$",
".++..++.++.+%.&$",
"......+.++.+%.&$",
".++..++...%+%.&$",
".++.+++.++++%.&$",
".++++++.+++@%.&$",
".%%%%%%%%%%*=.&$",
"..............&$",
" -&;&;&>&&,$&&&$",
" #&')'&$!&~$!&&$",
" #&&)&&{$$]&$!&$",
" #&&)&&&&&&&&&&$",
" #&&&&&&&&&&&&&$",
" $$$$$$$$$$$$$$$"};
