/* XPM */ 
static char * isosurf_xpm[] = {
"16 16 12 1",
" 	c None",
"!	c #ABABAB",
"#	c black",
"$	c #B8B8B8",
"%	c #4C82FF",
"&	c #82A7FF",
"'	c #99B8FF",
"(	c #B0C8FF",
")	c #C1D3FF",
"*	c #6493FF",
"+	c #739CFF",
",	c #787878",
"!###            ",
"#               ",
"#       $###    ",
"!###   ##%&'#   ",
"     $#%&((('#  ",
"    ##&(())('%# ",
"   ##''())('&%# ",
"  #%%#%&(('&*%# ",
"  #***#%'''&**# ",
"  #****#'''+*+'#",
"  #*+**#''&++''#",
"  ,%++##''&+''# ",
"   #+# #''&''#  ",
"   ##  #''''#   ",
"   #    #''#    ",
"         ##     "};