/* XPM */
static char * label_xpm[] = {
"16 16 7 1",
" 	c None",
".	c #2E2E2E",
"+	c #152E60",
"@	c #294D95",
"#	c #A7C0FF",
"$	c #1C1C1C",
"%	c #94B4F9",
"                ",
"                ",
"       ..       ",
"       ..       ",
"       ..       ",
"       ..       ",
"     ++..++     ",
"   ++@#..#@++   ",
"  +@###..###@+  ",
" ++##$....$%%++ ",
" +@+##$..$%%+@+ ",
" +#@+##$$%%+@%+ ",
" +##@+##%%+@%%+ ",
" +###@++++@%%%+ ",
" +#######%%%%%+ ",
" +######%%%%%%+ "};
