/* XPM */
static char * line_xpm[] = {
"16 16 3 1",
".	c None",
"#      c #FFFFCC",
"+	c #000000",
"....+.........+.",
".....+.......+..",
"......+.....+...",
".......+..++....",
"........++##++..",
"......++#...#++.",
"+++++++###.... +",
"######++.++#...+",
".......++..++..+",
".......+....++..",
"......+....+.++.",
".....+....+..+++",
"....+.....+....+",
"...+......+.....",
"..+.......+.....",
".+........+....."};

