/* XPM */
static char *LaunchSolveIcon2[]={
"32 30 328 2",
".S c #0024dd",
".Z c #0024e0",
".O c #0029da",
"#h c #002de6",
".P c #002ee3",
".R c #002fe2",
".Q c #002fe3",
".9 c #0032e1",
"#O c #0033e1",
"au c #0034e3",
"#e c #0035e2",
"#q c #0037d7",
"#f c #0039e5",
".4 c #0136e1",
"#g c #013cea",
"ak c #023ada",
".5 c #033be7",
"#V c #033cd8",
"#p c #0540e6",
".6 c #063de7",
"av c #073ade",
".7 c #073de6",
".8 c #073de7",
"#U c #0b43e4",
"#o c #0e4ae9",
"#d c #0f48df",
".0 c #103adb",
".Y c #1143da",
"#m c #1352eb",
"#J c #1447ea",
"#u c #1457e9",
"#n c #1649ee",
"aF c #174eeb",
"#0 c #1759e4",
"aS c #175aea",
"cK c #1c4ae6",
"#t c #1e5eed",
"aZ c #214be9",
"cn c #224ef5",
"a0 c #2254f0",
"aE c #2362ec",
"#P c #2453e0",
"cJ c #2453e7",
"bA c #254ce9",
"#s c #2563ef",
"#B c #2663ed",
"aG c #295dd7",
"#k c #2b52c6",
"a1 c #2b5def",
"#9 c #2b68ef",
"bB c #2c51f2",
"bd c #2c58ed",
"bN c #2c5af2",
"bL c #2c5beb",
"co c #2d54ee",
"bc c #2e55ee",
"bM c #2e58f2",
"#T c #2e6bef",
"cm c #3154e4",
"#v c #3262e8",
"#A c #3472f0",
".z c #3562d8",
".E c #365cdb",
"bK c #3761ee",
"a. c #376ce6",
"a2 c #385bf7",
"cp c #395bf4",
".A c #3964e4",
"a7 c #3974ed",
"a3 c #3a5cf7",
"bU c #3a5dea",
".C c #3a66e3",
".D c #3a66e4",
"#z c #3a77f0",
"aM c #3c52f2",
".B c #3c64e5",
"bT c #3d57ed",
"#I c #3d7cf4",
"at c #4079f2",
"cr c #4151ef",
"b3 c #4255f1",
"cq c #425af7",
"bb c #4266ec",
"a6 c #427ef1",
"#1 c #436fec",
"#N c #4383ed",
"bC c #445cf2",
"aj c #4580f8",
"#8 c #4782ed",
"#C c #4879ed",
"#H c #4987f5",
"cI c #4b6de7",
"bD c #4c5ef3",
"bf c #4c90f8",
".T c #4e74e1",
"#G c #4e8bf4",
"ai c #4e8ff2",
"aN c #4f5ff0",
"#i c #5075df",
"#c c #507de3",
"bJ c #516eef",
"#w c #517be0",
"bE c #535ef4",
"b4 c #555ff3",
"aL c #5870ec",
"#. c #587de6",
"aO c #5961f7",
"aR c #598ff1",
"#Z c #5d9ff3",
"aP c #5e62f4",
"bS c #5e6dec",
"br c #5f64eb",
"b5 c #6163f3",
"af c #617ccf",
".X c #617ee3",
"aT c #618ce8",
"bl c #6262f1",
"#L c #62a4fa",
"be c #63a4f4",
"bs c #645fef",
"ag c #647fd0",
"al c #6483e8",
"#M c #65a1f9",
".K c #6682db",
"aH c #6683e0",
"aY c #6685de",
"bk c #675cf4",
"b2 c #677cec",
"as c #68adfc",
"az c #6957ef",
"b8 c #695bee",
"#W c #6c8ce3",
"#x c #6c8dda",
"ah c #6ca2f5",
"bm c #6cb2fc",
"ar c #6da8f9",
"aD c #6daffa",
"b6 c #6f61f3",
"cL c #7189e4",
"b7 c #725ef7",
"#S c #72b1fc",
"bt c #7365f5",
"bn c #73aafa",
"bZ c #7663f6",
"bY c #7764f5",
"b0 c #7865f4",
"bg c #79a7ef",
"aA c #7a5ffb",
"#R c #7bbcfb",
"bu c #7c64f3",
"bv c #7db7fb",
"bj c #7e69f4",
".F c #7f96dd",
"a5 c #7fb3f8",
".L c #8198dd",
"aB c #8265f5",
"ba c #839df3",
"aC c #84c0ff",
"cs c #8693ec",
"bI c #869fe2",
"ay c #8a85ed",
"bz c #8a9ee8",
"cH c #8b9ff2",
"#7 c #8bbdfc",
"cX c #8ea5db",
"#Y c #8fc7ff",
"ap c #9060f4",
"aQ c #91c8fe",
"#r c #96afec",
"#K c #99adec",
".N c #99adee",
"a4 c #9cade1",
"#3 c #9cb3e5",
"aq c #9d5ffc",
".3 c #9eb5ef",
"#2 c #9eb8ec",
"cl c #a2add7",
"b9 c #a397ef",
"bF c #a3c8f5",
"bX c #a49df0",
"bw c #a7caf6",
"bq c #abb2f4",
"cW c #abbbdf",
"aw c #acc1ec",
"#b c #adc3e6",
"ao c #af97f4",
".y c #b1c4ed",
"a8 c #b4caf2",
"ae c #b56ef4",
"b# c #b7c4f6",
"bR c #b9c4f6",
"#l c #bbc7e8",
".W c #bec7f3",
".J c #c0d0f1",
".1 c #c3d0f1",
"bo c #c4dcf7",
"aK c #c5d3f5",
"ad c #cdaef2",
"bi c #cdc2f3",
"cG c #d2d8f6",
"aV c #d4ddf8",
"#Q c #d5e1f8",
"b1 c #d6dcf2",
"b. c #dae4f3",
"a# c #dae6f5",
"bO c #deedf9",
"ax c #e1e2fa",
"aU c #e1edf9",
"#D c #e1eef8",
"cY c #e3ebf8",
".k c #e3ecfa",
".p c #e4ebfa",
"bG c #e4f1fc",
".l c #e5ecfb",
".n c #e5ecfc",
".o c #e6ecfb",
".m c #e6ecfc",
"bH c #e7eff6",
"aX c #e9eff7",
"#E c #e9f3f6",
"cV c #ebedf6",
"#5 c #ecd4f8",
"bQ c #eceefb",
"#4 c #ecf0f9",
"#y c #ecf0fa",
"ct c #edf1fc",
".q c #eff2f9",
"an c #f0edfb",
"c. c #f1c3e8",
"aI c #f1f3fc",
"bh c #f1f8fb",
"bW c #f2f2f9",
"#a c #f2f5f6",
"#j c #f2f6fc",
"aW c #f3f5fc",
"c0 c #f497bd",
"by c #f4f6fa",
".V c #f4f7fc",
".j c #f4f8f9",
"#F c #f4f8fb",
"c7 c #f5bad4",
"cF c #f5f5f9",
"bx c #f5fafd",
"c6 c #f692bc",
"cg c #f6b0e0",
".u c #f6f8fc",
"cN c #f780b5",
"cC c #f7b1d6",
"a9 c #f7fafb",
"cM c #f8cee4",
"cZ c #f8d7e5",
"ac c #f8f4fd",
"#X c #f8f9fd",
".U c #f8fbfb",
"cf c #f982d0",
"cb c #f989cf",
"cx c #f98ac4",
"## c #f9fbfc",
"cv c #fa82c6",
"cB c #fa83c2",
"cz c #fa88c8",
"cc c #fa89d1",
"cd c #fa89d2",
"c5 c #fa96c0",
"c4 c #fa97c0",
"c3 c #fa98c0",
"cT c #faaace",
"#6 c #fafbfd",
"df c #fafefe",
"cS c #fb7ab4",
"cy c #fb88c7",
"cA c #fb89c8",
"ce c #fb89d1",
"d. c #fbebf3",
"de c #fbf2f7",
".G c #fbfbfa",
"am c #fbfbfe",
".t c #fbfefd",
"cO c #fc80ba",
"cw c #fc85c8",
"c2 c #fc97c0",
"dd c #fceaf2",
"d# c #fcecf3",
"c8 c #fcfcfd",
"cD c #fcfdfc",
"aa c #fcfdfe",
".h c #fcfffb",
"ci c #fcfffc",
"bP c #fcfffe",
"cQ c #fd81ba",
"cR c #fd81bb",
"cP c #fd82bb",
"c# c #fd8bcc",
"c1 c #fd95c0",
"dc c #fdecf3",
"c9 c #fdf7fa",
"cU c #fdfcfd",
"aJ c #fdfdfe",
"bp c #fdfdff",
"cj c #fdfefc",
".g c #fdfffc",
".2 c #fdfffd",
".# c #fdfffe",
".I c #fdffff",
"cu c #fed8e6",
"da c #feebf3",
"db c #feecf3",
"ch c #fefcfa",
".w c #fefef8",
".r c #fefef9",
".x c #fefefe",
"ab c #fefeff",
".M c #fefffc",
".H c #fefffd",
".f c #fefffe",
".e c #feffff",
"ca c #ff85cf",
"cE c #fffdfe",
"bV c #fffefb",
".i c #fffefc",
".c c #fffefe",
".s c #fffeff",
".v c #fffff9",
"ck c #fffffb",
".d c #fffffc",
".b c #fffffd",
".a c #fffffe",
"Qt c #ffffff",
"QtQtQtQtQtQtQtQtQt.#.a.b.aQtQtQtQtQtQt.c.d.bQtQt.e.f.f.a.a.g.hQt",
"QtQtQtQtQtQtQtQtQt.i.j.k.l.m.n.o.n.p.q.r.f.s.s.eQtQtQt.t.u.v.w.e",
"QtQtQt.x.xQtQtQtQt.a.y.z.A.B.C.C.D.E.F.G.b.H.bQtQt.I.J.K.L.f.i.M",
"QtQtQt.xQtQt.xQtQtQt.N.O.P.Q.R.R.Q.S.T.U.b.eQt.V.W.X.Y.Z.0.1.a.2",
"QtQtQtQtQtQtQtQtQtQt.3.4.5.6.7.7.8.9#.##.b#a#b#c#d#e#f#g#h#i#j.a",
"QtQtQtQtQtQtQt#k#k#k#lQt#l#k#k#k#k#k#k#k#k#k#k#k#k#m#n#o#p#q#rQt",
"QtQtQtQtQtQtQt#k#k#kQtQtQt#k#k#k#k#k#k#k#k#k#k#k#k#s#t#u#v#w#x#y",
"QtQtQtQtQtQtQt#k#kQtQtQtQtQt#k#k#k#k#k#k#k#k#k#k#k#z#A#B#C#D#E#F",
"QtQtQtQt.s.f.H#lQtQtQt#kQtQtQt#l#k#k#k#k#k#k#k#k#k#G#H#I#J#KQtQt",
"QtQtQtQt.I.eQtQtQtQt#k#k#kQtQtQt#k#k#k#k#k#k#k#k#k#L#M#N#O#P#QQt",
"QtQtQtQt.fQtQt#lQtQtQt#kQtQtQt#l#k#k#k#k#k#k#k#k#k#R#S#T#U#V#W#X",
"QtQtQtQt.s.aQt#k#kQtQtQtQtQt#k#k#k#k#k#k#k#k#k#k#k#Y#Z#0#1#2#3#4",
"Qt.e.fQtQt.c#5#k#k#kQtQtQt#k#k#k#k#l#6#l#k#k#k#k#k#7#8#9a.a#Qtaa",
"ab.2.#Qtacadae#k#k#k#lQt#laf#l#k#kQtQtQt#k#k#lag#kahaiajakalamQt",
".a.aQtanaoapaq#k#k#k#k#k#k#lQtQtQtQtQtQtQtQtQt#l#karasatauavawQt",
"QtQtaxayazaAaB#k#k#k#k#k#k#kQtQtQtQtQtQtQtQtQt#k#kaCaDaEaFaGaHaI",
"aJaKaLaMaNaOaP#k#k#k#k#k#k#kQtQtQtQtQtQtQtQtQt#k#kaQaRaSaTaUaVaW",
"aXaYaZa0a1a2a3#k#k#k#k#k#lQtQtQtQta4#ka4QtQtQtQt#la5a6a7a8.bQtQt",
"a9b.b#babbbcbd#k#k#k#k#k#6QtQtQtQt#k#k#kQtQtQtQt#6bebfbgbh.a.aQt",
"QtQt.abibjbkbl#k#k#k#k#k#lQtQtQtQta4#ka4QtQtQtQt#lbmbnbo.b.s.aQt",
"Qtbpbqbrbsbtbu#k#k#k#k#k#k#kQtQtQtQtQtQtQtQtQt#k#kbvbwbx.bab.a.a",
"bybzbAbBbCbDbE#k#k#k#k#k#k#kQtQtQtQtQtQtQtQtQt#k#kbFbGQt.s.f.a.a",
"bHbIbJbKbLbMbN#k#k#k#k#k#k#lQtQtQtQtQtQtQtQtQt#l#kbO.aQtQtQtQtQt",
".IbPbQbRbSbTbU#k#k#k#k#k#kag#l#k#kQtQtQt#k#k#lag#k.gbVQtQtQtQtQt",
"QtQtbWbXbYbZb0#k#k#k#k#k#k#k#k#k#k#l#6#l#k#k#k#k#k.iQtQtQtQtQtQt",
".ab1b2b3b4b5b6b7b8b9c.c#cacbcccdcecfcgchcicj.b.aQtQtQtQtQtQtQtQt",
"ckclcmcncocpcqcrcsctcucvcwcxcyczcAcBcCcD.#cEQtQtQtQtQtQtQtQtQtQt",
".acFcGcHcIcJcKcL#yQtcMcNcOcPcQcRcOcScTcU.fQtQtQtQtQtQtQtQtQtQtQt",
"abQtQtQtcVcWcXcYQt.ecZc0c1c2c3c4c5c6c7c8QtQtQtQtQtQtQtQtQtQtQtQt",
".e.e.sQtQtQt.bQt.s.#c9d.d#dadbdcdadddedfQtQtQtQtQtQtQtQtQtQtQtQt"};
