/* XPM */
static char *LaunchPostIcon2[]={
"32 30 494 2",
".S c #0024dd",
".Z c #0024e0",
".O c #0029da",
"#h c #002de6",
".P c #002ee3",
".R c #002fe2",
".Q c #002fe3",
".9 c #0032e1",
"ap c #0033e1",
"#q c #0034e1",
"bP c #0034e3",
"#e c #0035e2",
"#B c #0037d7",
"#f c #0039e5",
".4 c #0136e1",
"#g c #013cea",
"bz c #023ada",
".5 c #033be7",
"aG c #033cd8",
"#A c #0540e6",
"#J c #0636e3",
".6 c #063de7",
"#l c #0738e0",
"bQ c #073ade",
".7 c #073de6",
".8 c #073de7",
"#w c #0750e4",
"#m c #093de7",
"#n c #0a3fe8",
"#o c #0b3fe7",
"#p c #0b3fe8",
"aF c #0b43e4",
"#z c #0e4ae9",
"#E c #0f3ae0",
"#d c #0f48df",
".0 c #103adb",
"#F c #113ee6",
".Y c #1143da",
"#I c #1242e6",
"#H c #1242e7",
"#G c #1342e7",
"#x c #1352eb",
"ac c #1447ea",
"#R c #1457e9",
"#y c #1649ee",
"c# c #174eeb",
"aZ c #1759e4",
"cv c #175aea",
"fk c #1c4ae6",
"#v c #1d53e9",
"#Q c #1e5eed",
"cC c #214be9",
"eZ c #224ef5",
"cD c #2254f0",
"c. c #2362ec",
"#O c #2366ef",
"aq c #2453e0",
"fj c #2453e7",
"du c #254ce9",
"#P c #2563ef",
"#Y c #2663ed",
"ca c #295dd7",
"aQ c #2b51c5",
"b2 c #2b52c5",
"#W c #2b52c6",
"cE c #2b5def",
"bk c #2b68ef",
"c2 c #2c50bd",
"dv c #2c51f2",
"aX c #2c53c6",
"dE c #2c5af2",
"dC c #2c5beb",
"a4 c #2d54c6",
"e0 c #2d54ee",
"am c #2e54c6",
"dD c #2e58f2",
"aE c #2e6bef",
"ae c #2f55c6",
"cL c #3054c0",
"a# c #3056c6",
"br c #3056c7",
"eY c #3154e4",
"aJ c #3157c7",
"bI c #3256c5",
"b1 c #3257c5",
"as c #3257c7",
"#S c #3262e8",
"bv c #3358c7",
"aP c #3458c4",
"bY c #3459c7",
"bf c #3459c8",
"#X c #3472f0",
"bK c #3559c5",
"dp c #3559c7",
"da c #355ac8",
".z c #3562d8",
"bq c #365bc8",
".E c #365cdb",
"c1 c #375ac1",
"dB c #3761ee",
"bl c #376ce6",
"#3 c #385cc8",
"e1 c #395bf4",
"b# c #395cc7",
"cq c #395dc6",
".A c #3964e4",
"cQ c #3974ed",
"d3 c #3a5dea",
"dl c #3a5ec8",
".C c #3a66e3",
".D c #3a66e4",
"al c #3b5ec9",
"cg c #3c52f2",
".B c #3c64e5",
"#N c #3c6ded",
"d2 c #3d57ed",
"af c #3d61ca",
"ab c #3d7cf4",
"cI c #3f60c4",
"aR c #3f61c7",
"bG c #3f62cb",
"bd c #4062c8",
"a8 c #4063cb",
"bO c #4079f2",
"e3 c #4151ef",
"eD c #4255f1",
"e2 c #425af7",
"cH c #4263c7",
"ct c #4265cc",
"cW c #4266ec",
"cP c #427ef1",
"bs c #4366cc",
"a0 c #436fec",
"ao c #4383ed",
"dw c #445cf2",
"c3 c #4464c5",
"cr c #4567cd",
"by c #4580f8",
"bj c #4782ed",
"#Z c #4879ed",
"aa c #4987f5",
"fi c #4b6de7",
"c7 c #4c90f8",
"dF c #4d5bed",
"b8 c #4e6dcc",
"bX c #4e6ece",
".T c #4e74e1",
"bx c #4e8ff2",
"ch c #4f5ff0",
"ck c #4f6ecc",
"#i c #5075df",
"#c c #507de3",
"dA c #516eef",
"#T c #517be0",
"bi c #5271cd",
"cM c #5371cc",
"ci c #5473d0",
"eE c #555ff3",
"cO c #5573cf",
"c6 c #5775ce",
"cf c #5870ec",
"bV c #5876ce",
"#. c #587de6",
"bc c #5977d0",
"cu c #598ff1",
"do c #5b78cf",
"#r c #5d7fe4",
"aY c #5d9ff3",
"d1 c #5e6dec",
"aW c #5e7ad0",
"dj c #5f64eb",
"aC c #5f7bd1",
"eF c #6163f3",
"dm c #617dd1",
".X c #617ee3",
"cw c #618ce8",
"a. c #627ed0",
"#K c #627ee8",
"cX c #637fd1",
"dk c #645fef",
"bA c #6483e8",
"an c #65a1f9",
"ba c #6682d3",
".K c #6682db",
"cb c #6683e0",
"cB c #6685de",
"eC c #677cec",
"ak c #6782d2",
"cF c #6782d3",
"b5 c #6883d5",
"bN c #68adfc",
"bU c #6957ef",
"eI c #695bee",
"#4 c #6a84d3",
"a5 c #6c86d4",
"a7 c #6c86d5",
"aH c #6c8ce3",
"#U c #6c8dda",
"dn c #6d87d5",
"b9 c #6daffa",
"at c #6e87d4",
"eG c #6f61f3",
"aK c #7089d5",
"fl c #7189e4",
"eH c #725ef7",
"aD c #72b1fc",
"df c #73aafa",
"en c #7663f6",
"em c #7764f5",
"bJ c #778fd7",
"eo c #7865f4",
"b0 c #7890d8",
"c8 c #79a7ef",
"d4 c #7b68f7",
"ag c #7c93d8",
"d# c #7e69f4",
"c0 c #7f95d7",
"bg c #7f96da",
".F c #7f96dd",
"b4 c #8096d8",
"bw c #8096da",
".L c #8198dd",
"de c #8298da",
"cV c #839df3",
"c4 c #859ad9",
"e4 c #8693ec",
"dz c #869fe2",
"bT c #8a85ed",
"dt c #8a9ee8",
"aO c #8b9fdd",
"fh c #8b9ff2",
"b3 c #8ba0dd",
"ep c #8e6af6",
"cK c #8ea2dc",
"bF c #8ea2df",
"fx c #8ea5db",
"db c #91a4df",
"er c #935ff5",
"#u c #93aae3",
"b7 c #94a7e0",
"#C c #96afec",
"eq c #9863f4",
"ad c #99adec",
".N c #99adee",
"dS c #9ac3f2",
"#9 c #9bace2",
"cn c #9bace3",
"bt c #9bade3",
"a2 c #9cb3e5",
"cJ c #9dade0",
"bZ c #9daee0",
"aS c #9daee2",
"aM c #9eafe4",
".3 c #9eb5ef",
"a1 c #9eb8ec",
"#k c #a0b6ef",
"eX c #a2add7",
"dG c #a36bf8",
"eJ c #a397ef",
"#D c #a3b7ef",
"el c #a49df0",
"cm c #a4b3e2",
"bH c #a4b3e3",
"#5 c #a5b4e5",
"aT c #a7b6e4",
"aU c #a7b7e6",
"dq c #a7caf6",
"di c #abb2f4",
"fw c #abbbdf",
"bR c #acc1ec",
"dR c #acc6f1",
"dT c #accdf7",
"co c #adbbe5",
"b. c #adbbe6",
"bW c #adbce7",
"#b c #adc3e6",
"bD c #af97f4",
"cZ c #b0bee6",
"bL c #b0bee9",
".y c #b1c4ed",
"dV c #b1d5fb",
"cj c #b2c0ea",
"dW c #b2d4f9",
"cR c #b4caf2",
"es c #b673f4",
"cG c #b6c4eb",
"cU c #b7c4f6",
"d7 c #b867f8",
"d6 c #b967ff",
"d0 c #b9c4f6",
"aN c #b9c5e9",
"dU c #b9d7fa",
"cY c #bac6e9",
"d5 c #bb6aff",
"cs c #bcc8ec",
".W c #bec7f3",
"cp c #c0caeb",
"ay c #c0cbed",
"bu c #c0cced",
".J c #c0d0f1",
"dd c #c2cded",
"c5 c #c3cded",
".1 c #c3d0f1",
"dg c #c4dcf7",
"ax c #c5cfec",
"ce c #c5d3f5",
"#M c #c5d8f5",
"aB c #c6d0ed",
"#8 c #c6d0ee",
"be c #c7d0ee",
"dc c #c8d1ee",
"#6 c #c9d3ef",
"d8 c #cb6ef2",
"az c #cbd4ee",
"bb c #ccd5ef",
"d. c #cdc2f3",
"bM c #cdd6f0",
"#7 c #cdd6f1",
"aV c #ced7f0",
"cl c #d0d7f0",
"dQ c #d19fe9",
"cN c #d1d9f0",
"fg c #d2d8f6",
"bh c #d4dbf2",
"cy c #d4ddf8",
"ar c #d5e1f8",
"dH c #d671fd",
"eB c #d6dcf2",
"au c #d6ddf2",
"dJ c #d96bfb",
"aj c #d9dff3",
"a9 c #dae0f3",
"cT c #dae4f3",
"bm c #dae6f5",
"dI c #dc6df9",
"eh c #dcedf8",
"aL c #dde3f4",
"dK c #de6cfc",
"a6 c #dee4f5",
"dX c #deedf9",
"bS c #e1e2fa",
"cx c #e1edf9",
"#0 c #e1eef8",
"d9 c #e37aef",
"fy c #e3ebf8",
".k c #e3ecfa",
"ah c #e4e8f7",
"b6 c #e4e9f6",
".p c #e4ebfa",
"dx c #e4f1fc",
"bE c #e5e9f6",
".l c #e5ecfb",
".n c #e5ecfc",
".o c #e6ecfb",
".m c #e6ecfc",
"eg c #e6effa",
"dy c #e7eff6",
"ei c #e7f6fb",
"et c #e885dd",
"dL c #e973f8",
"av c #e9edf8",
"cA c #e9eff7",
"#1 c #e9f3f6",
"fv c #ebedf6",
"aw c #ebeef8",
"dZ c #eceefb",
"a3 c #ecf0f9",
"#V c #ecf0fa",
"#t c #edf0f2",
"e5 c #edf1fc",
"ef c #eef3fa",
".q c #eff2f9",
"dM c #f07df3",
"bC c #f0edfb",
"aA c #f0f3fa",
"dP c #f183e6",
"eK c #f1c3e8",
"cc c #f1f3fc",
"c9 c #f1f8fb",
"ek c #f2f2f9",
"#a c #f2f5f6",
"#j c #f2f6fc",
"cz c #f3f5fc",
"dN c #f484eb",
"e. c #f485ea",
"fA c #f497bd",
"ds c #f4f6fa",
".V c #f4f7fc",
".j c #f4f8f9",
"#2 c #f4f8fb",
"ez c #f5b0e0",
"fH c #f5bad4",
"ff c #f5f5f9",
"dr c #f5fafd",
"dO c #f689e8",
"fG c #f692bc",
"eS c #f6b0e0",
"ai c #f6f7fc",
".u c #f6f8fc",
"ee c #f6fefb",
"fn c #f780b5",
"eb c #f787dd",
"ea c #f788dd",
"fc c #f7b1d6",
"cS c #f7fafb",
"ey c #f882d6",
"e# c #f888e2",
"fm c #f8cee4",
"fz c #f8d7e5",
"bp c #f8f4fd",
"aI c #f8f9fd",
".U c #f8fbfb",
"ec c #f980dd",
"eR c #f982d0",
"ex c #f988d7",
"eN c #f989cf",
"ew c #f989d8",
"e9 c #f98ac4",
"## c #f9fbfc",
"#s c #f9fbfd",
"e7 c #fa82c6",
"fb c #fa83c2",
"f# c #fa88c8",
"eO c #fa89d1",
"eP c #fa89d2",
"ev c #fa89da",
"eu c #fa8ad7",
"fF c #fa96c0",
"fE c #fa97c0",
"fD c #fa98c0",
"ft c #faaace",
"#L c #fafbfc",
"fR c #fafefe",
"fs c #fb7ab4",
"f. c #fb88c7",
"fa c #fb89c8",
"eQ c #fb89d1",
"fK c #fbebf3",
"fQ c #fbf2f7",
".G c #fbfbfa",
"bB c #fbfbfe",
".t c #fbfefd",
"fo c #fc80ba",
"e8 c #fc85c8",
"fC c #fc97c0",
"ed c #fcb2ea",
"fP c #fceaf2",
"fL c #fcecf3",
"fI c #fcfcfd",
"fd c #fcfdfc",
"bn c #fcfdfe",
".h c #fcfffb",
"eU c #fcfffc",
"dY c #fcfffe",
"fq c #fd81ba",
"fr c #fd81bb",
"fp c #fd82bb",
"eL c #fd8bcc",
"fB c #fd95c0",
"fO c #fdecf3",
"fJ c #fdf7fa",
"fu c #fdfcfd",
"cd c #fdfdfe",
"dh c #fdfdff",
"eV c #fdfefc",
".g c #fdfffc",
".2 c #fdfffd",
".# c #fdfffe",
".I c #fdffff",
"e6 c #fed8e6",
"fM c #feebf3",
"fN c #feecf3",
"eT c #fefcfa",
".w c #fefef8",
".r c #fefef9",
".x c #fefefe",
"bo c #fefeff",
".M c #fefffc",
".H c #fefffd",
".f c #fefffe",
".e c #feffff",
"eM c #ff85cf",
"eA c #fffbfc",
"fe c #fffdfe",
"ej c #fffefb",
".i c #fffefc",
".c c #fffefe",
".s c #fffeff",
".v c #fffff9",
"eW c #fffffb",
".d c #fffffc",
".b c #fffffd",
".a c #fffffe",
"Qt c #ffffff",
"QtQtQtQtQtQtQtQtQt.#.a.b.aQtQtQtQtQtQt.c.d.bQtQt.e.f.f.a.a.g.hQt",
"QtQtQtQtQtQtQtQtQt.i.j.k.l.m.n.o.n.p.q.r.f.s.s.eQtQtQt.t.u.v.w.e",
"QtQtQt.x.xQtQtQtQt.a.y.z.A.B.C.C.D.E.F.G.b.H.bQtQt.I.J.K.L.f.i.M",
"QtQtQt.xQtQt.xQtQtQt.N.O.P.Q.R.R.Q.S.T.U.b.eQt.V.W.X.Y.Z.0.1.a.2",
"QtQtQtQtQtQtQtQtQtQt.3.4.5.6.7.7.8.9#.##.b#a#b#c#d#e#f#g#h#i#j.a",
"QtQtQtQtQtQtQtQtQtQt#k#l#m#n#o#o#p#q#r#sQt#t#u#v#w#x#y#z#A#B#CQt",
"QtQtQtQtQtQtQtQtQtQt#D#E#F#G#H#H#I#J#K#L.d.b#M#N#O#P#Q#R#S#T#U#V",
"QtQtQtQtQt#W#W#W#W#W#W#W#W#W#W#W#W#W#W#W#W#W#W#W#W#W#X#Y#Z#0#1#2",
"QtQtQtQt.s#W#W#W#W#W#W#3#4#5#6#7#8#9a.a##W#W#W#W#W#WaaabacadQtQt",
"QtQtQtQt.I#W#W#Waeafagah.uQtQtQtQtQtaiajakalam#W#W#WanaoapaqarQt",
"QtQtQtQt.f#W#WasatauQtavQtawaxayazaAQtQtQtaBaCae#W#WaDaEaFaGaHaI",
"QtQtQtQt.s#WaJaKaLQtaMaNQtaOaPaQaRaSQtaTaUQtaVaWaX#WaYaZa0a1a2a3",
"Qt.e.fQtQta4a5a6Qta7a8a9b.b#babbbcbdbbbebfbgQtbhbi#WbjbkblbmQtbn",
"bo.2.#QtbpbqavQta7brbsQtbtaQbbQtbbaQbuQt#WbvbwQtaV#WbxbybzbAbBQt",
".a.aQtbCbDbqbEQtbFbrbGQtbHbIbJbbbabKaBQt#WbvbLQtbM#WbNbObPbQbRQt",
"QtQtbSbTbUa4bVbWajbXbYbZQtb0b1b2b#b3Qtb4#Wb5b6b7b8#Wb9c.c#cacbcc",
"cdcecfcgch#W#WciQtcjaJckclQtcmcncoQtcpcqcrQtcsct#W#Wcucvcwcxcycz",
"cAcBcCcDcE#W#W#WcFQtcGcHcIcJQtQtQtcKcLcMQtcNcO#W#W#WcPcQcR.bQtQt",
"cScTcUcVcW#W#W#WaecXQtcYcZc0c1c2c3c4cYQtc5c6am#W#W#Wc7c8c9.a.aQt",
"QtQt.ad.d##W#W#W#W#WdadbdcQtQtQtQtQtddde#W#W#W#W#W#Wdfdg.b.s.aQt",
"Qtdhdidjdk#W#W#W#W#W#W#Wdldmdndndndodp#W#W#W#W#W#W#Wdqdr.bbo.a.a",
"dsdtdudvdw#W#W#W#W#W#W#W#W#W#W#W#W#W#W#W#W#W#W#W#W#WdxQt.s.f.a.a",
"dydzdAdBdCdDdEdFdGdHdIdJdKdLdMdNdOdPdQdRdSdTdUdVdWdX.aQtQtQtQtQt",
".IdYdZd0d1d2d3d4d5d6d7d8d9e.e#eaebeced.beeefegehei.gejQtQtQtQtQt",
"QtQtekelemeneoepeqereseteuevewexeweyezeA.a.aQt.a.b.iQtQtQtQtQtQt",
".aeBeCeDeEeFeGeHeIeJeKeLeMeNeOePeQeReSeTeUeV.b.aQtQtQtQtQtQtQtQt",
"eWeXeYeZe0e1e2e3e4e5e6e7e8e9f.f#fafbfcfd.#feQtQtQtQtQtQtQtQtQtQt",
".afffgfhfifjfkfl#VQtfmfnfofpfqfrfofsftfu.fQtQtQtQtQtQtQtQtQtQtQt",
"boQtQtQtfvfwfxfyQt.efzfAfBfCfDfEfFfGfHfIQtQtQtQtQtQtQtQtQtQtQtQt",
".e.e.sQtQtQt.bQt.s.#fJfKfLfMfNfOfMfPfQfRQtQtQtQtQtQtQtQtQtQtQtQt"};
