/* XPM */
static char *LaunchPreIcon2[]={
"32 30 348 2",
".S c #0024dd",
".Z c #0024e0",
".O c #0029da",
"#h c #002de6",
".P c #002ee3",
".R c #002fe2",
".Q c #002fe3",
".9 c #0032e1",
"#0 c #0033e1",
"#q c #0034e1",
"aD c #0034e3",
"#e c #0035e2",
"#B c #0037d7",
"#f c #0039e5",
".4 c #0136e1",
"#g c #013cea",
"at c #023ada",
".5 c #033be7",
"#7 c #033cd8",
"#A c #0540e6",
".6 c #063de7",
"#l c #0738e0",
"aE c #073ade",
".7 c #073de6",
".8 c #073de7",
"#w c #0750e4",
"#m c #093de7",
"#n c #0a3fe8",
"#o c #0b3fe7",
"#p c #0b3fe8",
"#6 c #0b43e4",
"#z c #0e4ae9",
"#d c #0f48df",
".0 c #103adb",
".Y c #1143da",
"#x c #1352eb",
"#V c #1447ea",
"#G c #1457e9",
"#y c #1649ee",
"aO c #174eeb",
"aa c #1759e4",
"a1 c #175aea",
"c4 c #1c4ae6",
"#v c #1d53e9",
"#F c #1e5eed",
"a8 c #214be9",
"cH c #224ef5",
"a9 c #2254f0",
"aN c #2362ec",
"#1 c #2453e0",
"c3 c #2453e7",
"bI c #254ce9",
"#E c #2563ef",
"#N c #2663ed",
"aP c #295dd7",
"#D c #2b52c6",
"b. c #2b5def",
"ai c #2b68ef",
"bJ c #2c51f2",
"bl c #2c58ed",
"bV c #2c5af2",
"bT c #2c5beb",
"cI c #2d54ee",
"bk c #2e55ee",
"bU c #2e58f2",
"#5 c #2e6bef",
"cG c #3154e4",
"#H c #3262e8",
"#M c #3472f0",
".z c #3562d8",
".E c #365cdb",
"bS c #3761ee",
"aj c #376ce6",
"b# c #385bf7",
"cJ c #395bf4",
".A c #3964e4",
"bd c #3974ed",
"ba c #3a5cf7",
"b2 c #3a5dea",
".C c #3a66e3",
".D c #3a66e4",
"#L c #3a77f0",
"aV c #3c52f2",
".B c #3c64e5",
"b1 c #3d57ed",
"#U c #3d7cf4",
"aC c #4079f2",
"cL c #4151ef",
"cl c #4255f1",
"cK c #425af7",
"bj c #4266ec",
"bc c #427ef1",
"ab c #436fec",
"#Z c #4383ed",
"bK c #445cf2",
"as c #4580f8",
"ah c #4782ed",
"#O c #4879ed",
"#T c #4987f5",
"c2 c #4b6de7",
"bL c #4c5ef3",
"bn c #4c90f8",
".T c #4e74e1",
"#S c #4e8bf4",
"ar c #4e8ff2",
"aW c #4f5ff0",
"#i c #5075df",
"#c c #507de3",
"bR c #516eef",
"#I c #517be0",
"bM c #535ef4",
"cm c #555ff3",
"aU c #5870ec",
"#. c #587de6",
"aX c #5961f7",
"a0 c #598ff1",
"#r c #5d7fe4",
"a# c #5d9ff3",
"aY c #5e62f4",
"b0 c #5e6dec",
"bz c #5f64eb",
"cn c #6163f3",
".X c #617ee3",
"a2 c #618ce8",
"bt c #6262f1",
"#X c #62a4fa",
"bm c #63a4f4",
"bA c #645fef",
"au c #6483e8",
"#Y c #65a1f9",
".K c #6682db",
"aQ c #6683e0",
"a7 c #6685de",
"bs c #675cf4",
"ck c #677cec",
"aB c #68adfc",
"aI c #6957ef",
"cq c #695bee",
"#8 c #6c8ce3",
"#J c #6c8dda",
"aq c #6ca2f5",
"bu c #6cb2fc",
"aA c #6da8f9",
"aM c #6daffa",
"co c #6f61f3",
"c5 c #7189e4",
"cp c #725ef7",
"#4 c #72b1fc",
"bB c #7365f5",
"bv c #73aafa",
"b7 c #7663f6",
"b6 c #7764f5",
"b8 c #7865f4",
"bo c #79a7ef",
"aJ c #7a5ffb",
"#3 c #7bbcfb",
"bC c #7c64f3",
"bD c #7db7fb",
"br c #7e69f4",
".F c #7f96dd",
"bb c #7fb3f8",
".L c #8198dd",
"aK c #8265f5",
"bi c #839df3",
"aL c #84c0ff",
"cM c #8693ec",
"bQ c #869fe2",
"aH c #8a85ed",
"bH c #8a9ee8",
"c1 c #8b9ff2",
"ag c #8bbdfc",
"b9 c #8e6af6",
"df c #8ea5db",
"a. c #8fc7ff",
"ay c #9060f4",
"aZ c #91c8fe",
"c# c #935ff5",
"#u c #93aae3",
"#C c #96afec",
"c. c #9863f4",
"#W c #99adec",
".N c #99adee",
"ad c #9cb3e5",
"az c #9d5ffc",
".3 c #9eb5ef",
"ac c #9eb8ec",
"#k c #a0b6ef",
"cF c #a2add7",
"cr c #a397ef",
"bN c #a3c8f5",
"b5 c #a49df0",
"bE c #a7caf6",
"by c #abb2f4",
"de c #abbbdf",
"aF c #acc1ec",
"#b c #adc3e6",
"ax c #af97f4",
".y c #b1c4ed",
"be c #b4caf2",
"ap c #b56ef4",
"ca c #b673f4",
"bh c #b7c4f6",
"bZ c #b9c4f6",
".W c #bec7f3",
".J c #c0d0f1",
".1 c #c3d0f1",
"bw c #c4dcf7",
"aT c #c5d3f5",
"ao c #cdaef2",
"bq c #cdc2f3",
"c0 c #d2d8f6",
"a4 c #d4ddf8",
"#2 c #d5e1f8",
"cj c #d6dcf2",
"bg c #dae4f3",
"ak c #dae6f5",
"bW c #deedf9",
"aG c #e1e2fa",
"a3 c #e1edf9",
"#P c #e1eef8",
"dg c #e3ebf8",
".k c #e3ecfa",
".p c #e4ebfa",
"bO c #e4f1fc",
".l c #e5ecfb",
".n c #e5ecfc",
".o c #e6ecfb",
".m c #e6ecfc",
"bP c #e7eff6",
"cb c #e885dd",
"a6 c #e9eff7",
"#Q c #e9f3f6",
"dd c #ebedf6",
"af c #ecd4f8",
"bY c #eceefb",
"ae c #ecf0f9",
"#K c #ecf0fa",
"#t c #edf0f2",
"cN c #edf1fc",
".q c #eff2f9",
"aw c #f0edfb",
"cs c #f1c3e8",
"aR c #f1f3fc",
"bp c #f1f8fb",
"b4 c #f2f2f9",
"#a c #f2f5f6",
"#j c #f2f6fc",
"a5 c #f3f5fc",
"di c #f497bd",
"bG c #f4f6fa",
".V c #f4f7fc",
".j c #f4f8f9",
"#R c #f4f8fb",
"ch c #f5b0e0",
"dp c #f5bad4",
"cZ c #f5f5f9",
"bF c #f5fafd",
"do c #f692bc",
"cA c #f6b0e0",
".u c #f6f8fc",
"c7 c #f780b5",
"cW c #f7b1d6",
"bf c #f7fafb",
"cg c #f882d6",
"c6 c #f8cee4",
"dh c #f8d7e5",
"an c #f8f4fd",
"#9 c #f8f9fd",
".U c #f8fbfb",
"cz c #f982d0",
"cf c #f988d7",
"cv c #f989cf",
"ce c #f989d8",
"cR c #f98ac4",
"## c #f9fbfc",
"#s c #f9fbfd",
"cP c #fa82c6",
"cV c #fa83c2",
"cT c #fa88c8",
"cw c #fa89d1",
"cx c #fa89d2",
"cd c #fa89da",
"cc c #fa8ad7",
"dn c #fa96c0",
"dm c #fa97c0",
"dl c #fa98c0",
"db c #faaace",
"dz c #fafefe",
"da c #fb7ab4",
"cS c #fb88c7",
"cU c #fb89c8",
"cy c #fb89d1",
"ds c #fbebf3",
"dy c #fbf2f7",
".G c #fbfbfa",
"av c #fbfbfe",
".t c #fbfefd",
"c8 c #fc80ba",
"cQ c #fc85c8",
"dk c #fc97c0",
"dx c #fceaf2",
"dt c #fcecf3",
"dq c #fcfcfd",
"cX c #fcfdfc",
"al c #fcfdfe",
".h c #fcfffb",
"cC c #fcfffc",
"bX c #fcfffe",
"d. c #fd81ba",
"d# c #fd81bb",
"c9 c #fd82bb",
"ct c #fd8bcc",
"dj c #fd95c0",
"dw c #fdecf3",
"dr c #fdf7fa",
"dc c #fdfcfd",
"aS c #fdfdfe",
"bx c #fdfdff",
"cD c #fdfefc",
".g c #fdfffc",
".2 c #fdfffd",
".# c #fdfffe",
".I c #fdffff",
"cO c #fed8e6",
"du c #feebf3",
"dv c #feecf3",
"cB c #fefcfa",
".w c #fefef8",
".r c #fefef9",
".x c #fefefe",
"am c #fefeff",
".M c #fefffc",
".H c #fefffd",
".f c #fefffe",
".e c #feffff",
"cu c #ff85cf",
"ci c #fffbfc",
"cY c #fffdfe",
"b3 c #fffefb",
".i c #fffefc",
".c c #fffefe",
".s c #fffeff",
".v c #fffff9",
"cE c #fffffb",
".d c #fffffc",
".b c #fffffd",
".a c #fffffe",
"Qt c #ffffff",
"QtQtQtQtQtQtQtQtQt.#.a.b.aQtQtQtQtQtQt.c.d.bQtQt.e.f.f.a.a.g.hQt",
"QtQtQtQtQtQtQtQtQt.i.j.k.l.m.n.o.n.p.q.r.f.s.s.eQtQtQt.t.u.v.w.e",
"QtQtQt.x.xQtQtQtQt.a.y.z.A.B.C.C.D.E.F.G.b.H.bQtQt.I.J.K.L.f.i.M",
"QtQtQt.xQtQt.xQtQtQt.N.O.P.Q.R.R.Q.S.T.U.b.eQt.V.W.X.Y.Z.0.1.a.2",
"QtQtQtQtQtQtQtQtQtQt.3.4.5.6.7.7.8.9#.##.b#a#b#c#d#e#f#g#h#i#j.a",
"QtQtQtQtQtQtQtQtQtQt#k#l#m#n#o#o#p#q#r#sQt#t#u#v#w#x#y#z#A#B#CQt",
"QtQtQtQtQtQtQt#D#D#D#D#D#D#D#D#D#D#D#D#D#D#D#D#D#D#E#F#G#H#I#J#K",
"QtQtQtQtQtQtQt#D#D#D#D#D#D#D#D#D#DQtQtQtQtQtQtQt#D#L#M#N#O#P#Q#R",
"QtQtQtQt.s.f.H#D#D#D#D#D#D#D#D#D#DQtQtQtQtQtQtQt#D#S#T#U#V#WQtQt",
"QtQtQtQt.I.eQt#D#D#D#D#D#D#D#D#D#DQtQt#D#D#DQtQt#D#X#Y#Z#0#1#2Qt",
"QtQtQtQt.fQtQt#DQtQtQtQtQtQtQt#D#DQtQt#D#D#DQtQt#D#3#4#5#6#7#8#9",
"QtQtQtQt.s.aQt#DQtQtQtQtQtQtQt#D#DQtQt#D#D#DQtQt#Da.a#aaabacadae",
"Qt.e.fQtQt.caf#DQtQt#D#D#DQtQt#D#DQtQtQtQtQtQtQt#DagahaiajakQtal",
"am.2.#Qtanaoap#DQtQt#D#D#DQtQt#D#DQtQtQtQtQtQtQt#DaqarasatauavQt",
".a.aQtawaxayaz#DQtQt#D#D#DQtQt#D#D#D#D#D#D#D#D#D#DaAaBaCaDaEaFQt",
"QtQtaGaHaIaJaK#DQtQtQtQtQtQtQt#D#D#D#D#D#D#D#D#D#DaLaMaNaOaPaQaR",
"aSaTaUaVaWaXaY#DQtQtQtQtQtQtQtQtQtQtQtQtQt#D#D#D#DaZa0a1a2a3a4a5",
"a6a7a8a9b.b#ba#DQtQtQtQtQtQtQtQtQtQtQtQtQt#D#D#D#Dbbbcbdbe.bQtQt",
"bfbgbhbibjbkbl#DQtQt#D#D#DQtQtQt#D#D#DQtQt#D#D#D#Dbmbnbobp.a.aQt",
"QtQt.abqbrbsbt#DQtQt#D#D#DQtQtQt#D#D#DQtQt#D#D#D#Dbubvbw.b.s.aQt",
"QtbxbybzbAbBbC#DQtQt#D#D#DQtQtQt#D#D#DQtQt#D#D#D#DbDbEbF.bam.a.a",
"bGbHbIbJbKbLbM#DQtQtQtQtQtQtQtQtQtQtQtQtQt#D#D#D#DbNbOQt.s.f.a.a",
"bPbQbRbSbTbUbV#DQtQtQtQtQtQtQtQtQtQtQtQtQt#D#D#D#DbW.aQtQtQtQtQt",
".IbXbYbZb0b1b2#D#D#D#D#D#D#D#D#D#D#D#D#D#D#D#D#D#D.gb3QtQtQtQtQt",
"QtQtb4b5b6b7b8b9c.c#cacbcccdcecfcecgchci.a.aQt.a.b.iQtQtQtQtQtQt",
".acjckclcmcncocpcqcrcsctcucvcwcxcyczcAcBcCcD.b.aQtQtQtQtQtQtQtQt",
"cEcFcGcHcIcJcKcLcMcNcOcPcQcRcScTcUcVcWcX.#cYQtQtQtQtQtQtQtQtQtQt",
".acZc0c1c2c3c4c5#KQtc6c7c8c9d.d#c8dadbdc.fQtQtQtQtQtQtQtQtQtQtQt",
"amQtQtQtdddedfdgQt.edhdidjdkdldmdndodpdqQtQtQtQtQtQtQtQtQtQtQtQt",
".e.e.sQtQtQt.bQt.s.#drdsdtdudvdwdudxdydzQtQtQtQtQtQtQtQtQtQtQtQt"};
