/* XPM */
static char *Layers[] = {
/* width height ncolors chars_per_pixel */
"16 16 3 1",
/* colors */
"  c #000000",
". c #77bbcc",
"X c none",
/* pixels */
"XXXXX           ",
"XXXX ......... X",
"XXX ......... XX",
"XX .........    ",
"X ......... .. X",
" ......... .. XX",
"          ..    ",
"X ......... .. X",
" ......... .. XX",
"          ..    ",
"X ......... .. X",
" ......... .. XX",
"          .. XXX",
"X ......... XXXX",
" ......... XXXXX",
"          XXXXXX"
};
