/* XPM */
static char * layout7_xpm[] = {
"16 16 7 1",
" 	c None",
".	c #3D3D3D",
"+	c #B9C8EF",
"@	c #C7D3F2",
"#	c #D5DEF5",
"$	c #E3E9F8",
"%	c #F1F4FB",
"                ",
"  ............. ",
"  .+++++.+++++. ",
"  .@@@@@.@@@@@. ",
"  .#####.#####. ",
"  .$$$$$.$$$$$. ",
"  .%%%%%.%%%%%. ",
"  ............. ",
"  .+++++++++++. ",
"  .@@@@@@@@@@@. ",
"  .###########. ",
"  .$$$$$$$$$$$. ",
"  .%%%%%%%%%%%. ",
"  ............. ",
"                ",
"                "};
