/* XPM */
static char * leading_xpm[] = {
"16 16 4 1",
".	c None",
"#      c #FF99CC",
"a      c #77bbcc",
"+	c #000000",
"....+...........",
".....+..........",
"......+.........",
".......+..++....",
"........++##++..",
"......++#aaa#++.",
"+++++++##a#aaaa+",
"######++#++#aaa+",
".......++..++aa+",
".......+....++aa",
"......+......++a",
".....+........++",
"....+..........+",
"...+............",
"..+.............",
".+.............."};

