/* XPM */
static char * link_xpm[] = {
"16 16 5 1",
" 	c None",
".	c #616CE5",
"+	c #0000CC",
"@	c #FFFFFF",
"#	c #7F7FE5",
"                ",
"                ",
"                ",
" .+++++  +++++. ",
".+@@@@@++@@@@@+.",
"+@@++++++++++@@+",
"+@+ +@@@@@@+ +@+",
"+@@++++++++++@@+",
".+@@@@#++#@@@@+.",
" .+++++  +++++. ",
"                ",
"                ",
"++++++++++++++++",
"                ",
"                ",
"                "};
