/* XPM */ 
static char * loadres_xpm[] = {
"16 16 16 1",
" 	c None",
"!	c black",
"#	c #BB8800",
"$	c #990000",
"%	c #FFFF99",
"&	c #AA7600",
"'	c #996600",
"(	c #FFF780",
")	c #FFF373",
"*	c #B68300",
"+	c #FFEF67",
",	c #FFEA58",
"-	c #FFDA27",
".	c #FFD10E",
"0	c white",
"1	c #949494",
" ###       $$   ",
"#%%%&&''' $  $ $",
"#%%%(())'     $$",
"#((())))'    $$$",
"*+++##**&'''    ",
"*,,#%%%%,,,'    ",
"&,#,,,,--.'     ",
"'#,,-.!!!!!!!!!!",
"''''''!00000000!",
"      !01110110!",
"      !00000000!",
"      !01111010!",
"      !00000000!",
"      !01101110!",
"      !00000000!",
"      !!!!!!!!!!"};