/* XPM */ 
static char * loadanimation_xpm[] = {
"16 16 16 1",
" 	c None",
"!	c black",
"#	c #BB8800",
"$	c #990000",
"%	c #FFFF99",
"&	c #AA7600",
"'	c #996600",
"(	c #FFF780",
")	c #FFF373",
"*	c #B68300",
"+	c #FFEF67",
",	c #FFEA58",
"-	c #FFDA27",
".	c #FFD10E",
"0	c #C5C5C5",
"1	c white",
" ###       $$   ",
"#%%%&&''' $  $ $",
"#%%%(())'     $$",
"#((())))'    $$$",
"*+++##**&'''    ",
"*,,#%%%%,,,'    ",
"&,#,,,,--.'     ",
"'#,,-....'      ",
"'''''''''       ",
"                ",
"    !!!!!!!!!!!!",
"    0!0000!0000!",
"    0!0110!0110!",
"    0!0110!0110!",
"    0!0000!0000!",
"    !!!!!!!!!!!!"};