/* XPM */
static char * LoadKeyframe_xpm[] = {
"16 16 8 1",
" 	c None",
".	c #DDDDDD",
"+	c #000000",
"@	c #C1C1C1",
"#	c #FFC95E",
"$	c #FFFFFF",
"%	c #FFF6B2",
"&	c #D3CA9A",
".........+++++..",
"..........++++..",
"..........++++..",
".........+++++..",
".........++..+..",
".........++.....",
"................",
".++++++++++++...",
".@@+######+@@...",
".$$+%+%&+%+$$...",
".$$+%+&+%%+$$...",
".$$+%++%%%+$$...",
".$$+%+&+%%+$$...",
".$$+%+%&+%+$$...",
".@@+######+@@...",
".++++++++++++..."};
