/* XPM */
static char * meshnew_xpm[] = {
"16 16 20 1",
" 	c None",
".	c #BB8800",
"+	c #990000",
"@	c #FFFF99",
"#	c #AA7600",
"$	c #996600",
"%	c #FFF780",
"&	c #FFF373",
"*	c #B68300",
"=	c #FFEF67",
"-	c #FFEA58",
";	c #FFDA27",
">	c #FFD10E",
")	c #D9E6FF",
"'      c black",
"!      c #8CAEFF",
"<      c #0035B0",
",      c #AEC7FF",
"^      c #2D6BFF",
"(      c #5387FF",
" ...       ++   ",
".@@@##$$$ +  + +",
".@@@%%&&$     ++",
".%%%&&&&$    +++",
"*===..**#$$$    ",
"*--.@@@@---$    ",
"#-.----;;>$     ",
"$.--;>>>>'<<'<<'",
"$$$$$$$$$<!!^!!<",
"        <!!((!!<",
"        <!!^!!!<",
"        '<<'^^^'", 
"           <,,,<",
"          ^^,,^^", 
"          <,,,< ", 
"          '<<<' "};

