/* XPM */
static char *logotiny[]={
"16 16 117 2",
"Qt c #000000",
"#M c #0000ff",
".i c #103ee3",
".n c #1341e4",
".m c #1543e4",
".C c #214fe6",
".x c #274ae8",
".w c #2a4de9",
".1 c #2b54e7",
".# c #303030",
".l c #355fe9",
"#h c #3a58ec",
".c c #3b69ea",
"#P c #4066eb",
".s c #4870eb",
".t c #4e76ee",
".r c #4f7cea",
".O c #5278ee",
".4 c #5e67ef",
"#d c #5e83ef",
"#H c #5f70ef",
"#r c #6369ef",
"#s c #6a62f2",
".5 c #6b60f2",
"#B c #6c87ee",
".0 c #6d9aee",
"#p c #6f9bef",
".B c #719def",
".N c #719ff1",
"#I c #7261f3",
"#g c #7288ef",
"#c c #759ff1",
".6 c #7962f3",
"#J c #7b66f3",
".J c #7c6cf1",
".A c #7da9f2",
".g c #7f9aef",
".W c #8164f4",
"#O c #879def",
".h c #88a6f2",
".V c #8f66f5",
".p c #91a9f1",
"#y c #95c2f7",
"#i c #9667f5",
"#b c #99c4f8",
".M c #9dc7f8",
".f c #9fb0f1",
".L c #a1c9f8",
".b c #a2baf4",
".Z c #a4c9f7",
"#o c #a4c9f8",
"#a c #a6ccf8",
".Y c #a7caf8",
".z c #a9caf7",
".v c #acb0f1",
".R c #af80f5",
"#z c #b0d0f8",
"#. c #b281f6",
".S c #b36cf7",
".K c #b9c8f7",
".U c #ba6df8",
"#Q c #bbc7f3",
".I c #c484ef",
"## c #c4d2f5",
"#A c #c6d0f6",
".3 c #c7d4f7",
".T c #c86ff9",
"#e c #c8d5f7",
".o c #c9d7f7",
"#D c #cad4f5",
"#E c #cae1fa",
".D c #cddaf8",
"#f c #ced4f6",
"#n c #cedaf7",
".P c #cedaf8",
"#j c #cf70f9",
"#t c #cf77f0",
"#x c #cfd7f7",
".X c #cfd9f6",
"#K c #d099ef",
".2 c #d3dbf7",
".j c #d3e2f9",
".7 c #d475f3",
".9 c #d48bef",
"#q c #d5e3f8",
".u c #d6def7",
"#F c #d6e8fa",
".y c #d7e6fa",
".k c #d8e4f8",
".G c #dc89f5",
".q c #dce6f9",
".d c #dfe7f9",
"#k c #e277f4",
".H c #e389ed",
".8 c #e392f0",
"#N c #e6e8f9",
"#m c #ec81e8",
"#v c #ec9af1",
".Q c #ece3f9",
"#u c #ed97ee",
"#S c #ee84e5",
".F c #efb7f4",
"#w c #f08ee5",
"#U c #f0eaf7",
"#X c #f0ebf7",
"#l c #f186e2",
"#T c #f187e2",
"#R c #f1c9ef",
".e c #f1f7fb",
"#Y c #f2e7f8",
"#L c #f2edf8",
"#C c #f389df",
"#W c #f6f4f9",
".E c #f9f7fa",
"#G c #fbfafb",
".a c #fdfefc",
"#V c #ffffff",
"Qt.#.#.#.#.#.#.#.#.#.#.#.#.#.#.#",
".#.a.a.a.a.a.a.a.a.a.a.a.a.a.a.#",
".#.a.a.a.a.b.c.c.c.d.a.e.f.g.a.#",
".#.a.a.a.a.h.i.i.i.j.k.l.m.n.o.#",
".#.a.a.a.a.p.n.m.n.j.q.r.s.t.u.#",
".#.a.a.a.a.v.w.w.x.y.z.A.B.C.D.#",
".#.a.a.E.F.G.H.I.J.K.L.M.N.O.P.#",
".#.a.Q.R.S.T.U.V.W.X.Y.Z.0.1.2.#",
".#.3.4.5.6.7.8.9#.###a#b#c#d#e.#",
".##f#g#h#i#j#k#l#m#n#o#a#p#q.a.#",
".#.3#r#s.W#t#u#v#w#x.L#y#z.a.a.#",
".##A#B#h#i#j#k#l#C#D#E#F#G.a.a.#",
".#.2#H#I#J#K#l#C#C#L.a#M#M#M.a.#",
".##N#O#P#Q#R#S#T#C#U#M#V#M#V#M.#",
".#.a.a#G.a#W#X#X#Y#G.a#M#M#M.a.#",
".#.#.#.#.#.#.#.#.#.#.#.#.#.#.#.#"};
