/* XPM */
static char*blade_xpm[]={
"16 16 4 1",
". c #000000",
"a c None",
"b c #77bbcc",
"d c #FF99CC",
"aaaaaaaaaaaaaaaa",
"aa....aaa.aaaaaa",
"a.bbbb.aaa.aaaaa",
"a.bbbbb.aaaa.aaa",
"aa.bbbbb.aaaa.aa",
"daaa.bbbb.aaa.aa",
".daaaa.bbb.aaa.a",
"a.daaaa.bb.aaaa.",
"aa.daaaa.b.aaaa.",
"aaa.daaaa.b.aaaa",
"aaaa.daaaa.baaaa",
"aaaaa.daaa.baaaa",
"aaaaa.daaa.baaaa",
"aaaaaa.daa.aaaaa",
"aaaaaa.daaaaaaaa",
"aaaaaa.daaaaaaaa"};
