/* XPM */
static char * magenta_xpm[] = {
"16 16 2 1",
" 	c None",
".	c #FF00FF",
"                ",
"                ",
"                ",
"   ..........   ",
"   ..........   ",
"   ..........   ",
"   ..........   ",
"   ..........   ",
"   ..........   ",
"   ..........   ",
"   ..........   ",
"   ..........   ",
"   ..........   ",
"                ",
"                ",
"                "};
