/* XPM */
static char * materials_xpm[] = {
"16 16 12 1",
" 	c None",
".	c #9C9C00",
"+	c #000000",
"@	c #F7F7F7",
"#	c #FFFFCE",
"$	c #FFFF9C",
"%	c #CECE63",
"&	c #FFFFFF",
"*	c #FFCE9C",
"=	c #E2DBFF",
"-	c #C7BAFF",
";	c #A993FF",
"  .....+        ",
" .@##$$.+       ",
".%%%%%%%......  ",
".###########$%+ ",
".#$$$+++++$$$%+ ",
".#$$$+&&&+$*$%+ ",
".#$$$$+&+$$$*%+ ",
".#$$$$+&+*$*$%+ ",
".#$$$+===+*$*%+ ",
".#$$+-----+*$%+ ",
".#$$+;;;;;+$*%+ ",
".#$$+;;;;;+**%+ ",
".#*$*+++++***%+ ",
".%%%%%%%%%%%%%+ ",
" ++++++++++++++ ",
"                "};
