/* XPM */
static char * maximizeview_xpm[] = {
"16 16 3 1",
" 	c None",
".	c #3D3D3D",
"+	c #515151",
"                ",
"                ",
" .............  ",
" .+++++++++++.  ",
" .+++++++++++.  ",
" .           .  ",
" .           .  ",
" .           .  ",
" .           .  ",
" .           .  ",
" .           .  ",
" .           .  ",
" .           .  ",
" .............  ",
"                ",
"                "};
