/* XPM */
static char *maxMode[]={
"16 16 4 1",
"# c None",
"a c #303030",
". c #c00000",
"b c #ff0000",
".###.##..##.###.",
"..#..#.##.##.#.#",
".#.#.#.##.###.##",
".###.#....###.##",
".###.#.##.##.#.#",
".###.#.##.#.###.",
"################",
"#aa#############",
"##a##b##########",
"##abb#b#########",
"#aa####bb##bb###",
"##a######bb##bb#",
"##a#############",
"#aaaaaaaaaaaaaa#",
"##a##a##a##a##a#",
"################"};
