/* XPM */
static char *meshLowFidelity16_Black[] = {
"16 16 3 1 0 0",
"  c #000000",
"! c #77BBCC",
"# c None",
"            ####",
" ! !!!! !!! ####",
" ! !!!! !!! ####",
"            ####",
" ! !!!! !!! ####",
" ! !!!! !!! ####",
" ! !            ",
"     !! !!!! !! ",
" ! ! !! !!!! !! ",
" ! !            ",
"     !! !!!! !! ",
"#### !! !!!! !! ",
"####            ",
"#### !! !!!! !! ",
"#### !! !!!! !! ",
"####            "
};
