/* XPM */
static char *meshLowFidelity64_Black[] = {
"64 64 3 1 0 0",
"  c #000000",
"! c #77BBCC",
"# c None",
"                                              ##################",
"                                              ##################",
"                                              ##################",
"                                              ##################",
"    !!!!!!   !!!!!!!!!!!!!!   !!!!!!!!!!!!    ##################",
"    !!!!!!   !!!!!!!!!!!!!!   !!!!!!!!!!!!    ##################",
"    !!!!!!   !!!!!!!!!!!!!!   !!!!!!!!!!!!    ##################",
"    !!!!!!   !!!!!!!!!!!!!!   !!!!!!!!!!!!    ##################",
"    !!!!!!   !!!!!!!!!!!!!!   !!!!!!!!!!!!    ##################",
"    !!!!!!   !!!!!!!!!!!!!!   !!!!!!!!!!!!    ##################",
"    !!!!!!   !!!!!!!!!!!!!!   !!!!!!!!!!!!    ##################",
"    !!!!!!   !!!!!!!!!!!!!!   !!!!!!!!!!!!    ##################",
"    !!!!!!   !!!!!!!!!!!!!!   !!!!!!!!!!!!    ##################",
"    !!!!!!   !!!!!!!!!!!!!!   !!!!!!!!!!!!    ##################",
"                                              ##################",
"                                              ##################",
"                                              ##################",
"    !!!!!!   !!!!!!!!!!!!!!   !!!!!!!!!!!!    ##################",
"    !!!!!!   !!!!!!!!!!!!!!   !!!!!!!!!!!!    ##################",
"    !!!!!!   !!!!!!!!!!!!!!   !!!!!!!!!!!!    ##################",
"    !!!!!!   !!!!!!!!!!!!!!   !!!!!!!!!!!!    ##################",
"    !!!!!!   !!!!!!!!!!!!!!   !!!!!!!!!!!!    ##################",
"    !!!!!!   !!!!!!!!!!!!!!   !!!!!!!!!!!!    ##################",
"    !!!!!!   !!!!                                               ",
"    !!!!!!   !!!!                                               ",
"    !!!!!!   !!!!                                               ",
"    !!!!!!   !!!!                                               ",
"    !!!!!!   !!!!    !!!!!!!!   !!!!!!!!!!!!!!!!!   !!!!!!!!    ",
"    !!!!!!   !!!!    !!!!!!!!   !!!!!!!!!!!!!!!!!   !!!!!!!!    ",
"    !!!!!!   !!!!    !!!!!!!!   !!!!!!!!!!!!!!!!!   !!!!!!!!    ",
"    !!!!!!   !!!!    !!!!!!!!   !!!!!!!!!!!!!!!!!   !!!!!!!!    ",
"                     !!!!!!!!   !!!!!!!!!!!!!!!!!   !!!!!!!!    ",
"                     !!!!!!!!   !!!!!!!!!!!!!!!!!   !!!!!!!!    ",
"                     !!!!!!!!   !!!!!!!!!!!!!!!!!   !!!!!!!!    ",
"    !!!!!!   !!!!    !!!!!!!!   !!!!!!!!!!!!!!!!!   !!!!!!!!    ",
"    !!!!!!   !!!!                                               ",
"    !!!!!!   !!!!                                               ",
"    !!!!!!   !!!!                                               ",
"    !!!!!!   !!!!    !!!!!!!!   !!!!!!!!!!!!!!!!!   !!!!!!!!    ",
"    !!!!!!   !!!!    !!!!!!!!   !!!!!!!!!!!!!!!!!   !!!!!!!!    ",
"    !!!!!!   !!!!    !!!!!!!!   !!!!!!!!!!!!!!!!!   !!!!!!!!    ",
"                     !!!!!!!!   !!!!!!!!!!!!!!!!!   !!!!!!!!    ",
"                     !!!!!!!!   !!!!!!!!!!!!!!!!!   !!!!!!!!    ",
"                     !!!!!!!!   !!!!!!!!!!!!!!!!!   !!!!!!!!    ",
"                     !!!!!!!!   !!!!!!!!!!!!!!!!!   !!!!!!!!    ",
"#################    !!!!!!!!   !!!!!!!!!!!!!!!!!   !!!!!!!!    ",
"#################    !!!!!!!!   !!!!!!!!!!!!!!!!!   !!!!!!!!    ",
"#################    !!!!!!!!   !!!!!!!!!!!!!!!!!   !!!!!!!!    ",
"#################    !!!!!!!!   !!!!!!!!!!!!!!!!!   !!!!!!!!    ",
"#################    !!!!!!!!   !!!!!!!!!!!!!!!!!   !!!!!!!!    ",
"#################    !!!!!!!!   !!!!!!!!!!!!!!!!!   !!!!!!!!    ",
"#################                                               ",
"#################                                               ",
"#################                                               ",
"#################    !!!!!!!!   !!!!!!!!!!!!!!!!!   !!!!!!!!    ",
"#################    !!!!!!!!   !!!!!!!!!!!!!!!!!   !!!!!!!!    ",
"#################    !!!!!!!!   !!!!!!!!!!!!!!!!!   !!!!!!!!    ",
"#################    !!!!!!!!   !!!!!!!!!!!!!!!!!   !!!!!!!!    ",
"#################    !!!!!!!!   !!!!!!!!!!!!!!!!!   !!!!!!!!    ",
"#################    !!!!!!!!   !!!!!!!!!!!!!!!!!   !!!!!!!!    ",
"#################                                               ",
"#################                                               ",
"#################                                               ",
"#################                                               "
};
