/* XPM */
static char *mesh4[]={
"16 16 10 1",
". c None",
"b c #000000",
"e c #000080",
"c c #0000c0",
"f c #0058c0",
"g c #1631c9",
"d c #58a8ff",
"h c #a8dcff",
"a c #ff0000",
"# c #ffff00",
"....#a..........",
"...#a.#bbbbbbbbb",
"...#a...........",
".....#cc........",
"....ccddccc.....",
"..ccdcddcddeee..",
"ccddddcccdddef..",
"gggdddcddeeeff..",
"ghhgggdddefeff..",
"ghhhghhhcffefe..",
"ggghghhheffeef..",
"ghhggghhcfeeff..",
"ghhhghggeefeff..",
"ghhhghhheffefe..",
"ggghghhhcffeee..",
"...ggghhefee...."};
