/* XPM */
static char*minus[]={
"16 16 2 1",
"# c #303030",
". c None",
"................",
"................",
"................",
"................",
"................",
"................",
"................",
"...##########...",
"...##########...",
"................",
"................",
"................",
"................",
"................",
"................",
"................"};
