/* XPM */ 
static char * monfinished_xpm[] = {
"16 16 20 1",
" 	c None",
"!	c black",
"#	c #BB8800",
"$	c #990000",
"%	c #FFFF99",
"&	c #AA7600",
"'	c #996600",
"(	c #FFF780",
")	c #FFF373",
"*	c #B68300",
"+	c #FFEF67",
",	c #FFEA58",
"-	c #FFDA27",
".	c #FFD10E",
"0	c #329B00",
"1	c #5CA253",
"2	c #3CBA00",
"3	c white",
"4	c #287C00",
"5	c #1E5D00",
" ###       $$   ",
"#%%%&&''' $  $ $",
"#%%%(())'     $$",
"#((())))'    $$$",
"*+++##**&'''    ",
"*,,#%%%%,,,'    ",
"&,#,,,,--.'     ",
"'#,,-....00001  ",
"''''''''0222220 ",
"       022222301",
"       022223345",
"       023233045",
"       023330455",
"       100304550",
"        0445555 ",
"         15550  "};