/* XPM */ 
static char * monitor_xpm[] = {
"16 16 27 1",
" 	c None",
"!	c black",
"#	c #BB8800",
"$	c #990000",
"%	c #FFFF99",
"&	c #AA7600",
"'	c #996600",
"(	c #FFF780",
")	c #FFF373",
"*	c #B68300",
"+	c #FFEF67",
",	c #FFEA58",
"-	c #FFDA27",
".	c #FFD10E",
"0	c #5865DF",
"1	c #5E5EFF",
"2	c #8188CD",
"3	c #7575FF",
"4	c #6C6CFF",
"5	c #4848FF",
"6	c #2B33DF",
"7	c #2D2DFF",
"8	c white",
"9	c #3737FF",
":	c #3C3CFF",
";	c #5A64BE",
"<	c #2938C1",
" ###       $$   ",
"#%%%&&''' $  $ $",
"#%%%(())'     $$",
"#((())))'    $$$",
"*+++##**&'''    ",
"*,,#%%%%,,,'    ",
"&,#,,,,--.'     ",
"'#,,-....00102  ",
"''''''''0333410 ",
"       033344152",
"       033441156",
"       143111157",
"       048181896",
"       215155:9;",
"        055999< ",
"         2676;  "};