/* XPM */
static char * MovePrev_xpm[] = {
"16 16 23 1",
" 	c None",
".	c #A5A5A5",
"+	c #515151",
"@	c #071A49",
"#	c #444444",
"$	c #0C205B",
"%	c #293B9B",
"&	c #3443A8",
"*	c #4656AF",
"=	c #5260BF",
"-	c #5963CA",
";	c #465AA8",
">	c #6976CE",
",	c #C5CBE5",
"'	c #99A6D8",
")	c #FFFFFF",
"!	c #6371CC",
"~	c #5061B7",
"{	c #7E8DD3",
"]	c #7381D1",
"^	c #132872",
"/	c #8B97D6",
"(	c #1B3087",
"    .+@@@@+.    ",
"   #$%&***%@#   ",
"  #%=----=;*%#  ",
" #%=>>>,'--**%# ",
".$=>>>,),!-~*;@.",
"+%>{],),]!!-=;%+",
"$;{{,),]]>!-=*&@",
"$-{,))))))))=*&@",
"^-/,))))))))=*&@",
"^;{/,),]]>>-=*&@",
"+%>//,),]>>-~*%+",
".(-]//,),>!-**$.",
" #&>{/{,'>!=*%# ",
"  #&->{]>!-~%#  ",
"   #(&----%$#   ",
"    .+^^^$+.    "};
