/* XPM */
static char * MoveUpD_xpm[] = {
"16 16 4 1",
" 	c None",
".	c None",
"+	c #737373",
"@	c #FFFFFF",
"................",
"................",
".......+@.......",
"......+..@......",
".....+....@.....",
"....+......@....",
"...+........@...",
"..+@@@....@@@@..",
".....+....@.....",
".....+....@.....",
".....+....@.....",
".....+....@.....",
".....+....@.....",
".....+@@@@@.....",
"................",
"................"};

