/* XPM */
static char*newderivedvar[]={
"16 16 11 1",
"; c #FFFFFF",
"/ c #FFFF99",
"{ c #FFFF00",
"~ c #FFCC66",
"' c #FFCC00",
"a c #303030",
". c None",
"d c #00c000",
"b c #ffffff",
"c c #ff0000",
"e c #0000ff",
"aaaaaaaaaaaaaaa.",
"abbbbbbb'bb'bb'.",
"abebebbbb~{~{~a.",
"abeeeebbb{///{a.",
"abbebeeb'~/;/~'.",
"abbbbbeee{///{a.",
"abbbbbbeb~{~{~a.",
"abcbcbbb'bb'eb'.",
"abbcbcbbbbbbeba.",
"abbbbbcbccbbbba.",
"abddbbbcbbcbbba.",
"abbbdddbbbbcbba.",
"abbbbbbdbbddcba.",
"abbbbbbbddbbdba.",
"abbbbbbbbbbbbba.",
"aaaaaaaaaaaaaaa."};
