/* XPM */
static char*newmon[]={
"16 16 6 1",
"# c #ffff00",
"a c #303030",
". c None",
"d c #00c000",
"b c #ffffff",
"c c #ff0000",
"...........#....",
"........#..#..#.",
".........#.#.#..",
"..........###...",
"aaaaaaa#########",
"abbbbbbbbb###...",
"abbbbbbbb#a#.#..",
"abcbcbbbbba#..#.",
"abbcbcbbbba#....",
"abbbbbcbbba.....",
"abddbbbcbba.....",
"abbbdddbcba.....",
"abbbbbbdbba.....",
"abbbbbbbbba.....",
"abbbbbbbbba.....",
"aaaaaaaaaaa....."};
