/* XPM */ 
static char * newsession_xpm[] = {
"16 16 17 1",
" 	c None",
"!	c #BFBFBF",
"#	c #989898",
"$	c black",
"%	c white",
"&	c #F7F7FF",
"'	c #B2B2B2",
"(	c #7D7D7D",
")	c #ACACAC",
"*	c #F5F5FF",
"+	c #ECECFF",
",	c #E7E7FF",
"-	c #727272",
".	c #696969",
"0	c #565656",
"1	c #656565",
"2	c #B8B8B8",
"!!!!!!#         ",
"!%%%%!&#        ",
"!%%%%!%&#       ",
"'%%%%###(       ",
")%%%&**+(       ",
"'%&&**+,-       ",
"'&&**+,,.       ",
"'&**+,,,0       ",
"(((--.100       ",
"                ",
"   $$$$    $$$$ ",
"  $%$$$$  $%$$$$",
"  $$%%$$  $$%%$$",
"  $$%2$$  $$%2$$",
"  $$$$2$  $$$$2$",
"   $$$$$$$$$$$$ "};