/* XPM */ 
static char * options_xpm[] = {
"16 16 38 1",
" 	c None",
"!	c black",
"#	c #1C5180",
"$	c #537BA1",
"%	c #EEEEEB",
"&	c #F0F0EE",
"'	c #EAEAE7",
"(	c #ECECE9",
")	c #EFEFEC",
"*	c #F1F1EF",
"+	c #F4F4F2",
",	c #E7E7E3",
"-	c #E8E8E5",
".	c #EBEBE8",
"0	c #EDEDEA",
"1	c #F0F0ED",
"2	c #21A121",
"3	c #E3E3DE",
"4	c #E4E4E0",
"5	c #E9E9E6",
"6	c #AFD4AD",
"7	c #F8F8F6",
"8	c #E2E2DD",
"9	c #E3E3DF",
":	c #E6E6E2",
";	c #E8E8E4",
"<	c #F6F6F4",
"=	c #F8F8F7",
">	c #7EC67E",
"?	c #F7F7F5",
"@	c #F9F9F8",
"A	c #FBFBFA",
"B	c #FCFCFC",
"C	c #FAFAF9",
"D	c #FDFDFD",
"E	c white",
"F	c #FEFEFE",
"G	c #F3F3F1",
"                ",
"         ##$    ",
"       ##%&#    ",
"     ##'()*+#   ",
"   ##,-.012+#   ",
" $#34,5(%6267#  ",
" #89:;'()22<=#  ",
" #84,-.062>?@A# ",
"  #4,5(%2267@B# ",
"  #:;26622<=CDE#",
"   #-2222>?@AFE#",
"   #5(22267@BE#$",
"    #()>2<=C##  ",
"    #01*+?##    ",
"     #&G##      ",
"     $##        "};