/* XPM */
static char*hub[]={
"16 16 6 1",
". c #000000",
"  c None",
"a c #77bbcc",
"b c #00c0c0",
"c c #FF99CC",
"# c #FFFFCC",
"................",
"################",
"................",
"         .ccc.  ",
"        ....... ",
"        .bbbbb. ",
"        ....... ",
"        .aaaaa. ",
"        .aaaaa. ",
"        .aaaaa. ",
"         .ccc.  ",
"     ...........",
"    .###########",
"   .#...........",
" .#.            ",
"                "};
