/* XPM */
static char * pickMask_xpm[] = {
/* width height ncolors cpp [x_hot y_hot] */
"16 16 2 1 0 0",
/* colors */
" 	c #ffffff",
".	c #000000",
/* pixels */
"    .           ",
"    ..          ",
"    ...         ",
"    ....        ",
"    .....       ",
"    ......      ",
"    .......     ",
"    ........    ",
"    .........   ",
"    ........    ",
"    .......     ",
"    .......     ",
"    .. .....    ",
"        ....    ",
"        .....   ",
"         ...    "};
