/* XPM */
static char * pickImageData[] = {
/* width height ncolors cpp [x_hot y_hot] */
"16 16 5 1 0 0",
/* colors */
" 	c None",
".	c #000000",
"X	c #dedede",
"o	c #949494",
"O	c #ffffff",
/* pixels */
"    .           ",
"    ..          ",
"    .X.         ",
"    .Xo.        ",
"    .OOo.       ",
"    .OOXo.      ",
"    .OOOXo.     ",
"    .OOOOXo.    ",
"    .OOOOOXo.   ",
"    .OOOOX..    ",
"    .OOXOo.     ",
"    .X..OO.     ",
"    .. .XOo.    ",
"        .OO.    ",
"        .XXo.   ",
"         ...    "};
