/* XPM */
static char * picture_xpm[] = {
"16 16 70 1",
" 	c None",
".	c #90A8D0",
"+	c #90A8C0",
"@	c #90A0C0",
"#	c #8098C0",
"$	c #8090C0",
"%	c #7088B0",
"&	c #7080B0",
"*	c #6078A0",
"=	c #5070A0",
"-	c #5068A0",
";	c #FFFFFF",
">	c #F0F8FF",
",	c #F0F0FF",
"'	c #E0F0FF",
")	c #E0E8FF",
"!	c #D0E0FF",
"~	c #304880",
"{	c #F0D8D0",
"]	c #D06030",
"^	c #D0C8D0",
"/	c #A0B8E0",
"(	c #204880",
"_	c #FFE8C0",
":	c #FFC070",
"<	c #D05020",
"[	c #C0D8FF",
"}	c #A0B0E0",
"|	c #D09040",
"1	c #C05020",
"2	c #C0D0FF",
"3	c #A0B0D0",
"4	c #204080",
"5	c #B0B0D0",
"6	c #B0C8FF",
"7	c #E0E0F0",
"8	c #7080A0",
"9	c #D0D8F0",
"0	c #E0E8F0",
"a	c #405060",
"b	c #A0C0FF",
"c	c #9098C0",
"d	c #203880",
"e	c #D0D0F0",
"f	c #B0B8D0",
"g	c #505870",
"h	c #B0C0D0",
"i	c #000000",
"j	c #A0B8F0",
"k	c #8098B0",
"l	c #103880",
"m	c #F0F0F0",
"n	c #D0E0F0",
"o	c #B0B8E0",
"p	c #A0A8C0",
"q	c #90A0B0",
"r	c #8090B0",
"s	c #FFF8FF",
"t	c #90A0D0",
"u	c #304050",
"v	c #708090",
"w	c #707890",
"x	c #103080",
"y	c #B0C0E0",
"z	c #506080",
"A	c #103070",
"B	c #A0B8D0",
"C	c #607090",
"D	c #606890",
"E	c #303850",
"                ",
" ....+@#$%&**=- ",
" .;;;;;;;>,')!~ ",
" .;;;;;;{]]^!/( ",
" .;;;;;>]_:<[}( ",
" +;;;;>,]:|1234 ",
" @;;;>,'^<156.4 ",
" #;;7889![266@4 ",
" $;7809a3aa}bcd ",
" %7800efghhijkl ",
" &8m,n}o.gpqirl ",
" *s,n/.t@8uvwix ",
" *m9y.t#%8zugaA ",
" =nB#$%8CDzaEEA ",
" -~((444dllxAAA ",
"                "};
