/* XPM */ 
static char * planey_xpm[] = {
"16 16 11 1",
" 	c None",
"!	c black",
"#	c #001851",
"$	c #5D0000",
"%	c #A55F5F",
"&	c #B98484",
"'	c #BFD2FF",
"(	c #3E0000",
")	c #C49797",
"*	c #AEC7FF",
"+	c #99B8FF",
"    #      $% %$",
"   ##      &$ $&",
"  #'#       $%$ ",
" #''#       %(% ",
"#'''#       )() ",
"#''*#       )() ",
"#'**#   !   )() ",
"#***#   !!      ",
"#*!!!!!!!!!     ",
"#**+#   !!      ",
"#*++#   !       ",
"#+++#           ",
"#++#            ",
"#+#             ",
"##              ",
"#               "};