/* XPM */ 
static char * planex_xpm[] = {
"16 16 10 1",
" 	c None",
"!	c black",
"#	c #001851",
"$	c #5D0000",
"%	c #A55F5F",
"&	c #BF8E8E",
"'	c #BFD2FF",
"(	c #3E0000",
")	c #AEC7FF",
"*	c #99B8FF",
"    #      $% %$",
"   ##      &$ $&",
"  #'#       $%$ ",
" #''#       %(% ",
"#'''#       $%$ ",
"#'')#      &$ $&",
"#'))#   !  $% %$",
"#)))#   !!      ",
"#)!!!!!!!!!     ",
"#))*#   !!      ",
"#)**#   !       ",
"#***#           ",
"#**#            ",
"#*#             ",
"##              ",
"#               "};