/* XPM */ 
static char * planepoint_xpm[] = {
"16 16 15 1",
" 	c None",
"!	c black",
"#	c #9F9F9F",
"$	c #001851",
"%	c #8AADFF",
"&	c #4C82FF",
"'	c #AEC7FF",
"(	c #5B8CFF",
")	c #0041D9",
"*	c #99B8FF",
"+	c #BFD2FF",
",	c #C5C5C5",
"-	c #858585",
".	c #0031A4",
"0	c #ABABAB",
"          #$!   ",
"       #$$$%$#  ",
"    #$$$%&''($  ",
" #)$$)%''&'**$  ",
"!$$%+(+'!&'&&$, ",
"!%+++(''!&&**$# ",
"$&+++(&&!'&**($ ",
"#!+((!!!!!!!**$ ",
" $)++'&'!'&*&&$,",
" $&+''&'!&&&*%$#",
" #!+'&&&!**&%%%$",
"  !&&''&***&*($!",
"  !&'''&**($!$# ",
"  -.'''&$!$#    ",
"  0!($!$#       ",
"   !$#          "};