/* XPM */ 
static char * playsession_xpm[] = {
"16 16 16 1",
" 	c None",
"!	c black",
"#	c #BB8800",
"$	c #990000",
"%	c #FFFF99",
"&	c #AA7600",
"'	c #996600",
"(	c #FFF780",
")	c #FFF373",
"*	c #B68300",
"+	c #FFEF67",
",	c #FFEA58",
"-	c #FFDA27",
".	c #FFD10E",
"0	c white",
"1	c #B8B8B8",
" ###       $$   ",
"#%%%&&''' $  $ $",
"#%%%(())'     $$",
"#((())))'    $$$",
"*+++##**&'''    ",
"*,,#%%%%,,,'    ",
"&,#,,,,--.'     ",
"'#,,-....'      ",
"'''''''''       ",
"                ",
"   !!!!    !!!! ",
"  !0!!!!  !0!!!!",
"  !!00!!  !!00!!",
"  !!01!!  !!01!!",
"  !!!!1!  !!!!1!",
"   !!!!!!!!!!!! "};