/* XPM */
static char * playexamplesession_xpm[] = {
"16 16 9 1",
" 	c None",
".	c #808000",
"+	c #FFFF00",
"@	c #C0C0C0",
"#	c #808080",
"$	c #000000",
"%	c #000080",
"&	c #FFFFFF",
"*	c #B8B8B8",
"   .....        ",
"  .++++@.       ",
" .++++++@#      ",
".+++..+++$      ",
"$++@##@++$      ",
"$$$.#$+++$      ",
"   %$+++@$      ",
"   .+++@$       ",
"   .++@$        ",
"   .####        ",
"   $$$$    $$$$ ",
"  $&$$$$  $&$$$$",
"  $$&&$$  $$&&$$",
"  $$&*$$  $$&*$$",
"  $$$$*$  $$$$*$",
"   $$$$$$$$$$$$ "};
