/* XPM */ 
static char * pointcloud_xpm[] = {
"16 16 5 1",
" 	c None",
"!	c black",
"#	c #001137",
"$	c #777777",
"%	c #99B8FF",
"   ##           ",
"   ##           ",
"  $##$          ",
"###%%###   ##   ",
"###%%###   ##   ",
"  $##$    $##$  ",
"   ##   ###%%###",
"   $$   ###%%###",
"     ##   $##$  ",
"     ##    ##   ",
"    $##$   ##   ",
"  ###%%###      ",
"  ###%%###      ",
"    $##$        ",
"     ##         ",
"     ##         "};