/* XPM */ 
static char * point_xpm[] = {
"16 16 5 1",
" 	c None",
"!	c black",
"#	c #00123E",
"$	c #9F9F9F",
"%	c #99B8FF",
"                ",
"                ",
"       ##       ",
"       ##       ",
"       ##       ",
"      $##$      ",
"     $####$     ",
"  #####%%#####  ",
"  #####%%#####  ",
"     $####$     ",
"      $##$      ",
"       ##       ",
"       ##       ",
"       ##       ",
"                ",
"                "};