/* XPM */
static char * posticon_xpm[] = {
"16 16 6 1",
" 	c None",
".	c #2B52C6",
"+	c #6E8BDE",
"@	c #AABBEB",
"#	c #C4D0F2",
"$	c #FFFFFF",
"................",
"................",
"................",
"......++++......",
"....@#$$$$#@....",
"..+$$$$$$$$$$+..",
".+$@.$+..+$.@$+.",
".$@..$.$$.$..@$.",
".$...$.$$.$...$.",
".+$..$+..+$..$+.",
"..@$.+$$$$+.$@..",
"...@$+....+$@...",
"....+#$$$$#+....",
"................",
"................",
"................"};
