/* XPM */ 
static char * prebutton_xpm[] = {
"16 22 44 1",
" 	c None",
"!	c black",
"#	c #F1F2F8",
"$	c #DFE6F3",
"%	c #C3CDEC",
"&	c #D2DAF0",
"'	c #000059",
"(	c #B6C1E4",
")	c #B5C4E4",
"*	c #C8D0EC",
"+	c #D0DAEF",
",	c #D0D7EF",
"-	c #B3C0E9",
".	c white",
"0	c #A0B1E2",
"1	c #8BA0D4",
"2	c #99ACDE",
"3	c #99ADDE",
"4	c #889CD5",
"5	c #6C8AD9",
"6	c #6F8BD8",
"7	c #6C85D5",
"8	c #6884CD",
"9	c #6B8BD7",
":	c #6C86D6",
";	c #6A81CC",
"<	c #6A85D2",
"=	c #6C8BD8",
">	c #6F8EDA",
"?	c #6B85D2",
"@	c #6688D6",
"A	c #6781D4",
"B	c #6B8DD9",
"C	c #768EDA",
"D	c #7088D8",
"E	c #6989D9",
"F	c #8297DC",
"G	c #7992DA",
"H	c #718CD9",
"I	c #8BA2DE",
"J	c #7E96DC",
"K	c #8EA5DF",
"L	c #889FDD",
"M	c #93A8E0",
"                ",
"                ",
"                ",
"     #$$$$#     ",
"   $%$#&''''''' ",
"  ()*+,-'.....' ",
" 0123333'.'''.' ",
"$''''''''.'4'.'$",
"('.....''.'''.'(",
"5'.'''.''.....'6",
"7'.'8'.''''''''9",
":'.'''.''''';<<=",
">'.........'?@AB",
"('.'''.'''.'CDE(",
"$'.'F'.'F'.'FGH$",
" '.'''.'''.'IJ0 ",
" '.........'KL  ",
" '''''''''''0   ",
"    $(MMMM($    ",
"                ",
"                ",
"                "};