/* XPM */
static char * preicon_xpm[] = {
"16 16 3 1",
" 	c None",
".	c #2B52C6",
"+	c #FFFFFF",
"................",
".........++++++.",
".........+....+.",
".........+....+.",
".++++++..+....+.",
".+....+..+....+.",
".+....+..++++++.",
".+....+.........",
".+....+.........",
".+++++++++++....",
".+....+....+....",
".+....+....+....",
".+....+....+....",
".+....+....+....",
".+++++++++++....",
"................"};
