/* XPM */
static char * General_xpm[] = {
"48 48 367 2",
"  	c None",
". 	c #EFF2F7",
"+ 	c #EDF0F5",
"@ 	c #ECF0F5",
"# 	c #ECEFF5",
"$ 	c #ECEFF4",
"% 	c #E4E8F2",
"& 	c #E2E6F2",
"* 	c #E6EAF4",
"= 	c #F1F4F6",
"- 	c #F3F5F6",
"; 	c #E6EAF3",
"> 	c #DEE2F0",
", 	c #E0E5F1",
"' 	c #E6E9F2",
") 	c #EBECF3",
"! 	c #EFF0F5",
"~ 	c #F2F3F5",
"{ 	c #F5F5F6",
"] 	c #F5F6F6",
"^ 	c #D4DCEF",
"/ 	c #CED7EE",
"( 	c #D6DDEF",
"_ 	c #E7EBF3",
": 	c #E9ECF3",
"< 	c #EAEDF4",
"[ 	c #EBEEF4",
"} 	c #C7D0EB",
"| 	c #C6D0EA",
"1 	c #CFD9EE",
"2 	c #D4DDEF",
"3 	c #D7DEEF",
"4 	c #D7DFEF",
"5 	c #D8DFEF",
"6 	c #D9DFEF",
"7 	c #BBC6E6",
"8 	c #BCC7E7",
"9 	c #C6D1EA",
"0 	c #CBD7EC",
"a 	c #CDD8EC",
"b 	c #CBD7ED",
"c 	c #C9D4EC",
"d 	c #C7D4EC",
"e 	c #C7D3EC",
"f 	c #C7D2EB",
"g 	c #C6D2EB",
"h 	c #B2C0E3",
"i 	c #AFBDE2",
"j 	c #B9C5E6",
"k 	c #BFCCE9",
"l 	c #C1D0EA",
"m 	c #C1CFEA",
"n 	c #C0CDE9",
"o 	c #BDCBE9",
"p 	c #BCCBE9",
"q 	c #BCCAE9",
"r 	c #BBC9E8",
"s 	c #AEBCDE",
"t 	c #A5B5DC",
"u 	c #ABBADF",
"v 	c #B1C1E4",
"w 	c #B3C3E5",
"x 	c #B3C4E5",
"y 	c #B2C2E5",
"z 	c #AFC0E4",
"A 	c #AFBFE3",
"B 	c #AEBFE3",
"C 	c #B3C3E3",
"D 	c #98ABD6",
"E 	c #A2B3D9",
"F 	c #A6B6DD",
"G 	c #A8BADE",
"H 	c #A6B8DE",
"I 	c #A4B6DE",
"J 	c #A1B4DE",
"K 	c #A1B4DD",
"L 	c #A2B4DD",
"M 	c #CCD9EE",
"N 	c #8BA8D9",
"O 	c #92A9D6",
"P 	c #9CAED7",
"Q 	c #9DAFD9",
"R 	c #9DB1DA",
"S 	c #9DB0DA",
"T 	c #9AAFD9",
"U 	c #98ADD9",
"V 	c #97ABD9",
"W 	c #97AAD9",
"X 	c #97AAD8",
"Y 	c #98AAD8",
"Z 	c #B1BFE0",
"` 	c #D0D8EB",
" .	c #D0D9EB",
"..	c #D1D9EB",
"+.	c #D2DAEB",
"@.	c #AEBDDE",
"#.	c #9AB5E3",
"$.	c #7A9ED9",
"%.	c #88A1D7",
"&.	c #8EA4D7",
"*.	c #8EA5D8",
"=.	c #8CA4D8",
"-.	c #8BA2D8",
";.	c #89A2D8",
">.	c #89A0D7",
",.	c #88A0D7",
"'.	c #BECAE6",
").	c #F9F9F9",
"!.	c #4254C1",
"~.	c #8AA0D7",
"{.	c #C3D2ED",
"].	c #7096DC",
"^.	c #6C92DB",
"/.	c #7395DA",
"(.	c #7795D9",
"_.	c #7694D9",
":.	c #7394D9",
"<.	c #7294D8",
"[.	c #7292D8",
"}.	c #7291D8",
"|.	c #7392D8",
"1.	c #B3C3E7",
"2.	c #7383D2",
"3.	c #5A6DCB",
"4.	c #596DCB",
"5.	c #8F9ADD",
"6.	c #718FD7",
"7.	c #96AFE5",
"8.	c #6085DA",
"9.	c #6286DB",
"0.	c #6488DA",
"a.	c #6488D9",
"b.	c #AABEE8",
"c.	c #5E73D0",
"d.	c #96AEE4",
"e.	c #6083D8",
"f.	c #708FDD",
"g.	c #5F82DA",
"h.	c #5D80D9",
"i.	c #5C80D8",
"j.	c #5C7FD8",
"k.	c #5C7FD7",
"l.	c #5C80D7",
"m.	c #8EA8E2",
"n.	c #BCCBEC",
"o.	c #BCCAEC",
"p.	c #7091DD",
"q.	c #A6BAE7",
"r.	c #5B70CF",
"s.	c #5C82D8",
"t.	c #90AAE3",
"u.	c #597CD6",
"v.	c #C4D0EE",
"w.	c #5D7ED9",
"x.	c #5D7ED7",
"y.	c #5B7DD5",
"z.	c #5A7CD3",
"A.	c #5A7CD4",
"B.	c #5A7DD4",
"C.	c #B3C3E8",
"D.	c #F8F8F8",
"E.	c #A5B8E6",
"F.	c #5A6DCC",
"G.	c #8FA7E0",
"H.	c #5677D2",
"I.	c #A1B5E7",
"J.	c #5B79D7",
"K.	c #5B7AD4",
"L.	c #5979D2",
"M.	c #5979D0",
"N.	c #5979CF",
"O.	c #5978D0",
"P.	c #5978D1",
"Q.	c #5979D1",
"R.	c #B3C1E7",
"S.	c #A5B6E4",
"T.	c #596BCB",
"U.	c #8EA5DE",
"V.	c #5574CF",
"W.	c #839DDF",
"X.	c #5B79D5",
"Y.	c #5A79D2",
"Z.	c #4A5EC7",
"`.	c #9DB0E2",
" +	c #BCC8EA",
".+	c #5674CF",
"++	c #6C89D9",
"@+	c #5A79D3",
"#+	c #5A79D1",
"$+	c #B3C2E7",
"%+	c #4B5EC7",
"&+	c #9EB1E3",
"*+	c #A5B6E5",
"=+	c #5F7DD5",
"-+	c #5A78D1",
";+	c #5A79D0",
">+	c #5A7AD0",
",+	c #5B7AD0",
"'+	c #5979CE",
")+	c #B3C1E6",
"!+	c #4A5DC5",
"~+	c #5977D0",
"{+	c #9DB0E1",
"]+	c #5574CE",
"^+	c #607DD5",
"/+	c #5778D0",
"(+	c #5779CF",
"_+	c #597CCE",
":+	c #5979CD",
"<+	c #5777CC",
"[+	c #B2C0E5",
"}+	c #4A5BC2",
"|+	c #5774CB",
"1+	c #9DAEDE",
"2+	c #5773CB",
"3+	c #5779CD",
"4+	c #577ACE",
"5+	c #6D89D9",
"6+	c #5779D1",
"7+	c #577ACD",
"8+	c #5779CB",
"9+	c #5777CA",
"0+	c #B2BFE5",
"a+	c #9CA5DC",
"b+	c #A4B3DF",
"c+	c #C8D1EB",
"d+	c #A8B1DF",
"e+	c #718AD1",
"f+	c #5772C9",
"g+	c #5773CA",
"h+	c #829DDE",
"i+	c #5A7DD5",
"j+	c #597DD4",
"k+	c #597CD4",
"l+	c #597AD3",
"m+	c #597AD1",
"n+	c #597AD0",
"o+	c #5778CC",
"p+	c #B2C1E5",
"q+	c #5573C9",
"r+	c #5777CB",
"s+	c #9EB5E6",
"t+	c #5980D8",
"u+	c #5A82D7",
"v+	c #5B80D7",
"w+	c #5C7ED6",
"x+	c #5C7DD5",
"y+	c #5A7AD2",
"z+	c #597CD0",
"A+	c #B2C3E6",
"B+	c #5478CD",
"C+	c #597ECF",
"D+	c #C2D1EE",
"E+	c #5A84DA",
"F+	c #5B85D9",
"G+	c #5C86DA",
"H+	c #5E85D9",
"I+	c #5F82D9",
"J+	c #5F7DD8",
"K+	c #5E7CD7",
"L+	c #5D7ED5",
"M+	c #B4C4E9",
"N+	c #5D82D5",
"O+	c #9FB5E4",
"P+	c #89A5DF",
"Q+	c #577CD2",
"R+	c #5D83D5",
"S+	c #5D80D5",
"T+	c #6C92DE",
"U+	c #5D8ADA",
"V+	c #5F8CDB",
"W+	c #608ADB",
"X+	c #6282DB",
"Y+	c #627EDA",
"Z+	c #607ED8",
"`+	c #B6C4EA",
" @	c #6082D8",
".@	c #A1B5E6",
"+@	c #8CA5E1",
"@@	c #5B7CD5",
"#@	c #6080D8",
"$@	c #92AEE4",
"%@	c #5E8ADA",
"&@	c #628FDB",
"*@	c #648FDD",
"=@	c #658BDD",
"-@	c #6686DD",
";@	c #6682DC",
">@	c #6582DA",
",@	c #B9C6EB",
"'@	c #6583DA",
")@	c #A5B5E6",
"!@	c #90A6E3",
"~@	c #5F7CD7",
"{@	c #C0CEEC",
"]@	c #6990DC",
"^@	c #648FDC",
"/@	c #6A92DE",
"(@	c #6B90DE",
"_@	c #6B8BDC",
":@	c #6B86DC",
"<@	c #6B86DB",
"[@	c #BBC7EB",
"}@	c #6B85DB",
"|@	c #A8B8E7",
"1@	c #95A7E4",
"2@	c #657FD8",
"3@	c #91AAE4",
"4@	c #6B8EDD",
"5@	c #7292DE",
"6@	c #7394DD",
"7@	c #7290DD",
"8@	c #728EDD",
"9@	c #728CDD",
"0@	c #BFCAEC",
"a@	c #9FB1E6",
"b@	c #C6CFEE",
"c@	c #BAC5EB",
"d@	c #6C85DB",
"e@	c #C5D0EE",
"f@	c #7894DE",
"g@	c #7692DD",
"h@	c #7996DE",
"i@	c #7995DE",
"j@	c #7895DE",
"k@	c #C1CCED",
"l@	c #728BDC",
"m@	c #A2B4E6",
"n@	c #7794DD",
"o@	c #7A98DE",
"p@	c #7E9ADE",
"q@	c #7F9ADE",
"r@	c #809CDE",
"s@	c #95ABE3",
"t@	c #7892DC",
"u@	c #8FA9E2",
"v@	c #7D9CDF",
"w@	c #809EDF",
"x@	c #86A0DF",
"y@	c #86A1DF",
"z@	c #85A1DF",
"A@	c #7F9CDE",
"B@	c #84A0DF",
"C@	c #91ADE3",
"D@	c #83A1DF",
"E@	c #88A2DF",
"F@	c #89A4DF",
"G@	c #96AEE3",
"H@	c #88A4DF",
"I@	c #8AA5DF",
"J@	c #9CB2E4",
"K@	c #B0C1E8",
"L@	c #90A9E1",
"M@	c #8BA5DF",
"N@	c #D0DAEF",
"O@	c #ADBEE6",
"P@	c #91AAE0",
"Q@	c #CED8EE",
"R@	c #AEBFE7",
"S@	c #96AEE2",
"T@	c #8AA5E0",
"U@	c #89A5E0",
"V@	c #D2DCEF",
"W@	c #BAC8EA",
"X@	c #A6BAE6",
"Y@	c #98AFE2",
"Z@	c #8EA8E0",
"                                                                                                ",
"                                                                                                ",
"                                                                                                ",
"                                                                                                ",
"                                                                                                ",
"                                      . + @ # $ $ # @ + .                                       ",
"                                # % & * + = - - - - = + * & % #                                 ",
"                            ; > , ' ) ! ~ - { ] ] { - ~ ! ) ' , > ;                             ",
"                          ^ / ( , ' _ : < [ [ [ [ [ [ < : _ ' , ( / ^                           ",
"                        } | 1 2 3 4 4 5 6 5 6 6 6 6 5 6 5 4 4 3 2 1 | }                         ",
"                      7 8 9 0 a b c d e f f g g g g f f e d c b a 0 9 8 7                       ",
"                    h i j k l m n o p q r r r r r r r r q p o n m l k j i h                     ",
"                  s t u v w x y z A A A B B B B B B B B A A A z y x w v u t s                   ",
"                C D E F G G H I J K K L L L L L L L L L L K K J I H G G F E D C                 ",
"              M N O P Q R S T U V W X X Y Y Y Y Y Z ` ` ` ` `  ...+.@.R Q P O N M               ",
"              #.$.%.&.*.=.-.;.>.>.>.>.>.,.,.,.,.,.'.).).).).).).).).!.~.*.&.%.$.#.              ",
"            {.].^./.(.(._.:.<.[.}.|.|.|.|.|.|.|.|.1.).2.3.3.3.4.5.).!.6.(.(./.^.].{.            ",
"            7.8.9.0.0.0.0.a.a.0.0.0.0.0.0.0.0.0.0.b.).c.0.0.0.0.d.).!.e.0.0.0.9.8.7.            ",
"            f.g.h.i.i.j.k.l.m.n.n.n.o.o.o.o.o.p.i.q.).r.i.i.i.s.t.).!.u.j.i.i.h.g.f.            ",
"          v.w.x.y.z.z.A.A.B.C.).).).).).).D.).!.A.E.).F.A.A.B.B.G.).!.H.A.z.z.y.x.w.v.          ",
"          I.J.K.L.M.N.O.P.Q.R.).!.!.!.!.!.5.).!.Q.S.).T.Q.Q.Q.Q.U.).!.V.O.N.M.L.K.J.I.          ",
"          W.X.Y.P.O.O.O.O.P.R.).Z.P.P.P.P.`.).!.P.S.).5.`.`.`.`. +).!..+O.O.O.P.Y.X.W.          ",
"          ++@+#+#+#+#+#+#+#+$+).%+Y.Y.Y.Y.&+).!.Y.*+).).).).).).).).!..+#+#+#+#+#+@+++          ",
"          =+-+;+#+Q.Q.>+,+'+)+).!+~+~+~+~+{+).!.~+~+!.!.!.!.!.!.!.!.!.]+M.Q.Q.#+;+-+=+          ",
"          ^+-+O./+/+(+_+:+<+[+).}+|+|+|+|+1+).!.|+|+|+|+|+|+|+2+2+|+<+3+4+(+/+/+O.-+^+          ",
"          5+@+6+6+6+(+7+8+9+0+).a+b+b+b+b+c+).d+b+b+b+b+b+b+e+f+f+g+9+8+7+(+6+6+6+@+5+          ",
"          h+i+j+k+l+m+n+3+o+p+).).).).).).).).).).).).).).).!.q+9+r+o+3+n+m+l+k+j+i+h+          ",
"          s+t+u+v+w+x+K.y+z+A+).!.!.!.!.!.5.).!.!.!.!.!.5.).!.B+C+C+z+y+K.x+w+v+u+t+s+          ",
"          D+E+F+G+H+I+J+K+L+M+).!.N+N+N+N+O+).!.N+N+N+N+P+).!.Q+R+S+L+K+J+I+H+G+F+E+D+          ",
"            T+U+V+W+9.X+Y+Z+`+).!. @ @ @ @.@).!. @ @ @ @+@).!.@@e.#@Z+Y+X+9.W+V+U+T+            ",
"            $@%@&@*@=@-@;@>@,@).!.'@'@'@'@)@).!.'@'@'@'@!@).!.~@'@'@>@;@-@=@*@&@%@$@            ",
"            {@]@^@/@(@_@:@<@[@).!.}@}@}@}@|@).!.}@}@}@}@1@).!.2@<@<@<@:@_@(@/@^@]@{@            ",
"              3@4@5@6@7@8@9@0@).5.a@a@a@a@b@).5.a@a@a@a@c@).!.d@9@9@9@8@7@6@5@4@3@              ",
"              e@f@g@h@i@j@f@k@).).).).).).).).).).).).).).).!.l@f@f@f@j@i@h@g@f@e@              ",
"                m@n@o@p@q@r@s@!.!.!.!.!.!.!.!.!.!.!.!.!.!.!.!.t@q@q@r@q@p@o@n@m@                ",
"                  u@v@w@x@y@z@h+A@A@A@A@A@A@A@A@A@A@A@A@A@A@A@B@B@z@y@x@w@v@u@                  ",
"                    C@D@E@P+P+P+F@F@F@F@F@F@F@F@F@F@F@F@F@F@F@F@P+P+P+E@D@C@                    ",
"                      G@H@P+I@I@I@I@I@I@I@I@I@I@I@I@I@I@I@I@I@I@I@I@P+H@G@                      ",
"                        J@F@F@I@I@I@I@I@I@I@I@I@I@I@I@I@I@I@I@I@I@F@F@J@                        ",
"                          K@L@M@I@I@I@I@I@I@I@I@I@I@I@I@I@I@I@I@M@L@K@                          ",
"                            N@O@P@I@I@I@I@I@I@I@I@I@I@I@I@I@I@P@O@N@                            ",
"                                Q@R@S@T@U@I@I@I@I@I@I@U@T@S@R@Q@                                ",
"                                      V@W@X@Y@Z@Z@Y@X@W@V@                                      ",
"                                                                                                ",
"                                                                                                ",
"                                                                                                ",
"                                                                                                ",
"                                                                                                "};
