/* XPM */
static char * preModeQuick_xpm[] = {
"48 48 297 2",
"  	c None",
". 	c #DFDFDF",
"+ 	c #DDDDDD",
"@ 	c #DCDCDC",
"# 	c #DBDBDB",
"$ 	c #DADADA",
"% 	c #D9D9D9",
"& 	c #D8D8D8",
"* 	c #D6D6D6",
"= 	c #D5D5D5",
"- 	c #D4D4D4",
"; 	c #D3D3D3",
"> 	c #D2D2D2",
", 	c #D1D1D1",
"' 	c #D0D0D0",
") 	c #CFCFCF",
"! 	c #CECECE",
"~ 	c #CCCCCC",
"{ 	c #C7C7C7",
"] 	c #8F8F8F",
"^ 	c #FFFFFF",
"/ 	c #E8C85D",
"( 	c #ECECFF",
"_ 	c #FFCC66",
": 	c #FFE89E",
"< 	c #FFFF00",
"[ 	c #FFDB66",
"} 	c #FFFF99",
"| 	c #787878",
"1 	c #B0B0B0",
"2 	c #8E8E8E",
"3 	c #868686",
"4 	c #FEFEFF",
"5 	c #FDFDFF",
"6 	c #767676",
"7 	c #FCFCFF",
"8 	c #FBFBFF",
"9 	c #FAFAFF",
"0 	c #F9F9FF",
"a 	c #F8F8FF",
"b 	c #737373",
"c 	c #F7F7FF",
"d 	c #707070",
"e 	c #6F6F6F",
"f 	c #6D6D6D",
"g 	c #6B6B6B",
"h 	c #F6F6FF",
"i 	c #696969",
"j 	c #F5F5FF",
"k 	c #676767",
"l 	c #666666",
"m 	c #C6C6C6",
"n 	c #636363",
"o 	c #E5E5E5",
"p 	c #CDA5FE",
"q 	c #CCA3FE",
"r 	c #CDA1FE",
"s 	c #CCA0FD",
"t 	c #CA9EFB",
"u 	c #C99DFA",
"v 	c #C89CF9",
"w 	c #C79CF7",
"x 	c #C59AF5",
"y 	c #C298F1",
"z 	c #BC95EC",
"A 	c #BA92E7",
"B 	c #B38EE1",
"C 	c #AD89DA",
"D 	c #AA86D3",
"E 	c #A582CD",
"F 	c #CCA7FE",
"G 	c #C69BF6",
"H 	c #C399F2",
"I 	c #BE97EE",
"J 	c #BB93E8",
"K 	c #B790E3",
"L 	c #B18BDC",
"M 	c #AB86D5",
"N 	c #A682CF",
"O 	c #A07DC8",
"P 	c #9B7AC1",
"Q 	c #9676BB",
"R 	c #C5C5C5",
"S 	c #CDB3FE",
"T 	c #D1C5FE",
"U 	c #CFC9FE",
"V 	c #D1C9FE",
"W 	c #D0C7FE",
"X 	c #D0C5FE",
"Y 	c #D0C3FE",
"Z 	c #CFC1FE",
"` 	c #CFBFFE",
" .	c #D1BFFE",
"..	c #CFBDFE",
"+.	c #D0BBFE",
"@.	c #CEB9FE",
"#.	c #CFB5FE",
"$.	c #CEB1FE",
"%.	c #CCABFE",
"&.	c #C9A0FB",
"*.	c #BE96EB",
"=.	c #A885D4",
"-.	c #9576BB",
";.	c #9172B7",
">.	c #8F70B5",
",.	c #C4C4C4",
"'.	c #CEBDFE",
").	c #CEBBFE",
"!.	c #CEB7FE",
"~.	c #CAA1FC",
"{.	c #C39CF3",
"].	c #BB95EA",
"^.	c #B490E1",
"/.	c #AD88D7",
"(.	c #8E6DB4",
"_.	c #8C6BB2",
":.	c #C3C3C3",
"<.	c #D1C3FE",
"[.	c #CCB1FE",
"}.	c #CFAFFE",
"|.	c #CEABFE",
"1.	c #B08CDD",
"2.	c #AE89DC",
"3.	c #8A69B2",
"4.	c #8865B0",
"5.	c #C2C2C2",
"6.	c #C197F0",
"7.	c #C9B1FE",
"8.	c #C0A5FE",
"9.	c #C4A7FE",
"0.	c #CBAFFE",
"a.	c #CDAFFE",
"b.	c #C6A1FE",
"c.	c #BF95FE",
"d.	c #C39BFE",
"e.	c #CBA5FE",
"f.	c #B591E2",
"g.	c #AD88DB",
"h.	c #AA83DA",
"i.	c #8764AF",
"j.	c #8460AD",
"k.	c #C1C1C1",
"l.	c #B991E6",
"m.	c #BC93EA",
"n.	c #BE9BFE",
"o.	c #D0B9EC",
"p.	c #DDD1EC",
"q.	c #CDA9FE",
"r.	c #BB89FE",
"s.	c #CBA2FD",
"t.	c #C99FF8",
"u.	c #C29BF2",
"v.	c #A77ED9",
"w.	c #825DAC",
"x.	c #7D59AA",
"y.	c #BFBFBF",
"z.	c #B68FE2",
"A.	c #B78FE4",
"B.	c #BE93FE",
"C.	c #B882FB",
"D.	c #BF98EF",
"E.	c #BB96E9",
"F.	c #A57BD8",
"G.	c #7E58A9",
"H.	c #7B54A7",
"I.	c #BDBDBD",
"J.	c #B28CDD",
"K.	c #B38DDE",
"L.	c #CDADFE",
"M.	c #BD91FE",
"N.	c #CEB3EC",
"O.	c #C49CF5",
"P.	c #C49DF4",
"Q.	c #B886F1",
"R.	c #AB85DA",
"S.	c #A880D9",
"T.	c #A075D6",
"U.	c #7A53A6",
"V.	c #774FA4",
"W.	c #AF8AD9",
"X.	c #C699FE",
"Y.	c #C08FFC",
"Z.	c #BF97EC",
"`.	c #BE95EC",
" +	c #B287E8",
".+	c #AC86DB",
"++	c #A177D6",
"@+	c #9E72D5",
"#+	c #764EA3",
"$+	c #724BA2",
"%+	c #BCBCBC",
"&+	c #BD92F3",
"*+	c #B688EF",
"=+	c #B792E5",
"-+	c #B993E4",
";+	c #AC82DF",
">+	c #A981DA",
",+	c #A67DD8",
"'+	c #A278D7",
")+	c #9C6FD4",
"!+	c #7248A1",
"~+	c #6E45A0",
"{+	c #A884D1",
"]+	c #BF99EE",
"^+	c #B186E7",
"/+	c #A16EDF",
"(+	c #B390DF",
"_+	c #AA80D9",
":+	c #9767D2",
"<+	c #A57CD7",
"[+	c #996AD3",
"}+	c #6D449F",
"|+	c #6D419E",
"1+	c #A381CE",
"2+	c #C59DF6",
"3+	c #BA95E8",
"4+	c #AB81E0",
"5+	c #9B6AD7",
"6+	c #D2BBEC",
"7+	c #B08DDC",
"8+	c #A379D6",
"9+	c #9361D0",
"0+	c #A172D5",
"a+	c #9A6CD3",
"b+	c #6C409D",
"c+	c #693F9C",
"d+	c #A27FCA",
"e+	c #A280C9",
"f+	c #C19AF1",
"g+	c #AA80DD",
"h+	c #9868D3",
"i+	c #905ECF",
"j+	c #9F74D5",
"k+	c #9B6DD4",
"l+	c #9869D2",
"m+	c #9564D1",
"n+	c #673C9B",
"o+	c #683B9A",
"p+	c #9E7DC6",
"q+	c #9C7BC4",
"r+	c #B893E6",
"s+	c #8D5ACD",
"t+	c #A47AD7",
"u+	c #A274D5",
"v+	c #673A99",
"w+	c #663899",
"x+	c #9C7BC2",
"y+	c #9978BF",
"z+	c #B28FDE",
"A+	c #915ECF",
"B+	c #9666D1",
"C+	c #643697",
"D+	c #9878BD",
"E+	c #B18EDD",
"F+	c #8F5CCF",
"G+	c #844CC9",
"H+	c #8E5BCE",
"I+	c #8D59CE",
"J+	c #613295",
"K+	c #9273B8",
"L+	c #9071B6",
"M+	c #B98BEC",
"N+	c #9F73D6",
"O+	c #8A55CC",
"P+	c #9462D1",
"Q+	c #8C58CD",
"R+	c #8B56CD",
"S+	c #5B2E93",
"T+	c #5F3093",
"U+	c #9070B5",
"V+	c #925FD0",
"W+	c #9665D2",
"X+	c #8953CC",
"Y+	c #5B2B92",
"Z+	c #8D6CB3",
"`+	c #8A68B1",
" @	c #8851CC",
".@	c #8750CB",
"+@	c #5C2C93",
"@@	c #979797",
"#@	c #7B7A7B",
"$@	c #757575",
"%@	c #717171",
"&@	c #8968B1",
"*@	c #A278D1",
"=@	c #8249C2",
"-@	c #572891",
";@	c #835FAC",
">@	c #8960BB",
",@	c #9467CC",
"'@	c #8148C1",
")@	c #6A37AA",
"!@	c #56288F",
"~@	c #7B53A7",
"{@	c #754CA3",
"]@	c #582790",
"^@	c #603095",
"                                                                                                ",
"              . + @ # $ % & * = - ; > , ; > , ' ) ! ~ { = ]                                     ",
"              + ^ ^ ^ ^ ^ ^ ^ ^ ^ ^ ^ ^ ^ ^ ^ ^ ^ ^ ^ ^ = - ]                                   ",
"              / ^ ^ ^ ^ ^ ^ ^ ^ ^ ^ ^ ^ ^ ^ ^ ^ ^ ^ ^ ^ - ( - ]                                 ",
"              / ^ ^ ^ ^ ^ ^ ^ ^ ^ ^ ^ ^ ^ ^ ^ ^ ^ ^ ^ ^ - ( ( - ]                               ",
"              _ ^ ^ ^ ^ ^ : ^ ^ ^ ^ ^ ^ ^ ^ ^ ^ ^ ^ ^ ^ - ( ( ( - ]                             ",
"    /         _ : ^ ^ : / ^ ^ ^ ^ ^ ^ ^ ^ ^ ^ ^ ^ ^ ^ ^ - ( ( ( ( - ]                           ",
"      _ /   / < / ^ _ _ : ^ ^ ^ ^ ^ ^ ^ ^ ^ ^ ^ ^ ^ ^ ^ - ( ( ( ( ( - ]                         ",
"      / < [ [ < [ [ < _ ^ ^ ^ ^ ^ ^ ^ ^ ^ ^ ^ ^ ^ ^ ^ ^ - ( ( ( ( ( ( - ]                       ",
"        [ < } } } < [ ^ ^ ^ ^ ^ ^ ^ ^ ^ ^ ^ ^ ^ ^ ^ ^ ^ - ( ( ( ( ( ( ( - |                     ",
"      / [ } } ^ } } [ _ : ^ ^ ^ ^ ^ ^ ^ ^ ^ ^ ^ ^ ^ ^ ^ 1 ] ] ] ] ] ] 2 3 |                     ",
"/ _ _ < < } ^ ^ ^ } < < _ _ / : ^ ^ ^ ^ ^ ^ ^ ^ ^ 4 5 ^ ^ ^ ( ( ( ( ( ( ( 6                     ",
"      / [ } } ^ } } [ _ : ^ ^ ^ ^ ^ 4 4 ^ 4 4 5 5 7 7 7 8 8 9 9 0 a 9 0 a b                     ",
"        [ < } } } < [ ^ ^ ^ ^ ^ ^ ^ 4 4 ^ 4 4 7 7 7 7 8 9 9 0 0 a c 0 a c d                     ",
"      / < [ [ < [ [ < _ ^ ^ ^ ^ ^ ^ 4 4 ^ 4 4 7 7 7 7 8 9 9 0 0 a c 0 a c e                     ",
"      _ /   / < / ^ _ _ : ^ ^ ^ ^ ^ 4 4 ^ 4 4 5 5 7 7 7 8 8 9 9 0 a 9 0 a f                     ",
"    /         _ : ^ ^ : / ^ ^ ^ ^ ^ 4 4 ^ 4 4 7 7 7 7 8 9 9 0 0 a c 0 a c g                     ",
"              _ ^ ^ 4 ^ ^ : ^ ^ 4 4 5 5 4 5 5 7 7 7 8 9 0 0 a a c h a c h i                     ",
"              / ^ 4 4 ^ ^ ^ ^ 4 5 5 7 7 5 7 7 7 7 8 9 9 0 a a c h j c h j k                     ",
"              / ^ 4 4 ^ ^ ^ ^ 5 7 8 8 8 8 8 8 8 8 9 0 0 a c c h j j h j j l                     ",
"              m ^ ^ 5 7 5 7 7 5 7 9 8 8 9 8 8 9 9 0 a a c c h h j j h j j n                     ",
"              { ^ 8 8 8 8 8 8 8 8 8 o p p p p p q q r r s t u u v w x y z A B C D E             ",
"              { ^ 8 8 8 8 8 8 8 o r q p p F p p q r r s u u v v G x H I J K L M N O P Q         ",
"              R ^ 8 8 8 8 8 8 8 w s q S T U V W X Y Z Z `  .......+.@.#.$.%.F &.*.=.-.;.>.      ",
"              ,.^ 8 8 8 8 8 8 8 x u '.X W W X Y Z ` ....).@.@.@.!.#.S $.%.F ~.{.].^./.(._.      ",
"              :.^ 8 8 8 8 8 8 8 y x Z Z <.Z Z  ...+.@.!.#.#.S S [.$.}.|.F ~.{.].^.1.2.3.4.      ",
"              5.^ 8 8 8 8 8 8 8 z 6.).......7.8.9.0.[.$.a.}.b.c.d.e.F p &.{.*.f.1.g.h.i.j.      ",
"              k.^ 8 8 8 8 8 8 8 l.m.!.!.!.!.n.o.^ p.%.q.q.F r.o.^ p.s.t.u.].f.1.g.h.v.w.x.      ",
"              y.^ 8 8 8 8 8 8 8 z.A.$.[.$.$.B.^ ^ ^ p.q q s.C.^ ^ ^ p.D.E.f.1.2.h.v.F.G.H.      ",
"              I.^ 8 8 8 8 8 8 8 J.K.L.L.%.|.M.p.^ ^ ^ N.O.P.Q.p.^ ^ ^ p.^.1.2.R.S.F.T.U.V.      ",
"              I.^ 8 8 8 8 8 8 8 W.W.F F F p X.Y.p.^ ^ ^ p.Z.`. +p.^ ^ ^ p.2..+S.F.++@+#+$+      ",
"              %+^ 8 8 8 8 8 8 8 M M p p q ~.t.&+*+p.^ ^ ^ p.=+-+;+p.^ ^ ^ p.>+,+'+@+)+!+~+      ",
"              %+^ 8 8 8 8 8 8 8 {+{+~.&.t.O.u.]+^+/+p.^ ^ ^ p.(+_+:+p.^ ^ ^ p.<+T.)+[+}+|+      ",
"              %+^ 8 8 8 8 8 8 8 1+E 2+O.u.D.Z.3+4+5+p.^ ^ ^ 6+7+8+9+p.^ ^ ^ 6+8+0+a+:+b+c+      ",
"              y.^ 8 8 8 8 8 8 8 d+e+f+D.Z.E.=+g+h+6+^ ^ ^ 6+2..+i+6+^ ^ ^ 6+'+j+k+l+m+n+o+      ",
"              I.^ 8 8 8 8 8 8 8 p+q+*.E.r+^.v.m+6+^ ^ ^ 6+.+R.s+6+^ ^ ^ 6+t+u+)+l+m+9+v+w+      ",
"              I.^ 8 8 8 8 8 8 8 x+y+-+^.z+1.9+6+^ ^ ^ 6+S._+A+6+^ ^ ^ 6+++@+)+l+B+9+i+C+C+      ",
"              %+^ 8 8 8 8 8 8 8 D+-.E+1.2.g.F+^ ^ ^ 6+F.t+t+G+^ ^ ^ 6+j+)+a+l+m+9+H+I+J+J+      ",
"              %+^ 8 8 8 8 8 8 8 K+L+2.g.R.h.m+M+^ 6+T.N+j+@+O+M+^ 6+)+a+l+B+P+A+H+Q+R+S+T+      ",
"              %+^ 8 8 8 8 8 8 8 U+(..+h.v.,+)+0+@+)+k+a+a+[+V+W+l+l+:+B+9+V+F+I+R+X+X+Y+S+      ",
"              %+^ 8 8 8 8 8 8 8 Z+`+S.,+t+T.0+k+[+l+B+m+m+P+P+9+9+9+V+i+H+I+R+O+X+ @.@Y++@      ",
"              @@#@| $@b %@e b b &@i.*@'+@+)+[+B+P+9+A+i+F+H+H+H+H+I+I+Q+R+O+X+ @.@.@=@-@+@      ",
"                                i.;@G.>@,@l+m+V+F+I+Q+R+R+R+R+R+O+O+X+X+X+ @.@.@'@)@!@Y++@      ",
"                                %+x.~@{@~+c+v+C+J+T++@Y+Y+Y+Y+Y+Y+Y+-@-@!@!@]@]@]@]@-@Y+%+      ",
"                                    %+!+|+o+C+^@S+Y+Y+-@-@-@!@!@!@!@!@]@]@]@]@]@!@-@%+          ",
"                                                                                                ",
"                                                                                                ",
"                                                                                                "};
