/* XPM */
static char * preModeLibrary_xpm[] = {
"48 48 601 2",
"  	c None",
". 	c #DFDFDF",
"+ 	c #DDDDDD",
"@ 	c #DCDCDC",
"# 	c #DBDBDB",
"$ 	c #DADADA",
"% 	c #D9D9D9",
"& 	c #D8D8D8",
"* 	c #D6D6D6",
"= 	c #D5D5D5",
"- 	c #D4D4D4",
"; 	c #D3D3D3",
"> 	c #D2D2D2",
", 	c #D1D1D1",
"' 	c #D0D0D0",
") 	c #CFCFCF",
"! 	c #CECECE",
"~ 	c #CCCCCC",
"{ 	c #C7C7C7",
"] 	c #8F8F8F",
"^ 	c #FFFFFF",
"/ 	c #E8C85D",
"( 	c #ECECFF",
"_ 	c #FFCC66",
": 	c #FFE89E",
"< 	c #FFFF00",
"[ 	c #FFDB66",
"} 	c #FFFF99",
"| 	c #787878",
"1 	c #B0B0B0",
"2 	c #8E8E8E",
"3 	c #868686",
"4 	c #FEFEFF",
"5 	c #FDFDFF",
"6 	c #767676",
"7 	c #FCFCFF",
"8 	c #FBFBFF",
"9 	c #FAFAFF",
"0 	c #F9F9FF",
"a 	c #F8F8FF",
"b 	c #737373",
"c 	c #F7F7FF",
"d 	c #707070",
"e 	c #6F6F6F",
"f 	c #6D6D6D",
"g 	c #6B6B6B",
"h 	c #F6F1F8",
"i 	c #F2EBF4",
"j 	c #FEFDFE",
"k 	c #F0E8F3",
"l 	c #F0EAF1",
"m 	c #F6F6FF",
"n 	c #696969",
"o 	c #BE9FC8",
"p 	c #B993C8",
"q 	c #F7F4F7",
"r 	c #F8F7F8",
"s 	c #FAF8FA",
"t 	c #FCFCFE",
"u 	c #EADFEE",
"v 	c #A37AB1",
"w 	c #AC8EB5",
"x 	c #F5F5FF",
"y 	c #676767",
"z 	c #BFA0C9",
"A 	c #A177AE",
"B 	c #C6AFD0",
"C 	c #E8E5EA",
"D 	c #EEECEF",
"E 	c #F4F3F6",
"F 	c #E6D9EA",
"G 	c #A983B6",
"H 	c #834A94",
"I 	c #A98BB2",
"J 	c #666666",
"K 	c #C6C6C6",
"L 	c #FEFBFD",
"M 	c #F7F1F8",
"N 	c #A077AE",
"O 	c #C2ABCC",
"P 	c #DED6E1",
"Q 	c #E6E1E8",
"R 	c #ECE9EE",
"S 	c #E0D2E5",
"T 	c #A883B4",
"U 	c #864C97",
"V 	c #824893",
"W 	c #AA8BB2",
"X 	c #C1CCEB",
"Y 	c #A6B6E1",
"Z 	c #9EADDB",
"` 	c #9FA9D0",
" .	c #6E7994",
"..	c #CA8B95",
"+.	c #C07F8A",
"@.	c #FEFBFE",
"#.	c #BD9CC9",
"$.	c #9A6FA8",
"%.	c #C2A9CC",
"&.	c #D6CDDA",
"*.	c #DCD6DF",
"=.	c #E2DEE5",
"-.	c #DBCEE1",
";.	c #A781B4",
">.	c #814792",
",.	c #834994",
"'.	c #AB8DB4",
").	c #C5CFEC",
"!.	c #5C70B4",
"~.	c #748BCB",
"{.	c #E7E8EF",
"].	c #EDEFF4",
"^.	c #F4F5F9",
"/.	c #FBFBFD",
"(.	c #A4B4E0",
"_.	c #3D529B",
":.	c #7381B7",
"<.	c #C3CDEC",
"[.	c #A4636C",
"}.	c #C2818C",
"|.	c #EAE5E5",
"1.	c #F1ECED",
"2.	c #F7F4F4",
"3.	c #FDFDFD",
"4.	c #D39EA8",
"5.	c #964B54",
"6.	c #90414B",
"7.	c #C6A7D2",
"8.	c #9862A7",
"9.	c #C1A2CD",
"0.	c #D0C1D6",
"a.	c #D3C5D8",
"b.	c #D1BFD8",
"c.	c #A279B0",
"d.	c #884E99",
"e.	c #5168AE",
"f.	c #5A70B5",
"g.	c #7388C3",
"h.	c #CBD2E1",
"i.	c #E0E3E9",
"j.	c #E8EAEF",
"k.	c #E6EAF1",
"l.	c #96A8D6",
"m.	c #3C519A",
"n.	c #30458E",
"o.	c #A45D65",
"p.	c #AC6972",
"q.	c #BB808A",
"r.	c #DFCED2",
"s.	c #E8E1E3",
"t.	c #EDE8E9",
"u.	c #EFE6E8",
"v.	c #CFA0A7",
"w.	c #964952",
"x.	c #893C43",
"y.	c #8D3E45",
"z.	c #C5C5C5",
"A.	c #C6A6D1",
"B.	c #B27CC3",
"C.	c #AF7BC2",
"D.	c #A874B9",
"E.	c #854994",
"F.	c #5066AD",
"G.	c #5E74B8",
"H.	c #7286C0",
"I.	c #BBC4DA",
"J.	c #D3D7E0",
"K.	c #DCDFE7",
"L.	c #D8DDE9",
"M.	c #95A6D2",
"N.	c #42579F",
"O.	c #2E438D",
"P.	c #A35A64",
"Q.	c #B06D77",
"R.	c #B98088",
"S.	c #D7C0C4",
"T.	c #DED5D7",
"U.	c #E5DEDF",
"V.	c #E7DADD",
"W.	c #CB9EA5",
"X.	c #9A4F58",
"Y.	c #893C45",
"Z.	c #8B3C45",
"`.	c #8F4049",
" +	c #C4C4C4",
".+	c #C4A5D0",
"++	c #AE7AC1",
"@+	c #A571B6",
"#+	c #5066AB",
"$+	c #B7C1D8",
"%+	c #CACFDA",
"&+	c #CFD4DD",
"*+	c #D0D5E2",
"=+	c #92A2D0",
"-+	c #445AA1",
";+	c #A45D67",
">+	c #D5BCC1",
",+	c #D8CDCF",
"'+	c #DCD1D4",
")+	c #E0D3D5",
"!+	c #CA9DA3",
"~+	c #9C515C",
"{+	c #883B44",
"]+	c #8E3F48",
"^+	c #92434C",
"/+	c #C3C3C3",
"(+	c #C2A2CF",
"_+	c #AF7AC3",
":+	c #AD79C0",
"<+	c #A470B5",
"[+	c #7188C7",
"}+	c #526DC0",
"|+	c #6E88D2",
"1+	c #7F95D3",
"2+	c #8096D4",
"3+	c #7A8FCE",
"4+	c #2D428C",
"5+	c #BE7D88",
"6+	c #B6636F",
"7+	c #C87D8A",
"8+	c #CA8D97",
"9+	c #CC8D98",
"0+	c #C68790",
"a+	c #90414A",
"b+	c #93444D",
"c+	c #C2C2C2",
"d+	c #C09FCC",
"e+	c #B07BC2",
"f+	c #AC78BF",
"g+	c #A36FB4",
"h+	c #844A95",
"i+	c #6F87C7",
"j+	c #5A78D0",
"k+	c #5977CF",
"l+	c #506DC2",
"m+	c #BD7C87",
"n+	c #C56C79",
"o+	c #C36C78",
"p+	c #B7626E",
"q+	c #8B3E45",
"r+	c #94434D",
"s+	c #974650",
"t+	c #C1C1C1",
"u+	c #BE9CCB",
"v+	c #B27EC3",
"w+	c #B88AC7",
"x+	c #B689C6",
"y+	c #AC7ABF",
"z+	c #A26EB3",
"A+	c #874D98",
"B+	c #6C84C5",
"C+	c #5978D0",
"D+	c #5776CD",
"E+	c #4F6CC0",
"F+	c #BC7984",
"G+	c #C46B7A",
"H+	c #C16A78",
"I+	c #B5606C",
"J+	c #8F404A",
"K+	c #95464F",
"L+	c #9A4952",
"M+	c #BFBFBF",
"N+	c #BD9BCA",
"O+	c #D7D1DA",
"P+	c #D8D2DB",
"Q+	c #DDD7E0",
"R+	c #AE83BC",
"S+	c #8B4F9C",
"T+	c #6A82C5",
"U+	c #5776CC",
"V+	c #4E6BBF",
"W+	c #30448F",
"X+	c #BB7883",
"Y+	c #C06977",
"Z+	c #B45F6B",
"`+	c #984751",
" @	c #9E4B55",
".@	c #BDBDBD",
"+@	c #BA98C7",
"@@	c #E2DDE4",
"#@	c #A178AF",
"$@	c #9F6DB2",
"%@	c #874B97",
"&@	c #8B519C",
"*@	c #6780C4",
"=@	c #5877CE",
"-@	c #5675CB",
";@	c #4E6ABE",
">@	c #2E428D",
",@	c #324692",
"'@	c #BA7580",
")@	c #C26B79",
"!@	c #BF6876",
"~@	c #B3606C",
"{@	c #8F4048",
"]@	c #9D4A54",
"^@	c #A04D57",
"/@	c #B995C6",
"(@	c #E8E3EA",
"_@	c #9F6EB1",
":@	c #8A4E9B",
"<@	c #8F53A0",
"[@	c #657EC3",
"}@	c #6682D1",
"|@	c #A5B2D7",
"1@	c #A4B2D7",
"2@	c #A7B4D8",
"3@	c #637ECC",
"4@	c #4D69BD",
"5@	c #2F448E",
"6@	c #344995",
"7@	c #B8737E",
"8@	c #C67582",
"9@	c #D2ADB3",
"0@	c #D2ABB2",
"a@	c #D3AEB4",
"b@	c #C1747F",
"c@	c #B25F6B",
"d@	c #8A3D46",
"e@	c #91424B",
"f@	c #9F4C56",
"g@	c #A44F5B",
"h@	c #BCBCBC",
"i@	c #B792C5",
"j@	c #B98BC8",
"k@	c #EDEAEF",
"l@	c #A37BB0",
"m@	c #9D6CAF",
"n@	c #9255A4",
"o@	c #627CC1",
"p@	c #6D86D2",
"q@	c #CDD2DC",
"r@	c #D4D8E1",
"s@	c #5D74B8",
"t@	c #4C69BC",
"u@	c #314691",
"v@	c #364C98",
"w@	c #B7707C",
"x@	c #C77C86",
"y@	c #DACFD2",
"z@	c #DFD6D8",
"A@	c #B06B75",
"B@	c #B15E6C",
"C@	c #A24F59",
"D@	c #A8535F",
"E@	c #B590C3",
"F@	c #B88CC9",
"G@	c #E7E4E9",
"H@	c #EEEBF0",
"I@	c #F3F1F4",
"J@	c #A47CB1",
"K@	c #9C6BAE",
"L@	c #854996",
"M@	c #9559A6",
"N@	c #5F7AC0",
"O@	c #6D87D2",
"P@	c #D5D9E2",
"Q@	c #DDE0E7",
"R@	c #5C72B5",
"S@	c #4B68BB",
"T@	c #2E438E",
"U@	c #334994",
"V@	c #384F9C",
"W@	c #B66D79",
"X@	c #E0D7D9",
"Y@	c #E6DFE0",
"Z@	c #AD6A74",
"`@	c #B05D6B",
" #	c #A6515D",
".#	c #AA555F",
"+#	c #B48FC2",
"@#	c #B787C6",
"##	c #D3C0D9",
"$#	c #D2C1D8",
"%#	c #D6C5DC",
"&#	c #9F74AD",
"*#	c #854B96",
"=#	c #965CA7",
"-#	c #5D77BF",
";#	c #6E88D3",
">#	c #E4E7ED",
",#	c #5D73B6",
"'#	c #4B67BA",
")#	c #2F448F",
"!#	c #364B98",
"~#	c #3A519F",
"{#	c #B56C78",
"]#	c #C87D87",
"^#	c #EBE4E6",
"/#	c #AE6B75",
"(#	c #AF5C68",
"_#	c #8C3D47",
":#	c #994851",
"<#	c #A14E57",
"[#	c #AC5965",
"}#	c #B28BC0",
"|#	c #AE79C0",
"1#	c #A672B7",
"2#	c #9F6EAF",
"3#	c #9E6CAF",
"4#	c #9C6AAD",
"5#	c #9B6AAD",
"6#	c #884C99",
"7#	c #985FA8",
"8#	c #5B75BF",
"9#	c #6F89D4",
"0#	c #ECEEF2",
"a#	c #5F74B7",
"b#	c #4A67B9",
"c#	c #304590",
"d#	c #384E9C",
"e#	c #3D54A2",
"f#	c #B36A76",
"g#	c #C97E88",
"h#	c #AF6E77",
"i#	c #AE5B69",
"j#	c #8D3E47",
"k#	c #9C4B55",
"l#	c #AA5760",
"m#	c #AD5C67",
"n#	c #B089BE",
"o#	c #AA76BD",
"p#	c #AA75BC",
"q#	c #A673B8",
"r#	c #A371B6",
"s#	c #9C69AC",
"t#	c #945AA7",
"u#	c #9863AA",
"v#	c #5874BE",
"w#	c #718AD5",
"x#	c #F3F5F7",
"y#	c #6075B8",
"z#	c #4966B8",
"A#	c #3F57A6",
"B#	c #B26773",
"C#	c #CA818B",
"D#	c #F6F3F4",
"E#	c #B06F78",
"F#	c #AD5A68",
"G#	c #A7525C",
"H#	c #AD5B66",
"I#	c #B05D69",
"J#	c #AE87BC",
"K#	c #A974BD",
"L#	c #A874BB",
"M#	c #A572B7",
"N#	c #A270B5",
"O#	c #9B67AC",
"P#	c #894D9A",
"Q#	c #9A66AB",
"R#	c #5671BD",
"S#	c #5C79CE",
"T#	c #657CC2",
"U#	c #475FAD",
"V#	c #4965B7",
"W#	c #324893",
"X#	c #3C54A3",
"Y#	c #4059A9",
"Z#	c #B16672",
"`#	c #C36E7A",
" $	c #B9747E",
".$	c #A7565F",
"+$	c #A24F5B",
"@$	c #A95460",
"#$	c #AE5D68",
"$$	c #AD86BB",
"%$	c #AC77BE",
"&$	c #A975BC",
"*$	c #A472B7",
"=$	c #A06EB3",
"-$	c #9C6BAC",
";$	c #536FBB",
">$	c #5876CE",
",$	c #5574CB",
"'$	c #5372C7",
")$	c #516FC4",
"!$	c #4F6DC1",
"~$	c #4864B6",
"{$	c #324894",
"]$	c #3E56A6",
"^$	c #435CAD",
"/$	c #B0636F",
"($	c #C26B77",
"_$	c #BC6574",
":$	c #B86371",
"<$	c #B6616F",
"[$	c #91404A",
"}$	c #A04C56",
"|$	c #A7525E",
"1$	c #B15E6A",
"2$	c #AB83BA",
"3$	c #AB76BD",
"4$	c #A573B8",
"5$	c #8D519E",
"6$	c #9B64AA",
"7$	c #9F6CAF",
"8$	c #506DBA",
"9$	c #5573CA",
"0$	c #5371C6",
"a$	c #506FC3",
"b$	c #4E6DC0",
"c$	c #4764B5",
"d$	c #334995",
"e$	c #4159A9",
"f$	c #455FB0",
"g$	c #AF606D",
"h$	c #BE6773",
"i$	c #BB6473",
"j$	c #B76270",
"k$	c #B5606E",
"l$	c #AC5966",
"m$	c #A44F59",
"n$	c #BA6571",
"o$	c #AA82B9",
"p$	c #A974BB",
"q$	c #A16FB4",
"r$	c #A06FB2",
"s$	c #9866AB",
"t$	c #9155A2",
"u$	c #A26FB2",
"v$	c #4E6BB9",
"w$	c #5473C8",
"x$	c #5270C5",
"y$	c #506EC2",
"z$	c #4E6CBF",
"A$	c #4663B4",
"B$	c #344A96",
"C$	c #435CAC",
"D$	c #4861B4",
"E$	c #AE5D6A",
"F$	c #BD6675",
"G$	c #BA6372",
"H$	c #B45F6D",
"I$	c #AC5765",
"J$	c #AC5963",
"K$	c #AF5E69",
"L$	c #B96470",
"M$	c #BC6773",
"N$	c #4967B6",
"O$	c #5574CA",
"P$	c #4D6BBE",
"Q$	c #4662B3",
"R$	c #354C98",
"S$	c #445EAF",
"T$	c #4964B7",
"U$	c #AD5B68",
"V$	c #BE6775",
"W$	c #B35E6C",
"X$	c #AB5662",
"Y$	c #B4616C",
"Z$	c #979797",
"`$	c #7B7A7B",
" %	c #757575",
".%	c #717171",
"+%	c #956AA5",
"@%	c #A775BA",
"#%	c #9E6DB0",
"$%	c #975DA8",
"%%	c #9B66AB",
"&%	c #83688B",
"*%	c #4A63A9",
"=%	c #5573C9",
"-%	c #5270C6",
";%	c #506EC3",
">%	c #4E6CC0",
",%	c #4C6ABD",
"'%	c #4663B3",
")%	c #394F9D",
"!%	c #4760B2",
"~%	c #4B66BA",
"{%	c #BB6471",
"]%	c #B25D6B",
"^%	c #AB5664",
"/%	c #A674B9",
"(%	c #5473C7",
"_%	c #5170C5",
":%	c #4F6EC1",
"<%	c #4E6CBE",
"[%	c #4B69BB",
"}%	c #4964B6",
"|%	c #4C67BB",
"1%	c #BB6674",
"2%	c #B3606E",
"3%	c #AB5864",
"4%	c #4F6DC0",
"5%	c #4A68BA",
"6%	c #3F57A7",
"7%	c #4963B6",
"8%	c #445DAF",
"9%	c #AF5C69",
"0%	c #A8535D",
"a%	c #4C6ABC",
"b%	c #4967B9",
"c%	c #425AAA",
"d%	c #A4515A",
"e%	c #5471C7",
"f%	c #5170C4",
"g%	c #4B69BA",
"h%	c #4967B8",
"i%	c #4058A8",
"j%	c #BB6672",
"                                                                                                ",
"              . + @ # $ % & * = - ; > , ; > , ' ) ! ~ { = ]                                     ",
"              + ^ ^ ^ ^ ^ ^ ^ ^ ^ ^ ^ ^ ^ ^ ^ ^ ^ ^ ^ ^ = - ]                                   ",
"              / ^ ^ ^ ^ ^ ^ ^ ^ ^ ^ ^ ^ ^ ^ ^ ^ ^ ^ ^ ^ - ( - ]                                 ",
"              / ^ ^ ^ ^ ^ ^ ^ ^ ^ ^ ^ ^ ^ ^ ^ ^ ^ ^ ^ ^ - ( ( - ]                               ",
"              _ ^ ^ ^ ^ ^ : ^ ^ ^ ^ ^ ^ ^ ^ ^ ^ ^ ^ ^ ^ - ( ( ( - ]                             ",
"    /         _ : ^ ^ : / ^ ^ ^ ^ ^ ^ ^ ^ ^ ^ ^ ^ ^ ^ ^ - ( ( ( ( - ]                           ",
"      _ /   / < / ^ _ _ : ^ ^ ^ ^ ^ ^ ^ ^ ^ ^ ^ ^ ^ ^ ^ - ( ( ( ( ( - ]                         ",
"      / < [ [ < [ [ < _ ^ ^ ^ ^ ^ ^ ^ ^ ^ ^ ^ ^ ^ ^ ^ ^ - ( ( ( ( ( ( - ]                       ",
"        [ < } } } < [ ^ ^ ^ ^ ^ ^ ^ ^ ^ ^ ^ ^ ^ ^ ^ ^ ^ - ( ( ( ( ( ( ( - |                     ",
"      / [ } } ^ } } [ _ : ^ ^ ^ ^ ^ ^ ^ ^ ^ ^ ^ ^ ^ ^ ^ 1 ] ] ] ] ] ] 2 3 |                     ",
"/ _ _ < < } ^ ^ ^ } < < _ _ / : ^ ^ ^ ^ ^ ^ ^ ^ ^ 4 5 ^ ^ ^ ( ( ( ( ( ( ( 6                     ",
"      / [ } } ^ } } [ _ : ^ ^ ^ ^ ^ 4 4 ^ 4 4 5 5 7 7 7 8 8 9 9 0 a 9 0 a b                     ",
"        [ < } } } < [ ^ ^ ^ ^ ^ ^ ^ 4 4 ^ 4 4 7 7 7 7 8 9 9 0 0 a c 0 a c d                     ",
"      / < [ [ < [ [ < _ ^ ^ ^ ^ ^ ^ 4 4 ^ 4 4 7 7 7 7 8 9 9 0 0 a c 0 a c e                     ",
"      _ /   / < / ^ _ _ : ^ ^ ^ ^ ^ 4 4 ^ 4 4 5 5 7 7 7 8 8 9 9 0 a 9 0 a f                     ",
"    /         _ : ^ ^ : / ^ ^ ^ ^ ^ 4 4 ^ 4 4 7 7 7 7 8 9 9 0 0 a c 0 a c g                     ",
"              _ ^ ^ 4 ^ ^ : ^ ^ 4 h i j 4 5 5 7 k l 8 9 0 0 a a c m a c m n                     ",
"              / ^ 4 4 ^ ^ ^ ^ 4 i o p q r s t u v w 9 9 0 a a c m x c m x y                     ",
"              / ^ 4 4 ^ ^ ^ ^ i z A B C D E F G H I 0 0 a c c m x x m x x J                     ",
"              K ^ ^ 5 7 5 L M o N O P Q R S T U V W a X Y c m m x x Z ` x  ...          +.      ",
"              { ^ 8 8 8 8 @.#.$.%.&.*.=.-.;.U >.,.'.).!.~.{.].^./.(._.:.<.[.}.|.1.2.3.4.5.6.    ",
"              { ^ 8 8 8 8 7.8.9.0.0.a.b.c.,.>.>.d.e.f.g.h.i.j.k.l.m.n.o.p.q.r.s.t.u.v.w.x.y.    ",
"              z.^ 8 8 8 8 A.B.B.B.B.C.D.,.>.>.E.F.G.H.I.J.K.L.M.N.O.P.Q.R.S.T.U.V.W.X.Y.Z.`.    ",
"               +^ 8 8 8 8 .+B.B.B.B.++@+>.>.>.#+f.H.$+%+&+*+=+-+O.;+p.R.>+,+'+)+!+~+Y.{+]+^+    ",
"              /+^ 8 8 8 8 (+B.B.B._+:+<+>.>.,.[+}+|+1+1+2+3+N.O.4+5+6+7+8+8+9+0+X.Y.{+Y.a+b+    ",
"              c+^ 8 8 8 8 d+B.B.B.e+f+g+>.>.h+i+j+j+j+j+k+l+O.4+4+m+n+n+n+n+o+p+Y.{+{+q+r+s+    ",
"              t+^ 8 8 8 8 u+v+w+w+x+y+z+>.E.A+B+j+j+j+C+D+E+4+4+O.F+n+n+n+G+H+I+{+{+Y.J+K+L+    ",
"              M+^ 8 8 8 8 N+w+O+P+Q+R+z+>.h+S+T+j+j+j+k+U+V+4+4+W+X+n+n+n+o+Y+Z+{+{+q+^+`+ @    ",
"              .@^ 8 8 8 8 +@w+P+Q+@@#@$@V %@&@*@j+j+j+=@-@;@4+>@,@'@n+n+n+)@!@~@{+x.{@b+]@^@    ",
"              .@^ 8 8 8 8 /@w+Q+@@(@c._@,.:@<@[@}@|@1@2@3@4@4+5@6@7@8@9@0@a@b@c@{+d@e@s+f@g@    ",
"              h@^ 8 8 8 8 i@j@@@(@k@l@m@h+&@n@o@p@%+q@r@s@t@O.u@v@w@x@,+y@z@A@B@Y.]+b+L+C@D@    ",
"              h@^ 8 8 8 8 E@F@G@H@I@J@K@L@<@M@N@O@q@P@Q@R@S@T@U@V@W@x@y@X@Y@Z@`@Z.a+s+ @ #.#    ",
"              h@^ 8 8 8 8 +#@###$#%#&#K@*#n@=#-#;#P@Q@>#,#'#)#!#~#{#]#X@Y@^#/#(#_#b+:#<#D@[#    ",
"              M+^ 8 8 8 8 }#|#1#2#3#4#5#6#M@7#8#9#Q@>#0#a#b#c#d#e#f#g#Y@^#1.h#i#j#s+k#g@l#m#    ",
"              .@^ 8 8 8 8 n#:+o#p#q#r#s#6#t#u#v#w#>#0#x#y#z#u@~#A#B#C#^#1.D#E#F#]+:#^@G#H#I#    ",
"              .@^ 8 8 8 8 J#f+K#L#M#N#O#P#7#Q#R#S#T#a#y#U#V#W#X#Y#Z#`# $h#E#.$H#`.]@+$@$#$~@    ",
"              h@^ 8 8 8 8 $$%$&$q#*$=$Q#:@u#-$;$>$,$'$)$!$~${$]$^$/$($!@_$:$<$H#[$}$|$[#1$p+    ",
"              h@^ 8 8 8 8 2$3$p#4$N#=$Q#5$6$7$8$U+9$0$a$b$c$d$e$f$g$Y+h$i$j$k$l$e@m$@$m#I+n$    ",
"              h@^ 8 8 8 8 o$&$p$*$q$r$s$t$s#u$v$-@w$x$y$z$A$B$C$D$E$!@F$G$j$H$I$^+ #J$K$L$M$    ",
"              h@^ 8 8 8 8 o$&$q#r#=$_@Q#M@3#s#N$O$'$)$!$P$Q$R$S$T$U$V$_$:$<$W$X$r+D@H#~@L$Y$    ",
"              Z$`$|  %b .%+%@%M#N#r$#%Q#$%%%&%*%=%-%;%>%,%'%)%!%~%U$h${%j$k$]%^%`+l#(#p+[#      ",
"                          m@/%r#=$_@K@s$M@    c$(%_%:%<%[%'%e#}%|%U$1%G$<$2%`@^%k#H#I#3%        ",
"                          B.q#N#=$#%5#s$      c$0$)$4%,%5%Q$6%7%8%I$i$:$k$]%9%X$<#H#0%          ",
"                                              c$x$y$z$a%b%Q$A#c%  l$G$j$H$B@i#X$^@d%            ",
"                                              e%f%!$P$g%h%'%i%    j%:$<$W$9%F#^%C@              ",
"                                                                                                ",
"                                                                                                "};
