/* XPM */
static char * preModeTurbo_xpm[] = {
"48 48 556 2",
"  	c None",
". 	c #DFDFDF",
"+ 	c #DDDDDD",
"@ 	c #DCDCDC",
"# 	c #DBDBDB",
"$ 	c #DADADA",
"% 	c #D9D9D9",
"& 	c #D8D8D8",
"* 	c #D6D6D6",
"= 	c #D5D5D5",
"- 	c #D4D4D4",
"; 	c #D3D3D3",
"> 	c #D2D2D2",
", 	c #D1D1D1",
"' 	c #D0D0D0",
") 	c #CFCFCF",
"! 	c #CECECE",
"~ 	c #CCCCCC",
"{ 	c #C7C7C7",
"] 	c #8F8F8F",
"^ 	c #FFFFFF",
"/ 	c #E8C85D",
"( 	c #ECECFF",
"_ 	c #FFCC66",
": 	c #FFE89E",
"< 	c #FFFF00",
"[ 	c #FFDB66",
"} 	c #FFFF99",
"| 	c #787878",
"1 	c #B0B0B0",
"2 	c #8E8E8E",
"3 	c #868686",
"4 	c #FEFEFF",
"5 	c #FDFDFF",
"6 	c #767676",
"7 	c #FCFCFF",
"8 	c #C4E3C4",
"9 	c #C0E1C0",
"0 	c #B7DEBA",
"a 	c #BDE0BF",
"b 	c #C1E2C1",
"c 	c #D5E7DB",
"d 	c #F9F9FF",
"e 	c #F8F8FF",
"f 	c #FAFAFF",
"g 	c #737373",
"h 	c #71C87C",
"i 	c #7CCB80",
"j 	c #7CCB83",
"k 	c #86CF8A",
"l 	c #91D190",
"m 	c #B6DCB3",
"n 	c #F7F7FF",
"o 	c #EBF3EF",
"p 	c #707070",
"q 	c #5DC06D",
"r 	c #71C87A",
"s 	c #7ECB82",
"t 	c #86CE86",
"u 	c #ADD8A9",
"v 	c #DCE9DA",
"w 	c #C1DFCD",
"x 	c #90D194",
"y 	c #C7E1C4",
"z 	c #606060",
"A 	c #D1E6D3",
"B 	c #9AD497",
"C 	c #9BD499",
"D 	c #C9E4C9",
"E 	c #E7EEE8",
"F 	c #57BA68",
"G 	c #87CE89",
"H 	c #ADD8AB",
"I 	c #D5E5D0",
"J 	c #E0EDE2",
"K 	c #90D198",
"L 	c #77C880",
"M 	c #94D194",
"N 	c #A5D2B8",
"O 	c #CEE5D1",
"P 	c #75C87B",
"Q 	c #76C97E",
"R 	c #96D295",
"S 	c #CAE4C9",
"T 	c #58BB66",
"U 	c #74C97C",
"V 	c #81CC84",
"W 	c #8ACF8A",
"X 	c #95D194",
"Y 	c #A8D8A5",
"Z 	c #C9E3C6",
"` 	c #BDE0BD",
" .	c #78C980",
"..	c #82CD87",
"+.	c #85CC85",
"@.	c #90D190",
"#.	c #95D295",
"$.	c #EFF4F1",
"%.	c #C3E2C6",
"&.	c #6EC57C",
"*.	c #65C270",
"=.	c #73C87B",
"-.	c #83CC86",
";.	c #90CF90",
">.	c #9ED59A",
",.	c #82CD86",
"'.	c #8CCF8D",
").	c #A1D69F",
"!.	c #B8DCB5",
"~.	c #A2D7A7",
"{.	c #74C97E",
"].	c #74C97A",
"^.	c #7DCC81",
"/.	c #83CC84",
"(.	c #8ACD95",
"_.	c #58BD6B",
":.	c #5FC270",
"<.	c #6DC677",
"[.	c #8ECF8E",
"}.	c #65C272",
"|.	c #70C77B",
"1.	c #95D291",
"2.	c #9DD49B",
"3.	c #99D299",
"4.	c #77CA7F",
"5.	c #FBFBFF",
"6.	c #8ACD9A",
"7.	c #54B967",
"8.	c #5DC070",
"9.	c #6CC577",
"0.	c #5DC06E",
"a.	c #6EC578",
"b.	c #81CC86",
"c.	c #96D291",
"d.	c #99D499",
"e.	c #83CC88",
"f.	c #7DCC85",
"g.	c #83CE87",
"h.	c #C6C6C6",
"i.	c #87CC94",
"j.	c #5ABD6D",
"k.	c #69C474",
"l.	c #76C97C",
"m.	c #87CE8B",
"n.	c #96D196",
"o.	c #9BD49B",
"p.	c #90D192",
"q.	c #6AC375",
"r.	c #6EC777",
"s.	c #75CA7B",
"t.	c #7BC48A",
"u.	c #62C172",
"v.	c #86CE89",
"w.	c #97D196",
"x.	c #9ED59E",
"y.	c #6BC478",
"z.	c #86CD89",
"A.	c #68C373",
"B.	c #6DC675",
"C.	c #73C87D",
"D.	c #D7E8D9",
"E.	c #ABDAB3",
"F.	c #A9DAB1",
"G.	c #AFDCB4",
"H.	c #B4DBB5",
"I.	c #5EBF70",
"J.	c #6CC575",
"K.	c #96D396",
"L.	c #ABD7A6",
"M.	c #7BCA7F",
"N.	c #66C373",
"O.	c #6BC476",
"P.	c #70C779",
"Q.	c #C5C5C5",
"R.	c #BFE0C5",
"S.	c #59BE68",
"T.	c #5BC069",
"U.	c #65C070",
"V.	c #5FBC6C",
"W.	c #8ECF8F",
"X.	c #6CC579",
"Y.	c #7CCB84",
"Z.	c #62C16E",
"`.	c #67C272",
" +	c #65C26E",
".+	c #63C26F",
"++	c #70C774",
"@+	c #72C778",
"#+	c #6AC575",
"$+	c #C4C4C4",
"%+	c #DAE9DD",
"&+	c #69C27A",
"*+	c #53B864",
"=+	c #5BBE6E",
"-+	c #6EC57A",
";+	c #5DBE6D",
">+	c #59B869",
",+	c #5FC071",
"'+	c #9ED69B",
")+	c #62C16F",
"!+	c #5DC26E",
"~+	c #5BC06C",
"{+	c #5CBF71",
"]+	c #68C575",
"^+	c #76C978",
"/+	c #63C26C",
"(+	c #5FC06D",
"_+	c #C3C3C3",
":+	c #D3E6D9",
"<+	c #48AD5E",
"[+	c #4EB35E",
"}+	c #56BB69",
"|+	c #5BB866",
"1+	c #45AA58",
"2+	c #57BC6A",
"3+	c #72C77C",
"4+	c #8FCF8C",
"5+	c #A2D59E",
"6+	c #AAD8A7",
"7+	c #B6DAB3",
"8+	c #BCDCB7",
"9+	c #C5E0BF",
"0+	c #91D295",
"a+	c #64C171",
"b+	c #58BB69",
"c+	c #59BE6C",
"d+	c #5ABF6D",
"e+	c #5ABF6B",
"f+	c #70C77D",
"g+	c #C2C2C2",
"h+	c #D2E5D7",
"i+	c #44A957",
"j+	c #4AAF5B",
"k+	c #50B764",
"l+	c #59BE6A",
"m+	c #58B565",
"n+	c #429752",
"o+	c #49AC5C",
"p+	c #5CBF6D",
"q+	c #A6D7A2",
"r+	c #C2DEBD",
"s+	c #BFDEBB",
"t+	c #BEDEB9",
"u+	c #52B765",
"v+	c #56B768",
"w+	c #53B866",
"x+	c #56B766",
"y+	c #56B966",
"z+	c #57BA67",
"A+	c #56BB66",
"B+	c #C1C1C1",
"C+	c #D3E6D7",
"D+	c #47AC58",
"E+	c #46AB59",
"F+	c #4BB05E",
"G+	c #50B761",
"H+	c #59BA6B",
"I+	c #479856",
"J+	c #3F8E50",
"K+	c #4DB260",
"L+	c #5EBF6E",
"M+	c #77CA7D",
"N+	c #C8E0C3",
"O+	c #DAE6D5",
"P+	c #CCE0C7",
"Q+	c #C1DEBD",
"R+	c #63BC6D",
"S+	c #49AE5A",
"T+	c #48AD59",
"U+	c #49AE5C",
"V+	c #4EB363",
"W+	c #4BB25C",
"X+	c #4FB460",
"Y+	c #4FB45F",
"Z+	c #BFBFBF",
"`+	c #ECF1F2",
" @	c #C0D2DE",
".@	c #B9DAC1",
"+@	c #BADBC1",
"@@	c #BBDEC3",
"#@	c #53B265",
"$@	c #387D47",
"%@	c #429351",
"&@	c #5BBE69",
"*@	c #8CCF8C",
"=@	c #AED8A9",
"-@	c #D5E4D1",
";@	c #E4EAE1",
">@	c #D4E4CF",
",@	c #C6E0C1",
"'@	c #B9DCB5",
")@	c #83CA86",
"!@	c #47A258",
"~@	c #419C52",
"{@	c #40A152",
"]@	c #43A457",
"^@	c #44A558",
"/@	c #41A657",
"(@	c #50B561",
"_@	c #BDBDBD",
":@	c #BCD7C3",
"<@	c #30713B",
"[@	c #48AD5B",
"}@	c #CCE2C7",
"|@	c #E4E9E0",
"1@	c #E1E9DC",
"2@	c #C9E1C4",
"3@	c #B8DBB2",
"4@	c #4BA65A",
"5@	c #3A7D45",
"6@	c #3D844E",
"7@	c #3F8A4F",
"8@	c #3F9850",
"9@	c #42A154",
"0@	c #5ABB68",
"a@	c #DFEAE1",
"b@	c #80C98F",
"c@	c #4CB15F",
"d@	c #419E55",
"e@	c #2C6D37",
"f@	c #3A874B",
"g@	c #44A556",
"h@	c #A8D7A4",
"i@	c #BEDCB7",
"j@	c #BEDDB8",
"k@	c #AED8AB",
"l@	c #A4D7A0",
"m@	c #79CA7F",
"n@	c #387B45",
"o@	c #357840",
"p@	c #3C8B4B",
"q@	c #4FB262",
"r@	c #BCBCBC",
"s@	c #D9E6DC",
"t@	c #80C38E",
"u@	c #419A54",
"v@	c #2C6D39",
"w@	c #367B45",
"x@	c #429D55",
"y@	c #9BD497",
"z@	c #78C77F",
"A@	c #62BD6D",
"B@	c #50B75F",
"C@	c #78C981",
"D@	c #B5D4BE",
"E@	c #3FA054",
"F@	c #41A454",
"G@	c #419C54",
"H@	c #32713C",
"I@	c #30713C",
"J@	c #41A456",
"K@	c #58BD69",
"L@	c #67C474",
"M@	c #55B463",
"N@	c #3F904E",
"O@	c #46A157",
"P@	c #50AF60",
"Q@	c #6ABD75",
"R@	c #62BB73",
"S@	c #4FB462",
"T@	c #B4D3BC",
"U@	c #3E9350",
"V@	c #409B53",
"W@	c #419E52",
"X@	c #388547",
"Y@	c #2B6A37",
"Z@	c #367742",
"`@	c #3F8E4E",
" #	c #59BC67",
".#	c #5EC16F",
"+#	c #68C573",
"@#	c #63C272",
"##	c #48A159",
"$#	c #2F723C",
"%#	c #347741",
"&#	c #3D864B",
"*#	c #429955",
"=#	c #43A858",
"-#	c #4FB464",
";#	c #5FBC6E",
">#	c #57BA6C",
",#	c #B5D2BC",
"'#	c #3E8D4F",
")#	c #3F9451",
"!#	c #82C78F",
"~#	c #78A983",
"{#	c #2D6C38",
"]#	c #357643",
"^#	c #47AC5A",
"/#	c #56B968",
"(#	c #54B962",
"_#	c #49AC5E",
":#	c #409352",
"<#	c #2A6D35",
"[#	c #296C34",
"}#	c #377C46",
"|#	c #3D8E4E",
"1#	c #409F52",
"2#	c #51B662",
"3#	c #B8D3BF",
"4#	c #52A561",
"5#	c #E8EFEB",
"6#	c #97BD9F",
"7#	c #2D6E39",
"8#	c #2F6C3B",
"9#	c #387946",
"0#	c #3C8B49",
"a#	c #3F944F",
"b#	c #409951",
"c#	c #3B8F4B",
"d#	c #3A7D47",
"e#	c #4B8659",
"f#	c #548F60",
"g#	c #498255",
"h#	c #2E6B3A",
"i#	c #367343",
"j#	c #3B8248",
"k#	c #4AAF5F",
"l#	c #C2E1C7",
"m#	c #51AA61",
"n#	c #6BB87C",
"o#	c #D8E3DA",
"p#	c #70A17C",
"q#	c #346F42",
"r#	c #2F6E3B",
"s#	c #388345",
"t#	c #3E874A",
"u#	c #32713E",
"v#	c #458C52",
"w#	c #428B4E",
"x#	c #2D6A37",
"y#	c #337A40",
"z#	c #95C8A0",
"A#	c #DFECE3",
"B#	c #D5E4D9",
"C#	c #3D7447",
"D#	c #358043",
"E#	c #306D3B",
"F#	c #347141",
"G#	c #3A8148",
"H#	c #3C8749",
"I#	c #409752",
"J#	c #DAE9DC",
"K#	c #ABD8B3",
"L#	c #E1ECE1",
"M#	c #89BC92",
"N#	c #326F3F",
"O#	c #367342",
"P#	c #3B7E48",
"Q#	c #65C074",
"R#	c #90CF9B",
"S#	c #40914F",
"T#	c #306F3C",
"U#	c #61B66F",
"V#	c #9ACFA4",
"W#	c #2A6B36",
"X#	c #489154",
"Y#	c #A8D5AB",
"Z#	c #E3F0E9",
"`#	c #4F5C51",
" $	c #4FAE5E",
".$	c #439452",
"+$	c #3B8A4A",
"@$	c #357341",
"#$	c #3A8147",
"$$	c #59B263",
"%$	c #D5E8D8",
"&$	c #52A55F",
"*$	c #337040",
"=$	c #377444",
"-$	c #C6E3CD",
";$	c #3B8A48",
">$	c #59B468",
",$	c #8CBD96",
"'$	c #296A34",
")$	c #2F6E39",
"!$	c #4C9F5A",
"~$	c #B7DEB8",
"{$	c #4C4C4C",
"]$	c #54A960",
"^$	c #4BA259",
"/$	c #4DAA5F",
"($	c #CFDED3",
"_$	c #337640",
":$	c #3A7747",
"<$	c #48A95A",
"[$	c #E5F0E9",
"}$	c #B3CEBA",
"|$	c #30733D",
"1$	c #57B464",
"2$	c #B4D9BC",
"3$	c #368343",
"4$	c #55A862",
"5$	c #709770",
"6$	c #D0DDD3",
"7$	c #6BBC7A",
"8$	c #B3CCBB",
"9$	c #2B6A35",
"0$	c #C4E3CB",
"a$	c #4FA25D",
"b$	c #2A6D33",
"c$	c #377C44",
"d$	c #4EA75D",
"e$	c #76C57B",
"f$	c #979797",
"g$	c #7B7A7B",
"h$	c #757575",
"i$	c #717171",
"j$	c #6F6F6F",
"k$	c #636363",
"l$	c #465149",
"m$	c #3B8649",
"n$	c #49544B",
"o$	c #485F4D",
"p$	c #296A35",
"q$	c #347340",
"r$	c #526956",
"s$	c #547159",
"t$	c #3D7E49",
"u$	c #2B6C37",
"v$	c #316E3D",
"w$	c #397E46",
"x$	c #378247",
"y$	c #449954",
"z$	c #3A8749",
"A$	c #5CBD6C",
"B$	c #4CA55D",
"C$	c #2D7239",
"D$	c #2B6A36",
"E$	c #3C854D",
"F$	c #47A659",
"G$	c #57BC68",
"H$	c #458C50",
"I$	c #4FAA5C",
"J$	c #286732",
"K$	c #45A256",
"L$	c #419050",
"M$	c #2E6B38",
"N$	c #377643",
"O$	c #3C8D4D",
"P$	c #59BA64",
"Q$	c #64BB6E",
"R$	c #347344",
"S$	c #2C6B36",
"T$	c #2E6D3A",
"U$	c #41884E",
"V$	c #4DA65B",
"W$	c #296833",
"X$	c #31723D",
"Y$	c #45A056",
"Z$	c #327B3E",
"`$	c #59BA67",
" %	c #53A75D",
".%	c #41884D",
"+%	c #3A8548",
"@%	c #429B53",
"                                                                                                ",
"              . + @ # $ % & * = - ; > , ; > , ' ) ! ~ { = ]                                     ",
"              + ^ ^ ^ ^ ^ ^ ^ ^ ^ ^ ^ ^ ^ ^ ^ ^ ^ ^ ^ ^ = - ]                                   ",
"              / ^ ^ ^ ^ ^ ^ ^ ^ ^ ^ ^ ^ ^ ^ ^ ^ ^ ^ ^ ^ - ( - ]                                 ",
"              / ^ ^ ^ ^ ^ ^ ^ ^ ^ ^ ^ ^ ^ ^ ^ ^ ^ ^ ^ ^ - ( ( - ]                               ",
"              _ ^ ^ ^ ^ ^ : ^ ^ ^ ^ ^ ^ ^ ^ ^ ^ ^ ^ ^ ^ - ( ( ( - ]                             ",
"    /         _ : ^ ^ : / ^ ^ ^ ^ ^ ^ ^ ^ ^ ^ ^ ^ ^ ^ ^ - ( ( ( ( - ]                           ",
"      _ /   / < / ^ _ _ : ^ ^ ^ ^ ^ ^ ^ ^ ^ ^ ^ ^ ^ ^ ^ - ( ( ( ( ( - ]                         ",
"      / < [ [ < [ [ < _ ^ ^ ^ ^ ^ ^ ^ ^ ^ ^ ^ ^ ^ ^ ^ ^ - ( ( ( ( ( ( - ]                       ",
"        [ < } } } < [ ^ ^ ^ ^ ^ ^ ^ ^ ^ ^ ^ ^ ^ ^ ^ ^ ^ - ( ( ( ( ( ( ( - |                     ",
"      / [ } } ^ } } [ _ : ^ ^ ^ ^ ^ ^ ^ ^ ^ ^ ^ ^ ^ ^ ^ 1 ] ] ] ] ] ] 2 3 |                     ",
"/ _ _ < < } ^ ^ ^ } < < _ _ / : ^ ^ ^ ^ ^ ^ ^ ^ ^ 4 5 ^ ^ ^ ( ( ( ( ( ( ( 6                     ",
"      / [ } } ^ } } [ _ : ^ ^ ^ ^ ^ 4 4 ^ 4 4 5 5 7 8 9 0 a b c d e f d e g                     ",
"        [ < } } } < [ ^ ^ ^ ^ ^ ^ ^ 4 4 ^ 4 4 7 7 7 h i j k l m e n d o o p                     ",
"      / < [ [ < [ [ < _ ^ ^ ^ ^ ^ ^ 4 4 ^ 4 4 7 7 7 q r s t l u v n w x y z                     ",
"      _ /   / < / ^ _ _ : ^ ^ ^ ^ ^ 4 4 ^ A B C D E F r s G l H I J K L t M N                   ",
"    /         _ : ^ ^ : / ^ ^ ^ ^ ^ 4 4 O P Q t R S T U V W X Y Z ` i  ...+.@.#.                ",
"              _ ^ ^ 4 ^ ^ : ^ ^ 4 4 $.%.&.*.=.-.;.>.*.P ,.'.l ).!.~.{.].^./.t W                 ",
"              / ^ 4 4 ^ ^ ^ ^ 4 5 5 7 (._.:.<.^.[.C }.|.V [.1.2.3. .U U 4.i /.t                 ",
"              / ^ 4 4 ^ ^ ^ ^ 5 7 5.5.6.7.8.9.i [.B 0.a.b.;.c.d.e.<.U U 4.4.f.g.                ",
"              h.^ ^ 5 7 5 7 7 5 7 f 5.5.i.j.k.l.m.n.o.a.m.@.1.p.q.|.{.r.s.s. .                  ",
"              { ^ 5.5.5.5.5.5.5.5.5.5.5.5.t.u.=.v.w.x.y.v.@.w.z.A.B.r r r r C.                  ",
"              { ^ 5.5.5.5.5.5.5.5.D.E.F.G.H.I.J./.K.L.M.b.[.@.}.N.9.9.J.O.9.=.    P.Q U         ",
"              Q.^ 5.5.5.5.5.5.5.5.R.S.T.N.i U.V.s p.W.Q X.Y.G Z.A.q.`. +.+=.l ++@+A.#+P         ",
"              $+^ 5.5.5.5.5.5.5.%+&+*+=+0.-+9.0.;+>+,+C.-.@.'+t <.)+!+~+{+]+^+/+(+(+Z..+        ",
"              _+^ 5.5.5.5.5.5.5.:+<+[+}+8.k.B.|+1+2+3+4+5+6+7+8+9+0+a+F b+c+d+d+e+e+~+~+f+      ",
"              g+^ 5.5.5.5.5.5.5.h+i+j+k+l+)+m+n+o+p+4.@.q+7+r+s+t+u 3+*+u+v+w+x+u+y+z+A+A+      ",
"              B+^ 5.5.5.5.5.5.5.C+D+E+F+G+H+I+J+K+L+M+@.6+N+O+P+Q+Y R+S+T+U+F+V+W+[+X+[+Y+      ",
"              Z+^ 5.5.5.5.5.5.5.`+ @.@+@@@#@$@%@F+&@3+*@=@-@;@>@,@'@)@!@~@{@]@^@/@1+T+(@*+      ",
"              _@^ 5.5.5.5.5.5.5.5.5.5.5.5.:@<@J+[@7.N.i 2.}@|@1@2@3@q+4@5@6@7@J+8@9@0@          ",
"              _@^ 5.5.5.5.5.5.5.5.5.a@b@c@d@e@f@g@[+~+|.G h@i@j@k@l@1.m@n@o@p@q@w+              ",
"              r@^ 5.5.5.5.5.5.5.5.s@t@1+1+u@v@w@x@[@*+)+U k @.y@M [.z@A@B@b+C@                  ",
"              r@^ 5.5.5.5.5.5.5.5.D@8@E@F@G@H@I@p@J@c@K@L@U i -.b.m@M@N@O@P@Q@R@S@c+C.          ",
"              r@^ 5.5.5.5.5.5.5.5.T@U@V@V@W@X@Y@Z@`@g@K+ #.#+#L@N.@###$#%#&#*#=#[@-#>+;#>#      ",
"              Z+^ 5.5.5.5.5.5.5.5.,#'#U@)#^@!#~#{#]#J+W@^#S@/#(#G+_#:#<#[#H@}#|#1#]@^#c@2#      ",
"              _@^ 5.5.5.5.5.5.5.5.3#7@J+4#5#5#6#7#[#8#9#0#a#*#b#c#d#e#f#g#Y@h#i#j#a#u@]@k#      ",
"              _@^ 5.5.5.5.5.5.5.5.l#m#n#%+5#o#p#q#r#s#t#o@u#v#w#x#y#z#A#B#C#D#E#F#G#H#I#x+      ",
"              r@^ 5.5.5.5.5.5.5.5.J#K#h+5.L#M#N#O#P#Q#R#S#T#U#V#H#W#X#Y#Z#`# $.$+$I@@$#$$$      ",
"              r@^ 5.5.5.5.5.5.5.5.5.5.5.5.%$&$*$=$:#-$.@;$8#>$A#,$'$)$!$~${$        ]$^$/$      ",
"              r@^ 5.5.5.5.5.5.5.5.5.5.5.5.($_$*$:$<$[$}$|$x#1$Z#2$3$'$_$4$5$                    ",
"              r@^ 5.5.5.5.5.5.5.5.5.5.5.5.6$8#u#9#7$[$8$E#9$+$Z#0$a$b$x#c$d$e$                  ",
"              f$g$| h$g i$j$g g k$k$k$k${$l$%#*$m$n${$o$w@p$q$r${$s$t$u$v$w$4@V.                ",
"                                            x$u#y$      z$p$u#A$    B$C$D$F#E$F$G$              ",
"                                              H$I$      J$'$E#K$      L$'$M$N$O$P$              ",
"                                              Q$        R$S$T$U$,+      V$W$X$Y$                ",
"                                                          Z$M$d#`$         %                    ",
"                                                            .%+%@%                              ",
"                                                              J@                                "};
