/* XPM */
static char * preModeGeneral_xpm[] = {
"48 48 358 2",
"  	c None",
". 	c #DFDFDF",
"+ 	c #DDDDDD",
"@ 	c #DCDCDC",
"# 	c #DBDBDB",
"$ 	c #DADADA",
"% 	c #D9D9D9",
"& 	c #D8D8D8",
"* 	c #D6D6D6",
"= 	c #D5D5D5",
"- 	c #D4D4D4",
"; 	c #D3D3D3",
"> 	c #D2D2D2",
", 	c #D1D1D1",
"' 	c #D0D0D0",
") 	c #CFCFCF",
"! 	c #CECECE",
"~ 	c #CCCCCC",
"{ 	c #C7C7C7",
"] 	c #8F8F8F",
"^ 	c #FFFFFF",
"/ 	c #E8C85D",
"( 	c #ECECFF",
"_ 	c #FFCC66",
": 	c #FFE89E",
"< 	c #FFFF00",
"[ 	c #FFDB66",
"} 	c #FFFF99",
"| 	c #787878",
"1 	c #B0B0B0",
"2 	c #8E8E8E",
"3 	c #868686",
"4 	c #FEFEFF",
"5 	c #FDFDFF",
"6 	c #767676",
"7 	c #FCFCFF",
"8 	c #FBFBFF",
"9 	c #FAFAFF",
"0 	c #F9F9FF",
"a 	c #F8F8FF",
"b 	c #737373",
"c 	c #F7F7FF",
"d 	c #707070",
"e 	c #6F6F6F",
"f 	c #FAFAFD",
"g 	c #F0F2F7",
"h 	c #EEF1F6",
"i 	c #EEF0F5",
"j 	c #EEF0F6",
"k 	c #F7F8FD",
"l 	c #6D6D6D",
"m 	c #FCFCFE",
"n 	c #F7F8FC",
"o 	c #EEF0F7",
"p 	c #E5E9F2",
"q 	c #E4E8F3",
"r 	c #EAEDF4",
"s 	c #F0F2F6",
"t 	c #F3F5F6",
"u 	c #C5C8CD",
"v 	c #FAFBFE",
"w 	c #E9EDF6",
"x 	c #DDE2F0",
"y 	c #DEE3F1",
"z 	c #E5E8F2",
"A 	c #EAECF3",
"B 	c #EEEFF4",
"C 	c #F0F2F5",
"D 	c #F1F3F5",
"E 	c #F2F3F5",
"F 	c #DAE1F0",
"G 	c #DEE3F3",
"H 	c #CED7ED",
"I 	c #D2DAEE",
"J 	c #D9E0F0",
"K 	c #DEE4F0",
"L 	c #DFE5F1",
"M 	c #E1E6F1",
"N 	c #E2E6F2",
"O 	c #C9D2EB",
"P 	c #D7DDF1",
"Q 	c #C1CBE9",
"R 	c #C8D3EB",
"S 	c #CED9ED",
"T 	c #CFD9ED",
"U 	c #CED8ED",
"V 	c #CCD8ED",
"W 	c #CDD7ED",
"X 	c #CDD6EC",
"Y 	c #CCD6EC",
"Z 	c #BBC6E6",
"` 	c #C6C6C6",
" .	c #D2DAEF",
"..	c #B3C0E3",
"+.	c #BBC7E7",
"@.	c #C1CEEA",
"#.	c #C3D1EA",
"$.	c #C2CFEA",
"%.	c #BFCDEA",
"&.	c #BECCEA",
"*.	c #BECBE9",
"=.	c #BDCAE8",
"-.	c #B1BFE3",
";.	c #B2C0E3",
">.	c #F7F7FD",
",.	c #CCD5EB",
"'.	c #A6B6DC",
").	c #A9B9DE",
"!.	c #B0C0E3",
"~.	c #B1C2E4",
"{.	c #B0C1E4",
"].	c #AEBFE3",
"^.	c #ADBDE2",
"/.	c #ACBDE2",
"(.	c #ACBBDE",
"_.	c #F8F9FE",
":.	c #D4DDF0",
"<.	c #9EB2DB",
"[.	c #9DAFD8",
"}.	c #A3B3DB",
"|.	c #A4B7DD",
"1.	c #A4B6DD",
"2.	c #A1B4DC",
"3.	c #9EB2DC",
"4.	c #9EB1DC",
"5.	c #9EB1DB",
"6.	c #9FB1DB",
"7.	c #A0B2DC",
"8.	c #AABADF",
"9.	c #B1C0E2",
"0.	c #B1C1E2",
"a.	c #B4C2E2",
"b.	c #AEBEDF",
"c.	c #A5B8DD",
"d.	c #B5C6E5",
"e.	c #C5C5C5",
"f.	c #EFF2FB",
"g.	c #A3BBE3",
"h.	c #88A4D8",
"i.	c #92A8D7",
"j.	c #95AAD8",
"k.	c #94AAD9",
"l.	c #93A9D9",
"m.	c #91A8D8",
"n.	c #90A6D8",
"o.	c #90A5D8",
"p.	c #97AAD9",
"q.	c #F0F1F7",
"r.	c #9DA9DB",
"s.	c #8FA3D7",
"t.	c #C4C4C4",
"u.	c #C7D5EF",
"v.	c #7A9DDD",
"w.	c #7598DA",
"x.	c #7D9AD9",
"y.	c #7F9AD9",
"z.	c #7D99D9",
"A.	c #7B99D8",
"B.	c #7A98D8",
"C.	c #7A96D8",
"D.	c #7A97D8",
"E.	c #849EDA",
"F.	c #8F9CDA",
"G.	c #7F8BD4",
"H.	c #708AD3",
"I.	c #B3C7EA",
"J.	c #C3C3C3",
"K.	c #94ADE4",
"L.	c #6388DB",
"M.	c #6589DA",
"N.	c #678ADA",
"O.	c #668AD9",
"P.	c #668ADA",
"Q.	c #7293DC",
"R.	c #4D66C9",
"S.	c #C2C2C2",
"T.	c #F3F5FC",
"U.	c #6A8ADC",
"V.	c #5E81D9",
"W.	c #5C7FD8",
"X.	c #5C7FD7",
"Y.	c #5C7FD6",
"Z.	c #6E8EDB",
"`.	c #7893DC",
" +	c #6889DA",
".+	c #5C80D7",
"++	c #C1C1C1",
"@+	c #C3CFEF",
"#+	c #5C7CD8",
"$+	c #5C7CD5",
"%+	c #5A7BD3",
"&+	c #5A7BD2",
"*+	c #7793DA",
"=+	c #8491D7",
"-+	c #EDEEF6",
";+	c #6070CA",
">+	c #6685D6",
",+	c #B8C7EC",
"'+	c #BFBFBF",
")+	c #A3B6E7",
"!+	c #5B79D6",
"~+	c #5A79D2",
"{+	c #5978D1",
"]+	c #5978D0",
"^+	c #7791D8",
"/+	c #4C64C8",
"(+	c #D8DDF0",
"_+	c #92A9E3",
":+	c #BDBDBD",
"<+	c #8AA2E1",
"[+	c #5A79D3",
"}+	c #5A79D1",
"|+	c #DBE1F2",
"1+	c #7490DB",
"2+	c #7A93DC",
"3+	c #5A78D1",
"4+	c #5A79D0",
"5+	c #5979D1",
"6+	c #5A7AD0",
"7+	c #5B7AD0",
"8+	c #7791D6",
"9+	c #5977D0",
"0+	c #DAE1F1",
"a+	c #647CD0",
"b+	c #6170CA",
"c+	c #5979D0",
"d+	c #617FD6",
"e+	c #BCBCBC",
"f+	c #7B93DC",
"g+	c #5878D0",
"h+	c #5778D0",
"i+	c #5779CF",
"j+	c #587BCE",
"k+	c #5879CC",
"l+	c #758FD4",
"m+	c #DDE2F1",
"n+	c #6F7CCE",
"o+	c #5773CB",
"p+	c #577ACE",
"q+	c #627FD6",
"r+	c #5A7AD3",
"s+	c #587AD2",
"t+	c #5879D0",
"u+	c #587ACE",
"v+	c #5779CC",
"w+	c #758FD3",
"x+	c #5773C9",
"y+	c #5774CA",
"z+	c #5776CB",
"A+	c #A2B6E6",
"B+	c #5A7FD6",
"C+	c #5A7DD5",
"D+	c #5A7CD4",
"E+	c #5A7AD2",
"F+	c #587ACF",
"G+	c #7692D6",
"H+	c #E7E9F4",
"I+	c #516ECC",
"J+	c #587ACD",
"K+	c #90A9E2",
"L+	c #C1D0EE",
"M+	c #5A83D9",
"N+	c #5B84D9",
"O+	c #5C83D8",
"P+	c #5E81D8",
"Q+	c #5E7DD7",
"R+	c #7995DA",
"S+	c #D9DFF1",
"T+	c #5C80D3",
"U+	c #5C7ED3",
"V+	c #B6C8EB",
"W+	c #678FDD",
"X+	c #5D8ADA",
"Y+	c #5F8ADB",
"Z+	c #6187DB",
"`+	c #6282DB",
" @	c #617ED9",
".@	c #7C95DE",
"+@	c #6082D8",
"@@	c #6683DA",
"#@	c #DCE2F3",
"$@	c #607FD8",
"%@	c #90ADE4",
"&@	c #618CDB",
"*@	c #648FDC",
"=@	c #668DDD",
"-@	c #6788DD",
";@	c #6783DC",
">@	c #8299E0",
",@	c #DDE2F3",
"'@	c #6684DA",
")@	c #C4D1EF",
"!@	c #7195DE",
"~@	c #6A90DD",
"{@	c #6D92DE",
"]@	c #6D8DDD",
"^@	c #6D89DC",
"/@	c #889DE1",
"(@	c #6D88DC",
"_@	c #E1E6F4",
":@	c #AFC2E9",
"<@	c #EDF0FB",
"[@	c #98AEE5",
"}@	c #7392DE",
"|@	c #7594DE",
"1@	c #7693DE",
"2@	c #7591DE",
"3@	c #8EA4E2",
"4@	c #7590DE",
"5@	c #F8F8FE",
"6@	c #CCD6F2",
"7@	c #859EE0",
"8@	c #7996DE",
"9@	c #7C98DE",
"0@	c #7D98DE",
"a@	c #8AA3E1",
"b@	c #7D99DE",
"c@	c #A8B9E8",
"d@	c #F6F7FD",
"e@	c #BBCAEE",
"f@	c #819FE0",
"g@	c #7F9DDF",
"h@	c #859FDF",
"i@	c #86A1DF",
"j@	c #7F9ADC",
"k@	c #849FDF",
"l@	c #85A0DF",
"m@	c #8EA8E2",
"n@	c #979797",
"o@	c #7B7A7B",
"p@	c #757575",
"q@	c #717171",
"r@	c #636363",
"s@	c #7C8CAA",
"t@	c #86A3DC",
"u@	c #88A3DF",
"v@	c #89A5DF",
"w@	c #89A4DF",
"x@	c #88A5E0",
"y@	c #91ADE3",
"z@	c #96AEE3",
"A@	c #8EA8E0",
"B@	c #8AA5DF",
"C@	c #9CB2E4",
"D@	c #97AEE2",
"E@	c #8CA6E0",
"F@	c #B6C6E9",
"G@	c #AEC0E7",
"H@	c #95ADE1",
"I@	c #8BA6DF",
"J@	c #C2CFEB",
"K@	c #ADBEE7",
"L@	c #92ABE1",
"M@	c #8AA5E0",
"N@	c #CAD5ED",
"O@	c #B0C1E8",
"P@	c #9DB3E3",
"Q@	c #90A9E0",
"                                                                                                ",
"              . + @ # $ % & * = - ; > , ; > , ' ) ! ~ { = ]                                     ",
"              + ^ ^ ^ ^ ^ ^ ^ ^ ^ ^ ^ ^ ^ ^ ^ ^ ^ ^ ^ ^ = - ]                                   ",
"              / ^ ^ ^ ^ ^ ^ ^ ^ ^ ^ ^ ^ ^ ^ ^ ^ ^ ^ ^ ^ - ( - ]                                 ",
"              / ^ ^ ^ ^ ^ ^ ^ ^ ^ ^ ^ ^ ^ ^ ^ ^ ^ ^ ^ ^ - ( ( - ]                               ",
"              _ ^ ^ ^ ^ ^ : ^ ^ ^ ^ ^ ^ ^ ^ ^ ^ ^ ^ ^ ^ - ( ( ( - ]                             ",
"    /         _ : ^ ^ : / ^ ^ ^ ^ ^ ^ ^ ^ ^ ^ ^ ^ ^ ^ ^ - ( ( ( ( - ]                           ",
"      _ /   / < / ^ _ _ : ^ ^ ^ ^ ^ ^ ^ ^ ^ ^ ^ ^ ^ ^ ^ - ( ( ( ( ( - ]                         ",
"      / < [ [ < [ [ < _ ^ ^ ^ ^ ^ ^ ^ ^ ^ ^ ^ ^ ^ ^ ^ ^ - ( ( ( ( ( ( - ]                       ",
"        [ < } } } < [ ^ ^ ^ ^ ^ ^ ^ ^ ^ ^ ^ ^ ^ ^ ^ ^ ^ - ( ( ( ( ( ( ( - |                     ",
"      / [ } } ^ } } [ _ : ^ ^ ^ ^ ^ ^ ^ ^ ^ ^ ^ ^ ^ ^ ^ 1 ] ] ] ] ] ] 2 3 |                     ",
"/ _ _ < < } ^ ^ ^ } < < _ _ / : ^ ^ ^ ^ ^ ^ ^ ^ ^ 4 5 ^ ^ ^ ( ( ( ( ( ( ( 6                     ",
"      / [ } } ^ } } [ _ : ^ ^ ^ ^ ^ 4 4 ^ 4 4 5 5 7 7 7 8 8 9 9 0 a 9 0 a b                     ",
"        [ < } } } < [ ^ ^ ^ ^ ^ ^ ^ 4 4 ^ 4 4 7 7 7 7 8 9 9 0 0 a c 0 a c d                     ",
"      / < [ [ < [ [ < _ ^ ^ ^ ^ ^ ^ 4 4 ^ 4 4 7 7 7 7 8 9 9 0 0 a c 0 a c e                     ",
"      _ /   / < / ^ _ _ : ^ ^ ^ ^ ^ 4 4 ^ 4 4 5 5 7 f g h h i i j h g k a l                     ",
"    /         _ : ^ ^ : / ^ ^ ^ ^ ^ 4 4 ^ 4 m n o p q r s t t t t s r q p u                     ",
"              _ ^ ^ 4 ^ ^ : ^ ^ 4 4 5 5 4 v w x y z A B C D E E D C B A z y x F                 ",
"              / ^ 4 4 ^ ^ ^ ^ 4 5 5 7 7 5 G H I J K L M N N N N N N M L K J I H O               ",
"              / ^ 4 4 ^ ^ ^ ^ 5 7 8 8 8 P Q R S T U V W X Y Y Y Y X W V U T S R Q Z             ",
"              ` ^ ^ 5 7 5 7 7 5 7 9 8  ...+.@.#.$.%.&.*.=.=.=.=.=.=.*.&.%.$.#.@.+.-.;.          ",
"              { ^ 8 8 8 8 8 8 8 8 >.,.'.).!.~.{.].^.^.^././././././.^.^.^.].{.~.!.).'.(.        ",
"              { ^ 8 8 8 8 8 8 8 _.:.<.[.}.|.1.2.3.4.5.5.6.6.6.7.8.9.9.9.9.0.a.b.c.}.[.<.d.      ",
"              e.^ 8 8 8 8 8 8 8 f.g.h.i.j.k.l.m.n.o.o.o.o.o.o.p.q.q.q.q.q.q.q.r.s.j.i.h.g.      ",
"              t.^ 8 8 8 8 8 8 8 u.v.w.x.y.z.A.B.C.D.D.D.D.D.D.E.q.F.F.F.F.F.q.G.H.y.x.w.v.I.    ",
"              J.^ 8 8 8 8 8 8 8 K.L.M.N.N.N.O.O.P.P.N.N.N.N.N.Q.q.F.R.R.R.R.q.G.R.N.N.M.L.K.    ",
"              S.^ 8 8 8 8 8 8 T.U.V.W.X.X.Y.Z.q.q.q.q.q.q.q.`. +q.F.R.X..+.+q.G.R.X.X.W.V.U.    ",
"              ++^ 8 8 8 8 8 8 @+#+$+%+&+&+%+*+q.=+=+=+=+=+-+;+>+q.F.R.%+&+&+q.G.R.&+&+%+$+#+,+  ",
"              '+^ 8 8 8 8 8 8 )+!+~+{+]+]+{+^+q.=+/+R.R.R.(+;+R.q.F.R.]+]+]+q.G.R.]+]+{+~+!+_+  ",
"              :+^ 8 8 8 8 8 8 <+[+}+}+}+}+}+^+q.=+R.~+~+~+|+;+R.q.q.q.q.q.q.q.G.R.}+}+}+}+[+1+  ",
"              :+^ 8 8 8 8 8 8 2+3+4+}+5+6+7+8+q.=+R.9+9+~+0+;+R.a+b+b+b+b+b+b+b+R.c+5+}+4+3+d+  ",
"              e+^ 8 8 8 8 8 8 f+3+g+h+i+j+k+l+q.=+R.j+j+j+m+n+R.o+R.R.R.R.R.R.R.R.p+i+h+g+3+q+  ",
"              e+^ 8 8 8 8 8 8 <+r+s+s+t+u+v+w+q.q.q.q.q.q.q.q.q.q.q.q.q.G.x+y+z+v+u+t+s+s+r+1+  ",
"              e+^ 8 8 8 8 8 8 A+B+B+C+D+E+F+G+q.=+=+=+=+=+H+=+=+=+=+=+q.G.I+J+u+F+E+D+C+B+B+K+  ",
"              '+^ 8 8 8 8 8 8 L+M+N+O+P+Q+$+R+q.=+I+I+I+I+S+=+I+I+I+I+q.G.I+T+U+$+Q+P+O+N+M+V+  ",
"              :+^ 8 8 8 8 8 8 T.W+X+Y+Z+`+ @.@q.=+I++@+@@@#@=+I++@+@@@q.G.I++@$@ @`+Z+Y+X+W+    ",
"              :+^ 8 8 8 8 8 8 8 %@&@*@=@-@;@>@q.=+I+@@@@@@,@=+I+@@@@@@q.G.I+'@@@;@-@=@*@&@%@    ",
"              e+^ 8 8 8 8 8 8 8 )@!@~@{@]@^@/@q.=+I+(@(@(@_@=+I+(@(@(@q.G.I+(@(@^@]@{@~@!@:@    ",
"              e+^ 8 8 8 8 8 8 8 <@[@}@|@1@2@3@q.q.q.q.q.q.q.q.q.q.q.q.q.G.I+4@4@2@1@|@}@[@      ",
"              e+^ 8 8 8 8 8 8 8 5@6@7@8@9@0@a@G.G.G.G.G.G.G.G.G.G.G.G.G.G.I+0@b@0@9@8@7@c@      ",
"              e+^ 8 8 8 8 8 8 8 8 d@e@f@g@h@i@j@I+I+I+I+I+I+I+I+I+I+I+I+I+I+k@l@h@g@f@m@        ",
"              n@o@| p@b q@e b b r@r@r@s@t@u@v@v@w@w@w@w@w@w@w@w@w@w@w@w@w@w@v@v@u@x@y@          ",
"                                        z@A@v@B@B@B@B@B@B@B@B@B@B@B@B@B@B@B@B@v@A@z@            ",
"                                          C@D@E@B@B@B@B@B@B@B@B@B@B@B@B@B@B@E@D@C@              ",
"                                            F@G@H@I@B@B@B@B@B@B@B@B@B@B@I@H@G@F@                ",
"                                                J@K@L@M@B@B@B@B@B@B@M@L@K@J@                    ",
"                                                      N@O@P@Q@Q@P@O@N@                          ",
"                                                                                                "};
