/* XPM */
static char * primToggle_xpm[] = {
"16 16 5 1",
" 	c None",
".	c #FF0000",
"+	c #000000",
"@	c #99B8FF",
"#	c #739CFF",
"          .     ",
"      +++ .     ",
"    ++@@@+.+    ",
"  ++@+@@@.  ++++",
"++@@@@+++.   + +",
"+++@@@+@@.+++  +",
"+##+++@@. + +  +",
"+###+#++.+  +  +",
"+###+###.+  + ++",
"+++#+##. +  ++ +",
"+##+++#. + ++  +",
"+###+#+.+++ +  +",
"+###+#.  +  + ++",
"+++#+#.  +  +++ ",
"   +++.  + ++   ",
"     .+++++     "};
