/* XPM */ 
static char * probetool_xpm[] = {
"16 16 10 1",
" 	c None",
"!	c black",
"#	c #6C6C6C",
"$	c #9F9F9F",
"%	c #787878",
"&	c #413F29",
"'	c #C9C6AB",
"(	c #FFFEEA",
")	c #8C8659",
"*	c #B5B18C",
"                ",
"           #!!$ ",
"           !%!! ",
"        !!!%!!! ",
"         !!!!!# ",
"        &'!!!   ",
"       &(')!!   ",
"      &((*! !   ",
"     &((*!      ",
"    &((*!       ",
"   &((*!        ",
"  &((*!         ",
"  &(*!          ",
" &(!!           ",
"  !             ",
"                "};