/* XPM */
static char * Project16_xpm[] = {
"16 16 188 2",
"  	c None",
". 	c #DBEBFA",
"+ 	c #BCD8F3",
"@ 	c #97C0E9",
"# 	c #74A7DC",
"$ 	c #5E97CF",
"% 	c #4C88C5",
"& 	c #C3DDF8",
"* 	c #A9CDF0",
"= 	c #8AB7E4",
"- 	c #7AA8D8",
"; 	c #7BA4CE",
"> 	c #8BAAC9",
", 	c #A0B5C9",
"' 	c #B6C1CD",
") 	c #C5CCD3",
"! 	c #CBD3DB",
"~ 	c #C3D2E1",
"{ 	c #C3DAF1",
"] 	c #C7DFF8",
"^ 	c #FCFDFF",
"/ 	c #2576CA",
"( 	c #B1BFCD",
"_ 	c #D0D2D5",
": 	c #D3D8DD",
"< 	c #D2DCE6",
"[ 	c #C8DBEE",
"} 	c #B5D4F3",
"| 	c #9EC9F5",
"1 	c #86BDF4",
"2 	c #6FB0F1",
"3 	c #5CA4ED",
"4 	c #4E9BE8",
"5 	c #4595E4",
"6 	c #005AC8",
"7 	c #4C95DF",
"8 	c #AED6FE",
"9 	c #9ECFFF",
"0 	c #95CBFF",
"a 	c #89C3FD",
"b 	c #7DBBF9",
"c 	c #76B5F5",
"d 	c #73B2F2",
"e 	c #74B2EF",
"f 	c #7AB4EE",
"g 	c #549DE7",
"h 	c #519BE5",
"i 	c #2077D1",
"j 	c #3287DD",
"k 	c #9BCEFF",
"l 	c #9BCDFF",
"m 	c #A0CEFD",
"n 	c #A2CEFB",
"o 	c #A6CFF9",
"p 	c #ABD1F8",
"q 	c #AFD3F7",
"r 	c #B1D3F6",
"s 	c #ADD1F4",
"t 	c #589EE4",
"u 	c #4F97DE",
"v 	c #4492E0",
"w 	c #96CBFF",
"x 	c #A6D2FE",
"y 	c #C8E2FD",
"z 	c #C3DFFB",
"A 	c #BCDBF9",
"B 	c #B1D4F7",
"C 	c #A0C9F3",
"D 	c #89BCEF",
"E 	c #6EACE9",
"F 	c #398CDF",
"G 	c #67A6E5",
"H 	c #60A2E3",
"I 	c #4F99E3",
"J 	c #8EC5FD",
"K 	c #99CAFB",
"L 	c #AED4F9",
"M 	c #96C6F6",
"N 	c #7DB7F1",
"O 	c #65A8EC",
"P 	c #529CE7",
"Q 	c #3E90E3",
"R 	c #328AE2",
"S 	c #2380DE",
"T 	c #7DB4EB",
"U 	c #76B0E9",
"V 	c #5BA1E6",
"W 	c #84BEF9",
"X 	c #7EBAF6",
"Y 	c #71B2F2",
"Z 	c #64A9EE",
"` 	c #59A2EB",
" .	c #4F9BE7",
"..	c #4192E3",
"+.	c #68A6E5",
"@.	c #7EA5CB",
"#.	c #739DC7",
"$.	c #AFC8E1",
"%.	c #77B2EB",
"&.	c #559EE7",
"*.	c #7BB8F5",
"=.	c #74B4F3",
"-.	c #68ACEF",
";.	c #5DA4EB",
">.	c #529DE8",
",.	c #4795E4",
"'.	c #4195E8",
").	c #8297AD",
"!.	c #120E09",
"~.	c #0C0804",
"{.	c #3B3836",
"].	c #8BBEF1",
"^.	c #569FE9",
"/.	c #72B2F2",
"(.	c #6AADF0",
"_.	c #5FA5EC",
":.	c #549EE8",
"<.	c #4997E5",
"[.	c #398DE0",
"}.	c #5EA4EB",
"|.	c #4F5153",
"1.	c #060606",
"2.	c #2B2A29",
"3.	c #000000",
"4.	c #D3D3D3",
"5.	c #A8CFF6",
"6.	c #65AAEE",
"7.	c #60A6EC",
"8.	c #559FE9",
"9.	c #4A98E5",
"0.	c #3F90E1",
"a.	c #2F88E0",
"b.	c #7CA6D0",
"c.	c #110E0B",
"d.	c #3C3E40",
"e.	c #A5ADB6",
"f.	c #686868",
"g.	c #BEDCFB",
"h.	c #76B5F4",
"i.	c #56A0E9",
"j.	c #4B98E5",
"k.	c #4091E2",
"l.	c #3388DE",
"m.	c #3C91E6",
"n.	c #6F7C89",
"o.	c #5E7184",
"p.	c #66A3E0",
"q.	c #22201E",
"r.	c #111111",
"s.	c #CEE6FE",
"t.	c #89C2FB",
"u.	c #4C99E6",
"v.	c #4292E2",
"w.	c #378BDF",
"x.	c #247FDA",
"y.	c #62A2E2",
"z.	c #373432",
"A.	c #090705",
"B.	c #89A9CA",
"C.	c #97C5F2",
"D.	c #6F7071",
"E.	c #AEAEAE",
"F.	c #DCEEFF",
"G.	c #93C9FF",
"H.	c #5CA4EC",
"I.	c #3288DE",
"J.	c #247EDA",
"K.	c #3289E1",
"L.	c #829EBA",
"M.	c #050301",
"N.	c #3A3A3A",
"O.	c #D2D2D2",
"P.	c #3E3E3E",
"Q.	c #C2E1FF",
"R.	c #4C9AE7",
"S.	c #4693E2",
"T.	c #88BAEC",
"U.	c #D4E6F8",
"V.	c #717171",
"W.	c #9A9A9A",
"X.	c #212121",
"Y.	c #020202",
"Z.	c #E2E2E2",
"`.	c #1B1B1B",
" +	c #0A0A0A",
".+	c #E7E7E7",
"++	c #787878",
"@+	c #7D7D7D",
"          . + @ # $ %           ",
"& * = - ; > , ' ) ! ~ { ] ^     ",
"/ ( _ : < [ } | 1 2 3 4 5       ",
"6 7 8 9 0 a b c d e f g h       ",
"i j k l m n o p q r s h t       ",
"u v w x y z A B C D E F G       ",
"H I J K L M N O P Q R S T       ",
"U V W X Y Z `  ...+.@.#.$.      ",
"%.&.*.=.-.;.>.,.'.).!.~.{.      ",
"].^./.(._.:.<.[.}.|.1.2.3.4.    ",
"5.6.(.7.8.9.0.a.b.c.d.e.3.f.    ",
"g.h.Z i.j.k.l.m.n.3.o.p.q.r.    ",
"s.t._.u.v.w.x.y.z.A.B.C.D.3.E.  ",
"F.G.H.k.I.J.K.L.M.N.    O.3.P.  ",
"  Q.R.S.T.U.  V.3.W.      X.Y.Z.",
"              `. +.+      ++Y.@+"};
