/* XPM */ 
static char * ptrack_xpm[] = {
"16 16 10 1",
" 	c None",
"!	c black",
"#	c #6C6C6C",
"$	c #393939",
"%	c #929292",
"&	c #ABABAB",
"'	c #99B8FF",
"(	c #2C2C2C",
")	c #003AC4",
"*	c #6F9AFF",
"                ",
"#!$!!!$%&$!#    ",
"!'!%&&%$!!'!    ",
"$!$      $!$$%&&",
"            %$!!",
"     #!#        ",
" %(!!!'!%       ",
"!(%&&$!!!$%&    ",
"         %$!!!# ",
"           &!'!&",
" %)!!!)%    #!$!",
"%)*'''*)!)%     ",
")''''''''*)%    ",
")''''''''''))   ",
"%)***))!!)***)  ",
" %)!)%   %)!!!! "};