/* XPM */
static char * publish_xpm[] = {
"16 16 116 2",
"  	c None",
". 	c #DFDFDF",
"+ 	c #DCDCDC",
"@ 	c #DADADA",
"# 	c #D7D7D7",
"$ 	c #D4D4D4",
"% 	c #D2D2D2",
"& 	c #CFCFCF",
"* 	c #CCCCCC",
"= 	c #BFBFBF",
"- 	c #FFFFFF",
"; 	c #DDDDDD",
"> 	c #B8B8B8",
", 	c #F3F3F3",
"' 	c #B2B2B2",
") 	c #F2F2F2",
"! 	c #ACACAC",
"~ 	c #7D95C9",
"{ 	c #7790C7",
"] 	c #6F8AC3",
"^ 	c #6884C1",
"/ 	c #617FBE",
"( 	c #5A79BB",
"_ 	c #5374B9",
": 	c #4C6EB6",
"< 	c #4468B3",
"[ 	c #3D62B0",
"} 	c #990000",
"| 	c #A9A7E0",
"1 	c #6985C1",
"2 	c #FFFEFE",
"3 	c #4569B3",
"4 	c #3E5076",
"5 	c #365DAE",
"6 	c #FEFEFF",
"7 	c #A5A2DF",
"8 	c #8685D6",
"9 	c #2F58AB",
"0 	c #6783C0",
"a 	c #A09EDE",
"b 	c #5B7ABC",
"c 	c #8382D5",
"d 	c #2852A8",
"e 	c #CACACA",
"f 	c #FBFBFF",
"g 	c #9C9ADD",
"h 	c #4B6DB6",
"i 	c #375EAE",
"j 	c #3058AB",
"k 	c #7E7DD4",
"l 	c #214DA6",
"m 	c #C7C7C7",
"n 	c #FAFAFF",
"o 	c #9896DB",
"p 	c #9493DA",
"q 	c #8F8ED9",
"r 	c #8B8AD8",
"s 	c #8786D6",
"t 	c #7F7ED4",
"u 	c #7A7AD2",
"v 	c #1A47A3",
"w 	c #C4C4C4",
"x 	c #FDFDFF",
"y 	c #FCFCFF",
"z 	c #F9F9FF",
"A 	c #9492DA",
"B 	c #466AB4",
"C 	c #3E63B1",
"D 	c #2A54A9",
"E 	c #224DA6",
"F 	c #7676D1",
"G 	c #1342A0",
"H 	c #C2C2C2",
"I 	c #F8F8FF",
"J 	c #F7F7FF",
"K 	c #374971",
"L 	c #30436D",
"M 	c #283C67",
"N 	c #E9E8E8",
"O 	c #7171D0",
"P 	c #0B3B9D",
"Q 	c #BEBEBE",
"R 	c #F6F6FF",
"S 	c #8B89D7",
"T 	c #2F426C",
"U 	c #213662",
"V 	c #E8E8E8",
"W 	c #6D6CCE",
"X 	c #04369B",
"Y 	c #BCBCBC",
"Z 	c #F5F5FF",
"` 	c #F4F4FF",
" .	c #F2F2FF",
"..	c #0C3C9E",
"+.	c #003399",
"@.	c #B9B9B9",
"#.	c #F3F3FF",
"$.	c #F1F1FF",
"%.	c #EFEFFF",
"&.	c #EDEDFF",
"*.	c #EBEBFF",
"=.	c #E9E9FF",
"-.	c #E7E7FF",
";.	c #484848",
">.	c #7D7D7D",
",.	c #787878",
"'.	c #727272",
").	c #6E6E6E",
"!.	c #696969",
"~.	c #656565",
"{.	c #5F5F5F",
"].	c #5A5A5A",
"^.	c #565656",
"/.	c #515151",
"(.	c #4C4C4C",
"_.	c #474747",
". + @ # $ % & * =               ",
"+ - - - - - - - ; >             ",
"@ - - - - - - - + , '           ",
"# - - - - - - - @ - ) !         ",
"$ - - - - - ~ { ] ^ / ( _ : < [ ",
"% - - } - - { | 1 2 2 2 2 3 4 5 ",
"& - - } } 6 ] 7 / 2 2 2 2 [ 8 9 ",
"* - - } } } 0 a b 2 2 2 2 5 c d ",
"e - - } } f / g _ h < [ i j k l ",
"m 6 6 } f n ( o p q r s c t u v ",
"w x y f n z _ A B C i j D E F G ",
"H y f z I J h q C K L M N v O P ",
"Q f z I J R < S 5 T M U V G W X ",
"Y z I J Z `  .i j d l v G ..X +.",
"@.I R Z #. .$.%.&.*.=.-.;.      ",
">.,.'.).!.~.{.].^./.(.;._.      "};
