/* XPM */
static char * r_plus_xpm[] = {
/* width height ncolors cpp [x_hot y_hot] */
"16 16 4 1 0 0",
/* colors */
" 	c None",
".	c #666666",
"X	c #000000",
"o	c #999999",
/* pixels */
"                ",
"                ",
" .              ",
"...             ",
" .        XXXX  ",
" .    X   X   X ",
" .    X   X   X ",
" .  XXXXX XXXX  ",
" .    X   X  X  ",
" .    X   X   X ",
" .        X   X ",
" .              ",
" .              ",
" .          .   ",
" .............  ",
"            .   "};
