/* XPM */
static char * reaction_xpm[] = {
"16 16 10 1",
" 	c None",
".	c None",
"+	c #000000",
"@	c #FF5202",
"#	c #FFA602",
"$	c #FFFF00",
"%	c #FFFFFF",
"&	c #D61313",
"*	c #FCFCC4",
"=	c #0098FF",
"................",
".......+........",
".......+........",
"......+@+.......",
"......+@@+......",
".....+@@@@+.....",
"....+@@#@@+.....",
"...+@@###@@+....",
"...+@##$##@+....",
"...+@#$%$#&+....",
"...+@$*%$#+.....",
"....+$%%%$+.....",
"....+=%%=+......",
".....+==+.......",
"......++........",
"................"};
