/* XPM */
static char * renderoptions_xpm[] = {
"16 16 5 1",
" 	c None",
".	c #000000",
"+	c #FFFF00",
"@	c #A0A0A0",
"#	c #739CFF",
"                ",
"      ...       ",
"    ..+++...    ",
"  ..+.+++.++....",
"..++++....+++.@.",
"...+++.+++...@@.",
".##...++++.@@@@.",
".###.#....@@@@@.",
".###.####.@@@@@.",
"...#.####.@@@@@.",
".##...###.@@@@@.",
".###.#....@@@@@.",
".###.####.@@@@..",
"...#.####.@@... ",
"   ...###.@..   ",
"      .....     "};
