/* XPM */
static char * report_xpm[] = {
"16 16 21 1",
" 	c None",
".	c #9C9C00",
"+	c #000000",
"@	c #F7F7F7",
"#	c #FFFFCE",
"$	c #FFFF9C",
"%	c #CECE63",
"&	c #979B9F",
"*	c #29488F",
"=	c #84A9FF",
"-	c #7AA0F6",
";	c #4765A9",
">	c #1E3466",
",	c #6E96F1",
"'	c #B9CCFF",
")	c #C4D3FF",
"!	c #D5E0FF",
"~	c #638BE7",
"{	c #37569D",
"]	c #FFCE9C",
"^	c #5681E3",
"  .....+        ",
" .@##$$.+       ",
".%%%%%%%......  ",
".###########$%+ ",
".#&*====---;$%+ ",
".#>$===--,,;$%+ ",
".#&*='))!'~{]%+ ",
".#>$-')!!'~{$%+ ",
".#&*--,,~~^{]%+ ",
".#>$-,,~~^^*$%+ ",
".#&*,,~~^^^*]%+ ",
".#>$,~~^^^^*]%+ ",
".#&****>>>>>]%+ ",
".%%%%%%%%%%%%%+ ",
" ++++++++++++++ ",
"                "};
