/* XPM */
static char * routines_xpm[] = {
"16 16 9 1",
" 	c None",
".	c #9C9C00",
"+	c #000000",
"@	c #F7F7F7",
"#	c #FFFFCE",
"$	c #FFFF9C",
"%	c #CECE63",
"&	c #FFCE9C",
"*	c #949494",
"  .....+        ",
" .@##$$.+       ",
".%%%%%%%......  ",
".###########$%+ ",
".#$$$$$$$$$$$%+ ",
".#$$$$$$$$+&$%+ ",
".#$$$$$$$$+$&%+ ",
".#*++$+$+&++*%+ ",
".#+$$$+$+$+$+%+ ",
".#*+*$+&+&+&+%+ ",
".#$$+$+$+$+$+%+ ",
".#++*&*++&++*%+ ",
".#&$&$&$&$&&&%+ ",
".%%%%%%%%%%%%%+ ",
" ++++++++++++++ ",
"                "};
