/* XPM */
static char * saveD_xpm[] = {
"14 14 4 1",
" 	c None",
".	c None",
"+	c #737373",
"@	c #FFFFFF",
"..............",
".++++++++++++.",
".+.+......@.@.",
".+.+......@.@.",
".+.+......@.@.",
".+.+......@.@.",
".+..@@@@@@..@.",
".+..........@.",
".+..+++++++.@.",
".+..+..+..@.@.",
".+..+..+..@.@.",
".+..+..+..@.@.",
"..@@@@@@@@@@@.",
".............."};


