/* XPM */
static char * save_xpm[] = {
"16 16 88 1",
" 	c None",
".	c #7F96CA",
"+	c #7D95C9",
"@	c #7891C7",
"#	c #748EC5",
"$	c #6F8AC3",
"%	c #6A86C2",
"&	c #6683C0",
"*	c #627FBF",
"=	c #5E7CBD",
"-	c #5978BB",
";	c #5475B9",
">	c #5071B8",
",	c #4C6EB6",
"'	c #476AB4",
")	c #4367B3",
"!	c #3E63B1",
"~	c #AEACE2",
"{	c #FFFDFD",
"]	c #FFFEFE",
"^	c #8B8AD8",
"/	c #3A60AF",
"(	c #ACA9E1",
"_	c #E1DFDF",
":	c #E0DEDE",
"<	c #DFDDDD",
"[	c #DEDCDC",
"}	c #DDDCDC",
"|	c #DCDBDB",
"1	c #DCDADA",
"2	c #DBD9D9",
"3	c #3A4C74",
"4	c #365DAE",
"5	c #A9A7E0",
"6	c #364871",
"7	c #3159AC",
"8	c #A6A4DF",
"9	c #DAD8D8",
"0	c #D9D8D8",
"a	c #8382D5",
"b	c #2D56AA",
"c	c #A3A1DF",
"d	c #8180D4",
"e	c #2852A8",
"f	c #A19FDE",
"g	c #D8D7D7",
"h	c #D7D6D6",
"i	c #FFFFFF",
"j	c #7E7DD4",
"k	c #244FA7",
"l	c #9F9DDD",
"m	c #7C7BD3",
"n	c #1F4BA5",
"o	c #9C9ADC",
"p	c #9897DC",
"q	c #7978D2",
"r	c #1B48A3",
"s	c #9695DB",
"t	c #9492DA",
"u	c #918FD9",
"v	c #8E8DD8",
"w	c #8988D7",
"x	c #8685D6",
"y	c #7676D1",
"z	c #1745A2",
"A	c #7473D0",
"B	c #1241A0",
"C	c #3E5076",
"D	c #31446D",
"E	c #2D406B",
"F	c #E9E9E9",
"G	c #E9E8E8",
"H	c #7170D0",
"I	c #0E3E9E",
"J	c #283C67",
"K	c #E8E8E8",
"L	c #6E6ECF",
"M	c #093A9D",
"N	c #243864",
"O	c #E8E7E7",
"P	c #6B6BCE",
"Q	c #05379B",
"R	c #EAE9E9",
"S	c #E7E7E7",
"T	c #6969CD",
"U	c #013399",
"V	c None",
"W	c #003399",
".+@#$%&*=-;>,')!",
"+~#{{{]]]]]]])^/",
"@(${_:<[}|12]!34",
"#5%{]]]]]]]]]/67",
"$8&]<[}|1290]4ab",
"%c*]]]]]]]]]]7de",
"&f=]}|1290ghibjk",
"*l-]]]]]]]]iiemn",
"=op>,')!/47bemqr",
"-pstuv^wxadjmqyz",
";st')!/47beknyAB",
">tu)C36DEFGGrAHI",
",uv!36DEJGGKzHLM",
"'v^/6DEJNGKOBLPQ",
")^w4RRFGGKOSIPTU",
"V/47beknrzBIMQUW"};
