/* XPM */
static char * SaveKeyframe_xpm[] = {
/* width height ncolors cpp [x_hot y_hot] */
"16 16 5 1 0 0",
/* colors */
" 	s none	m none	c none",
".	s iconGray8	m black	c #212121212121",
"X	s iconColor1	m black	c black",
"o	s iconGray2	m white	c #bdbdbdbdbdbd",
"O	s iconColor4	m white	c green",
/* pixels */
"                ",
"     ....       ",
"   X......      ",
"  X..   ...     ",
"  X.  X  ..  X  ",
"  .X   XXX..X   ",
"         XXX    ",
"      ........  ",
"      XooooooX. ",
"      XO.OO.Xo. ",
"      XO.O.XOo. ",
"      XO..XOOo. ",
"      XO.O.XOo. ",
"      XO.OO.Xo. ",
"      XXXXXXXX. ",
"                "};
