/* XPM */ 
static char * saveanimation_xpm[] = {
"16 16 23 1",
" 	c None",
"!	c #5475B9",
"#	c #4C6EB6",
"$	c #3E63B1",
"%	c #3159AC",
"&	c black",
"'	c #A9A7E0",
"(	c #FFFEFE",
")	c #8685D6",
"*	c #9C9ADC",
"+	c #DFDDDD",
",	c #243864",
"-	c #2852A8",
".	c #3A60AF",
"0	c #918FD9",
"1	c #1B48A3",
"2	c #1745A2",
"3	c #6B6BCE",
"4	c #0E3E9E",
"5	c #DEDEDE",
"6	c #003399",
"7	c #B8B8B8",
"8	c white",
"!!##$%%%%       ",
"!'((((()%       ",
"!*(+++(,%       ",
"$*((((()-       ",
".00000))1       ",
".0%%%%234       ",
"%0%,,5234       ",
"%0%,,5436       ",
" %%%22466       ",
"                ",
"    &&&&&&&&&&&&",
"    7&7777&7777&",
"    7&7887&7887&",
"    7&7887&7887&",
"    7&7777&7777&",
"    &&&&&&&&&&&&"};