/* XPM */
static char * saveanimationD_xpm[] = {
"16 16 22 1",
" 	c None",
".	c #B7B7B7",
"+	c #B4B4B4",
"@	c #B0B0B0",
"#	c #ACACAC",
"$	c #D5D5D5",
"%	c #FDFDFD",
"&	c #C9C9C9",
"*	c #D0D0D0",
"=	c #E4E4E4",
"-	c #9A9A9A",
";	c #A9A9A9",
">	c #AFAFAF",
",	c #CDCDCD",
"'	c #A5A5A5",
")	c #A4A4A4",
"!	c #C1C1C1",
"~	c #A2A2A2",
"{	c #9D9D9D",
"]	c #7F7F7F",
"^	c #CFCFCF",
"/	c #FFFFFF",
"..++@####       ",
".$%%%%%&#       ",
".*%===%-#       ",
"@*%%%%%&;       ",
">,,,,,&&'       ",
">,####)!~       ",
"#,#--=)!~       ",
"#,#--=~!{       ",
" ###))~{{       ",
"                ",
"    ]]]]]]]]]]]]",
"    ^]^^^^]^^^^]",
"    ^]^//^]^//^]",
"    ^]^//^]^//^]",
"    ^]^^^^]^^^^]",
"    ]]]]]]]]]]]]"};
