/* XPM */
static char * SaveWBD_xpm[] = {
"16 16 65 1",
" 	c None",
".	c #C5C5C5",
"+	c #C4C4C4",
"@	c #C2C2C2",
"#	c #C1C1C1",
"$	c #BFBFBF",
"%	c #BEBEBE",
"&	c #BDBDBD",
"*	c #BBBBBB",
"=	c #BABABA",
"-	c #B8B8B8",
";	c #B7B7B7",
">	c #B6B6B6",
",	c #B4B4B4",
"'	c #B3B3B3",
")	c #B2B2B2",
"!	c #B0B0B0",
"~	c #D7D7D7",
"{	c #FDFDFD",
"]	c #CBCBCB",
"^	c #AFAFAF",
"/	c #D6D6D6",
"(	c #E5E5E5",
"_	c #E4E4E4",
":	c #E3E3E3",
"<	c #E2E2E2",
"[	c #A2A2A2",
"}	c #AEAEAE",
"|	c #D5D5D5",
"1	c #A0A0A0",
"2	c #ACACAC",
"3	c #D4D4D4",
"4	c #E1E1E1",
"5	c #C8C8C8",
"6	c #ABABAB",
"7	c #D3D3D3",
"8	c #A9A9A9",
"9	c #D2D2D2",
"0	c #E0E0E0",
"a	c #DFDFDF",
"b	c #FFFFFF",
"c	c #C7C7C7",
"d	c #A8A8A8",
"e	c #D1D1D1",
"f	c #C6C6C6",
"g	c #A7A7A7",
"h	c #D0D0D0",
"i	c #CFCFCF",
"j	c #A5A5A5",
"k	c #CECECE",
"l	c #CDCDCD",
"m	c #CCCCCC",
"n	c #CACACA",
"o	c #C9C9C9",
"p	c #A4A4A4",
"q	c #C3C3C3",
"r	c #A3A3A3",
"s	c #9F9F9F",
"t	c #9D9D9D",
"u	c #EBEBEB",
"v	c #9B9B9B",
"w	c #9A9A9A",
"x	c #EAEAEA",
"y	c #C0C0C0",
"z	c #9E9E9E",
".+@#$%&*=-;>,')!",
"+~#{{{{{{{{{{)]^",
"@/${((__:<<<{![}",
"#|%{{{{{{{{{{^12",
"$3&{__:<<<44{}56",
"%7*{{{{{{{{{{258",
"&9={:<<<440ab6cd",
"*e-{{{{{{{{bb8fg",
"=hi>,')!^}268f.j",
"-iiklm]no55cf.+p",
";ik')!^}268dg+qr",
">kl)r[1stuuujqq[",
",lm![1stvuuupq@1",
"'m]^1stvwuuxr@#s",
")]n}uuuuuuxx[#yz",
" ^}268dgjpr[1szt"};
