/* XPM */
static char * save_xpm[] = {
"14 14 4 1",
".	c None",
"@	c #000000",
"#	c #bbbb33",
"$	c #DBDBDB",
"..............",
".@@@@@@@@@@@@.",
".@#@$$$$$$@$@.",
".@#@$$$$$$@@@.",
".@#@$$$$$$@#@.",
".@#@$$$$$$@#@.",
".@##@@@@@@##@.",
".@##########@.",
".@##@@@@@@@#@.",
".@##@@@@$$@#@.",
".@##@@@@$$@#@.",
".@##@@@@$$@#@.",
"..@@@@@@@@@@@.",
".............."};


