/* XPM */
static char * select_xpm[] = {
"16 16 6 1",
" 	c None",
".	c None",
"+	c #000000",
"@	c #E8E7D0",
"#	c #AFAC83",
"$	c #FFFEEA",
"......++........",
".....+@#+.......",
".....+@@+.......",
".....+@@+.......",
".....+@@+.......",
".....+@@++......",
".....+@@+$++....",
".....+@@+$+$++..",
".....+@$+$+$+$+.",
".+++.+@$+$+$+$+.",
".+$$++@$$$$$$$+.",
"..+$$+@$$$$$$@+.",
"...+$@$$$$$$@#+.",
"...+@$$$$$$@$+..",
"....+@$$$$$$@+..",
".....+@$$$$$#+.."};

