/* XPM */
static char *monitor[]={
"16 16 4 1",
". c None",
"b c #0000ff",
"# c #303030",
"a c #ff0000",
"................",
".##.............",
"..#.............",
"..#...a.........",
".##aba.a........",
"..#bab..a.......",
"..#...b..a.a....",
".##....b.ba.a...",
"..#.....b.b..a..",
"..#........b....",
".##.........b...",
"..#..........b..",
"..#.............",
".##############.",
"..#..#..#..#..#.",
"................"};
