/* XPM */
static char *solveicon[]={
"40 40 592 2",
".A c #0024dd",
".G c #0024e0",
".w c #0029da",
".Y c #002de6",
".x c #002ee3",
".z c #002fe2",
".y c #002fe3",
".P c #0032e1",
"as c #0033e1",
".7 c #0034e1",
"co c #0034e3",
".V c #0035e2",
"#f c #0037d7",
".W c #0039e5",
".K c #0136e1",
".X c #013cea",
"b0 c #023ada",
".L c #033be7",
"aO c #033cd8",
"#e c #0540e6",
"#n c #0636e3",
".M c #063de7",
".2 c #0738e0",
"cp c #073ade",
".N c #073de6",
".O c #073de7",
"#a c #0750e4",
".3 c #093de7",
".4 c #0a3fe8",
".5 c #0b3fe7",
".6 c #0b3fe8",
"aN c #0b43e4",
"#d c #0e4ae9",
"#i c #0f3ae0",
".U c #0f48df",
".H c #103adb",
"#H c #103ae5",
"#j c #113ee6",
".F c #1143da",
"#m c #1242e6",
"#l c #1242e7",
"#k c #1342e7",
"#b c #1352eb",
"a# c #1447ea",
"#v c #1457e9",
"#B c #153ee3",
"#c c #1649ee",
"#2 c #173de9",
"b. c #1759e4",
"cQ c #194feb",
"#C c #1a41e9",
"#G c #1b43ea",
"#E c #1c43e7",
"#F c #1c43e8",
"#D c #1c44e8",
"gU c #1c4ae6",
"## c #1d53e9",
"#u c #1e5eed",
"#W c #2040e5",
"di c #2060eb",
"ad c #2143e5",
"do c #214be9",
"#X c #2244eb",
"gz c #224ef5",
"dp c #2254f0",
"#s c #2366ef",
"ac c #243ee1",
"#Y c #2446eb",
"#1 c #2446ec",
"at c #2453e0",
"gT c #2453e7",
"ae c #2545ea",
"e3 c #254ce9",
"#t c #2563ef",
"#Z c #2647e9",
"#Q c #2663ed",
"cP c #2664ec",
"af c #2746ef",
"#0 c #2747e7",
"cR c #295dd7",
"ai c #2b3ee6",
"fm c #2b52c6",
"dq c #2b5def",
"by c #2b68ef",
"ag c #2c4bec",
"e4 c #2c51f2",
"dU c #2c58ed",
"fs c #2c5af2",
"fq c #2c5beb",
"gA c #2d54ee",
"dT c #2e55ee",
"fr c #2e58f2",
"aM c #2e6bef",
"gy c #3154e4",
"ah c #324be9",
"#w c #3262e8",
"aC c #333dea",
"#P c #3472f0",
".k c #3562d8",
"aB c #3648ec",
".p c #365cdb",
"fp c #3761ee",
"bz c #376ce6",
"dr c #385bf7",
"#M c #387bf0",
"gB c #395bf4",
".l c #3964e4",
"ds c #3a5cf7",
"fM c #3a5dea",
".n c #3a66e3",
".o c #3a66e4",
"#O c #3a77f0",
"aA c #3b4ce9",
"cW c #3c52f2",
".m c #3c64e5",
"#r c #3c6ded",
"#N c #3c7df4",
"fL c #3d57ed",
"a. c #3d7cf4",
"gD c #4151ef",
"cn c #417af2",
"gi c #4255f1",
"gC c #425af7",
"dS c #4266ec",
"b# c #436fec",
"ar c #4383ed",
"e5 c #445cf2",
"bZ c #4580f8",
"bx c #4782ed",
"dt c #485bec",
"#R c #4879ed",
"#9 c #4987f5",
"dN c #4a80ef",
"gS c #4b6de7",
"e6 c #4c5ef3",
"ft c #4d5bed",
".B c #4e74e1",
"#8 c #4e8bf4",
"bY c #4e8ff2",
"az c #4f56e7",
"cX c #4f5ff0",
".Z c #5075df",
".T c #507de3",
"fo c #516eef",
"#x c #517be0",
"e7 c #535ef4",
"#7 c #5393f2",
"#6 c #5395f6",
"e8 c #545ef2",
"gj c #555ff3",
"cV c #5870ec",
".Q c #587de6",
"dM c #588df3",
"cY c #5961f7",
"a0 c #5d5bea",
".8 c #5d7fe4",
"a9 c #5d9ff3",
"cZ c #5e62f4",
"fK c #5e6dec",
"eE c #5f64eb",
"c0 c #6162f2",
"gk c #6163f3",
".E c #617ee3",
"dh c #6194f2",
"ei c #6262f1",
"#o c #627ee8",
"ap c #62a4fa",
"eF c #645fef",
"b1 c #6483e8",
"aq c #65a1f9",
".t c #6682db",
"cS c #6683e0",
"dn c #6685de",
"eh c #675cf4",
"gh c #677cec",
"#I c #6782e8",
"dj c #6791e9",
"cm c #68adfc",
"ct c #6957ef",
"gn c #695bee",
"ao c #69abfd",
"ay c #6a66e9",
"dV c #6b60f3",
"bP c #6c55ef",
"#3 c #6c85e7",
"aP c #6c8ce3",
"#y c #6c8dda",
"bX c #6ca2f5",
"c1 c #6e60f3",
"cl c #6ea9f9",
"am c #6eadfb",
"an c #6eaeff",
"gl c #6f61f3",
"e9 c #6f62f0",
"cO c #6fb0fa",
"bO c #705df1",
"aw c #7067e8",
"gV c #7189e4",
"gm c #725ef7",
"#5 c #72a1f4",
"aL c #72b1fc",
"eG c #7365f5",
"aj c #7486ea",
"f2 c #7663f6",
"ax c #7671ee",
"ec c #76aafa",
"f1 c #7764f5",
"f3 c #7865f4",
"cc c #7866f1",
"cu c #7a5ffb",
"cb c #7a61f1",
"bp c #7a84e7",
"fN c #7b68f7",
"aK c #7bbcfb",
"eH c #7c64f3",
"aJ c #7cb8ff",
"bN c #7d5ef0",
"eJ c #7d63f3",
"eg c #7e69f4",
"ce c #7f5cf0",
".q c #7f96dd",
"cd c #8066f0",
"aH c #80bcfb",
"ci c #80bef8",
"eI c #8164f3",
".u c #8198dd",
"cv c #8265f5",
"ck c #82b9f8",
"aI c #82baff",
"cM c #82bcfd",
"aD c #8386ea",
"dR c #839df3",
"cL c #84bdfc",
"cK c #85c0fa",
"gE c #8693ec",
"fn c #869fe2",
"cw c #8767f3",
"cx c #8767fa",
"cN c #87c1ff",
"ca c #8862ef",
"aZ c #8a78f0",
"cs c #8a85ed",
"e2 c #8a9ee8",
"bq c #8ab1e6",
"#L c #8ab2ef",
"du c #8b66f5",
"ej c #8b6bf9",
"gR c #8b9ff2",
"bw c #8bbdfc",
"f4 c #8e6af6",
"a1 c #8e91f0",
"g7 c #8ea5db",
"dF c #8eb3e6",
"bo c #8f76ec",
"br c #8fbbf3",
"a7 c #8fc2fb",
"a8 c #8fc7ff",
"b4 c #9060f4",
"ed c #90b6f2",
"eb c #90bef7",
"dL c #91bdf9",
"aG c #91c2f6",
"cJ c #92c3f8",
"f6 c #935ff5",
"cy c #9363f3",
"#. c #93aae3",
"a6 c #93c3fd",
"cj c #94c8f9",
"bQ c #958bed",
"eK c #9662f4",
"#g c #96afec",
"dG c #97bcf3",
"f5 c #9863f4",
"a5 c #98c6fa",
"dg c #98cbfe",
"cG c #9961f6",
"aa c #99adec",
".v c #99adee",
"bb c #9cb3e5",
"a4 c #9cc5f9",
"df c #9cccfd",
"b5 c #9d5ffc",
"bM c #9e62f6",
".J c #9eb5ef",
"ba c #9eb8ec",
"ch c #9fccf8",
"c# c #a06bf0",
"cF c #a06df6",
".1 c #a0b6ef",
"el c #a167fa",
"de c #a1cafe",
"gx c #a2add7",
"fu c #a36bf8",
"go c #a397ef",
"#h c #a3b7ef",
"f0 c #a49df0",
"bW c #a5d0fa",
"ek c #a668fc",
"#A c #a6b8f0",
"bT c #a6caf9",
"dd c #a7cefb",
"bv c #a7d1fa",
"b6 c #a967f9",
"bs c #a9d0fd",
"cE c #aa7af0",
"#V c #aab9ee",
"gf c #aabbeb",
"bu c #aacef8",
"dc c #aacffc",
"c2 c #ab69f5",
"dE c #ab95eb",
"eD c #abb2f4",
"g6 c #abbbdf",
"db c #abd3fa",
"b7 c #ac69fa",
"cq c #acc1ec",
"cf c #ad9cf3",
".S c #adc3e6",
"eB c #adcdfc",
"bU c #aed3fd",
"b3 c #af97f4",
"bt c #afd2ff",
"al c #afd5f9",
"b8 c #b069fc",
"ab c #b0bbf0",
"dH c #b0d5fb",
"c. c #b16ff6",
".j c #b1c4ed",
"em c #b26cf1",
"b9 c #b46af9",
"aY c #b48cf2",
"eA c #b4d8fd",
"bE c #b56ef4",
"bS c #b5d0f2",
"f7 c #b673f4",
"d# c #b79fef",
"dQ c #b7c4f6",
"ea c #b7d8f9",
"fQ c #b867f8",
"bV c #b8ddfa",
"fP c #b967ff",
"cD c #b987f2",
"fJ c #b9c4f6",
"dO c #b9cdf3",
"e. c #b9dafd",
"dK c #b9dbfd",
"fO c #bb6aff",
"d9 c #bcd8fa",
"dW c #bd6bff",
"d. c #bd83f7",
"bF c #be63f9",
"cz c #be75f3",
".D c #bec7f3",
"a3 c #bedbfe",
"dI c #bedffd",
"f. c #bf70f8",
"ex c #bfdcfb",
".s c #c0d0f1",
"dJ c #c1dafb",
"ez c #c1ddfb",
"bL c #c269fd",
"bn c #c28df5",
"dY c #c36df8",
".I c #c3d0f1",
"da c #c4ddf4",
"cU c #c5d3f5",
"#q c #c5d8f5",
"ew c #c5def9",
"cH c #c6a0ee",
"av c #c6bbf0",
"bR c #c6d8f2",
"dX c #c76ffc",
"ey c #c7e0fc",
"bG c #c968fa",
"cC c #c995f6",
"bH c #cb6cfc",
"fR c #cb6ef2",
"e# c #cbe6fc",
"dZ c #cd68f7",
"bD c #cdaef2",
"ef c #cdc2f3",
"fi c #ceddf7",
"cB c #cf98f7",
"bI c #d06ffc",
"cI c #d0ecfb",
"dD c #d288f4",
"fh c #d2bbf1",
"gQ c #d2d8f6",
"dv c #d373fd",
"cA c #d390f8",
"aX c #d49bf8",
"dl c #d4ddf8",
"en c #d585f6",
"au c #d5e1f8",
"fv c #d671fd",
"eL c #d679f9",
"gg c #d6dcf2",
"eC c #d6e7f9",
"bJ c #d86dfc",
"bK c #d86dfd",
"eW c #d8eafd",
"fx c #d96bfb",
"bf c #d96df8",
"be c #da92f3",
"dP c #dae4f3",
"bA c #dae6f5",
"e0 c #daeafe",
"fw c #dc6df9",
"c9 c #dd9afb",
"fy c #de6cfc",
"d0 c #de6ffb",
"e1 c #deebfc",
"fj c #dfebfd",
"eX c #dfeffe",
"bg c #e067fc",
"eV c #e0f0fc",
"cr c #e1e2fa",
"#4 c #e1ecfc",
"#S c #e1eef8",
"dk c #e2edf9",
"eZ c #e2efff",
"fS c #e37aef",
"g8 c #e3ebf8",
".a c #e3ecfa",
".f c #e4ebfa",
"d8 c #e4f0f9",
"eY c #e4f0ff",
"bm c #e591fa",
".b c #e5ecfb",
".d c #e5ecfc",
"aF c #e5f1fc",
"dy c #e66efa",
"dw c #e671fe",
"fE c #e6cbf3",
".e c #e6ecfb",
".c c #e6ecfc",
"dx c #e76efb",
"dC c #e78df9",
"f8 c #e885dd",
"d3 c #e885fe",
"fz c #e974f8",
"d1 c #e97dfd",
"#T c #e9f3f6",
"d4 c #ea85fa",
"d2 c #eb84fe",
"d5 c #eb85f8",
"g5 c #ebedf6",
"dz c #ec72fa",
"fb c #ec7dfb",
"dB c #ec86fd",
"aW c #eca1fc",
"fg c #eca5f3",
"bd c #ecd4f8",
"fI c #eceefb",
"bc c #ecf0f9",
"#z c #ecf0fa",
"c3 c #ed7bfc",
"aT c #ed8ef6",
"d6 c #edb4fb",
"gF c #edf1fc",
"a2 c #edf5ff",
"er c #ee8ef9",
"aU c #ee90fb",
"fF c #eef5fd",
"bh c #ef6cfc",
"dA c #ef7afb",
"fc c #ef85fd",
".g c #eff2f9",
"fk c #eff6ff",
"fA c #f080f3",
"eq c #f08ff8",
"eo c #f094fd",
"c8 c #f0a0fd",
"b2 c #f0edfb",
"gp c #f1c3e8",
"cT c #f1f3fc",
"fa c #f276fc",
"et c #f28efb",
"es c #f28ffc",
"aS c #f2a5f6",
".0 c #f2f6fc",
"ev c #f2fbfe",
"fd c #f38ffc",
"aR c #f3cafa",
"d7 c #f3f4fc",
"dm c #f3f5fc",
"ee c #f3f9fb",
"fT c #f487ea",
"h. c #f497bd",
".# c #f4f8f9",
"#U c #f4f8fb",
"bi c #f574f9",
"fB c #f58cec",
"fD c #f5a5ed",
"gP c #f5f5f9",
"fl c #f5faff",
"f# c #f673ff",
"c4 c #f688fb",
"eS c #f693f6",
"ep c #f694fb",
"eR c #f697fc",
"eQ c #f69dfb",
"fe c #f69efa",
"eu c #f6befa",
".i c #f6f8fc",
"bj c #f778fd",
"gX c #f780b5",
"c5 c #f78ffd",
"fC c #f798eb",
"eM c #f799fe",
"aV c #f79cfd",
"bl c #f88bfc",
"fU c #f88ce3",
"fV c #f890df",
"fW c #f89be3",
"eP c #f8a2fa",
"he c #f8a8ca",
"gW c #f8cee4",
"g9 c #f8d7e5",
"bC c #f8f4fd",
"aQ c #f8f9fd",
".C c #f8fbfb",
"gs c #f98acf",
"gJ c #f98cc5",
"g# c #f98eda",
"hf c #f9d4e4",
".R c #f9fbfc",
".9 c #f9fbfd",
"fG c #f9fbfe",
"gH c #fa82c6",
"f9 c #fa8ad7",
"g. c #fa8bdb",
"gt c #fa8ed3",
"gL c #fa91cc",
"ga c #fa92da",
"gu c #fa94d6",
"hb c #fa9ac1",
"hc c #fa9bc2",
"gb c #fa9ddf",
"c7 c #faa0fd",
"gc c #faafe5",
"#p c #fafbfc",
"#J c #fafbfd",
"gK c #fb8cc9",
"c6 c #fb99fd",
"hd c #fba1c7",
"eN c #fba1fd",
"fX c #fba8e8",
"ff c #fba8f9",
"gw c #fbaee1",
"gO c #fbdced",
"gd c #fbdef2",
"hg c #fbebf3",
".r c #fbfbfa",
"ak c #fbfcfe",
".h c #fbfefd",
"eU c #fbfefe",
"gY c #fc80ba",
"bk c #fc82fe",
"gI c #fc85c8",
"g2 c #fc93c4",
"ha c #fc97c0",
"gM c #fc9dd1",
"g3 c #fc9ec8",
"gv c #fc9ed9",
"eO c #fca5fd",
"gN c #fcabd6",
"eT c #fcc6f5",
"g4 c #fcd2e5",
"hh c #fcecf3",
"hm c #fcedf4",
"hn c #fcf6f9",
"bB c #fcfdfe",
"cg c #fcfffd",
"fH c #fcfffe",
"gZ c #fd82bb",
"g0 c #fd84bc",
"g1 c #fd8ac0",
"gq c #fd8bcc",
"h# c #fd95c0",
"hk c #fdedf3",
"#K c #fdfdfd",
"gG c #fed8e6",
"fY c #fedbf5",
"hi c #feebf3",
"hj c #feecf3",
"hl c #feedf4",
"fZ c #feffff",
"gr c #ff85cf",
"ge c #fffefe",
"aE c #fffffe",
"Qt c #ffffff",
"QtQtQtQtQtQtQtQtQtQtQtQtQtQtQtQtQtQtQtQtQtQtQtQtQtQtQtQtQtQtQtQtQtQtQtQtQtQtQtQt",
"QtQtQtQtQtQtQtQtQtQtQt.#.a.b.c.d.e.d.f.gQtQtQtQtQtQtQtQt.h.iQtQtQtQtQtQtQtQtQtQt",
"QtQtQtQtQtQtQtQtQtQtQt.j.k.l.m.n.n.o.p.q.rQtQtQtQtQtQt.s.t.uQtQtQtQtQtQtQtQtQtQt",
"QtQtQtQtQtQtQtQtQtQtQt.v.w.x.y.z.z.y.A.B.CQtQtQtQt.D.E.F.G.H.IQtQtQtQtQtQtQtQtQt",
"QtQtQtQtQtQtQtQtQtQtQt.J.K.L.M.N.N.O.P.Q.RQtQt.S.T.U.V.W.X.Y.Z.0QtQtQtQtQtQtQtQt",
"QtQtQtQtQtQtQtQtQtQtQt.1.2.3.4.5.5.6.7.8.9QtQt#.###a#b#c#d#e#f#gQtQtQtQtQtQtQtQt",
"QtQtQtQtQtQtQtQtQtQtQt#h#i#j#k#l#l#m#n#o#pQtQt#q#r#s#t#u#v#w#x#y#zQtQtQtQtQtQtQt",
"QtQtQtQtQtQtQtQtQtQtQt#A#B#C#D#E#F#G#H#I#JQt#K#L#M#N#O#P#Q#R#S#T#UQtQtQtQtQtQtQt",
"QtQtQtQtQtQtQtQtQtQtQt#V#W#X#Y#Z#0#1#2#3#JQt#4#5#6#7#8#9a.a#aaQtQtQtQtQtQtQtQtQt",
"QtQtQtQtQtQtQtQtQtQtQtabacadaeafagahaiajakQtalamanaoapaqarasatauQtQtQtQtQtQtQtQt",
"QtQtQtQtQtQtQtQtQtQtQtavawaxayazaAaBaCaDaEaFaGaHaIaJaKaLaMaNaOaPaQQtQtQtQtQtQtQt",
"QtQtQtQtQtQtQtQtQtaRaSaTaUaVaWaXaYaZa0a1a2a3a4a5a6a7a8a9b.b#babbbcQtQtQtQtQtQtQt",
"QtQtQtQtQtQtQtbdbebfbgbhbibjbkblbmbnbobpbqbrbsbtbubvbwbxbybzbAQtbBQtQtQtQtQtQtQt",
"QtQtQtQtQtbCbDbEbFbGbHbIbJbKbLbMbNbObPbQbRbSbTbUbVbWbXbYbZb0b1QtQtQtQtQtQtQtQtQt",
"QtQtQtQtb2b3b4b5b6b7b8b9c.c#cacbcccdcecfQtcgchcicjckclcmcncocpcqQtQtQtQtQtQtQtQt",
"QtQtQtcrcsctcucvcwcxcyczcAcBcCcDcEcFcGcHaEcIcJcKcLcMcNcOcPcQcRcScTQtQtQtQtQtQtQt",
"QtQtcUcVcWcXcYcZc0c1c2c3c4c5c6c7c8c9d.d#dadbdcdddedfdgdhdidjdkdldmQtQtQtQtQtQtQt",
"QtQtdndodpdqdrdsdtdudvdwdxdydzdAdBdCdDdEdFdGdHdIdJdKdLdMdNdOQtQtQtQtQtQtQtQtQtQt",
"QtQtdPdQdRdSdTdUdVdWdXdYdZd0d1d2d3d4d5d6d7d8d9e.e#eaebecedeeQtQtQtQtQtQtQtQtQtQt",
"QtQtQtQtefegeheiejekelemeneoepeqereseteuQtevewexeyezeAeBeCQtQtQtQtQtQtQtQtQtQtQt",
"QtQtQteDeEeFeGeHeIeJeKeLeMeNeOePeQeReSeTeUeVeWeXeYeZe0e1QtQtQtQtQtQtQtQtQtQtQtQt",
"QtQte2e3e4e5e6e7e8e9f.f#fafbfcfdfefffgfhfifjfkflfmfmQtQtQtQtQtQtQtQtQtQtQtQtQtQt",
"QtQtfnfofpfqfrfsftfufvfwfxfyfzfAfBfCfDfE.afFfGQtfmfmQtQtQtQtQtQtQtQtQtQtQtQtQtQt",
"QtQtfHfIfJfKfLfMfNfOfPfQfRfSfTfUfVfWfXfYaEfZQtfmfmfmfmQtQtQtQtQtQtQtQtQtQtQtQtQt",
"QtQtQtQtf0f1f2f3f4f5f6f7f8f9g.g#gagbgcgdgefmfmfmgfgffmfmfmQtQtQtQtQtQtQtQtQtQtQt",
"QtQtggghgigjgkglgmgngogpgqgrgsgtgugvgwgdQtfmfmfmgfgffmfmfmQtQtQtQtQtQtQtQtQtQtQt",
"QtQtgxgygzgAgBgCgDgEgFgGgHgIgJgKgLgMgNgOQtQtQtfmfmfmfmQtQtQtQtfmfmQtQtQtQtQtQtQt",
"QtQtgPgQgRgSgTgUgV#zQtgWgXgYgZg0g1g2g3g4QtQtQtQtfmfmQtgffmgfQtfmfmQtgffmgfQtQtQt",
"QtQtQtQtQtg5g6g7g8QtQtg9h.h#hahbhchdhehfQtQtQtQtfmfmQtfmfmfmfmfmfmfmfmfmfmQtQtQt",
"QtQtQtQtQtQtQtQtQtQtQtQthghhhihjhkhlhmhnQtQtQtQtQtQtQtgffmfmfmfmfmfmfmfmgfQtQtQt",
"QtQtQtQtQtQtQtQtQtQtQtQtQtQtQtQtQtQtQtQtQtQtQtQtQtQtQtQtfmfmfmfmfmfmfmfmQtQtQtQt",
"QtQtQtQtQtQtQtQtQtQtQtQtQtQtQtQtQtQtQtQtQtQtQtQtQtQtfmfmfmfmfmQtQtfmfmfmfmfmQtQt",
"QtQtQtQtQtQtQtQtQtQtQtQtQtQtQtQtQtQtQtQtQtQtQtQtQtQtfmfmfmfmfmQtQtfmfmfmfmfmQtQt",
"QtQtQtQtQtQtQtQtQtQtQtQtQtQtQtQtQtQtQtQtQtQtQtQtQtQtQtQtfmfmfmfmfmfmfmfmQtQtQtQt",
"QtQtQtQtQtQtQtQtQtQtQtQtQtQtQtQtQtQtQtQtQtQtQtQtQtQtQtgffmfmfmfmfmfmfmfmgfQtQtQt",
"QtQtQtQtQtQtQtQtQtQtQtQtQtQtQtQtQtQtQtQtQtQtQtQtQtQtQtfmfmfmfmfmfmfmfmfmfmQtQtQt",
"QtQtQtQtQtQtQtQtQtQtQtQtQtQtQtQtQtQtQtQtQtQtQtQtQtQtQtgffmgfQtfmfmQtgffmgfQtQtQt",
"QtQtQtQtQtQtQtQtQtQtQtQtQtQtQtQtQtQtQtQtQtQtQtQtQtQtQtQtQtQtQtfmfmQtQtQtQtQtQtQt",
"QtQtQtQtQtQtQtQtQtQtQtQtQtQtQtQtQtQtQtQtQtQtQtQtQtQtQtQtQtQtQtQtQtQtQtQtQtQtQtQt",
"QtQtQtQtQtQtQtQtQtQtQtQtQtQtQtQtQtQtQtQtQtQtQtQtQtQtQtQtQtQtQtQtQtQtQtQtQtQtQtQt"};
