/* XPM */
static char * solverman_xpm[] = {
"32 32 8 1",
" 	c None",
".	c #2B52C6",
"+	c #BBC7E8",
"@	c #FFFFFF",
"#	c #FAFBFD",
"$	c #617CCF",
"%	c #647FD0",
"&	c #9CADE1",
"................................",
"................................",
"................................",
"................................",
"................................",
".........+@+....................",
".........@@@....................",
"........@@@@@...................",
"......+@@@.@@@+.................",
"......@@@...@@@.................",
"......+@@@.@@@+.................",
"........@@@@@...................",
".........@@@......+#+...........",
".........+@+..$+..@@@..+%.......",
".............%@@@@@@@@@@@%......",
".............+@@@@@@@@@@@+......",
"..............@@@@@@@@@@@.......",
"..............@@@@@@@@@@@.......",
"............+@@@@@&.&@@@@@+.....",
"............#@@@@@...@@@@@#.....",
"............+@@@@@&.&@@@@@+.....",
"..............@@@@@@@@@@@.......",
"..............@@@@@@@@@@@.......",
".............+@@@@@@@@@@@+......",
".............%@@@@@@@@@@@%......",
"..............%+..@@@..+%.......",
"..................+#+...........",
"................................",
"................................",
"................................",
"................................",
"................................"};
