/* XPM */
static char * source_xpm[] = {
"16 16 14 1",
" 	c None",
".	c #1C3766",
"+	c #152E60",
"@	c #0E254C",
"#	c #071B38",
"$	c #000000",
"%	c #6695F9",
"&	c #99B8FF",
"*	c #4C82FF",
"=	c #BBD0F9",
"-	c #739CFF",
";	c #D80000",
">	c #276FEA",
",	c #9F9F9F",
"                ",
"                ",
"                ",
"    ..++@@@##$$ ",
"   .%&&&&&&&%#$ ",
"  .%&&&&&&&%#*$ ",
" ......++++@**$ ",
" .&&=&&---%@**$ ",
" .&=;=&&-%%@**$ ",
" .=;;;=&-%%@*>$ ",
" .&=;=&&-%%#>$, ",
" +&&=&&--%%#$,  ",
" +++@@@@@##$,   ",
"                ",
"                ",
"                "};
