/* XPM */ 
static char * specular_xpm[] = {
"16 16 17 1",
" 	c None",
"!	c black",
"#	c #ABABAB",
"$	c #525252",
"%	c #858585",
"&	c #6C6C6C",
"'	c #919191",
"(	c #444444",
")	c #A0A0A0",
"*	c #B8B8B8",
"+	c #EBEBEB",
",	c white",
"-	c #7C7C7C",
".	c #2C2C2C",
"0	c #454545",
"1	c #393939",
"2	c #565656",
"                ",
"                ",
"    #$!!!$#     ",
"   %!&'''(!%    ",
"  #!')*))'(!#   ",
"  $&)+,+))-.$   ",
"  !)*,,,*)-(!   ",
"  !))+,+))-(!   ",
"  !'))*))'-(!   ",
"  $0')))'-(.$   ",
"  #!(----((!&-# ",
"   %!.(((.!12--#",
"    #$!!!.122-##",
"       ##----## ",
"                ",
"                "};