/* XPM */
static char * statefile_xpm[] = {
"16 16 76 1",
" 	c None",
".	c #B1C1D7",
"+	c #ADBDD3",
"@	c #A8B8CE",
"#	c #A3B2C8",
"$	c #CDD5E1",
"%	c #FEFEFE",
"&	c #FDFEFE",
"*	c #9BAABF",
"=	c #354963",
"-	c #A7B1C1",
";	c #AEBED4",
">	c #FDFDFE",
",	c #FAFBFD",
"'	c #FAFAFC",
")	c #94A3B8",
"!	c #B9C4D3",
"~	c #A6B2C1",
"{	c #AABAD0",
"]	c #FBFCFE",
"^	c #FBFBFC",
"/	c #F8FAFC",
"(	c #F7F7FB",
"_	c #F6F7FB",
":	c #F4F5FA",
"<	c #F7F8FC",
"[	c #92A1B6",
"}	c #364A64",
"|	c #A6B5CB",
"1	c #F8F9FB",
"2	c #F5F7FB",
"3	c #F2F4FA",
"4	c #000000",
"5	c #A2B1C7",
"6	c #F7F9FC",
"7	c #F4F6FB",
"8	c #F1F4FA",
"9	c #EDF1F9",
"0	c #88FF88",
"a	c #E5EBF8",
"b	c #9DADC2",
"c	c #FCFCFD",
"d	c #F7F8FB",
"e	c #F3F6FB",
"f	c #F0F3FA",
"g	c #ECF0F9",
"h	c #DEE7F7",
"i	c #99A8BD",
"j	c #F9FAFD",
"k	c #D9E1F5",
"l	c #95A4B9",
"m	c #F4F7FC",
"n	c #E1E8F7",
"o	c #DCE5F5",
"p	c #D8E1F4",
"q	c #D8E1F5",
"r	c #D2DDF3",
"s	c #D2DEF4",
"t	c #F2F5FB",
"u	c #CCD9F2",
"v	c #ECF1FA",
"w	c #C6D4F2",
"x	c #E7EDF8",
"y	c #E2E9F7",
"z	c #DDE5F7",
"A	c #D7E1F6",
"B	c #D3DDF4",
"C	c #CED9F3",
"D	c #C1D0F0",
"E	c #E1E8F8",
"F	c #DCE5F7",
"G	c #D2DDF4",
"H	c #CDDAF3",
"I	c #C9D6F2",
"J	c #BBCCEF",
"K	c #DBE4F6",
"                ",
".......++@@#$   ",
".%%%%%%%%&&*=-  ",
";%%%>,,',,,)!=~ ",
"{%%]^//(_:<[}}} ",
"|%>,12234444[[} ",
"5%'678894004a[= ",
"bcdefg.44004h[= ",
"ij44444.4444k[= ",
"lm4004noopqrs[= ",
"[t40044.4444u[= ",
"[v4444.44004w[= ",
"[xyzABBC4004D[= ",
"[EFAGHHI4444J[= ",
"[K[[[[[[[[[[[[= ",
"[============== "};
