/* XPM */ 
static char * stopanimation_xpm[] = {
"28 22 39 1",
" 	c None",
"!	c black",
"#	c #8B8B8B",
"$	c #454545",
"%	c #636363",
"&	c #D4D4D4",
"'	c #FBFBFB",
"(	c white",
")	c #DADADA",
"*	c #F4F4F4",
"+	c #393939",
",	c #EFEFEF",
"-	c #ECECEC",
".	c #DBDBDB",
"0	c #E4E4E4",
"1	c #DCDCDC",
"2	c #E1E1E1",
"3	c #DDDDDD",
"4	c #DEDEDE",
"5	c #DFDFDF",
"6	c #D9D9D9",
"7	c #D6D6D6",
"8	c #D8D8D8",
"9	c #D3D3D3",
":	c #D0D0D0",
";	c #D1D1D1",
"<	c #CCCCCC",
"=	c #CECECE",
">	c #C6C6C6",
"?	c #CACACA",
"@	c #C3C3C3",
"A	c #C8C8C8",
"B	c #BEBEBE",
"C	c #B9B9B9",
"D	c #C1C1C1",
"E	c #B4B4B4",
"F	c #9A9A9A",
"G	c #ADADAD",
"H	c #AAAAAA",
" #$$$$$$$$$$$$$$$$$$$$$$$$# ",
"#%&'((((((((((((((((('(('&$#",
"$)************************)+",
"$,------------------------,+",
"$.000000000000000000000000.+",
"$12222222222222222222222221+",
"$34544444444444444455455443+",
"$4))))))))%%%%%%%%))))))))4+",
"$366666666!!!!!!!!(66666663+",
"$)77777777!!!!!!!!(7777777)+",
"$899999999!!!!!!!!(99999998+",
"$899999999!!!!!!!!(99999998+",
"$&::::::::!!!!!!!!(:::::::&+",
"$;<<<<<<<<!!!!!!!!(<<<<<<<;+",
"$=>>>>>>>>!!!!!!!!(>>>>>>>=+",
"$?@@@@@@@@(((((((((@@@@@@@?+",
"$ABBBBBBBBBBBBBBBBBBBBBBBBA+",
"$@CCCCCCCCCCCCCCCCCCCCCCCC@+",
"$DEEEEEEEEEEEEEEEEEEEEEEEED+",
"$FGGGGGGGGGGGGGGGGGGGGGGGGF+",
"H$FFFFFFFFFFFFFFFFFFFFFFFF+H",
" H++++++++++++++++++++++++H "};