/* XPM */ 
static char * stopanimationh_xpm[] = {
"28 22 44 1",
" 	c None",
"!	c black",
"#	c #8B8B8B",
"$	c #454545",
"%	c #636363",
"&	c #D4D4D4",
"'	c #FBFBFB",
"(	c white",
")	c #DADADA",
"*	c #F4F4F4",
"+	c #393939",
",	c #EFEFEF",
"-	c #ECECEC",
".	c #DBDBDB",
"0	c #E4E4E4",
"1	c #DCDCDC",
"2	c #E1E1E1",
"3	c #DDDDDD",
"4	c #DEDEDE",
"5	c #DFDFDF",
"6	c #D9D9D9",
"7	c #719BFF",
"8	c #D6D6D6",
"9	c #D8D8D8",
":	c #D3D3D3",
";	c #6694FF",
"<	c #6493FF",
"=	c #D0D0D0",
">	c #5E8EFF",
"?	c #D1D1D1",
"@	c #CCCCCC",
"A	c #598BFF",
"B	c #CECECE",
"C	c #C6C6C6",
"D	c #CACACA",
"E	c #C3C3C3",
"F	c #C8C8C8",
"G	c #BEBEBE",
"H	c #B9B9B9",
"I	c #C1C1C1",
"J	c #B4B4B4",
"K	c #9A9A9A",
"L	c #ADADAD",
"M	c #AAAAAA",
" #$$$$$$$$$$$$$$$$$$$$$$$$# ",
"#%&'((((((((((((((((('(('&$#",
"$)************************)+",
"$,------------------------,+",
"$.000000000000000000000000.+",
"$12222222222222222222222221+",
"$34544444444444444455455443+",
"$4))))))))%%%%%%%%))))))))4+",
"$366666666%7777777(66666663+",
"$)88888888%7777777(8888888)+",
"$9::::::::%;;;;;;;(:::::::9+",
"$9::::::::%<<<<<<<(:::::::9+",
"$&========%>>>>>>>(=======&+",
"$?@@@@@@@@%AAAAAAA(@@@@@@@?+",
"$BCCCCCCCC%AAAAAA;(CCCCCCCB+",
"$DEEEEEEEEE((((((((EEEEEEED+",
"$FGGGGGGGGGGGGGGGGGGGGGGGGF+",
"$EHHHHHHHHHHHHHHHHHHHHHHHHE+",
"$IJJJJJJJJJJJJJJJJJJJJJJJJI+",
"$KLLLLLLLLLLLLLLLLLLLLLLLLK+",
"M$KKKKKKKKKKKKKKKKKKKKKKKK+M",
" M++++++++++++++++++++++++M "};