/* XPM */
static char * subdomain_xpm[] = {
"16 16 14 1",
" 	c None",
".	c #1C3766",
"+	c #152E60",
"@	c #0E254C",
"#	c #071B38",
"$	c #000000",
"%	c #6695F9",
"&	c #99B8FF",
"*	c #4C82FF",
"=	c #739CFF",
"-	c #C6C6C6",
";	c #FFFFFF",
">	c #A0A0A0",
",	c #9F9F9F",
"                ",
"                ",
"                ",
"    ..++@@@##$$ ",
"   .%&&&&&&&%#$ ",
"  .%&&&&&&&%#*$ ",
" ......++++@*.$ ",
" .========%@.-$ ",
" .===......@--$ ",
" .===.;;;;;@->$ ",
" .===.;;;;;#>$, ",
" +===.;;;;;#$,  ",
" +++@@@@@##$,   ",
"                ",
"                ",
"                "};
