#define bc_active_width 16
#define bc_active_height 16
static unsigned char bc_active_bits[] = {
   0x00, 0x00, 0x00, 0xc0, 0x00, 0x60, 0x00, 0x30, 0x00, 0x1c, 0x00, 0x0c,
   0x00, 0x06, 0x06, 0x07, 0x0e, 0x03, 0x9c, 0x03, 0xb8, 0x01, 0xf0, 0x01,
   0xf0, 0x01, 0xe0, 0x00, 0x60, 0x00, 0x00, 0x00};
