/* XPM */ 
static char * surfaceofrevolution_xpm[] = {
"16 16 12 1",
" 	c None",
"!	c black",
"#	c #929292",
"$	c #4C82FF",
"%	c #739CFF",
"&	c #003DCA",
"'	c #84A9FF",
"(	c #99B8FF",
")	c #C1D3FF",
"*	c white",
"+	c #ABABAB",
",	c #858585",
"       !        ",
"  #!!  #  !!#   ",
" #!$!  !  !%!#  ",
" !&$!  #  !%&!  ",
" !!$!  !  !%!!  ",
" !%!!  #  !!$!  ",
" !%%$!!!!!$$$!  ",
" !%'()**)('%$!  ",
" !%'()**)('%$!  ",
" !%'()**)('%$!  ",
" &$'()**)('%$&  ",
" +!'()**)('%!+  ",
"  +!&)**)%&!+   ",
"    ,&!!!&,     ",
"       #        ",
"       !        "};