/* XPM */ 
static char * surfgroup_xpm[] = {
"16 16 6 1",
" 	c None",
"!	c black",
"#	c #739CFF",
"$	c #BBCFFF",
"%	c #99B8FF",
"&	c #929292",
"!! !! !! !! !! !",
"               !",
"!     !!!!      ",
"!    !#$$%!    !",
"    !%$$$%%!   !",
"!  !%%%%!!!&    ",
"! !###%!       !",
"   !##!  !!!   !",
"!   !!  !%$%!   ",
"!       !#%%%! !",
"     &!!###!!& !",
"!    !%%%#!     ",
"!     !%%#!    !",
"       !!!     !",
"!               ",
"! !! !! !! !! !!"};