/* XPM */ 
static char * symbols_xpm[] = {
"16 16 9 1",
" 	c None",
"!	c black",
"#	c #739CFF",
"$	c #99B8FF",
"%	c white",
"&	c #4F84FF",
"'	c #929292",
"(	c #525252",
")	c #6694FF",
"    !!!!        ",
"   !#$$#!       ",
"  !#%%$$&! '(!!!",
"  !$%%$$&!!!!!!!",
"!!!$$$$)&!!('   ",
"!!!#$$))&!      ",
"   !&&&&!       ",
"    !!!!        ",
"         !!!!   ",
"        !#$$#!  ",
"       !#%%$$&!!",
"       !$%%$$&!!",
"    '(!!$$$$)&! ",
"!!!!!!!!#$$))&! ",
"!!!!('  !&&&&!  ",
"         !!!!   "};