/* XPM */ 
static char * tack_xpm[] = {
"16 16 15 1",
" 	c None",
"!	c black",
"#	c #0037B7",
"$	c #2466FF",
"%	c #739CFF",
"&	c #002375",
"'	c #99B8FF",
"(	c white",
")	c #BBCFFF",
"*	c #D2E0FF",
"+	c #929292",
",	c #ABABAB",
"-	c #B8B8B8",
".	c #4880FF",
"0	c #787878",
"                ",
"                ",
"                ",
"                ",
"       ###      ",
"$#$   #%%&      ",
"#'$###%((&      ",
"#(')))*))&++,-  ",
"#'.'''*)'&!!!!!0",
"#%$..%')'&++,-  ",
"#.#&&&.%%&      ",
"&&$   &..&      ",
"       &&&      ",
"                ",
"                ",
"                "};