/* XPM */
static char *TASCflow[]={
"32 30 69 2",
"Qt c None",
".# c #0000ff",
".K c #0010ff",
".D c #0020ff",
".y c #0030ff",
".W c #0040ff",
".t c #0050ff",
".i c #006fff",
".l c #007fff",
".X c #00bfff",
".S c #00cfff",
".E c #00dfff",
".J c #00efff",
".k c #00ffff",
".F c #0e0efc",
".I c #0efcfc",
".G c #1000ff",
".O c #1b1bfa",
".B c #2000ff",
".z c #2929f8",
".R c #29f8f8",
".w c #3000ff",
".Q c #30cfff",
".d c #3737f6",
".T c #4000ff",
".g c #4545f4",
".s c #45f4f4",
"#c c #5000ff",
".o c #52f1f1",
".m c #6060ef",
".9 c #60efef",
"#b c #6eeded",
".j c #7c7ceb",
".h c #7cebeb",
"#. c #7f00ff",
"#a c #7f7fff",
".1 c #8989e9",
".4 c #89e9e9",
".L c #8a0010",
".7 c #8f00ff",
".8 c #8f6fff",
".f c #9797e6",
".0 c #97e6e6",
".n c #9f00ff",
".V c #a20040",
".e c #a5a5e4",
".Z c #a90050",
".r c #af00ff",
".3 c #b1005f",
".c c #b2b2e2",
".x c #b2e2e2",
".5 c #b9006f",
".b c #c0c0e0",
".C c #c0e0e0",
"## c #c1007f",
".6 c #c8008f",
".a c #cecede",
".M c #cedede",
".2 c #d0009f",
".Y c #d800af",
".N c #df20ff",
".U c #e000bf",
".P c #e700cf",
".H c #ef00ff",
".p c #f445f4",
".u c #f637f6",
".v c #f829f8",
".A c #fa1bfa",
".q c #ff00ff",
"QtQtQtQtQtQtQtQtQtQt.#.#.#.#.#.#.#.#.#QtQtQtQtQtQtQt.a.#.#.#QtQt",
"QtQtQtQtQtQtQtQtQtQt.#.#.#.#.#.#.#.#.#QtQtQtQtQt.b.b.#.#.#.#.bQt",
"QtQtQtQtQtQtQtQtQtQt.#.#.#.#.#.#.#.#.#QtQtQt.c.c.#.#.#.#.#.#.#Qt",
"QtQtQtQtQtQtQtQtQtQt.#.#.#.#.#.#.#.#.#QtQtQt.d.d.#.#.#.#.#.#.#.e",
"QtQtQtQtQtQtQtQtQtQt.#.#.#.#.#.#.#.#.#QtQtQtQt.f.#.#.#.#.#.#.g.g",
"QtQtQtQtQtQtQtQtQtQt.#.#.#.#.#.#.#.#.#QtQtQtQt.#.#.#.#.#.#.#QtQt",
"QtQtQtQtQtQtQtQtQtQt.#.#.#.#.#.#.#.#.#QtQtQt.h.i.#.#.#.#.#.#.jQt",
"QtQtQtQtQtQtQtQtQtQt.#.#.#.#.#.#.#.#.#QtQtQt.k.k.l.l.l.l.#.#.#Qt",
"QtQtQtQtQtQtQtQtQtQt.#.#.#.#.#.#.#.#.#QtQtQt.k.k.k.k.k.k.#.#.#.m",
"QtQtQtQtQtQtQtQtQtQt.n.n.n.#.#.#.#.#.#QtQt.o.k.k.k.k.k.k.#.#.#.#",
"QtQtQtQtQtQtQtQt.p.p.q.q.q.r.r.r.r.#.#Qt.s.k.k.k.k.k.k.t.#.#.f.f",
"QtQtQtQtQtQt.u.u.q.q.q.q.q.q.q.q.q.#.#.d.k.k.k.k.k.k.k.#.#.#QtQt",
"QtQtQtQtQt.v.q.q.q.q.q.q.q.q.w.w.w.#.#.c.x.k.k.k.k.k.y.#.#.#.zQt",
"QtQtQtQt.A.q.q.q.q.q.q.q.B.B.#.#.#.#.#QtQt.C.D.D.D.k.E.E.E.#.#Qt",
"QtQtQt.F.G.G.G.G.q.q.q.q.#.#.H.#.H.H.#QtQt.I.J.J.J.k.k.k.K.#.#.F",
"Qt.a.#.#.#.#.#.#.#.G.L.L.q.q.q.q.q.q.qQt.M.k.k.k.k.k.k.J.#.#.I.F",
".b.#.#.#.#.#.#.#.B.q.q.q.q.q.q.q.N.q.q.b.E.k.k.k.k.k.k.#.#.OQtQt",
".z.z.#.#.#.#.#.w.q.q.q.q.q.q.P.q.Q.q.q.z.z.R.S.k.k.S.S.y.#QtQtQt",
"QtQt.d.#.#.#.T.q.q.q.q.q.U.q.V.q.q.q.qQtQtQt.W.X.k.W.W.k.WQtQtQt",
"QtQt.f.#.#.#.r.r.q.q.Y.q.Z.q.q.q.q.q.qQtQt.0.k.t.k.k.k.k.sQtQtQt",
"Qt.1.#.#.#.#.#.#.n.2.3.q.q.q.q.q.q.q.qQt.4.k.k.k.k.k.k.kQtQtQtQt",
".j.#.#.#.#.#.#.#.#.5.q.q.q.q.6.q.7.q.8.h.k.k.k.k.k.k.k.9QtQtQtQt",
".#.#.#.#.#.#.#.##..q.q.q##.q##.q#..q#a#b.k.k.k.k.k.k#bQtQtQtQtQt",
".j.j.j.#.#.#.#.7.q.q.q.5.6.q.q.q.q.q.qQt.h.h.h.k.k.hQtQtQtQtQtQt",
"QtQtQt.#.#.#.#.q.q.q.3.2.q.q.q.q.q.q.qQtQtQtQt.4.4QtQtQtQtQtQtQt",
"QtQt.g.#.#.#.##c.q#c.Y.q.q.q.q.q.q.q.qQtQtQtQtQtQtQtQtQtQtQtQtQt",
"Qt.d.#.#.#.#.#.#.T.e.q.q.q.q.q.q.q.q.qQtQtQtQtQtQtQtQtQtQtQtQtQt",
".z.#.#.#.#.#.#.#.cQt.q.q.q.q.q.q.q.q.qQtQtQtQtQtQtQtQtQtQtQtQtQt",
".b.#.#.#.#.#.#.bQtQt.q.q.q.q.q.q.q.q.qQtQtQtQtQtQtQtQtQtQtQtQtQt",
"Qt.a.a.a.#.#.#QtQtQt.q.q.q.q.q.q.q.q.qQtQtQtQtQtQtQtQtQtQtQtQtQt"};
