/* XPM */ 
static const unsigned char * termcontrol_xpm[] = {
"16 16 5 1",
" 	c None",
"!	c black",
"#	c #303030",
"$	c #FF0000",
"%	c #0000FF",
"                ",
" ##             ",
"  #         $$  ",
"  #   $     $$  ",
" ##$%$ $    $$  ",
"  #%$%  $   $$  ",
"  #   %  $  $$  ",
" ##    % %$ $$  ",
"  #     % %     ",
"  #         $$  ",
" ##         $$  ",
"  #             ",
"  #             ",
" ############## ",
"  #  #  #  #  # ",
"                "};