/* XPM */
static char * textColour_xpm[] = {
"16 16 4 1",
" 	c None",
".	c #000080",
"+	c #808080",
"@	c #000000",
"       .        ",
"      +.+       ",
"      ...       ",
"     +...+      ",
"     .. ..      ",
"    +.  ..+     ",
"    .......     ",
"   +.    ..+    ",
"   ..    +..    ",
"  +.     +..+   ",
" ....   ......  ",
"                ",
"@@@@@@@@@@@@@@@@",
"@@@@@@@@@@@@@@@@",
"@@@@@@@@@@@@@@@@",
"@@@@@@@@@@@@@@@@"};
