/* XPM */
static char * textfile_xpm[] = {
"16 16 88 1",
" 	c None",
".	c #B1C1D7",
"+	c #ADBDD3",
"@	c #A8B8CE",
"#	c #A3B2C8",
"$	c #CDD5E1",
"%	c #FEFEFE",
"&	c #FDFEFE",
"*	c #9BAABF",
"=	c #354963",
"-	c #A7B1C1",
";	c #AEBED4",
">	c #FDFDFE",
",	c #FAFBFD",
"'	c #94A3B8",
")	c #B9C4D3",
"!	c #A6B2C1",
"~	c #AABAD0",
"{	c #FCFDFE",
"]	c #FAFAFD",
"^	c #F7F8FC",
"/	c #92A1B6",
"(	c #364A64",
"_	c #A6B5CB",
":	c #326AD7",
"<	c #3066CF",
"[	c #2D60C3",
"}	c #2A59B6",
"|	c #2852A7",
"1	c #F2F5FB",
"2	c #EEF3FA",
"3	c #A2B1C7",
"4	c #FBFCFE",
"5	c #F8FAFC",
"6	c #F5F8FC",
"7	c #F1F4FB",
"8	c #EDF1FA",
"9	c #E9EEFA",
"0	c #E5EBF8",
"a	c #9DADC2",
"b	c #FDFDFD",
"c	c #2E60C3",
"d	c #2B59B6",
"e	c #2752A6",
"f	c #254B98",
"g	c #22458D",
"h	c #DEE7F7",
"i	c #99A8BD",
"j	c #F3F6FC",
"k	c #EFF3FB",
"l	c #ECF0FA",
"m	c #E7EDF9",
"n	c #E3E9F7",
"o	c #DEE6F6",
"p	c #D9E1F5",
"q	c #95A4B9",
"r	c #244B99",
"s	c #D2DEF4",
"t	c #E5EAF8",
"u	c #E0E7F8",
"v	c #DAE4F6",
"w	c #D6E0F5",
"x	c #D2DDF3",
"y	c #CCD9F2",
"z	c #ECF1FA",
"A	c #3165CF",
"B	c #2851A6",
"C	c #254B99",
"D	c #C6D4F2",
"E	c #E7EDF8",
"F	c #E2E9F7",
"G	c #DDE5F7",
"H	c #D8E2F6",
"I	c #D4DEF4",
"J	c #CFDAF4",
"K	c #CAD7F2",
"L	c #C5D4F1",
"M	c #C1D0F0",
"N	c #E1E8F8",
"O	c #DCE5F7",
"P	c #D7E1F6",
"Q	c #D2DDF4",
"R	c #CDDAF3",
"S	c #C9D6F2",
"T	c #C4D3F1",
"U	c #C0CFF0",
"V	c #BBCCEF",
"W	c #DBE4F6",
"                ",
".......++@@#$   ",
".%%%%%%%%&&*=-  ",
";%%%%%%>>,,')=! ",
"~%%%%{{]]^^/((( ",
"_%:<[}}||112//( ",
"3%%4566778890/= ",
"ab:<cddeeffgh/= ",
"i,^jkllmmnnop/= ",
"q6:<[dd||rrgs/= ",
"/189tuuvvwwxy/= ",
"/z:A[ddBBCCgD/= ",
"/EFGHIIJJKKLM/= ",
"/NOPQRRSSTTUV/= ",
"/W////////////= ",
"/============== "};
