#define bc_family_width 16
#define bc_family_height 16
static unsigned char bc_family_bits[] = {
   0x00, 0x00, 0xfe, 0x3f, 0x00, 0x00, 0xfe, 0x03, 0x00, 0x00, 0xfe, 0x1f,
   0x00, 0x00, 0x3e, 0x00, 0x00, 0x00, 0x3e, 0x00, 0x00, 0x00, 0xfe, 0x3f,
   0x00, 0x00, 0xfe, 0x0f, 0x00, 0x00, 0x00, 0x00};
