/* XPM */
static char *TG1[]={
"20 20 4 1",
". c None",
"a c #000000",
"# c #008080",
"b c #2a8bee",
".#..#..#.abba#..#..#",
"########abbbba######",
".#..#..abbbbbba.#..#",
".#..#aaabbbbbbba#..#",
"####abbaabbbbbba####",
".#.abbbbba#bbbbba..#",
".#.abbbbbba.bbbbba.#",
"###abbbbbbba##bbba##",
".aaabbbbbbbba#bbbba#",
"abbbaa.#bbbbba.bbba#",
"abbbbbaa##bbbba#bba#",
"abbbbbbba.#bbbbabbba",
"abbbbbbbbaa.bbba#bba",
"abbbbbbbbbba#bbbaba#",
".#..#..bbbbba#bba#.#",
".#..#..#.bbbbabbba.#",
"###########bbbaba###",
".#..#..#..#.bbba#..#",
".#..#..#..#..bba#..#",
"####################"};
