/* XPM */
static char * CFXTG_xpm[] = {
"16 16 24 1",
" 	c None",
".	c #ADBEE7",
"+	c #CDD8EF",
"@	c #000059",
"#	c #C3CDEC",
"$	c #E2E7F3",
"%	c #FFFFFF",
"&	c #A0B1E2",
"*	c #CDD7EE",
"=	c #B6C1E4",
"-	c #96AADB",
";	c #889EDC",
">	c #7992DA",
",	c #6989D9",
"'	c #6781D4",
")	c #D2D2E4",
"!	c #6580CF",
"~	c #6380CF",
"{	c #6688D6",
"]	c #8299DC",
"^	c #889FDD",
"/	c #8AA2DE",
"(	c #8EA5DE",
"_	c #8CA5DE",
"     .+@@@@     ",
"   @#$@%%%%@&   ",
"  @%@@%@@%@*=-  ",
" @%%@@%@%@@@@@; ",
" @%@%@@%%@@%%%@ ",
">@%@@%%%%%%@@@%@",
",'@%%%)@@)%@%%%@",
"'!!@@%@@@@%%@@@@",
"@@@@%%@@@@%@@~!'",
"@%%%@%)@@)%%%@{,",
"@%@@@%%%%%%@@%@>",
" @%%%@@%%@@%@%@ ",
" ]@@@@@%@%@@%%@ ",
"  ^/(@%@@%@@%@  ",
"   _@%%%%@((@   ",
"     @@@@((     "};
