/* XPM */ 
static char * timestep_xpm[] = {
"16 16 16 1",
" 	c None",
"!	c black",
"#	c #B8B8B8",
"$	c #858585",
"%	c #454545",
"&	c #2E2D1D",
"'	c #2C2C2C",
"(	c #716C48",
")	c #AFAC83",
"*	c #D8D6B6",
"+	c #FFFEEA",
",	c #F7F7E6",
"-	c #EDECDE",
".	c #242317",
"0	c #DBDAC8",
"1	c #C1C0A2",
"    #$%&&%$#    ",
"   $'&&&&&&'$   ",
"  $&&()**)(&&$  ",
" $&&)++!)++)&&$ ",
"#'&)+++!)+++)&'#",
"$&(++++!)+,,-(.$",
"%&)++++!),,,-).%",
"&&*++++!),---*..",
"&&*++++!!!!--*..",
"%&)++++))))--).%",
"$&(++++,----0(.$",
"#'.)0,,----0).'#",
" $..)000000)..$ ",
"  $..()11)(..$  ",
"   $'......'$   ",
"    #$%..%$#    "};