/* XPM */ 
static char * toend_xpm[] = {
"22 16 32 1",
" 	c None",
"!	c black",
"#	c #8B8B8B",
"$	c #454545",
"%	c #D4D4D4",
"&	c #FBFBFB",
"'	c white",
"(	c #DADADA",
")	c #F4F4F4",
"*	c #393939",
"+	c #EFEFEF",
",	c #ECECEC",
"-	c #DBDBDB",
".	c #E6E6E6",
"0	c #9A9A9A",
"1	c #565656",
"2	c #DCDCDC",
"3	c #E0E0E0",
"4	c #DDDDDD",
"5	c #DEDEDE",
"6	c #D5D5D5",
"7	c #D8D8D8",
"8	c #CFCFCF",
"9	c #C9C9C9",
":	c #D1D1D1",
";	c #C3C3C3",
"<	c #CECECE",
"=	c #BEBEBE",
">	c #CACACA",
"?	c #B8B8B8",
"@	c #B2B2B2",
"A	c #AAAAAA",
" #$$$$$$$$$$$$$$$$$$# ",
"##%&''''''''''''''&%$#",
"$())))))))))))))))))(*",
"$+,,,,,,,,,,,,,,,,,,+*",
"$-....!!0.....1!....-*",
"$23333!!!!03331!'3332*",
"$4((((!!!!!!001!'(((4*",
"$56666!!!!!!!!!!'6665*",
"$78888!!!!!!081!'8887*",
"$79999!!!!9'''1!'9997*",
"$:;;;;!!;'';;;1!';;;:*",
"$<===='''======''===<*",
"$>??????????????????>*",
"$0@@@@@@@@@@@@@@@@@@0*",
"A$000000000000000000*A",
" A******************A "};