/* XPM */
static char *togglelayout[]={
"16 16 5 1",
". c None",
"# c #000000",
"c c #303030",
"b c #ff0000",
"a c #ffffff",
".#####..#####...",
".#....#.#....#..",
".#.....########.",
".#.#aaabaaaaa.#.",
".#.#abbabaaaa.#.",
".#.#bbaaabaaa.#.",
".#.#aaaaaabba.#.",
".#.##########.#.",
".#............#.",
".##############.",
".#aaaaaaaaaaaa#.",
".#accaaccccacc#.",
".#aaaaaaaaaaaa#.",
".#acccccaacccc#.",
".#aaaaaaaaaaaa#.",
".##############."};
