/* XPM */
static char * transform_xpm[] = {
"16 16 4 1",
" 	c None",
".	c #000000",
"+	c #4C29AD",
"@	c #99B8FF",
"    .           ",
"   ..           ",
"  .+........    ",
" .+@@@@@@@@.    ",
" .+@@@@@@@@.    ",
"  .+........    ",
"   ..           ",
"    .      .    ",
"           ..   ",
"    ........+.  ",
"    .@@@@@@@@+. ",
"    .@@@@@@@@+. ",
"    ........+.  ",
"           ..   ",
"           .    ",
"                "};
