/* XPM */
static char * transformations_xpm[] = {
"16 16 12 1",
" 	c None",
".	c #9C9C00",
"+	c #000000",
"@	c #F7F7F7",
"#	c #FFFFCE",
"$	c #FFFF9C",
"%	c #CECE63",
"*	c #FFCE9C",
"-      c black",
";      c #C4D3FF",
"<      c #AAC4FF",
",      c #84A9FF",
"  .....+        ",
" .@##$$.+       ",
".%%%%%%%......  ",
".###########$%+ ",
".#$-$$$-;;--$%+ ",
".#$$$$$-;<<-$%+ ",
".#$$$-$$--<,*%+ ",
".#$$$$$$$-,,$%+ ",
".#$--$$-$$--*%+ ",
".#$;;-$*$*$*$%+ ",
".#$;<--$*-*$*%+ ",
".#$-<<,-$*$**%+ ",
".#*--,,-*$*-*%+ ",
".%%%%%%%%%%%%%+ ",
" ++++++++++++++ ",
"                "};
