/* XPM */
static char * trashD_xpm[] = {
"16 16 3 1",
" 	c None",
".	c #C0C0C0",
"+	c #9E9E9E",
"                ",
"  .+.         . ",
"  ++++      .+  ",
"  .++++    ++   ",
"    .+++ .++    ",
"      +++++     ",
"       +++      ",
"      +++++     ",
"     +++ +++    ",
"    .++   .+.   ",
"   .++.    .+.  ",
"  .+++      .+  ",
"  +++.       +. ",
"  +++         . ",
"   ..           ",
"                "};
