/* XPM */
static char * turbogrid_xpm[] = {
"32 32 3 1",
" 	c None",
".	c #2B52C6",
"+	c #FFFFFF",
"................................",
"................................",
"................................",
"................................",
"................................",
"...........++++++...............",
"...........++++++...............",
".........++..++.................",
".........++..++.................",
".........++..++....++++++.......",
".........++..++....++++++.......",
".........++..++..++......++.....",
".........++..++..++......++.....",
"...........++++++++++++++++.....",
"...........++++++++++++++++.....",
".....++......++++++......++.....",
".....++......++++++......++.....",
".....++++++++++++++++...........",
".....++++++++++++++++...........",
".....++......++..++..++.........",
".....++......++..++..++.........",
".......++++++....++..++.........",
".......++++++....++..++.........",
".................++..++.........",
".................++..++.........",
"...............++++++...........",
"...............++++++...........",
"................................",
"................................",
"................................",
"................................",
"................................"};
