/* XPM */
static char * turbocompUninit_xpm[] = {
"16 16 3 1",
" 	c None",
".	c #212121",
"+	c #B2B2B2",
"   ...          ",
"  .+.           ",
" .++.           ",
" .++.           ",
"  .+.    ..     ",
"   ......++.    ",
"    ....++++.   ",
"    .........   ",
"    ....    .   ",
"   .+.          ",
"  .++.          ",
"..+++.          ",
" ....           ",
"                ",
"                ",
"                "};
