/* XPM */
static char * turbocompError_xpm[] = {
"16 16 4 1",
" 	c None",
".	c #7C0000",
"+	c #E29898",
"@	c #B20000",
"   ...          ",
"  .+.           ",
" .++.           ",
" .++.           ",
"  .+.    ..     ",
"   ......++.    ",
"    ....++++.   ",
"    .........   ",
"    ....    . @@",
"   .+.        @@",
"  .++.        @@",
"..+++.        @@",
" ....         @@",
"                ",
"              @@",
"              @@"};
