/* XPM */ 
static char * turbomacro_xpm[] = {
"16 16 11 1",
" 	c None",
"!	c black",
"#	c #929292",
"$	c #555237",
"%	c #FFFEEA",
"&	c #DAD8C5",
"'	c #312F20",
"(	c #9B9764",
")	c #C1BE9F",
"*	c #02EA25",
"+	c #AFAB83",
"    #$$$$$$$$$$#",
"    $%%%%%%%%%&'",
"    %%((((((((&'",
" !!!%%))))))))&'",
"!*! %%%&))))))&'",
"!*! %!!%%%%%%%&'",
" !!!!**!%)(%)(&'",
"  !!!!!!%((%((&'",
"  !!!%%!%%%%%%&'",
" !*!%%%%%)(%)(&'",
" !*!%%((%((%((&'",
"!!! %%%%%%%%%%&'",
"    $%)(%)(%)(&'",
"    $%((%((%((&'",
"    $&&&&&&&&&+'",
"    #''''''''''#"};