/* XPM */ 
static char * turboline_xpm[] = {
"16 16 5 1",
" 	c None",
"!	c black",
"#	c #02EA25",
"$	c #858585",
"%	c #000B3C",
" !!!            ",
"!#!             ",
"!#!  !!         ",
" !!!!##!        ",
"  !!!!!!      $ ",
"  !!!  !     $%%",
" !#!        $%%$",
" !#!       $%%$ ",
"!!!       $%%$  ",
"         $%%$   ",
"        $%%$    ",
"       $%%$     ",
"      $%%$      ",
"     $%%$       ",
"    $%%$        ",
"     $$         "};