/* XPM */
static char * turboplotter_xpm[] = {
"16 16 5 1",
" 	c None",
".	c #000000",
"+	c #02EA25",
"@	c #BB0000",
"#	c #007700",
" ...            ",
".+.             ",
".+.  ..         ",
" ....++.        ",
"  ......        ",
"  ...  .        ",
" .+.  .         ",
" .+. ...  @@@   ",
"...   .  @   @  ",
"      . @     @ ",
"      .   ###   ",
"      .  #   #  ",
"      . #       ",
"      .       . ",
"      ..........",
"              . "};
