/* XPM */
static char * turbocompInit_xpm[] = {
"16 16 4 1",
" 	c None",
".	c #000000",
"+	c #02EA25",
"@	c #0009C6",
"   ...          ",
"  .+.           ",
" .++.           ",
" .++.           ",
"  .+.    ..     ",
"   ......++.    ",
"    ....++++.   ",
"    .........   ",
"    ....        ",
"   .+.          ",
"  .++.        @@",
"..+++.       @@@",
" ....    @@ @@@ ",
"         @@@@@  ",
"          @@@   ",
"           @    "};
