/* XPM */ 
static char * turbomacrogrey_xpm[] = {
"16 16 9 1",
" 	c None",
"!	c black",
"#	c #C5C5C5",
"$	c #858585",
"%	c #F8F8F8",
"&	c #DEDEDE",
"'	c #ABABAB",
"(	c #5E5E5E",
")	c #EBEBEB",
"    #$$$$$$$$$$#",
"    $%%%%%%%%%&$",
"    %%''''''''&$",
" (((%%########&$",
"(#( %%%)######&$",
"(#( %((%%%%%%%&$",
" ((((##(%#'%#'&$",
"  ((((((%''%''&$",
"  (((%%(%%%%%%&$",
" (#(%%%%%#'%#'&$",
" (#(%%''%''%''&$",
"((( %%%%%%%%%%&$",
"    $%#'%#'%#'&$",
"    $%''%''%''&$",
"    $&&&&&&&&&'$",
"    #$$$$$$$$$$#"};