#define two_windows_width 16
#define two_windows_height 16
static unsigned char two_windows_bits[] = {
   0x00, 0x00, 0xfe, 0x7f, 0xfe, 0x7f, 0x86, 0x61, 0x86, 0x61, 0x86, 0x61,
   0x86, 0x61, 0x86, 0x61, 0x86, 0x61, 0x86, 0x61, 0x86, 0x61, 0x86, 0x61,
   0x86, 0x61, 0xfe, 0x7f, 0xfe, 0x7f, 0x00, 0x00};
