/* XPM */
static char * undo_xpm[] = {
"16 16 13 1",
" 	c None",
".	c #868686",
"+	c #9999CC",
"@	c #A0A0A4",
"#	c #6699CC",
"$	c #6666CC",
"%	c #3366CC",
"&	c #336699",
"*	c #666699",
"=	c #6699FF",
"-	c #333366",
";	c #336666",
">	c #5F5F5F",
"                ",
"                ",
"       .+++@    ",
"      #+####+   ",
"  #  $#$%%&%##  ",
"  ##*##%%&&&##  ",
"  ##=#%%&  &%#  ",
"  ##==-    %%#  ",
"  $%==#    %%#  ",
"  %%%%%&   %#*  ",
"           %#   ",
"          &=&   ",
"         ;=%    ",
"        >=%     ",
"        *&      ",
"                "};
