/* XPM */
static char * up_xpm[] = {
"16 16 23 1",
" 	c None",
".	c #B3B3B3",
"+	c #6C6C6C",
"@	c #1B4BA2",
"#	c #134392",
"$	c #616161",
"%	c #2353B4",
"&	c #335BC0",
"*	c #5C7BBB",
"=	c #7286D1",
"-	c #4364C4",
";	c #7F95D4",
">	c #91A7D8",
",	c #9CAEDB",
"'	c #6C83C7",
")	c #889ED7",
"!	c #CDD5E8",
"~	c #FFFFFF",
"{	c #0C3F85",
"]	c #5D78BE",
"^	c #A8B9DD",
"/	c #7A91D3",
"(	c #6A85C1",
"    .+@@##+.    ",
"   $%&*==*&#$   ",
"  $-=;>,>>;'&$  ",
" $-;),,!!>>;'&$ ",
".%=>,,!~~!);;'#.",
"+-;,,!~~~~!;;=&+",
"@=>>!~!~~!~!;=-{",
"@=)!~!)~~)!~!=]{",
"@=;^!))~~))!^=]{",
"#=/;;;;~~;//=']{",
"+&=//;;~~//==*&+",
".#('===~~==(]]{.",
" $&]](''''']]&$ ",
"  $&]]]]]]**&$  ",
"   $#&----&{$   ",
"    .+{{{{+.    "};
