/* XPM */
static char * variables_xpm[] = {
"16 16 19 1",
" 	c None",
".	c #9C9C00",
"+	c #000000",
"@	c #F7F7F7",
"#	c #FFFFCE",
"$	c #FFFF9C",
"%	c #CECE63",
"&	c #161D30",
"*	c #345EC2",
"=	c #81A7FE",
"-	c #738FCF",
";	c #91B2FF",
">	c #FFCE9C",
",	c #8FB1FF",
"'	c #86A9FB",
")	c #7E9BDF",
"!	c #86A3E7",
"~	c #8DAFFF",
"{	c #3666D5",
"  .....+        ",
" .@##$$.+       ",
".%%%%%%%......  ",
".###########$%+ ",
".#$$&&&$$$&+$%+ ",
".#$&&*=&$&+$$%+ ",
".#$&$&-;++$$>%+ ",
".#$$$$&,&$$>$%+ ",
".#$$$$&'&$>$>%+ ",
".#$$$++)!&$&$%+ ",
".#$$+&>&~{&&>%+ ",
".#$+&>$>&&&>>%+ ",
".#>$>$>$>$>>>%+ ",
".%%%%%%%%%%%%%+ ",
" ++++++++++++++ ",
"                "};
