/* XPM */ 
static char * variable_xpm[] = {
"16 16 7 1",
" 	c None",
"!	c black",
"#	c #739CFF",
"$	c #99B8FF",
"%	c #004BFB",
"&	c #858585",
"'	c #427AFF",
"                ",
"                ",
"                ",
"    !!!    !!   ",
"   !#$$!  !!!   ",
"  !!!%$#!!!&    ",
"  !  !$$!!&     ",
"     !'$%!      ",
"     !%$'!      ",
"    &!!$$!  !   ",
"   &!!!#$%!!!   ",
"  !!!  !$$#!    ",
"  !!    !!!     ",
"                ",
"                ",
"                "};