/* XPM */ 
static char * vector_xpm[] = {
"16 16 6 1",
" 	c None",
"!	c black",
"#	c #4079FF",
"$	c #C4D6FF",
"%	c #99B8FF",
"&	c #929292",
"            !   ",
"            !!  ",
"        !!!!!#! ",
"        !$$%%%#!",
"    !   !!!!!#!&",
"    !!      !!& ",
"!!!!!#!     !&  ",
"!$$%%%#!        ",
"!!!!!#!&        ",
"    !!&    !    ",
"    !&     !!   ",
"       !!!!!#!  ",
"       !$$%%%#! ",
"       !!!!!#!& ",
"           !!&  ",
"           !&   "};