/* XPM */
static char * viewer_xpm[] = {
"16 16 6 1",
" 	c None",
".	c None",
"+	c #000000",
"@	c #FFFEEA",
"#	c #AFAC83",
"$	c #E8E7D0",
"................",
"........++++++..",
".......+@@@@++..",
"......++++++#+..",
"......+$$$$+#+..",
"......+$$$$+#+..",
"......+$$$$+#+..",
"......+$$$$++...",
"...+..++++++....",
"..+++...........",
"...+..++........",
"...+..++........",
"...+.+..........",
"...++....+......",
"...++++++++.....",
".........+......"};

