/* XPM */
static char * viewerhelp_xpm[] = {
"16 16 6 1",
" 	c None",
".	c None",
"+	c #000000",
"@	c #2398FF",
"#	c #FFFFFF",
"$	c #9B9B9B",
"................",
"..++++..........",
".++++++.........",
".++..++.........",
"....+++.........",
"...+++..........",
"...++..++++++++.",
"...++..+@@@@@@+.",
".......++++++++.",
"...++..+######+.",
"...++..+#$$$$#+.",
".......+######+.",
".......+#$$$$#+.",
".......+######+.",
".......++++++++.",
"................"};
