/* XPM */
static char * vortexSurface_xpm[] = {
"16 16 9 1",
" 	c None",
".	c #000000",
"+	c #4C82FF",
"@	c #6493FF",
"#	c #739CFF",
"$	c #99B8FF",
"%	c #B0C8FF",
"&	c #C1D3FF",
"*	c #787878",
"                ",
"    ........    ",
"  ..+@##@@++..  ",
" .++$$$$$#@+++. ",
"  .+@%%%$$#@+.  ",
"   .+%&%$#@+.*  ",
"    .$&%$#++.   ",
"    .$&%$@+.    ",
"     .&%#+.     ",
"     .%&#.*     ",
"     .$&#.      ",
"      .&#.      ",
"      .$#+.     ",
"       .$#.     ",
"        .+$.    ",
"         *...   "};
