#define vsup.xbm_width 12
#define vsup.xbm_height 7
static unsigned char vsup.xbm_bits[] = {
   0x00, 0x00, 0x60, 0x00, 0xf0, 0x00, 0xf8, 0x01, 0xfc, 0x03, 0xfe, 0x07,
   0x00, 0x00};
