/* XPM */
static char * wb_fit_xpm[] = {
"16 16 7 1",
" 	c None",
".	c None",
"+	c #666666",
"@	c #000000",
"#	c #99B8FF",
"$	c #739CFF",
"%	c #3370FF",
"....+@@@+.......",
"..+@.....@+.....",
".++.......++....",
".@...@@@...@....",
"+..@@###@@..+...",
"@..@$@@@%@..@...",
"@..@$$@%%@..@...",
"@..@$$@%%@..@...",
"+..@@$@%@@..+...",
".@...@@@...@....",
".++.......+@....",
"..+@.....@@@@...",
"....+@@@+..@@@..",
"............@@@.",
".............@@@",
"..............@@"};
