/* XPM */
static char * model_xpm[] = {
"16 16 12 1",
" 	c None",
".	c #9C9C00",
"+	c #000000",
"@	c #F7F7F7",
"#	c #FFFFCE",
"$	c #FFFF9C",
"%	c #CECE63",
"&	c #0C0C0C",
"*	c #99B8FF",
"=	c #FFCE9C",
"-	c #739CFF",
";	c #4C82FF",
"  .....+        ",
" .@##$$.+       ",
".%%%%%%%......  ",
".###########$%+ ",
".#$$$$&&&$$$$%+ ",
".#$$&&***&&=$%+ ",
".#&&*******&+%+ ",
".#&-&&***&&;+%+ ",
".#&---&&&;;;+%+ ",
".#&----&;;;;+%+ ",
".#&&---&;;;&&%+ ",
".#$$&&-&;&&==%+ ",
".#=$=$&&&$===%+ ",
".%%%%%%%%%%%%%+ ",
" ++++++++++++++ ",
"                "};
