/* XPM */
static char * wb_singleSelect_xpm[] = {
"16 16 6 1",
" 	c None",
".	c None",
"+	c #990000",
"@	c #000000",
"#	c #FFFFFF",
"$	c #808080",
"......+++++.....",
"......+++++.....",
"......++@@+.....",
"......++@#@.....",
"......++@##@....",
"........@###@...",
"........@####@..",
"........@#####@.",
"........@######@",
"........@####@@@",
"........@##@#@..",
"........@#@@##@.",
"........@@..@#@.",
"............@##@",
".............@#@",
".............$@."};
