/* XPM */
static char * wb_zoom_xpm[] = {
"16 16 4 1",
" 	c None",
".	c None",
"+	c #666666",
"@	c #000000",
"....+@@@+.......",
"..+@.....@+.....",
".++.......++....",
".@....@....@....",
"+....@@@....+...",
"@...@@@@@...@...",
"@...........@...",
"@...@@@@@...@...",
"+....@@@....+...",
".@....@....@....",
".++.......+@....",
"..+@.....@@@@...",
"....+@@@+..@@@..",
"............@@@.",
".............@@@",
"..............@@"};
