/* XPM */
static char * wireframe_xpm[] = {
"16 16 4 1",
" 	c None",
".	c None",   
"+	c #225566",
"@	c #66AABB",
"................",
"................",
".....++++++++++.",
"...@++......@++.",
"..++.+.....++.+.",
".++++++++++@..+.",
".+...+....+...+.",
".+...+....+...+.",
".+...+....+...+.",
".+...+....+...+.",
".+...++++++++++.",
".+.@+.....+..+..",
".+++......+++...",
".++++++++++@....",
"................",
"................"};
