/* XPM */
static char * wraptext_xpm[] = {
"16 16 4 1",
" 	c None",
".	c #000000",
"+	c #C0C0C0",
"@	c #000080",
"                ",
"                ",
"      .         ",
" ...+ .         ",
"    . ....+     ",
" +... .   . @@@ ",
" .  . .   .   @ ",
" .... ....+   @ ",
"            @ @ ",
"          . @@  ",
"          . @@@ ",
" +... +....     ",
" .    .   .     ",
" .    .   .     ",
" +... +....     ",
"                "};
