/* XPM */
static char * xmlfile_xpm[] = {
"16 16 112 2",
"  	c None",
". 	c #B1C1D7",
"+ 	c #ADBDD3",
"@ 	c #A8B8CE",
"# 	c #A3B2C8",
"$ 	c #CDD5E1",
"% 	c #FEFEFE",
"& 	c #FDFEFE",
"* 	c #9BAABF",
"= 	c #354963",
"- 	c #A7B1C1",
"; 	c #AEBED4",
"> 	c #FDFDFE",
", 	c #FAFBFD",
"' 	c #FAFAFC",
") 	c #94A3B8",
"! 	c #B9C4D3",
"~ 	c #A6B2C1",
"{ 	c #AABAD0",
"] 	c #FBFCFE",
"^ 	c #FBFBFC",
"/ 	c #F8FAFC",
"( 	c #F7F7FB",
"_ 	c #F6F7FB",
": 	c #F4F5FA",
"< 	c #F7F8FC",
"[ 	c #92A1B6",
"} 	c #364A64",
"| 	c #A6B5CB",
"1 	c #BEBEC7",
"2 	c #F8F9FB",
"3 	c #E3ECF1",
"4 	c #95C4BA",
"5 	c #6AA8BD",
"6 	c #89B0E0",
"7 	c #D1DCE9",
"8 	c #EEF1F9",
"9 	c #A6A6B3",
"0 	c #A2B1C7",
"a 	c #EBF0F4",
"b 	c #4FC46B",
"c 	c #BCEFB7",
"d 	c #8BD6ED",
"e 	c #53AFE9",
"f 	c #73B29A",
"g 	c #D1DCE4",
"h 	c #9DADC2",
"i 	c #DDDFE6",
"j 	c #A3BCCA",
"k 	c #17847A",
"l 	c #82C1D4",
"m 	c #5FCFFD",
"n 	c #47A4E1",
"o 	c #5FE137",
"p 	c #84BBA4",
"q 	c #CFD4E1",
"r 	c #838394",
"s 	c #99A8BD",
"t 	c #BABBC4",
"u 	c #D5D6E0",
"v 	c #95ACCB",
"w 	c #174BBA",
"x 	c #2597AC",
"y 	c #389DCC",
"z 	c #356CDA",
"A 	c #25956F",
"B 	c #729EB0",
"C 	c #C9CDDD",
"D 	c #95A4B9",
"E 	c #F4F7FC",
"F 	c #DBE0F2",
"G 	c #2A52A1",
"H 	c #10C344",
"I 	c #2FE261",
"J 	c #2E999D",
"K 	c #457CDE",
"L 	c #BBC8E8",
"M 	c #F2F5FB",
"N 	c #EDF1FA",
"O 	c #E0E6F5",
"P 	c #BEC4E7",
"Q 	c #3E8280",
"R 	c #0BA63E",
"S 	c #41A190",
"T 	c #AFC0E4",
"U 	c #D3DDF3",
"V 	c #CCD9F2",
"W 	c #ECF1FA",
"X 	c #E2E8F7",
"Y 	c #DAE3F6",
"Z 	c #D6DFF4",
"` 	c #D1DCF4",
" .	c #CCD8F2",
"..	c #CAD7F2",
"+.	c #C5D4F1",
"@.	c #C6D4F2",
"#.	c #E7EDF8",
"$.	c #E2E9F7",
"%.	c #DDE5F7",
"&.	c #D7E1F6",
"*.	c #D3DDF4",
"=.	c #CED9F3",
"-.	c #C1D0F0",
";.	c #E1E8F8",
">.	c #DCE5F7",
",.	c #D2DDF4",
"'.	c #CDDAF3",
").	c #C9D6F2",
"!.	c #C4D3F1",
"~.	c #C0CFF0",
"{.	c #BBCCEF",
"].	c #DBE4F6",
"                                ",
". . . . . . . + + @ @ # $       ",
". % % % % % % % % & & * = -     ",
"; % % % > , , ' , , , ) ! = ~   ",
"{ % % ] ^ / / ( _ : < [ } } }   ",
"| % > 1 2 3 4 5 6 7 8 9 [ [ }   ",
"0 % 1 1 a b c d e f g 9 9 [ =   ",
"h 1 1 i j k l m n o p q 9 r =   ",
"s 1 t u v w x y z A B C 9 r =   ",
"D E 1 1 F G H I J K L 9 9 [ =   ",
"[ M N 1 O P Q R S T U 9 V [ =   ",
"[ W W X Y Z Z ` `  ...+.@.[ =   ",
"[ #.$.%.&.*.*.=.=.....+.-.[ =   ",
"[ ;.>.&.,.'.'.).).!.!.~.{.[ =   ",
"[ ].[ [ [ [ [ [ [ [ [ [ [ [ =   ",
"[ = = = = = = = = = = = = = =   "};
